<?xml version="1.0" encoding="utf-8"?>
<!-- Generator: Adobe Illustrator 19.0.0, SVG Export Plug-In . SVG Version: 6.00 Build 0)  -->
<svg version="1.1" id="Слой_1" xmlns="http://www.w3.org/2000/svg" xmlns:xlink="http://www.w3.org/1999/xlink" x="0px" y="0px"
	 width="30px" height="935.7px" viewBox="0 0 30 935.7" style="enable-background:new 0 0 30 935.7;" xml:space="preserve">
<style type="text/css">
	.st0{fill:#EFEEEE;}
	.st1{fill:#FDFEFF;}
</style>
<g id="XMLID_3_">
	<path id="XMLID_620_" class="st0" d="M24.8,808.5c0.1,0,0.2-0.1,0.3-0.2l-0.2-0.2c-0.1,0.1-0.2,0.1-0.3,0.2L24.8,808.5z"/>
	<path id="XMLID_594_" class="st0" d="M27.4,808.9l0.1-0.2c0-0.1-0.1-0.2-0.2-0.3l-0.2,0.2C27.3,808.7,27.4,808.8,27.4,808.9z"/>
	<path id="XMLID_593_" class="st0" d="M25.7,812.3l0.1-0.2C25.8,812.1,25.7,812.1,25.7,812.3z"/>
	<path id="XMLID_592_" class="st0" d="M22.2,783.6c0-0.1,0.1-0.2,0.1-0.3l-0.2-0.2c-0.1,0.1-0.1,0.2-0.2,0.3L22.2,783.6z"/>
	<path id="XMLID_591_" class="st0" d="M21.7,782.7c0.1-0.1,0.1-0.2,0.2-0.3l-0.2-0.2c0,0.1-0.1,0.2-0.1,0.3L21.7,782.7z"/>
	<path id="XMLID_590_" class="st0" d="M23.4,808.1l0.2-0.2c-0.1-0.1-0.1-0.2-0.2-0.3l-0.1,0.2C23.3,807.9,23.3,808,23.4,808.1z"/>
	<path id="XMLID_589_" class="st0" d="M29.8,775.4l0.2-0.2c-0.1-0.1-0.1-0.2-0.2-0.3l-0.1,0.2C29.6,775.2,29.7,775.3,29.8,775.4z"/>
	<path id="XMLID_588_" class="st0" d="M22.3,817c0.2-0.3,0.4-0.6,0.6-0.9c-0.1,0-0.3-0.1-0.6-0.2c-0.1,0.2-0.2,0.5-0.2,0.7
		S22.2,816.9,22.3,817z"/>
	<path id="XMLID_587_" class="st0" d="M24.4,814.6l0.2,0.2c0.5,0,1.1,0,1.4-0.5v-0.4c-0.1,0-0.2-0.1-0.3-0.1
		c-0.4,0.2-0.8,0.3-1.2,0.5C24.5,814.3,24.4,814.5,24.4,814.6z"/>
	<path id="XMLID_586_" class="st0" d="M20.6,812.7c0,0.1-0.1,0.2-0.1,0.3l0.2,0.2c0.1-0.1,0.1-0.2,0.2-0.3L20.6,812.7z"/>
	<path id="XMLID_585_" class="st0" d="M24.7,812.2c0-0.1-0.1-0.1-0.2-0.1c-0.2-0.1-0.5,0.2-0.7,0.3L24,813c0.3,0,0.5,0,0.9-0.3
		c-0.1-0.1-0.2-0.2-0.3-0.3C24.7,812.3,24.7,812.3,24.7,812.2z"/>
	<path id="XMLID_584_" class="st0" d="M25.6,812.4l-0.2-0.2l-0.1,0.2c0.1,0.1,0.2,0.2,0.3,0.2C25.6,812.5,25.7,812.4,25.6,812.4
		L25.6,812.4z"/>
	<path id="XMLID_583_" class="st0" d="M21.2,717.9c-0.2,0.2-0.5,0.5-0.7,0.7c0.2,0.1,0.5,0.3,0.6,0.2c0.2-0.2,0.3-0.5,0.3-0.7
		L21.2,717.9z"/>
	<path id="XMLID_582_" class="st0" d="M22.7,718.7c0.1-0.1,0.2-0.3,0.2-0.4c0-0.2-0.2-0.4-0.3-0.6c-0.1,0.1-0.2,0.3-0.3,0.4
		C22.5,718.3,22.6,718.5,22.7,718.7z"/>
	<path id="XMLID_581_" class="st0" d="M23.5,722.8l-0.2-0.2C23.2,722.6,23,722.6,23.5,722.8z"/>
	<path id="XMLID_580_" class="st0" d="M25.5,816.9c0.2,0,0.3-0.2,0.4-0.3c-0.1,0-0.3-0.1-0.7-0.2c0,0.1-0.1,0.3-0.2,0.4
		C25.3,816.8,25.4,816.9,25.5,816.9z"/>
	<path id="XMLID_579_" class="st0" d="M23.8,711.1c0,0,0.1,0,0.1-0.1v-0.2c-0.1,0-0.2,0.1-0.3,0.2L23.8,711.1z"/>
	<path id="XMLID_578_" class="st0" d="M22.8,703.2c0.1-0.1,0.1-0.2,0.2-0.3l-0.2-0.2c0,0.1-0.1,0.2-0.1,0.3L22.8,703.2z"/>
	<path id="XMLID_577_" class="st0" d="M24,723v-0.2c-0.2,0-0.4-0.1-0.5-0.1l0.1,0.2C23.8,723,23.9,723,24,723z"/>
	<path id="XMLID_576_" class="st0" d="M19.6,728.8l0.2-0.2c-0.1-0.1-0.2-0.1-0.3-0.2l-0.2,0.2C19.4,728.7,19.5,728.8,19.6,728.8z"/>
	<path id="XMLID_575_" class="st0" d="M22.5,722.8c0.4,0.1,0.5,0.2,0.7,0.3c0.1,0,0.3,0,0.5,0V723C23.4,722.9,23,722.9,22.5,722.8z"
		/>
	<path id="XMLID_574_" class="st0" d="M19.3,724.9c0.1-0.1,0.2-0.1,0.3-0.2l-0.2-0.1c-0.1,0-0.2,0.1-0.3,0.2L19.3,724.9z"/>
	<path id="XMLID_573_" class="st0" d="M21.2,742.5l0.2-0.2c-0.1,0-0.2-0.1-0.3-0.1l-0.2,0.2C21,742.4,21.1,742.5,21.2,742.5z"/>
	<path id="XMLID_572_" class="st0" d="M24,723.5v-0.4c-0.1,0.1-0.2,0.1-0.3,0.2C23.8,723.3,23.9,723.4,24,723.5z"/>
	<path id="XMLID_571_" class="st0" d="M23.9,708.1c0-0.1,0.1-0.1,0.1-0.2v-0.3c-0.1-0.1-0.2-0.2-0.3-0.3c-0.1,0.1-0.1,0.3-0.2,0.7
		C23.5,708,23.7,708.1,23.9,708.1z"/>
	<path id="XMLID_570_" class="st0" d="M20.4,837.2c0.4,0.2,0.6,0.3,0.7,0.3c0.1,0,0.3,0,0.5,0v-0.1c0.1,0,0.2,0.1,0.3,0.1v-0.2
		c-0.2,0-0.4-0.1-0.5-0.1l0.1,0.2C21.2,837.3,20.8,837.3,20.4,837.2z"/>
	<path id="XMLID_569_" class="st0" d="M21.2,875.4l0.2-0.2c-0.1,0-0.2-0.1-0.3-0.1l-0.2,0.2C21,875.3,21.1,875.4,21.2,875.4z"/>
	<path id="XMLID_568_" class="st0" d="M19.6,861.7l0.2-0.2c-0.1-0.1-0.2-0.1-0.3-0.2l-0.2,0.2C19.4,861.6,19.5,861.7,19.6,861.7z"/>
	<path id="XMLID_567_" class="st0" d="M21.9,838v-0.4c-0.1,0.1-0.2,0.1-0.3,0.2C21.7,837.8,21.8,837.9,21.9,838z"/>
	<path id="XMLID_566_" class="st0" d="M22.8,836.1c0.1-0.1,0.1-0.2,0.2-0.3l-0.2-0.2c0,0.1-0.1,0.2-0.1,0.3L22.8,836.1z"/>
	<path id="XMLID_565_" class="st0" d="M21.4,837.3l-0.2-0.2C21.1,837,20.9,837.1,21.4,837.3z"/>
	<path id="XMLID_564_" class="st0" d="M20.7,921.8c-0.1,0-0.2-0.1-0.4-0.1l-0.2,0.3C20.4,921.9,20.6,921.8,20.7,921.8z"/>
	<path id="XMLID_563_" class="st0" d="M22,832.9l0.2-0.2c-0.1,0-0.2-0.1-0.3-0.1l-0.2,0.2C21.8,832.8,21.9,832.9,22,832.9z"/>
	<path id="XMLID_562_" class="st0" d="M23.5,820.4c0.1-0.1,0.2-0.3,0.3-0.5c-0.2-0.2-0.4-0.4-0.6-0.5c-0.1,0-0.3,0.1-0.4,0.2
		C23,819.9,23.3,820.1,23.5,820.4z"/>
	<path id="XMLID_561_" class="st0" d="M29.8,908.3l0.2-0.2c-0.1-0.1-0.1-0.2-0.2-0.3l-0.1,0.2C29.6,908.1,29.7,908.2,29.8,908.3z"/>
	<path id="XMLID_560_" class="st0" d="M22.2,916.5c0-0.1,0.1-0.2,0.1-0.3l-0.2-0.2c-0.1,0.1-0.1,0.2-0.2,0.3L22.2,916.5z"/>
	<path id="XMLID_559_" class="st0" d="M21.7,915.6c0.1-0.1,0.1-0.2,0.2-0.3l-0.2-0.2c0,0.1-0.1,0.2-0.1,0.3L21.7,915.6z"/>
	<path id="XMLID_558_" class="st0" d="M19.3,857.8c0.1-0.1,0.2-0.1,0.3-0.2l-0.2-0.1c-0.1,0-0.2,0.1-0.3,0.2L19.3,857.8z"/>
	<path id="XMLID_557_" class="st0" d="M24.8,819.4L24.8,819.4L24.8,819.4z"/>
	<path id="XMLID_556_" class="st0" d="M21,822.4c0.1,0,0.2-0.1,0.3-0.2l-0.2-0.2c-0.1,0.1-0.2,0.1-0.3,0.2L21,822.4z"/>
	<path id="XMLID_555_" class="st0" d="M25.4,820.2c0,0,0.2-0.1,0.3-0.1c-0.1-0.1-0.1-0.1-0.4-0.3h-0.1
		C25.3,820,25.3,820.1,25.4,820.2z"/>
	<path id="XMLID_554_" class="st0" d="M25,819.7L25,819.7c-0.1,0-0.2-0.1-0.3-0.2L25,819.7L25,819.7l0.3,0.1h0.1
		C25.3,819.7,25.2,819.7,25,819.7L25,819.7c0-0.1-0.1-0.1-0.2-0.2C24.9,819.5,24.9,819.5,25,819.7z"/>
	<path id="XMLID_553_" class="st0" d="M20.8,832.5c0.1,0,0.2-0.1,0.3-0.2l-0.2-0.2c-0.1,0.1-0.2,0.1-0.3,0.2L20.8,832.5z"/>
	<path id="XMLID_552_" class="st0" d="M24.7,823.7l0.2-0.2c-0.1,0-0.2-0.1-0.3-0.1l-0.2,0.2C24.5,823.6,24.6,823.7,24.7,823.7z"/>
	<path id="XMLID_551_" class="st0" d="M19.7,829.1l0.3,0.3l0.1-0.1l0.2,0.1h0.1c-0.1-0.1-0.2-0.1-0.3-0.2l-0.1,0.1
		C19.9,829.2,19.8,829.2,19.7,829.1z"/>
	<path id="XMLID_550_" class="st0" d="M23.7,824.3l0.1-0.2c0-0.1-0.1-0.2-0.2-0.3l-0.1,0.2C23.5,824.1,23.6,824.2,23.7,824.3z"/>
	<path id="XMLID_549_" class="st0" d="M20.1,829.2c-0.1-0.1-0.1-0.2-0.3-0.3C19.9,829,19.8,829,20.1,829.2z"/>
	<path id="XMLID_548_" class="st0" d="M21.7,828.1c0.1-0.1,0.1-0.2,0.2-0.3l-0.2-0.2c0,0.1-0.1,0.2-0.1,0.3L21.7,828.1z"/>
	<path id="XMLID_547_" class="st0" d="M20.4,829.8c0,0,0.2-0.1,0.3-0.1c-0.1-0.1-0.1-0.1-0.4-0.3h-0.1
		C20.2,829.5,20.3,829.7,20.4,829.8z"/>
	<path id="XMLID_546_" class="st0" d="M23.4,574.5l0.2-0.2c-0.1-0.1-0.1-0.2-0.2-0.3l-0.1,0.2C23.3,574.3,23.3,574.4,23.4,574.5z"/>
	<path id="XMLID_545_" class="st0" d="M24.8,574.9c0.1,0,0.2-0.1,0.3-0.2l-0.2-0.2c-0.1,0.1-0.2,0.1-0.3,0.2L24.8,574.9z"/>
	<path id="XMLID_544_" class="st0" d="M22.2,550c0-0.1,0.1-0.2,0.1-0.3l-0.2-0.2c-0.1,0.1-0.1,0.2-0.2,0.3L22.2,550z"/>
	<path id="XMLID_543_" class="st0" d="M27.4,575.3l0.1-0.2c0-0.1-0.1-0.2-0.2-0.3l-0.2,0.2C27.3,575.1,27.4,575.2,27.4,575.3z"/>
	<path id="XMLID_542_" class="st0" d="M29.8,541.8l0.2-0.2c-0.1-0.1-0.1-0.2-0.2-0.3l-0.1,0.2C29.6,541.6,29.7,541.7,29.8,541.8z"/>
	<path id="XMLID_541_" class="st0" d="M21.7,549.1c0.1-0.1,0.1-0.2,0.2-0.3l-0.2-0.2c0,0.1-0.1,0.2-0.1,0.3L21.7,549.1z"/>
	<path id="XMLID_540_" class="st0" d="M25.7,578.7l0.1-0.2C25.8,578.5,25.7,578.5,25.7,578.7z"/>
	<path id="XMLID_539_" class="st0" d="M22.3,583.4c0.2-0.3,0.4-0.6,0.6-0.9c-0.1,0-0.3-0.1-0.6-0.2c-0.1,0.2-0.2,0.5-0.2,0.7
		S22.2,583.3,22.3,583.4z"/>
	<path id="XMLID_538_" class="st0" d="M24.4,581l0.2,0.2c0.5,0,1.1,0,1.4-0.5v-0.4c-0.1,0-0.2-0.1-0.3-0.1c-0.4,0.2-0.8,0.3-1.2,0.5
		C24.5,580.7,24.4,580.9,24.4,581z"/>
	<path id="XMLID_537_" class="st0" d="M20.6,579.1c0,0.1-0.1,0.2-0.1,0.3l0.2,0.2c0.1-0.1,0.1-0.2,0.2-0.3L20.6,579.1z"/>
	<path id="XMLID_536_" class="st0" d="M22.8,469.6c0.1-0.1,0.1-0.2,0.2-0.3l-0.2-0.2c0,0.1-0.1,0.2-0.1,0.3L22.8,469.6z"/>
	<path id="XMLID_535_" class="st0" d="M24.7,578.6c0-0.1-0.1-0.1-0.2-0.1c-0.2-0.1-0.5,0.2-0.7,0.3l0.2,0.6c0.3,0,0.5,0,0.9-0.3
		c-0.1-0.1-0.2-0.2-0.3-0.3C24.7,578.7,24.7,578.7,24.7,578.6z"/>
	<path id="XMLID_534_" class="st0" d="M21.2,484.3c-0.2,0.2-0.5,0.5-0.7,0.7c0.2,0.1,0.5,0.3,0.6,0.2c0.2-0.2,0.3-0.5,0.3-0.7
		L21.2,484.3z"/>
	<path id="XMLID_533_" class="st0" d="M23.8,477.5c0,0,0.1,0,0.1-0.1v-0.2c-0.1,0-0.2,0.1-0.3,0.2L23.8,477.5z"/>
	<path id="XMLID_532_" class="st0" d="M22.7,485.1c0.1-0.1,0.2-0.3,0.2-0.4c0-0.2-0.2-0.4-0.3-0.6c-0.1,0.1-0.2,0.3-0.3,0.4
		C22.5,484.7,22.6,484.9,22.7,485.1z"/>
	<path id="XMLID_531_" class="st0" d="M23.9,474.5c0-0.1,0.1-0.1,0.1-0.2V474c-0.1-0.1-0.2-0.2-0.3-0.3c-0.1,0.1-0.1,0.3-0.2,0.7
		C23.5,474.4,23.7,474.5,23.9,474.5z"/>
	<path id="XMLID_530_" class="st0" d="M25.5,583.3c0.2,0,0.3-0.2,0.4-0.3c-0.1,0-0.3-0.1-0.7-0.2c0,0.1-0.1,0.3-0.2,0.4
		C25.3,583.2,25.4,583.3,25.5,583.3z"/>
	<path id="XMLID_529_" class="st0" d="M19.3,491.3c0.1-0.1,0.2-0.1,0.3-0.2l-0.2-0.1c-0.1,0-0.2,0.1-0.3,0.2L19.3,491.3z"/>
	<path id="XMLID_528_" class="st0" d="M21.2,508.9l0.2-0.2c-0.1,0-0.2-0.1-0.3-0.1l-0.2,0.2C21,508.8,21.1,508.9,21.2,508.9z"/>
	<path id="XMLID_527_" class="st0" d="M19.6,495.2l0.2-0.2c-0.1-0.1-0.2-0.1-0.3-0.2l-0.2,0.2C19.4,495.1,19.5,495.2,19.6,495.2z"/>
	<path id="XMLID_526_" class="st0" d="M22.5,489.2c0.4,0.1,0.5,0.2,0.7,0.3c0.1,0,0.3,0,0.5,0v-0.1C23.4,489.3,23,489.3,22.5,489.2z
		"/>
	<path id="XMLID_525_" class="st0" d="M24,489.9v-0.4c-0.1,0.1-0.2,0.1-0.3,0.2C23.8,489.7,23.9,489.8,24,489.9z"/>
	<path id="XMLID_524_" class="st0" d="M24,489.4v-0.2c-0.2,0-0.4-0.1-0.5-0.1l0.1,0.2C23.8,489.4,23.9,489.4,24,489.4z"/>
	<path id="XMLID_523_" class="st0" d="M23.5,489.2l-0.2-0.2C23.2,489,23,489,23.5,489.2z"/>
	<path id="XMLID_522_" class="st0" d="M20.4,603.6c0.4,0.2,0.6,0.3,0.7,0.3c0.1,0,0.3,0,0.5,0v-0.1c0.1,0,0.2,0.1,0.3,0.1v-0.2
		c-0.2,0-0.4-0.1-0.5-0.1l0.1,0.2C21.2,603.7,20.8,603.7,20.4,603.6z"/>
	<path id="XMLID_521_" class="st0" d="M21.9,604.4V604c-0.1,0.1-0.2,0.1-0.3,0.2C21.7,604.2,21.8,604.3,21.9,604.4z"/>
	<path id="XMLID_520_" class="st0" d="M19.3,624.2c0.1-0.1,0.2-0.1,0.3-0.2l-0.2-0.1c-0.1,0-0.2,0.1-0.3,0.2L19.3,624.2z"/>
	<path id="XMLID_519_" class="st0" d="M22.8,602.5c0.1-0.1,0.1-0.2,0.2-0.3l-0.2-0.2c0,0.1-0.1,0.2-0.1,0.3L22.8,602.5z"/>
	<path id="XMLID_518_" class="st0" d="M21.4,603.7l-0.2-0.2C21.1,603.4,20.9,603.5,21.4,603.7z"/>
	<path id="XMLID_517_" class="st0" d="M19.6,628.1l0.2-0.2c-0.1-0.1-0.2-0.1-0.3-0.2l-0.2,0.2C19.4,628,19.5,628.1,19.6,628.1z"/>
	<path id="XMLID_516_" class="st0" d="M22,599.3l0.2-0.2c-0.1,0-0.2-0.1-0.3-0.1l-0.2,0.2C21.8,599.2,21.9,599.3,22,599.3z"/>
	<path id="XMLID_515_" class="st0" d="M22.2,682.9c0-0.1,0.1-0.2,0.1-0.3l-0.2-0.2c-0.1,0.1-0.1,0.2-0.2,0.3L22.2,682.9z"/>
	<path id="XMLID_514_" class="st0" d="M20.7,688.2c-0.1,0-0.2-0.1-0.4-0.1l-0.2,0.3C20.4,688.3,20.6,688.2,20.7,688.2z"/>
	<path id="XMLID_513_" class="st0" d="M21.7,682c0.1-0.1,0.1-0.2,0.2-0.3l-0.2-0.2c0,0.1-0.1,0.2-0.1,0.3L21.7,682z"/>
	<path id="XMLID_512_" class="st0" d="M21.2,641.8l0.2-0.2c-0.1,0-0.2-0.1-0.3-0.1l-0.2,0.2C21,641.7,21.1,641.8,21.2,641.8z"/>
	<path id="XMLID_511_" class="st0" d="M29.8,674.7l0.2-0.2c-0.1-0.1-0.1-0.2-0.2-0.3l-0.1,0.2C29.6,674.5,29.7,674.6,29.8,674.7z"/>
	<path id="XMLID_510_" class="st0" d="M24.8,585.8L24.8,585.8L24.8,585.8z"/>
	<path id="XMLID_509_" class="st0" d="M23.5,586.8c0.1-0.1,0.2-0.3,0.3-0.5c-0.2-0.2-0.4-0.4-0.6-0.5c-0.1,0-0.3,0.1-0.4,0.2
		C23,586.3,23.3,586.5,23.5,586.8z"/>
	<path id="XMLID_508_" class="st0" d="M21,588.8c0.1,0,0.2-0.1,0.3-0.2l-0.2-0.2c-0.1,0.1-0.2,0.1-0.3,0.2L21,588.8z"/>
	<path id="XMLID_507_" class="st0" d="M25.4,586.6c0,0,0.2-0.1,0.3-0.1c-0.1-0.1-0.1-0.1-0.4-0.3h-0.1
		C25.3,586.4,25.3,586.5,25.4,586.6z"/>
	<path id="XMLID_506_" class="st0" d="M25,586L25,586c-0.1,0-0.2-0.1-0.3-0.2L25,586L25,586l0.3,0.1h0.1
		C25.3,586.1,25.2,586.1,25,586L25,586c0-0.1-0.1-0.1-0.2-0.2C24.9,585.9,24.9,585.9,25,586z"/>
	<path id="XMLID_505_" class="st0" d="M20.8,598.9c0.1,0,0.2-0.1,0.3-0.2l-0.2-0.2c-0.1,0.1-0.2,0.1-0.3,0.2L20.8,598.9z"/>
	<path id="XMLID_504_" class="st0" d="M24.7,590.1l0.2-0.2c-0.1,0-0.2-0.1-0.3-0.1l-0.2,0.2C24.5,590,24.6,590.1,24.7,590.1z"/>
	<path id="XMLID_503_" class="st0" d="M19.7,595.5l0.3,0.3l0.1-0.1l0.2,0.1h0.1c-0.1-0.1-0.2-0.1-0.3-0.2l-0.1,0.1
		C19.9,595.6,19.8,595.6,19.7,595.5z"/>
	<path id="XMLID_502_" class="st0" d="M20.4,596.2c0,0,0.2-0.1,0.3-0.1c-0.1-0.1-0.1-0.1-0.4-0.3h-0.1
		C20.2,595.9,20.3,596.1,20.4,596.2z"/>
	<path id="XMLID_501_" class="st0" d="M21.7,594.5c0.1-0.1,0.1-0.2,0.2-0.3l-0.2-0.2c0,0.1-0.1,0.2-0.1,0.3L21.7,594.5z"/>
	<path id="XMLID_500_" class="st0" d="M23.7,590.7l0.1-0.2c0-0.1-0.1-0.2-0.2-0.3l-0.1,0.2C23.5,590.5,23.6,590.6,23.7,590.7z"/>
	<path id="XMLID_499_" class="st0" d="M20.1,595.6c-0.1-0.1-0.1-0.2-0.3-0.3C19.9,595.4,19.8,595.4,20.1,595.6z"/>
	<path id="XMLID_498_" class="st0" d="M25.4,578.6l-0.1,0.2c0.1,0.1,0.2,0.2,0.3,0.2c0-0.1,0.1-0.2,0.1-0.3l-0.1,0.1L25.4,578.6z"/>
	<path id="XMLID_497_" class="st0" d="M23.4,340.9l0.2-0.2c-0.1-0.1-0.1-0.2-0.2-0.3l-0.1,0.2C23.3,340.7,23.3,340.8,23.4,340.9z"/>
	<path id="XMLID_496_" class="st0" d="M21.2,275.3l0.2-0.2c-0.1,0-0.2-0.1-0.3-0.1l-0.2,0.2C21,275.2,21.1,275.3,21.2,275.3z"/>
	<path id="XMLID_495_" class="st0" d="M27.4,341.7l0.1-0.2c0-0.1-0.1-0.2-0.2-0.3l-0.2,0.2C27.3,341.5,27.4,341.6,27.4,341.7z"/>
	<path id="XMLID_494_" class="st0" d="M24.8,341.3c0.1,0,0.2-0.1,0.3-0.2l-0.2-0.2c-0.1,0.1-0.2,0.1-0.3,0.2L24.8,341.3z"/>
	<path id="XMLID_493_" class="st0" d="M29.8,308.2L30,308c-0.1-0.1-0.1-0.2-0.2-0.3l-0.1,0.2C29.6,308,29.7,308.1,29.8,308.2z"/>
	<path id="XMLID_492_" class="st0" d="M21.7,315.5c0.1-0.1,0.1-0.2,0.2-0.3l-0.2-0.2c0,0.1-0.1,0.2-0.1,0.3L21.7,315.5z"/>
	<path id="XMLID_491_" class="st0" d="M22.2,316.4c0-0.1,0.1-0.2,0.1-0.3l-0.2-0.2c-0.1,0.1-0.1,0.2-0.2,0.3L22.2,316.4z"/>
	<path id="XMLID_490_" class="st0" d="M24.7,345c0-0.1-0.1-0.1-0.2-0.1c-0.2-0.1-0.5,0.2-0.7,0.3l0.2,0.6c0.3,0,0.5,0,0.9-0.3
		c-0.1-0.1-0.2-0.2-0.3-0.3C24.7,345.1,24.7,345.1,24.7,345z"/>
	<path id="XMLID_489_" class="st0" d="M24.4,347.4l0.2,0.2c0.5,0,1.1,0,1.4-0.5v-0.4c-0.1,0-0.2-0.1-0.3-0.1
		c-0.4,0.2-0.8,0.3-1.2,0.5C24.5,347.1,24.4,347.3,24.4,347.4z"/>
	<path id="XMLID_488_" class="st0" d="M22.3,349.8c0.2-0.3,0.4-0.6,0.6-0.9c-0.1,0-0.3-0.1-0.6-0.2c-0.1,0.2-0.2,0.5-0.2,0.7
		C22.1,349.6,22.2,349.7,22.3,349.8z"/>
	<path id="XMLID_487_" class="st0" d="M25.6,345.2l-0.2-0.2l-0.1,0.2c0.1,0.1,0.2,0.2,0.3,0.2c0-0.1,0.1-0.2,0.1-0.3L25.6,345.2z"/>
	<path id="XMLID_486_" class="st0" d="M20.6,345.5c0,0.1-0.1,0.2-0.1,0.3l0.2,0.2c0.1-0.1,0.1-0.2,0.2-0.3L20.6,345.5z"/>
	<path id="XMLID_485_" class="st0" d="M25.7,345.1l0.1-0.2C25.8,344.9,25.7,344.9,25.7,345.1z"/>
	<path id="XMLID_484_" class="st0" d="M23.8,243.9c0,0,0.1,0,0.1-0.1v-0.2c-0.1,0-0.2,0.1-0.3,0.2L23.8,243.9z"/>
	<path id="XMLID_483_" class="st0" d="M21.2,250.7c-0.2,0.2-0.5,0.5-0.7,0.7c0.2,0.1,0.5,0.3,0.6,0.2c0.2-0.2,0.3-0.5,0.3-0.7
		L21.2,250.7z"/>
	<path id="XMLID_482_" class="st0" d="M22.7,251.5c0.1-0.1,0.2-0.3,0.2-0.4c0-0.2-0.2-0.4-0.3-0.6c-0.1,0.1-0.2,0.3-0.3,0.4
		C22.5,251.1,22.6,251.3,22.7,251.5z"/>
	<path id="XMLID_481_" class="st0" d="M23.9,240.9c0-0.1,0.1-0.1,0.1-0.2v-0.3c-0.1-0.1-0.2-0.2-0.3-0.3c-0.1,0.1-0.1,0.3-0.2,0.7
		C23.5,240.8,23.7,240.9,23.9,240.9z"/>
	<path id="XMLID_480_" class="st0" d="M22.8,236c0.1-0.1,0.1-0.2,0.2-0.3l-0.2-0.2c0,0.1-0.1,0.2-0.1,0.3L22.8,236z"/>
	<path id="XMLID_479_" class="st0" d="M22.2,449.3c0-0.1,0.1-0.2,0.1-0.3l-0.2-0.2c-0.1,0.1-0.1,0.2-0.2,0.3L22.2,449.3z"/>
	<path id="XMLID_478_" class="st0" d="M19.6,261.6l0.2-0.2c-0.1-0.1-0.2-0.1-0.3-0.2l-0.2,0.2C19.4,261.5,19.5,261.6,19.6,261.6z"/>
	<path id="XMLID_477_" class="st0" d="M19.3,257.7c0.1-0.1,0.2-0.1,0.3-0.2l-0.2-0.1c-0.1,0-0.2,0.1-0.3,0.2L19.3,257.7z"/>
	<path id="XMLID_476_" class="st0" d="M24,256.3v-0.4c-0.1,0.1-0.2,0.1-0.3,0.2C23.8,256.1,23.9,256.2,24,256.3z"/>
	<path id="XMLID_475_" class="st0" d="M22.5,255.6c0.4,0.1,0.5,0.2,0.7,0.3c0.1,0,0.3,0,0.5,0v-0.1C23.4,255.7,23,255.7,22.5,255.6z
		"/>
	<path id="XMLID_474_" class="st0" d="M24,255.8v-0.2c-0.2,0-0.4-0.1-0.5-0.1l0.1,0.2C23.8,255.8,23.9,255.8,24,255.8z"/>
	<path id="XMLID_473_" class="st0" d="M23.5,255.6l-0.2-0.2C23.2,255.4,23,255.4,23.5,255.6z"/>
	<path id="XMLID_472_" class="st0" d="M20.1,362c-0.1-0.1-0.1-0.2-0.3-0.3C19.9,361.8,19.8,361.8,20.1,362z"/>
	<path id="XMLID_471_" class="st0" d="M21.4,370.1l-0.2-0.2C21.1,369.8,20.9,369.9,21.4,370.1z"/>
	<path id="XMLID_470_" class="st0" d="M20.7,454.6c-0.1,0-0.2-0.1-0.4-0.1l-0.2,0.3C20.4,454.7,20.6,454.6,20.7,454.6z"/>
	<path id="XMLID_469_" class="st0" d="M22.8,368.9c0.1-0.1,0.1-0.2,0.2-0.3l-0.2-0.2c0,0.1-0.1,0.2-0.1,0.3L22.8,368.9z"/>
	<path id="XMLID_468_" class="st0" d="M21.9,370.8v-0.4c-0.1,0.1-0.2,0.1-0.3,0.2C21.7,370.6,21.8,370.7,21.9,370.8z"/>
	<path id="XMLID_467_" class="st0" d="M22,365.7l0.2-0.2c-0.1,0-0.2-0.1-0.3-0.1l-0.2,0.2C21.8,365.6,21.9,365.7,22,365.7z"/>
	<path id="XMLID_466_" class="st0" d="M20.8,365.3c0.1,0,0.2-0.1,0.3-0.2l-0.2-0.2c-0.1,0.1-0.2,0.1-0.3,0.2L20.8,365.3z"/>
	<path id="XMLID_465_" class="st0" d="M29.8,441.1l0.2-0.2c-0.1-0.1-0.1-0.2-0.2-0.3l-0.1,0.2C29.6,440.9,29.7,441,29.8,441.1z"/>
	<path id="XMLID_464_" class="st0" d="M21.7,448.4c0.1-0.1,0.1-0.2,0.2-0.3l-0.2-0.2c0,0.1-0.1,0.2-0.1,0.3L21.7,448.4z"/>
	<path id="XMLID_463_" class="st0" d="M19.3,390.6c0.1-0.1,0.2-0.1,0.3-0.2l-0.2-0.1c-0.1,0-0.2,0.1-0.3,0.2L19.3,390.6z"/>
	<path id="XMLID_462_" class="st0" d="M21.2,408.2l0.2-0.2c-0.1,0-0.2-0.1-0.3-0.1l-0.2,0.2C21,408.1,21.1,408.2,21.2,408.2z"/>
	<path id="XMLID_461_" class="st0" d="M19.6,394.5l0.2-0.2c-0.1-0.1-0.2-0.1-0.3-0.2l-0.2,0.2C19.4,394.4,19.5,394.5,19.6,394.5z"/>
	<path id="XMLID_460_" class="st0" d="M20.4,370c0.4,0.2,0.6,0.3,0.7,0.3c0.1,0,0.3,0,0.5,0v-0.1c0.1,0,0.2,0.1,0.3,0.1v-0.2
		c-0.2,0-0.4-0.1-0.5-0.1l0.1,0.2C21.2,370.1,20.8,370.1,20.4,370z"/>
	<path id="XMLID_459_" class="st0" d="M24.8,352.2L24.8,352.2L24.8,352.2z"/>
	<path id="XMLID_458_" class="st0" d="M21,355.2c0.1,0,0.2-0.1,0.3-0.2l-0.2-0.2c-0.1,0.1-0.2,0.1-0.3,0.2L21,355.2z"/>
	<path id="XMLID_457_" class="st0" d="M25.4,353c0,0,0.2-0.1,0.3-0.1c-0.1-0.1-0.1-0.1-0.4-0.3h-0.1C25.3,352.8,25.3,352.9,25.4,353
		z"/>
	<path id="XMLID_456_" class="st0" d="M23.5,353.2c0.1-0.1,0.2-0.3,0.3-0.5c-0.2-0.2-0.4-0.4-0.6-0.5c-0.1,0-0.3,0.1-0.4,0.2
		C23,352.7,23.3,352.9,23.5,353.2z"/>
	<path id="XMLID_455_" class="st0" d="M25,352.5L25,352.5c-0.1,0-0.2-0.1-0.3-0.2l0.3,0.3V352.5l0.3,0.1h0.1
		C25.3,352.5,25.2,352.5,25,352.5L25,352.5c0-0.1-0.1-0.1-0.2-0.2C24.9,352.3,24.9,352.4,25,352.5z"/>
	<path id="XMLID_454_" class="st0" d="M25.5,349.7c0.2,0,0.3-0.2,0.4-0.3c-0.1,0-0.3-0.1-0.7-0.2c0,0.1-0.1,0.3-0.2,0.4
		C25.3,349.6,25.4,349.7,25.5,349.7z"/>
	<path id="XMLID_453_" class="st0" d="M20.4,362.6c0,0,0.2-0.1,0.3-0.1c-0.1-0.1-0.1-0.1-0.4-0.3h-0.1
		C20.2,362.3,20.3,362.5,20.4,362.6z"/>
	<path id="XMLID_452_" class="st0" d="M19.7,361.9l0.3,0.3l0.1-0.1l0.2,0.1h0.1c-0.1-0.1-0.2-0.1-0.3-0.2l-0.1,0.1
		C19.9,362.1,19.8,362,19.7,361.9z"/>
	<path id="XMLID_451_" class="st0" d="M24.7,356.5l0.2-0.2c-0.1,0-0.2-0.1-0.3-0.1l-0.2,0.2C24.5,356.4,24.6,356.5,24.7,356.5z"/>
	<path id="XMLID_450_" class="st0" d="M23.7,357.1l0.1-0.2c0-0.1-0.1-0.2-0.2-0.3l-0.1,0.2C23.5,356.9,23.6,357,23.7,357.1z"/>
	<path id="XMLID_449_" class="st0" d="M21.7,360.9c0.1-0.1,0.1-0.2,0.2-0.3l-0.2-0.2c0,0.1-0.1,0.2-0.1,0.3L21.7,360.9z"/>
	<path id="XMLID_448_" class="st0" d="M21.2,41.7l0.2-0.2c-0.1,0-0.2-0.1-0.3-0.1l-0.2,0.2C21,41.6,21.1,41.7,21.2,41.7z"/>
	<path id="XMLID_447_" class="st0" d="M23.4,107.3l0.2-0.2c-0.1-0.1-0.1-0.2-0.2-0.3l-0.1,0.2C23.3,107.1,23.3,107.2,23.4,107.3z"/>
	<path id="XMLID_446_" class="st0" d="M29.8,74.6l0.2-0.2c-0.1-0.1-0.1-0.2-0.2-0.3l-0.1,0.2C29.6,74.4,29.7,74.5,29.8,74.6z"/>
	<path id="XMLID_445_" class="st0" d="M21.7,81.9c0.1-0.1,0.1-0.2,0.2-0.3l-0.2-0.2c0,0.1-0.1,0.2-0.1,0.3L21.7,81.9z"/>
	<path id="XMLID_444_" class="st0" d="M22.2,82.8c0-0.1,0.1-0.2,0.1-0.3l-0.2-0.2c-0.1,0.1-0.1,0.2-0.2,0.3L22.2,82.8z"/>
	<path id="XMLID_443_" class="st0" d="M24.8,107.7c0.1,0,0.2-0.1,0.3-0.2l-0.2-0.2c-0.1,0.1-0.2,0.1-0.3,0.2L24.8,107.7z"/>
	<path id="XMLID_442_" class="st0" d="M24.7,111.4c0-0.1-0.1-0.1-0.2-0.1c-0.2-0.1-0.5,0.2-0.7,0.3l0.2,0.6c0.3,0,0.5,0,0.9-0.3
		c-0.1-0.1-0.2-0.2-0.3-0.3C24.7,111.5,24.7,111.5,24.7,111.4z"/>
	<path id="XMLID_441_" class="st0" d="M20.6,111.9c0,0.1-0.1,0.2-0.1,0.3l0.2,0.2c0.1-0.1,0.1-0.2,0.2-0.3L20.6,111.9z"/>
	<path id="XMLID_440_" class="st0" d="M24.4,113.8l0.2,0.2c0.5,0,1.1,0,1.4-0.5v-0.4c-0.1,0-0.2-0.1-0.3-0.1
		c-0.4,0.2-0.8,0.3-1.2,0.5C24.5,113.5,24.4,113.7,24.4,113.8z"/>
	<path id="XMLID_439_" class="st0" d="M25.4,111.4l-0.1,0.2c0.1,0.1,0.2,0.2,0.3,0.2c0-0.1,0.1-0.2,0.1-0.3l-0.1,0.1L25.4,111.4z"/>
	<path id="XMLID_438_" class="st0" d="M25.7,111.5l0.1-0.2C25.8,111.3,25.7,111.3,25.7,111.5z"/>
	<path id="XMLID_437_" class="st0" d="M27.4,108.1l0.1-0.2c0-0.1-0.1-0.2-0.2-0.3l-0.2,0.2C27.3,107.9,27.4,108,27.4,108.1z"/>
	<path id="XMLID_436_" class="st0" d="M21.2,17.1c-0.2,0.2-0.5,0.5-0.7,0.7c0.2,0.1,0.5,0.3,0.6,0.2c0.2-0.2,0.3-0.5,0.3-0.7
		L21.2,17.1z"/>
	<path id="XMLID_435_" class="st0" d="M22.8,2.4c0.1-0.1,0.1-0.2,0.2-0.3l-0.2-0.2c0,0.1-0.1,0.2-0.1,0.3L22.8,2.4z"/>
	<path id="XMLID_434_" class="st0" d="M23.9,7.3c0-0.1,0.1-0.1,0.1-0.2V6.8c-0.1-0.1-0.2-0.2-0.3-0.3c-0.1,0.1-0.1,0.3-0.2,0.7
		C23.5,7.2,23.7,7.3,23.9,7.3z"/>
	<path id="XMLID_433_" class="st0" d="M13.1,0.6L13.1,0.6c0.1,0,0.1-0.1,0.1-0.1C13.1,0.5,13.1,0.5,13.1,0.6z"/>
	<path id="XMLID_432_" class="st0" d="M22.3,116.2c0.2-0.3,0.4-0.6,0.6-0.9c-0.1,0-0.3-0.1-0.6-0.2c-0.1,0.2-0.2,0.5-0.2,0.7
		S22.2,116.1,22.3,116.2z"/>
	<path id="XMLID_431_" class="st0" d="M23.8,10.3c0,0,0.1,0,0.1-0.1V10c-0.1,0-0.2,0.1-0.3,0.2L23.8,10.3z"/>
	<path id="XMLID_36_" class="st1" d="M13.1,0.6H0l0,64.5C0.1,65,0.1,65,0.2,64.9h0.1c0,0.1-0.1,0.1-0.2,0.2c0,0.1-0.1,0-0.1,0
		l0,25.7c0.1,0.1,0.1,0.1,0.2,0.2c-0.1,0-0.1,0.1-0.2,0.1l0,143.1l0,0.2l0,64.3c0.1-0.1,0.1-0.1,0.2-0.2h0.1c0,0.1-0.1,0.1-0.2,0.2
		c0,0.1-0.1,0-0.1,0l0,25.7c0.1,0.1,0.1,0.1,0.2,0.2c-0.1,0-0.1,0.1-0.2,0.1l0,143.1l0,0.2l0,64.3c0.1-0.1,0.1-0.1,0.2-0.2h0.1
		c0,0.1-0.1,0.1-0.2,0.2c0,0.1-0.1,0-0.1,0L0,558c0.1,0.1,0.1,0.1,0.2,0.2c-0.1,0-0.1,0.1-0.2,0.1l0,143.1l0,0.2l0,64.3
		c0.1-0.1,0.1-0.1,0.2-0.2h0.1c0,0.1-0.1,0.1-0.2,0.2c0,0.1-0.1,0-0.1,0l0,25.7c0.1,0.1,0.1,0.1,0.2,0.2c-0.1,0-0.1,0.1-0.2,0.1
		l0,143.3h8.2c0-0.2,0-0.3,0.1-0.3c0,0.1,0,0.2-0.1,0.3h11.7c0-0.4-0.3-0.9-0.4-1.3c0.7,0,0.7-0.6,1-1c0.2-0.3,0.3-0.5-0.2-0.5
		c-0.8,0-1.6,0-1.7,1.1h-0.2c-0.5-1.3,0.6-1.6,1.3-2c0.2-0.1,0.3-0.2,0.5-0.3c-0.3-0.2-0.5-0.3-0.8-0.3h-0.1l0.1,0.4
		c-0.1,0-0.2-0.1-0.3-0.1c0-0.1,0.1-0.2,0.1-0.3c-0.5,0-0.7-0.2-0.5-0.8s0.4-1.1,0.6-1.7c0.1-0.2,0.2-0.6,0.2-0.6
		c-1-0.6-0.2-1.2-0.1-1.8c0.1-0.3,0-0.7,0-1c-0.1-0.5,0-0.8,0.4-1.1c0.4-0.4,0.9-0.9-0.2-0.9l-0.2-0.6c-0.2,0,0.1-0.1,0-0.2
		c-0.2-0.2,0.4-0.4,0.4-0.8h-0.5c0.5-0.2,0.9-0.4,1.5-0.5c0-0.1-0.1-0.1-0.1-0.3c-0.7-1-0.7-1.4,0.1-2.2c0.1-0.2,0.4-0.2,0.6-0.3
		c0.1-0.1,0.2-0.2,0.3-0.3c-0.1-0.1-0.3-0.2-0.4-0.2c-1.2-0.3-1.2-0.3-0.7-1.1c0.3-0.5,0.3-0.4-0.6-0.9c-0.4-0.2-0.7-0.9-0.6-1.3
		c0.2-0.7,0.2-1.3-0.1-2c-0.3-0.6-0.5-3.4-0.5-4.1c0-0.5,1.5-1.3,1.2-1.6c-0.6-0.6,0.5-0.8,0.2-1.2c-0.8-1-0.5-2.1-0.7-3.2
		c-0.1-0.7-0.3-1.6-0.5-2.1h0.1c0.5-0.5,0.2-1.7,0.1-2.4c-0.2-1.1,0.6-2.1-0.1-3.2c-0.1-0.1,0.1-0.5,0.2-0.6
		c0.8-0.7,0.3-1.2-0.5-1.9c-0.7-0.6,0.1-0.5,0.3-0.5c0.8,0,1.1-0.3,0.5-1c-0.1-0.1-0.2-0.3-0.2-0.3c0.2-0.5,0.7-1.4,0.6-1.5
		c-0.6-0.6-1.5-1-1.4-1.4c0.2-0.6-0.3-1.3,0.3-1.8c0.1-0.1-0.2-0.6-0.3-1c-0.2-0.4-0.2-0.8,0.4-0.8c0.5-0.1,0.4-0.3,0.1-0.6
		c-0.4-0.3-0.4-0.7,0.1-0.9c0.2-0.1,0.4-0.2,0.6-0.3c-0.1-0.1-0.3-0.2-0.4-0.2c-0.4-0.2-0.9-0.3-1.3-0.4c-0.1,0-0.2-0.2-0.2-0.3
		c0.1-0.1,0.3-0.2,0.4-0.2c0.7,0,1.5,0,0.7-1.1c-0.1-0.1,0.1-0.5,0.2-0.7c0.2-0.3,0.9-0.5-0.2-0.8c-0.7-0.2-0.5-1.6,0.2-2.4
		c0.2-0.2-0.7-0.6-0.8-0.8c-0.4-0.8-0.4-0.7,0.1-1.2c0.3-0.2,0.6-0.5,0.9-0.8c0.2-0.2,0.3-0.4,0.4-0.5c-0.2-0.1-0.4-0.1-0.7-0.2
		c-0.3,0-0.7,0.1-1,0c-0.1,0-0.3-0.4-0.3-0.6c0-0.1,0.1-0.4,0.2-0.4c0.3-0.1,0.7,0,1-0.1c0.4-0.1,0.8-0.1,1.2-0.2
		c-0.3-0.6-0.8-0.1-1.2-0.3c-0.3-0.1-0.5-0.2-0.7-0.4c-0.1-0.1,0.1-0.4,0.3-0.6s0.5-0.3,0.8-0.5c0.2-0.1,0.4-0.5,0.3-0.5
		c-0.2-0.2-0.4-0.3-0.7-0.4c-0.1-0.1-0.4,0.1-0.5,0c-0.2-0.1-0.3-0.3-0.3-0.5s0.3-0.4,0.4-0.4c0.7-0.1,1.4,0,0.4-0.9
		c-0.3-0.3-0.3-0.8-0.5-1.3c0.2,0,0.3-0.1,0.5-0.1s0.3,0,0.5,0c-0.1-0.2-0.1-0.5-0.2-0.6c-0.6-0.5-0.9-1.7-0.6-2.5
		c0.2-0.6,0.3-0.9-0.4-0.9c-0.5-0.1-0.5-0.3-0.1-0.5c0.3-0.1,0.6-0.3,0.8-0.5c0.3-0.3,0.3-0.5-0.2-0.5c-0.3-0.1-0.6-0.3-0.8-0.5
		v-0.4c1-0.1,0.6-0.4,0.2-0.8c0.8-0.3-0.2-1,0.3-1.5c0.2-0.2-0.3-0.9-0.4-1.4c0-0.4,0.1-0.9,0.2-1.4c0.2-0.7,0.2-1.6,0.1-2.5
		c-0.1-0.5-0.2-1,0.6-1v-0.4c-0.4-0.3-0.3-0.6-0.1-1c0.2-0.3,1.5-0.9-0.1-1c-0.1-0.8-0.3-1.6-0.2-2.4c0-0.4,0.5-0.7,0.8-1
		c0.4-0.4,0.4-0.3,0.1-0.5c-0.3-0.1-0.5-0.3-0.8-0.4c-0.6-0.3-0.6-0.5-0.1-0.9c0.3-0.2,0.5-0.4,0.8-0.6c0.3-0.1,0.9,0.2,0.9-0.4
		c0-0.2-0.3-0.4-0.5-0.6c-0.4-0.2-0.9-0.3-1.3-0.4c-0.2-0.1-0.4-0.1-0.7-0.2c0.2-0.1,0.4-0.2,0.6-0.3c0.2-0.1,0.5,0,0.7,0
		c1.2-0.1,0.2-0.5,0.1-0.8c-0.2-0.4-0.3-0.9-0.5-1.3c-0.3-0.6-0.1-0.9,0.6-0.9c0.3,0,0.7,0.1,1-0.1c0.3-0.1,0.5-0.4,0.7-0.7
		c-0.2-0.1-0.5-0.2-0.7-0.3c-0.2,0-0.5,0-0.7,0c-0.5,0-1,0.2-1-0.6c0-0.6,0.2-0.9,0.8-0.9c0.2,0,0.4-0.2,0.6-0.2
		c-0.2-0.1-0.4-0.2-0.6-0.2c-0.3,0-0.7,0-1,0c-0.1,0-0.3-0.1-0.4-0.2c0.1-0.1,0.2-0.2,0.4-0.3c0.7-0.1,1.5-0.1,2.2-0.1
		c0.1,0,0.2-0.2,0.3-0.3l-0.2-0.2c-0.5,0.4-0.8-0.9-1.4-0.2c-0.4,0.4-0.7,0.2-1-0.1c-0.1-0.1-0.2-0.2-0.4-0.3
		c0.1-0.1,0.2-0.3,0.3-0.3c0.4-0.1,0.8,0,1.2-0.1c0.1,0,0.3-0.2,0.4-0.2c-0.2-0.1-0.4-0.2-0.6-0.2c-0.5-0.2-0.5-0.5-0.2-0.9
		c0.5-0.6,0.5-1-0.4-1l-0.1-0.4c0.3-0.2,0.6-0.5,1-0.5c0.6-0.1,1.3-0.1,2-0.1l0.2-0.2c-0.1-0.1-0.2-0.3-0.2-0.3
		c-1.2,0.4-1.9-0.6-2.9-0.9c-0.1,0-0.2-0.2-0.4-0.2c0.1-0.1,0.2-0.2,0.4-0.2s0.5,0,0.7-0.1c0.4-0.1,0.8-0.2,1.3-0.3
		c-0.4-0.2-0.8-0.4-1.2-0.6c-0.2-0.1-0.4-0.2-0.7-0.3c0.9-0.6-0.6-0.9-0.1-1.3s1.1-0.7,1.5,0.1c-0.6,0-0.6,0.5-0.4,0.8
		c0.4,0.4,0.8,0.4,0.9-0.3c0.2,0,0.3,0,0.5,0c0.1,0,0.3-0.1,0.4-0.2c-0.1-0.1-0.3-0.2-0.4-0.3c-0.1,0-0.3,0-0.5,0
		c-0.5-0.2,1.4-1-0.2-1c-0.5,0-1,0.1-1.5,0.1c-0.1,0-0.2-0.2-0.4-0.2c0.1-0.1,0.2-0.2,0.4-0.2c0.4-0.1,0.7-0.2,1.1-0.3
		c0.2-0.1,0.3-0.3,0.4-0.5c-0.2-0.1-0.4-0.1-0.7-0.2c-0.3-0.1-0.5-0.2-0.7-0.3c0.2-0.2,0.4-0.7,0.7-0.7c0.6,0,0.1-0.6-0.6-0.6
		c0-0.1,0-0.3,0-0.3c0.1-0.1,0.3-0.1,0.5-0.1c0.4,0,0.9,0,0.8-0.6c0-0.2-0.5-0.3-0.7-0.4c-0.2-0.1-0.5-0.1-0.7-0.1
		c0.6-0.9-0.3-1.1-0.7-1.5c0.2-0.1,0.5-0.3,0.6-0.3c0.5,0.3,1,0.6,1.6,0.4c0.3-0.1,0.5-0.4,0.7-0.7c-0.2-0.1-0.5-0.3-0.7-0.3
		c-0.4,0-0.8,0.1-1.2,0c-0.3,0-1,0.3-0.8-0.3c0.2-0.3-0.1-1.3,0.8-1.2c0.2,0,0.5,0,0.7,0c0.2,0.1,0.5,0.6,0.7,0.1s-0.1-0.7-0.7-0.7
		c-0.2,0-0.4,0.1-0.5,0c-0.3-0.3-0.6-0.7-0.8-1.1c0-0.1,0.5-0.4,0.8-0.5c0.2-0.1,0.4-0.2,0.6-0.3c0.1-0.1,0.3-0.2,0.4-0.2
		c-0.2-0.1-0.4-0.2-0.6-0.2s-0.5,0.1-0.7-0.1c-0.2-0.1-0.2-0.4-0.2-0.6c0.2,0,0.4,0,0.5,0c0.3-0.1,0.6-0.3,0.9-0.4
		c-0.1-0.1-0.3-0.2-0.4-0.3h-0.2c-1.7-0.7-1.7-0.8-0.2-1.9c0.1-0.1,0.2-0.2,0.3-0.3c-0.1-0.1-0.3-0.2-0.4-0.2c-0.2,0-0.4,0.1-0.5,0
		c-0.2-0.1-0.4-0.3-0.6-0.5c0.1-0.1,0.3-0.3,0.4-0.4c0.1-0.1,0.3,0,0.5,0c0.2-0.1,0.5-0.2,0.5-0.4s-0.1-0.5-0.3-0.6
		s-0.4-0.1-0.7-0.2c0.2-0.1,0.3-0.3,0.5-0.3c0.2-0.1,0.6,0,0.7-0.1c0.2-0.2,0.4-0.6,0.5-0.9c-0.3,0.1-0.6,0.2-0.8,0.2
		s-0.3,0-0.5-0.1c0.1-0.2,0.1-0.6,0.2-0.6c0.3-0.1,0.6-0.1,1-0.1c0,0,0-0.3,0-0.5c-0.8,0.1-0.7-0.1-0.4-0.7c0.2-0.4-0.2-1.1-0.3-1.6
		c0.7,0,0.7-0.6,1-1c0.2-0.3,0.3-0.5-0.2-0.5c-0.8,0-1.6,0-1.7,1.1h-0.2c-0.5-1.3,0.6-1.6,1.3-2c0.2-0.1,0.3-0.2,0.5-0.3
		c-0.2-0.1-0.5-0.2-0.7-0.1c-0.6,0.1-0.9-0.1-0.7-0.8c0.2-0.6,0.4-1.1,0.6-1.7c0.1-0.2,0.2-0.6,0.2-0.6c-1-0.6-0.2-1.2-0.1-1.8
		c0.1-0.3,0-0.7,0-1c-0.1-0.5,0-0.8,0.4-1.1c0.4-0.4,0.9-0.9-0.2-0.9l-0.2-0.6c0.2-0.2,0.5-0.2,0.8-0.4c0.2-0.1,0.4-0.2,0.6-0.3
		c-0.2-0.1-0.4-0.1-0.6-0.2c-0.5-0.2-0.4-0.4,0-0.5c0.1-0.1,0.1-0.2-0.3-0.3c0-0.1-0.1-0.2,0-0.4c0.3,0.2,0.6,0.3,0.8,0.5
		c0-0.1-0.1-0.1-0.1-0.2c-0.7-1-0.7-1.4,0.1-2.2c0.1-0.2,0.4-0.2,0.6-0.3c0.1-0.1,0.2-0.2,0.3-0.3c-0.1-0.1-0.3-0.2-0.4-0.2
		c-1.2-0.3-1.2-0.3-0.7-1.1c0.3-0.5,0.3-0.4-0.6-0.9c-0.4-0.2-0.7-0.9-0.6-1.3c0.2-0.7,0.2-1.3-0.1-2c-0.3-0.6-0.5-3.4-0.5-4.1
		c0-0.5,1.5-1.3,1.2-1.6c-0.6-0.6,0.5-0.8,0.2-1.2c-0.8-1-0.5-2.1-0.7-3.2c-0.1-0.7-0.3-1.6-0.5-2.1h0.1c0.5-0.5,0.2-1.7,0.1-2.4
		c-0.2-1.1,0.6-2.1-0.1-3.2c-0.1-0.1,0.1-0.5,0.2-0.6c0.8-0.7,0.3-1.2-0.5-1.9c-0.7-0.6,0.1-0.5,0.3-0.5c0.8,0,1.1-0.3,0.5-1
		c-0.1-0.1-0.2-0.3-0.2-0.3c0.2-0.5,0.7-1.4,0.6-1.5c-0.6-0.6-1.5-1-1.4-1.4c0.2-0.6-0.3-1.3,0.3-1.8c0.1-0.1-0.2-0.6-0.3-1
		c-0.2-0.4-0.2-0.8,0.4-0.8c0.5-0.1,0.4-0.3,0.1-0.6c-0.4-0.3-0.4-0.7,0.1-0.9c0.2-0.1,0.4-0.2,0.6-0.3c-0.1-0.1-0.3-0.2-0.4-0.2
		c-0.4-0.2-0.9-0.3-1.3-0.4c-0.1,0-0.2-0.2-0.2-0.3c0.1-0.1,0.3-0.2,0.4-0.2c0.7,0,1.5,0,0.7-1.1c-0.1-0.1,0.1-0.5,0.2-0.7
		c0.2-0.3,0.9-0.5-0.2-0.8c-0.7-0.2-0.5-1.6,0.2-2.4c0.2-0.2-0.7-0.6-0.8-0.8c-0.4-0.8-0.4-0.7,0.1-1.2c0.3-0.2,0.6-0.5,0.9-0.8
		c0.2-0.2,0.3-0.4,0.4-0.5c-0.2-0.1-0.4-0.1-0.7-0.2c-0.3,0-0.7,0.1-1,0c-0.1,0-0.3-0.4-0.3-0.6c0-0.1,0.1-0.4,0.2-0.4
		c0.3-0.1,0.7,0,1-0.1c0.4-0.1,0.8-0.1,1.2-0.2c-0.3-0.6-0.8-0.1-1.2-0.3c-0.3-0.1-0.5-0.2-0.7-0.4c-0.1-0.1,0.1-0.4,0.3-0.6
		s0.5-0.3,0.8-0.5c0.2-0.1,0.4-0.5,0.3-0.5c-0.2-0.2-0.4-0.3-0.7-0.4c-0.1-0.1-0.4,0.1-0.5,0c-0.2-0.1-0.3-0.3-0.3-0.5
		s0.3-0.4,0.4-0.4c0.7-0.1,1.4,0,0.4-0.9c-0.3-0.3-0.3-0.8-0.5-1.3c0.2,0,0.3-0.1,0.5-0.1s0.3,0,0.5,0c-0.1-0.2-0.1-0.5-0.2-0.6
		c-0.6-0.5-0.9-1.7-0.6-2.5c0.2-0.6,0.3-0.9-0.4-0.9c-0.5-0.1-0.5-0.3-0.1-0.5c0.3-0.1,0.6-0.3,0.8-0.5c0.3-0.3,0.3-0.5-0.2-0.5
		c-0.3-0.1-0.6-0.3-0.8-0.5v-0.4c1-0.1,0.6-0.4,0.2-0.8c0.8-0.3-0.2-1,0.3-1.5c0.2-0.2-0.3-0.9-0.4-1.4c0-0.4,0.1-0.9,0.2-1.4
		c0.2-0.7,0.2-1.6,0.1-2.5c-0.1-0.5-0.2-1,0.6-1v-0.4c-0.4-0.3-0.3-0.6-0.1-1c0.2-0.3,1.5-0.9-0.1-1c-0.1-0.8-0.3-1.6-0.2-2.4
		c0-0.4,0.5-0.7,0.8-1c0.4-0.4,0.4-0.3,0.1-0.5c-0.3-0.1-0.5-0.3-0.8-0.4c-0.6-0.3-0.6-0.5-0.1-0.9c0.3-0.2,0.5-0.4,0.8-0.6
		c0.3-0.1,0.9,0.2,0.9-0.4c0-0.2-0.3-0.4-0.5-0.6c-0.4-0.2-0.9-0.3-1.3-0.4c-0.2-0.1-0.4-0.1-0.7-0.2c0.2-0.1,0.4-0.2,0.6-0.3
		c0.2-0.1,0.5,0,0.7,0c1.2-0.1,0.2-0.5,0.1-0.8c-0.2-0.4-0.3-0.9-0.5-1.3c-0.3-0.6-0.1-0.9,0.6-0.9c0.3,0,0.7,0.1,1-0.1
		c0.3-0.1,0.5-0.4,0.7-0.7c-0.2-0.1-0.5-0.2-0.7-0.3c-0.2,0-0.5,0-0.7,0c-0.5,0-1,0.2-1-0.6c0-0.6,0.2-0.9,0.8-0.9
		c0.2,0,0.4-0.2,0.6-0.2c-0.2-0.1-0.4-0.2-0.6-0.2c-0.3,0-0.7,0-1,0c-0.1,0-0.3-0.1-0.4-0.2l0,0h1.7c0-0.4-0.3-0.9-0.4-1.3
		c0.7,0,0.7-0.6,1-1c0.2-0.3,0.3-0.5-0.2-0.5c-0.8,0-1.6,0-1.7,1.1h-0.2c-0.5-1.3,0.6-1.6,1.3-2c0.2-0.1,0.3-0.2,0.5-0.3
		c-0.3-0.2-0.5-0.3-0.8-0.3h-0.1l0.1,0.4c-0.1,0-0.2-0.1-0.3-0.1c0-0.1,0.1-0.2,0.1-0.3c-0.5,0-0.7-0.2-0.5-0.8s0.4-1.1,0.6-1.7
		c0.1-0.2,0.2-0.6,0.2-0.6c-1-0.6-0.2-1.2-0.1-1.8c0.1-0.3,0-0.7,0-1c-0.1-0.5,0-0.8,0.4-1.1c0.4-0.4,0.9-0.9-0.2-0.9l-0.2-0.6
		c-0.2,0,0.1-0.1,0-0.2c-0.2-0.2,0.4-0.4,0.4-0.8h-0.5c0.5-0.2,0.9-0.4,1.5-0.5c0-0.1-0.1-0.1-0.1-0.3c-0.7-1-0.7-1.4,0.1-2.2
		c0.1-0.2,0.4-0.2,0.6-0.3c0.1-0.1,0.2-0.2,0.3-0.3c-0.1-0.1-0.3-0.2-0.4-0.2c-1.2-0.3-1.2-0.3-0.7-1.1c0.3-0.5,0.3-0.4-0.6-0.9
		c-0.4-0.2-0.7-0.9-0.6-1.3c0.2-0.7,0.2-1.3-0.1-2c-0.3-0.6-0.5-3.4-0.5-4.1c0-0.5,1.5-1.3,1.2-1.6c-0.6-0.6,0.5-0.8,0.2-1.2
		c-0.8-1-0.5-2.1-0.7-3.2c-0.1-0.7-0.3-1.6-0.5-2.1h0.1c0.5-0.5,0.2-1.7,0.1-2.4c-0.2-1.1,0.6-2.1-0.1-3.2c-0.1-0.1,0.1-0.5,0.2-0.6
		c0.8-0.7,0.3-1.2-0.5-1.9c-0.7-0.6,0.1-0.5,0.3-0.5c0.8,0,1.1-0.3,0.5-1c-0.1-0.1-0.2-0.3-0.2-0.3c0.2-0.5,0.7-1.4,0.6-1.5
		c-0.6-0.6-1.5-1-1.4-1.4c0.2-0.6-0.3-1.3,0.3-1.8c0.1-0.1-0.2-0.6-0.3-1c-0.2-0.4-0.2-0.8,0.4-0.8c0.5-0.1,0.4-0.3,0.1-0.6
		c-0.4-0.3-0.4-0.7,0.1-0.9c0.2-0.1,0.4-0.2,0.6-0.3c-0.1-0.1-0.3-0.2-0.4-0.2c-0.4-0.2-0.9-0.3-1.3-0.4c-0.1,0-0.2-0.2-0.2-0.3
		c0.1-0.1,0.3-0.2,0.4-0.2c0.7,0,1.5,0,0.7-1.1c-0.1-0.1,0.1-0.5,0.2-0.7c0.2-0.3,0.9-0.5-0.2-0.8c-0.7-0.2-0.5-1.6,0.2-2.4
		c0.2-0.2-0.7-0.6-0.8-0.8c-0.4-0.8-0.4-0.7,0.1-1.2c0.3-0.2,0.6-0.5,0.9-0.8c0.2-0.2,0.3-0.4,0.4-0.5c-0.2-0.1-0.4-0.1-0.7-0.2
		c-0.3,0-0.7,0.1-1,0c-0.1,0-0.3-0.4-0.3-0.6c0-0.1,0.1-0.4,0.2-0.4c0.3-0.1,0.7,0,1-0.1c0.4-0.1,0.8-0.1,1.2-0.2
		c-0.3-0.6-0.8-0.1-1.2-0.3c-0.3-0.1-0.5-0.2-0.7-0.4c-0.1-0.1,0.1-0.4,0.3-0.6s0.5-0.3,0.8-0.5c0.2-0.1,0.4-0.5,0.3-0.5
		c-0.2-0.2-0.4-0.3-0.7-0.4c-0.1-0.1-0.4,0.1-0.5,0c-0.2-0.1-0.3-0.3-0.3-0.5s0.3-0.4,0.4-0.4c0.7-0.1,1.4,0,0.4-0.9
		c-0.3-0.3-0.3-0.8-0.5-1.3c0.2,0,0.3-0.1,0.5-0.1s0.3,0,0.5,0c-0.1-0.2-0.1-0.5-0.2-0.6c-0.6-0.5-0.9-1.7-0.6-2.5
		c0.2-0.6,0.3-0.9-0.4-0.9c-0.5-0.1-0.5-0.3-0.1-0.5c0.3-0.1,0.6-0.3,0.8-0.5c0.3-0.3,0.3-0.5-0.2-0.5c-0.3-0.1-0.6-0.3-0.8-0.5
		v-0.4c1-0.1,0.6-0.4,0.2-0.8c0.8-0.3-0.2-1,0.3-1.5c0.2-0.2-0.3-0.9-0.4-1.4c0-0.4,0.1-0.9,0.2-1.4c0.2-0.7,0.2-1.6,0.1-2.5
		c-0.1-0.5-0.2-1,0.6-1v-0.4c-0.4-0.3-0.3-0.6-0.1-1c0.2-0.3,1.5-0.9-0.1-1c-0.1-0.8-0.3-1.6-0.2-2.4c0-0.4,0.5-0.7,0.8-1
		c0.4-0.4,0.4-0.3,0.1-0.5c-0.3-0.1-0.5-0.3-0.8-0.4c-0.6-0.3-0.6-0.5-0.1-0.9c0.3-0.2,0.5-0.4,0.8-0.6c0.3-0.1,0.9,0.2,0.9-0.4
		c0-0.2-0.3-0.4-0.5-0.6c-0.4-0.2-0.9-0.3-1.3-0.4c-0.2-0.1-0.4-0.1-0.7-0.2c0.2-0.1,0.4-0.2,0.6-0.3c0.2-0.1,0.5,0,0.7,0
		c1.2-0.1,0.2-0.5,0.1-0.8c-0.2-0.4-0.3-0.9-0.5-1.3c-0.3-0.6-0.1-0.9,0.6-0.9c0.3,0,0.7,0.1,1-0.1c0.3-0.1,0.5-0.4,0.7-0.7
		c-0.2-0.1-0.5-0.2-0.7-0.3c-0.2,0-0.5,0-0.7,0c-0.5,0-1,0.2-1-0.6c0-0.6,0.2-0.9,0.8-0.9c0.2,0,0.4-0.2,0.6-0.2
		c-0.2-0.1-0.4-0.2-0.6-0.2c-0.3,0-0.7,0-1,0c-0.1,0-0.3-0.1-0.4-0.2c0.1-0.1,0.2-0.2,0.4-0.3c0.7-0.1,1.5-0.1,2.2-0.1
		c0.1,0,0.2-0.2,0.3-0.3l-0.2-0.2c-0.5,0.4-0.8-0.9-1.4-0.2c-0.4,0.4-0.7,0.2-1-0.1c-0.1-0.1-0.2-0.2-0.4-0.3
		c0.1-0.1,0.2-0.3,0.3-0.3c0.4-0.1,0.8,0,1.2-0.1c0.1,0,0.3-0.2,0.4-0.2c-0.2-0.1-0.4-0.2-0.6-0.2c-0.5-0.2-0.5-0.5-0.2-0.9
		c0.5-0.6,0.5-1-0.4-1l-0.1-0.4c0.3-0.2,0.6-0.5,1-0.5c0.6-0.1,1.3-0.1,2-0.1l0.2-0.2c-0.1-0.1-0.2-0.3-0.2-0.3
		c-1.2,0.4-1.9-0.6-2.9-0.9c-0.1,0-0.2-0.2-0.4-0.2c0.1-0.1,0.2-0.2,0.4-0.2s0.5,0,0.7-0.1c0.4-0.1,0.8-0.2,1.3-0.3
		c-0.4-0.2-0.8-0.4-1.2-0.6c-0.2-0.1-0.4-0.2-0.7-0.3c0.9-0.6-0.6-0.9-0.1-1.3c0.5-0.4,1.1-0.7,1.5,0.1c-0.6,0-0.6,0.5-0.4,0.8
		c0.4,0.4,0.8,0.4,0.9-0.3c0.2,0,0.3,0,0.5,0c0.1,0,0.3-0.1,0.4-0.2c-0.1-0.1-0.3-0.2-0.4-0.3c-0.1,0-0.3,0-0.5,0
		c-0.5-0.2,1.4-1-0.2-1c-0.5,0-1,0.1-1.5,0.1c-0.1,0-0.2-0.2-0.4-0.2c0.1-0.1,0.2-0.2,0.4-0.2c0.4-0.1,0.7-0.2,1.1-0.3
		c0.2-0.1,0.3-0.3,0.4-0.5c-0.2-0.1-0.4-0.1-0.7-0.2c-0.3-0.1-0.5-0.2-0.7-0.3c0.2-0.2,0.4-0.7,0.7-0.7c0.6,0,0.1-0.6-0.6-0.6
		c0-0.1,0-0.3,0-0.3c0.1-0.1,0.3-0.1,0.5-0.1c0.4,0,0.9,0,0.8-0.6c0-0.2-0.5-0.3-0.7-0.4c-0.2-0.1-0.5-0.1-0.7-0.1
		c0.6-0.9-0.3-1.1-0.7-1.5c0.2-0.1,0.5-0.3,0.6-0.3c0.5,0.3,1,0.6,1.6,0.4c0.3-0.1,0.5-0.4,0.7-0.7c-0.2-0.1-0.5-0.3-0.7-0.3
		c-0.4,0-0.8,0.1-1.2,0c-0.3,0-1,0.3-0.8-0.3c0.2-0.3-0.1-1.3,0.8-1.2c0.2,0,0.5,0,0.7,0c0.2,0.1,0.5,0.6,0.7,0.1s-0.1-0.7-0.7-0.7
		c-0.2,0-0.4,0.1-0.5,0c-0.3-0.3-0.6-0.7-0.8-1.1c0-0.1,0.5-0.4,0.8-0.5c0.2-0.1,0.4-0.2,0.6-0.3c0.1-0.1,0.3-0.2,0.4-0.2
		c-0.2-0.1-0.4-0.2-0.6-0.2c-0.2,0-0.5,0.1-0.7-0.1c-0.2-0.1-0.2-0.4-0.2-0.6c0.2,0,0.4,0,0.5,0c0.3-0.1,0.6-0.3,0.9-0.4
		c-0.1-0.1-0.3-0.2-0.4-0.3h-0.2c-1.7-0.7-1.7-0.8-0.2-1.9c0.1-0.1,0.2-0.2,0.3-0.3c-0.1-0.1-0.3-0.2-0.4-0.2c-0.2,0-0.4,0.1-0.5,0
		c-0.2-0.1-0.4-0.3-0.6-0.5c0.1-0.1,0.3-0.3,0.4-0.4c0.1-0.1,0.3,0,0.5,0c0.2-0.1,0.5-0.2,0.5-0.4c0-0.2-0.1-0.5-0.3-0.6
		c-0.2-0.1-0.4-0.1-0.7-0.2c0.2-0.1,0.3-0.3,0.5-0.3c0.2-0.1,0.6,0,0.7-0.1c0.2-0.2,0.4-0.6,0.5-0.9c-0.3,0.1-0.6,0.2-0.8,0.2
		s-0.3,0-0.5-0.1c0.1-0.2,0.1-0.6,0.2-0.6c0.3-0.1,0.6-0.1,1-0.1c0,0,0-0.3,0-0.5c-0.8,0.1-0.7-0.1-0.4-0.7c0.2-0.4-0.2-1.1-0.3-1.6
		c0.7,0,0.7-0.6,1-1c0.2-0.3,0.3-0.5-0.2-0.5c-0.8,0-1.6,0-1.7,1.1h-0.2c-0.5-1.3,0.6-1.6,1.3-2c0.2-0.1,0.3-0.2,0.5-0.3
		c-0.2-0.1-0.5-0.2-0.7-0.1c-0.6,0.1-0.9-0.1-0.7-0.8c0.2-0.6,0.4-1.1,0.6-1.7c0.1-0.2,0.2-0.6,0.2-0.6c-1-0.6-0.2-1.2-0.1-1.8
		c0.1-0.3,0-0.7,0-1c-0.1-0.5,0-0.8,0.4-1.1c0.4-0.4,0.9-0.9-0.2-0.9l-0.2-0.6c0.2-0.2,0.5-0.2,0.8-0.4c0.2-0.1,0.4-0.2,0.6-0.3
		c-0.2-0.1-0.4-0.1-0.6-0.2c-0.5-0.2-0.4-0.4,0-0.5c0.1-0.1,0.1-0.2-0.3-0.3c0-0.1-0.1-0.2,0-0.4c0.3,0.2,0.6,0.3,0.8,0.5
		c0-0.1-0.1-0.1-0.1-0.2c-0.7-1-0.7-1.4,0.1-2.2c0.1-0.2,0.4-0.2,0.6-0.3c0.1-0.1,0.2-0.2,0.3-0.3c-0.1-0.1-0.3-0.2-0.4-0.2
		c-1.2-0.3-1.2-0.3-0.7-1.1c0.3-0.5,0.3-0.4-0.6-0.9c-0.4-0.2-0.7-0.9-0.6-1.3c0.2-0.7,0.2-1.3-0.1-2c-0.3-0.6-0.5-3.4-0.5-4.1
		c0-0.5,1.5-1.3,1.2-1.6c-0.6-0.6,0.5-0.8,0.2-1.2c-0.8-1-0.5-2.1-0.7-3.2c-0.1-0.7-0.3-1.6-0.5-2.1h0.1c0.5-0.5,0.2-1.7,0.1-2.4
		c-0.2-1.1,0.6-2.1-0.1-3.2c-0.1-0.1,0.1-0.5,0.2-0.6c0.8-0.7,0.3-1.2-0.5-1.9c-0.7-0.6,0.1-0.5,0.3-0.5c0.8,0,1.1-0.3,0.5-1
		c-0.1-0.1-0.2-0.3-0.2-0.3c0.2-0.5,0.7-1.4,0.6-1.5c-0.6-0.6-1.5-1-1.4-1.4c0.2-0.6-0.3-1.3,0.3-1.8c0.1-0.1-0.2-0.6-0.3-1
		c-0.2-0.4-0.2-0.8,0.4-0.8c0.5-0.1,0.4-0.3,0.1-0.6c-0.4-0.3-0.4-0.7,0.1-0.9c0.2-0.1,0.4-0.2,0.6-0.3c-0.1-0.1-0.3-0.2-0.4-0.2
		c-0.4-0.2-0.9-0.3-1.3-0.4c-0.1,0-0.2-0.2-0.2-0.3c0.1-0.1,0.3-0.2,0.4-0.2c0.7,0,1.5,0,0.7-1.1c-0.1-0.1,0.1-0.5,0.2-0.7
		c0.2-0.3,0.9-0.5-0.2-0.8c-0.7-0.2-0.5-1.6,0.2-2.4c0.2-0.2-0.7-0.6-0.8-0.8c-0.4-0.8-0.4-0.7,0.1-1.2c0.3-0.2,0.6-0.5,0.9-0.8
		c0.2-0.2,0.3-0.4,0.4-0.5c-0.2-0.1-0.4-0.1-0.7-0.2c-0.3,0-0.7,0.1-1,0c-0.1,0-0.3-0.4-0.3-0.6c0-0.1,0.1-0.4,0.2-0.4
		c0.3-0.1,0.7,0,1-0.1c0.4-0.1,0.8-0.1,1.2-0.2c-0.3-0.6-0.8-0.1-1.2-0.3c-0.3-0.1-0.5-0.2-0.7-0.4c-0.1-0.1,0.1-0.4,0.3-0.6
		s0.5-0.3,0.8-0.5c0.2-0.1,0.4-0.5,0.3-0.5c-0.2-0.2-0.4-0.3-0.7-0.4c-0.1-0.1-0.4,0.1-0.5,0c-0.2-0.1-0.3-0.3-0.3-0.5
		c0-0.2,0.3-0.4,0.4-0.4c0.7-0.1,1.4,0,0.4-0.9c-0.3-0.3-0.3-0.8-0.5-1.3c0.2,0,0.3-0.1,0.5-0.1s0.3,0,0.5,0
		c-0.1-0.2-0.1-0.5-0.2-0.6c-0.6-0.5-0.9-1.7-0.6-2.5c0.2-0.6,0.3-0.9-0.4-0.9c-0.5-0.1-0.5-0.3-0.1-0.5c0.3-0.1,0.6-0.3,0.8-0.5
		c0.3-0.3,0.3-0.5-0.2-0.5c-0.3-0.1-0.6-0.3-0.8-0.5v-0.4c1-0.1,0.6-0.4,0.2-0.8c0.8-0.3-0.2-1,0.3-1.5c0.2-0.2-0.3-0.9-0.4-1.4
		c0-0.4,0.1-0.9,0.2-1.4c0.2-0.7,0.2-1.6,0.1-2.5c-0.1-0.5-0.2-1,0.6-1v-0.4c-0.4-0.3-0.3-0.6-0.1-1c0.2-0.3,1.5-0.9-0.1-1
		c-0.1-0.8-0.3-1.6-0.2-2.4c0-0.4,0.5-0.7,0.8-1c0.4-0.4,0.4-0.3,0.1-0.5c-0.3-0.1-0.5-0.3-0.8-0.4c-0.6-0.3-0.6-0.5-0.1-0.9
		c0.3-0.2,0.5-0.4,0.8-0.6c0.3-0.1,0.9,0.2,0.9-0.4c0-0.2-0.3-0.4-0.5-0.6c-0.4-0.2-0.9-0.3-1.3-0.4c-0.2-0.1-0.4-0.1-0.7-0.2
		c0.2-0.1,0.4-0.2,0.6-0.3c0.2-0.1,0.5,0,0.7,0c1.2-0.1,0.2-0.5,0.1-0.8c-0.2-0.4-0.3-0.9-0.5-1.3c-0.3-0.6-0.1-0.9,0.6-0.9
		c0.3,0,0.7,0.1,1-0.1c0.3-0.1,0.5-0.4,0.7-0.7c-0.2-0.1-0.5-0.2-0.7-0.3c-0.2,0-0.5,0-0.7,0c-0.5,0-1,0.2-1-0.6
		c0-0.6,0.2-0.9,0.8-0.9c0.2,0,0.4-0.2,0.6-0.2c-0.2-0.1-0.4-0.2-0.6-0.2c-0.3,0-0.7,0-1,0c-0.1,0-0.3-0.1-0.4-0.2h1.7
		c0-0.4-0.3-0.9-0.4-1.3c0.7,0,0.7-0.6,1-1c0.2-0.3,0.3-0.5-0.2-0.5c-0.8,0-1.6,0-1.7,1.1h-0.2c-0.5-1.3,0.6-1.6,1.3-2
		c0.2-0.1,0.3-0.2,0.5-0.3c-0.3-0.2-0.5-0.3-0.8-0.3h-0.1l0.1,0.4c-0.1,0-0.2-0.1-0.3-0.1c0-0.1,0.1-0.2,0.1-0.3
		c-0.5,0-0.7-0.2-0.5-0.8s0.4-1.1,0.6-1.7c0.1-0.2,0.2-0.6,0.2-0.6c-1-0.6-0.2-1.2-0.1-1.8c0.1-0.3,0-0.7,0-1
		c-0.1-0.5,0-0.8,0.4-1.1c0.4-0.4,0.9-0.9-0.2-0.9l-0.2-0.6c-0.2,0,0.1-0.1,0-0.2c-0.2-0.2,0.4-0.4,0.4-0.8h-0.5
		c0.5-0.2,0.9-0.4,1.5-0.5c0-0.1-0.1-0.1-0.1-0.3c-0.7-1-0.7-1.4,0.1-2.2c0.1-0.2,0.4-0.2,0.6-0.3c0.1-0.1,0.2-0.2,0.3-0.3
		c-0.1-0.1-0.3-0.2-0.4-0.2c-1.2-0.3-1.2-0.3-0.7-1.1c0.3-0.5,0.3-0.4-0.6-0.9c-0.4-0.2-0.7-0.9-0.6-1.3c0.2-0.7,0.2-1.3-0.1-2
		c-0.3-0.6-0.5-3.4-0.5-4.1c0-0.5,1.5-1.3,1.2-1.6c-0.6-0.6,0.5-0.8,0.2-1.2c-0.8-1-0.5-2.1-0.7-3.2c-0.1-0.7-0.3-1.6-0.5-2.1h0.1
		c0.5-0.5,0.2-1.7,0.1-2.4c-0.2-1.1,0.6-2.1-0.1-3.2c-0.1-0.1,0.1-0.5,0.2-0.6c0.8-0.7,0.3-1.2-0.5-1.9c-0.7-0.6,0.1-0.5,0.3-0.5
		c0.8,0,1.1-0.3,0.5-1c-0.1-0.1-0.2-0.3-0.2-0.3c0.2-0.5,0.7-1.4,0.6-1.5c-0.6-0.6-1.5-1-1.4-1.4c0.2-0.6-0.3-1.3,0.3-1.8
		c0.1-0.1-0.2-0.6-0.3-1c-0.2-0.4-0.2-0.8,0.4-0.8c0.5-0.1,0.4-0.3,0.1-0.6c-0.4-0.3-0.4-0.7,0.1-0.9c0.2-0.1,0.4-0.2,0.6-0.3
		c-0.1-0.1-0.3-0.2-0.4-0.2c-0.4-0.2-0.9-0.3-1.3-0.4c-0.1,0-0.2-0.2-0.2-0.3c0.1-0.1,0.3-0.2,0.4-0.2c0.7,0,1.5,0,0.7-1.1
		c-0.1-0.1,0.1-0.5,0.2-0.7c0.2-0.3,0.9-0.5-0.2-0.8c-0.7-0.2-0.5-1.6,0.2-2.4c0.2-0.2-0.7-0.6-0.8-0.8c-0.4-0.8-0.4-0.7,0.1-1.2
		c0.3-0.2,0.6-0.5,0.9-0.8c0.2-0.2,0.3-0.4,0.4-0.5c-0.2-0.1-0.4-0.1-0.7-0.2c-0.3,0-0.7,0.1-1,0c-0.1,0-0.3-0.4-0.3-0.6
		c0-0.1,0.1-0.4,0.2-0.4c0.3-0.1,0.7,0,1-0.1c0.4-0.1,0.8-0.1,1.2-0.2c-0.3-0.6-0.8-0.1-1.2-0.3c-0.3-0.1-0.5-0.2-0.7-0.4
		c-0.1-0.1,0.1-0.4,0.3-0.6s0.5-0.3,0.8-0.5c0.2-0.1,0.4-0.5,0.3-0.5c-0.2-0.2-0.4-0.3-0.7-0.4c-0.1-0.1-0.4,0.1-0.5,0
		c-0.2-0.1-0.3-0.3-0.3-0.5c0-0.2,0.3-0.4,0.4-0.4c0.7-0.1,1.4,0,0.4-0.9c-0.3-0.3-0.3-0.8-0.5-1.3c0.2,0,0.3-0.1,0.5-0.1
		s0.3,0,0.5,0c-0.1-0.2-0.1-0.5-0.2-0.6c-0.6-0.5-0.9-1.7-0.6-2.5c0.2-0.6,0.3-0.9-0.4-0.9c-0.5-0.1-0.5-0.3-0.1-0.5
		c0.3-0.1,0.6-0.3,0.8-0.5c0.3-0.3,0.3-0.5-0.2-0.5c-0.3-0.1-0.6-0.3-0.8-0.5v-0.4c1-0.1,0.6-0.4,0.2-0.8c0.8-0.3-0.2-1,0.3-1.5
		c0.2-0.2-0.3-0.9-0.4-1.4c0-0.4,0.1-0.9,0.2-1.4c0.2-0.7,0.2-1.6,0.1-2.5c-0.1-0.5-0.2-1,0.6-1v-0.4c-0.4-0.3-0.3-0.6-0.1-1
		c0.2-0.3,1.5-0.9-0.1-1c-0.1-0.8-0.3-1.6-0.2-2.4c0-0.4,0.5-0.7,0.8-1c0.4-0.4,0.4-0.3,0.1-0.5c-0.3-0.1-0.5-0.3-0.8-0.4
		c-0.6-0.3-0.6-0.5-0.1-0.9c0.3-0.2,0.5-0.4,0.8-0.6c0.3-0.1,0.9,0.2,0.9-0.4c0-0.2-0.3-0.4-0.5-0.6c-0.4-0.2-0.9-0.3-1.3-0.4
		c-0.2-0.1-0.4-0.1-0.7-0.2c0.2-0.1,0.4-0.2,0.6-0.3c0.2-0.1,0.5,0,0.7,0c1.2-0.1,0.2-0.5,0.1-0.8c-0.2-0.4-0.3-0.9-0.5-1.3
		c-0.3-0.6-0.1-0.9,0.6-0.9c0.3,0,0.7,0.1,1-0.1c0.3-0.1,0.5-0.4,0.7-0.7c-0.2-0.1-0.5-0.2-0.7-0.3c-0.2,0-0.5,0-0.7,0
		c-0.5,0-1,0.2-1-0.6c0-0.6,0.2-0.9,0.8-0.9c0.2,0,0.4-0.2,0.6-0.2c-0.2-0.1-0.4-0.2-0.6-0.2c-0.3,0-0.7,0-1,0
		c-0.1,0-0.3-0.1-0.4-0.2c0.1-0.1,0.2-0.2,0.4-0.3c0.7-0.1,1.5-0.1,2.2-0.1c0.1,0,0.2-0.2,0.3-0.3l-0.2-0.2
		c-0.5,0.4-0.8-0.9-1.4-0.2c-0.4,0.4-0.7,0.2-1-0.1c-0.1-0.1-0.2-0.2-0.4-0.3c0.1-0.1,0.2-0.3,0.3-0.3c0.4-0.1,0.8,0,1.2-0.1
		c0.1,0,0.3-0.2,0.4-0.2c-0.2-0.1-0.4-0.2-0.6-0.2c-0.5-0.2-0.5-0.5-0.2-0.9c0.5-0.6,0.5-1-0.4-1l-0.1-0.4c0.3-0.2,0.6-0.5,1-0.5
		c0.6-0.1,1.3-0.1,2-0.1l0.2-0.2c-0.1-0.1-0.2-0.3-0.2-0.3c-1.2,0.4-1.9-0.6-2.9-0.9c-0.1,0-0.2-0.2-0.4-0.2
		c0.1-0.1,0.2-0.2,0.4-0.2s0.5,0,0.7-0.1c0.4-0.1,0.8-0.2,1.3-0.3c-0.4-0.2-0.8-0.4-1.2-0.6c-0.2-0.1-0.4-0.2-0.7-0.3
		c0.9-0.6-0.6-0.9-0.1-1.3s1.1-0.7,1.5,0.1c-0.6,0-0.6,0.5-0.4,0.8c0.4,0.4,0.8,0.4,0.9-0.3c0.2,0,0.3,0,0.5,0
		c0.1,0,0.3-0.1,0.4-0.2c-0.1-0.1-0.3-0.2-0.4-0.3c-0.1,0-0.3,0-0.5,0c-0.5-0.2,1.4-1-0.2-1c-0.5,0-1,0.1-1.5,0.1
		c-0.1,0-0.2-0.2-0.4-0.2c0.1-0.1,0.2-0.2,0.4-0.2c0.4-0.1,0.7-0.2,1.1-0.3c0.2-0.1,0.3-0.3,0.4-0.5c-0.2-0.1-0.4-0.1-0.7-0.2
		c-0.3-0.1-0.5-0.2-0.7-0.3c0.2-0.2,0.4-0.7,0.7-0.7c0.6,0,0.1-0.6-0.6-0.6c0-0.1,0-0.3,0-0.3c0.1-0.1,0.3-0.1,0.5-0.1
		c0.4,0,0.9,0,0.8-0.6c0-0.2-0.5-0.3-0.7-0.4c-0.2-0.1-0.5-0.1-0.7-0.1c0.6-0.9-0.3-1.1-0.7-1.5c0.2-0.1,0.5-0.3,0.6-0.3
		c0.5,0.3,1,0.6,1.6,0.4c0.3-0.1,0.5-0.4,0.7-0.7c-0.2-0.1-0.5-0.3-0.7-0.3c-0.4,0-0.8,0.1-1.2,0c-0.3,0-1,0.3-0.8-0.3
		c0.2-0.3-0.1-1.3,0.8-1.2c0.2,0,0.5,0,0.7,0c0.2,0.1,0.5,0.6,0.7,0.1s-0.1-0.7-0.7-0.7c-0.2,0-0.4,0.1-0.5,0
		c-0.3-0.3-0.6-0.7-0.8-1.1c0-0.1,0.5-0.4,0.8-0.5c0.2-0.1,0.4-0.2,0.6-0.3c0.1-0.1,0.3-0.2,0.4-0.2c-0.2-0.1-0.4-0.2-0.6-0.2
		c-0.2,0-0.5,0.1-0.7-0.1c-0.2-0.1-0.2-0.4-0.2-0.6c0.2,0,0.4,0,0.5,0c0.3-0.1,0.6-0.3,0.9-0.4c-0.1-0.1-0.3-0.2-0.4-0.3h-0.2
		c-1.7-0.7-1.7-0.8-0.2-1.9c0.1-0.1,0.2-0.2,0.3-0.3c-0.1-0.1-0.3-0.2-0.4-0.2c-0.2,0-0.4,0.1-0.5,0c-0.2-0.1-0.4-0.3-0.6-0.5
		c0.1-0.1,0.3-0.3,0.4-0.4c0.1-0.1,0.3,0,0.5,0c0.2-0.1,0.5-0.2,0.5-0.4c0-0.2-0.1-0.5-0.3-0.6c-0.2-0.1-0.4-0.1-0.7-0.2
		c0.2-0.1,0.3-0.3,0.5-0.3c0.2-0.1,0.6,0,0.7-0.1c0.2-0.2,0.4-0.6,0.5-0.9c-0.3,0.1-0.6,0.2-0.8,0.2s-0.3,0-0.5-0.1
		c0.1-0.2,0.1-0.6,0.2-0.6c0.3-0.1,0.6-0.1,1-0.1c0,0,0-0.3,0-0.5c-0.8,0.1-0.7-0.1-0.4-0.7c0.2-0.4-0.2-1.1-0.3-1.6
		c0.7,0,0.7-0.6,1-1c0.2-0.3,0.3-0.5-0.2-0.5c-0.8,0-1.6,0-1.7,1.1h-0.2c-0.5-1.3,0.6-1.6,1.3-2c0.2-0.1,0.3-0.2,0.5-0.3
		c-0.2-0.1-0.5-0.2-0.7-0.1c-0.6,0.1-0.9-0.1-0.7-0.8c0.2-0.6,0.4-1.1,0.6-1.7c0.1-0.2,0.2-0.6,0.2-0.6c-1-0.6-0.2-1.2-0.1-1.8
		c0.1-0.3,0-0.7,0-1c-0.1-0.5,0-0.8,0.4-1.1c0.4-0.4,0.9-0.9-0.2-0.9l-0.2-0.6c0.2-0.2,0.5-0.2,0.8-0.4c0.2-0.1,0.4-0.2,0.6-0.3
		c-0.2-0.1-0.4-0.1-0.6-0.2c-0.5-0.2-0.4-0.4,0-0.5c0.1-0.1,0.1-0.2-0.3-0.3c0-0.1-0.1-0.2,0-0.4c0.3,0.2,0.6,0.3,0.8,0.5
		c0-0.1-0.1-0.1-0.1-0.2c-0.7-1-0.7-1.4,0.1-2.2c0.1-0.2,0.4-0.2,0.6-0.3c0.1-0.1,0.2-0.2,0.3-0.3c-0.1-0.1-0.3-0.2-0.4-0.2
		c-1.2-0.3-1.2-0.3-0.7-1.1c0.3-0.5,0.3-0.4-0.6-0.9c-0.4-0.2-0.7-0.9-0.6-1.3c0.2-0.7,0.2-1.3-0.1-2c-0.3-0.6-0.5-3.4-0.5-4.1
		c0-0.5,1.5-1.3,1.2-1.6c-0.6-0.6,0.5-0.8,0.2-1.2c-0.8-1-0.5-2.1-0.7-3.2c-0.1-0.7-0.3-1.6-0.5-2.1h0.1c0.5-0.5,0.2-1.7,0.1-2.4
		c-0.2-1.1,0.6-2.1-0.1-3.2c-0.1-0.1,0.1-0.5,0.2-0.6c0.8-0.7,0.3-1.2-0.5-1.9c-0.7-0.6,0.1-0.5,0.3-0.5c0.8,0,1.1-0.3,0.5-1
		c-0.1-0.1-0.2-0.3-0.2-0.3c0.2-0.5,0.7-1.4,0.6-1.5c-0.6-0.6-1.5-1-1.4-1.4c0.2-0.6-0.3-1.3,0.3-1.8c0.1-0.1-0.2-0.6-0.3-1
		c-0.2-0.4-0.2-0.8,0.4-0.8c0.5-0.1,0.4-0.3,0.1-0.6c-0.4-0.3-0.4-0.7,0.1-0.9c0.2-0.1,0.4-0.2,0.6-0.3c-0.1-0.1-0.3-0.2-0.4-0.2
		c-0.4-0.2-0.9-0.3-1.3-0.4c-0.1,0-0.2-0.2-0.2-0.3c0.1-0.1,0.3-0.2,0.4-0.2c0.7,0,1.5,0,0.7-1.1c-0.1-0.1,0.1-0.5,0.2-0.7
		c0.2-0.3,0.9-0.5-0.2-0.8c-0.7-0.2-0.5-1.6,0.2-2.4c0.2-0.2-0.7-0.6-0.8-0.8c-0.4-0.8-0.4-0.7,0.1-1.2c0.3-0.2,0.6-0.5,0.9-0.8
		c0.2-0.2,0.3-0.4,0.4-0.5c-0.2-0.1-0.4-0.1-0.7-0.2c-0.3,0-0.7,0.1-1,0c-0.1,0-0.3-0.4-0.3-0.6c0-0.1,0.1-0.4,0.2-0.4
		c0.3-0.1,0.7,0,1-0.1c0.4-0.1,0.8-0.1,1.2-0.2c-0.3-0.6-0.8-0.1-1.2-0.3c-0.3-0.1-0.5-0.2-0.7-0.4c-0.1-0.1,0.1-0.4,0.3-0.6
		c0.2-0.2,0.5-0.3,0.8-0.5c0.2-0.1,0.4-0.5,0.3-0.5c-0.2-0.2-0.4-0.3-0.7-0.4c-0.1-0.1-0.4,0.1-0.5,0c-0.2-0.1-0.3-0.3-0.3-0.5
		c0-0.2,0.3-0.4,0.4-0.4c0.7-0.1,1.4,0,0.4-0.9c-0.3-0.3-0.3-0.8-0.5-1.3c0.2,0,0.3-0.1,0.5-0.1s0.3,0,0.5,0
		c-0.1-0.2-0.1-0.5-0.2-0.6c-0.6-0.5-0.9-1.7-0.6-2.5c0.2-0.6,0.3-0.9-0.4-0.9c-0.5-0.1-0.5-0.3-0.1-0.5c0.3-0.1,0.6-0.3,0.8-0.5
		c0.3-0.3,0.3-0.5-0.2-0.5c-0.3-0.1-0.6-0.3-0.8-0.5v-0.4c1-0.1,0.6-0.4,0.2-0.8c0.8-0.3-0.2-1,0.3-1.5c0.2-0.2-0.3-0.9-0.4-1.4
		c0-0.4,0.1-0.9,0.2-1.4c0.2-0.7,0.2-1.6,0.1-2.5c-0.1-0.5-0.2-1,0.6-1v-0.4c-0.4-0.3-0.3-0.6-0.1-1c0.2-0.3,1.5-0.9-0.1-1
		c-0.1-0.8-0.3-1.6-0.2-2.4c0-0.4,0.5-0.7,0.8-1c0.4-0.4,0.4-0.3,0.1-0.5c-0.3-0.1-0.5-0.3-0.8-0.4c-0.6-0.3-0.6-0.5-0.1-0.9
		c0.3-0.2,0.5-0.4,0.8-0.6c0.3-0.1,0.9,0.2,0.9-0.4c0-0.2-0.3-0.4-0.5-0.6c-0.4-0.2-0.9-0.3-1.3-0.4c-0.2-0.1-0.4-0.1-0.7-0.2
		c0.2-0.1,0.4-0.2,0.6-0.3c0.2-0.1,0.5,0,0.7,0c1.2-0.1,0.2-0.5,0.1-0.8c-0.2-0.4-0.3-0.9-0.5-1.3c-0.3-0.6-0.1-0.9,0.6-0.9
		c0.3,0,0.7,0.1,1-0.1c0.3-0.1,0.5-0.4,0.7-0.7c-0.2-0.1-0.5-0.2-0.7-0.3c-0.2,0-0.5,0-0.7,0c-0.5,0-1,0.2-1-0.6
		c0-0.6,0.2-0.9,0.8-0.9c0.2,0,0.4-0.2,0.6-0.2c-0.2-0.1-0.4-0.2-0.6-0.2c-0.3,0-0.7,0-1,0c-0.1,0-0.3-0.1-0.4-0.2l0,0h1.7
		c0-0.4-0.3-0.9-0.4-1.3c0.7,0,0.7-0.6,1-1c0.2-0.3,0.3-0.5-0.2-0.5c-0.8,0-1.6,0-1.7,1.1h-0.2c-0.5-1.3,0.6-1.6,1.3-2
		c0.2-0.1,0.3-0.2,0.5-0.3c-0.3-0.2-0.5-0.3-0.8-0.3h-0.1l0.1,0.4c-0.1,0-0.2-0.1-0.3-0.1c0-0.1,0.1-0.2,0.1-0.3
		c-0.5,0-0.7-0.2-0.5-0.8c0.2-0.6,0.4-1.1,0.6-1.7c0.1-0.2,0.2-0.6,0.2-0.6c-1-0.6-0.2-1.2-0.1-1.8c0.1-0.3,0-0.7,0-1
		c-0.1-0.5,0-0.8,0.4-1.1c0.4-0.4,0.9-0.9-0.2-0.9l-0.2-0.6c-0.2,0,0.1-0.1,0-0.2c-0.2-0.2,0.4-0.4,0.4-0.8h-0.5
		c0.5-0.2,0.9-0.4,1.5-0.5c0-0.1-0.1-0.1-0.1-0.3c-0.7-1-0.7-1.4,0.1-2.2c0.1-0.2,0.4-0.2,0.6-0.3c0.1-0.1,0.2-0.2,0.3-0.3
		c-0.1-0.1-0.3-0.2-0.4-0.2c-1.2-0.3-1.2-0.3-0.7-1.1c0.3-0.5,0.3-0.4-0.6-0.9c-0.4-0.2-0.7-0.9-0.6-1.3c0.2-0.7,0.2-1.3-0.1-2
		c-0.3-0.6-0.5-3.4-0.5-4.1c0-0.5,1.5-1.3,1.2-1.6c-0.6-0.6,0.5-0.8,0.2-1.2c-0.8-1-0.5-2.1-0.7-3.2c-0.1-0.7-0.3-1.6-0.5-2.1h0.1
		c0.5-0.5,0.2-1.7,0.1-2.4c-0.2-1.1,0.6-2.1-0.1-3.2c-0.1-0.1,0.1-0.5,0.2-0.6c0.8-0.7,0.3-1.2-0.5-1.9c-0.7-0.6,0.1-0.5,0.3-0.5
		c0.8,0,1.1-0.3,0.5-1c-0.1-0.1-0.2-0.3-0.2-0.3c0.2-0.5,0.7-1.4,0.6-1.5c-0.6-0.6-1.5-1-1.4-1.4c0.2-0.6-0.3-1.3,0.3-1.8
		c0.1-0.1-0.2-0.6-0.3-1c-0.2-0.4-0.2-0.8,0.4-0.8c0.5-0.1,0.4-0.3,0.1-0.6c-0.4-0.3-0.4-0.7,0.1-0.9c0.2-0.1,0.4-0.2,0.6-0.3
		c-0.1-0.1-0.3-0.2-0.4-0.2c-0.4-0.2-0.9-0.3-1.3-0.4c-0.1,0-0.2-0.2-0.2-0.3c0.1-0.1,0.3-0.2,0.4-0.2c0.7,0,1.5,0,0.7-1.1
		c-0.1-0.1,0.1-0.5,0.2-0.7c0.2-0.3,0.9-0.5-0.2-0.8c-0.7-0.2-0.5-1.6,0.2-2.4c0.2-0.2-0.7-0.6-0.8-0.8c-0.4-0.8-0.4-0.7,0.1-1.2
		c0.3-0.2,0.6-0.5,0.9-0.8c0.2-0.2,0.3-0.4,0.4-0.5c-0.2-0.1-0.4-0.1-0.7-0.2c-0.3,0-0.7,0.1-1,0c-0.1,0-0.3-0.4-0.3-0.6
		c0-0.1,0.1-0.4,0.2-0.4c0.3-0.1,0.7,0,1-0.1c0.4-0.1,0.8-0.1,1.2-0.2c-0.3-0.6-0.8-0.1-1.2-0.3c-0.3-0.1-0.5-0.2-0.7-0.4
		c-0.1-0.1,0.1-0.4,0.3-0.6s0.5-0.3,0.8-0.5c0.2-0.1,0.4-0.5,0.3-0.5c-0.2-0.2-0.4-0.3-0.7-0.4c-0.1-0.1-0.4,0.1-0.5,0
		c-0.2-0.1-0.3-0.3-0.3-0.5s0.3-0.4,0.4-0.4c0.7-0.1,1.4,0,0.4-0.9c-0.3-0.3-0.3-0.8-0.5-1.3c0.2,0,0.3-0.1,0.5-0.1s0.3,0,0.5,0
		c-0.1-0.2-0.1-0.5-0.2-0.6c-0.6-0.5-0.9-1.7-0.6-2.5c0.2-0.6,0.3-0.9-0.4-0.9c-0.5-0.1-0.5-0.3-0.1-0.5c0.3-0.1,0.6-0.3,0.8-0.5
		c0.3-0.3,0.3-0.5-0.2-0.5c-0.3-0.1-0.6-0.3-0.8-0.5v-0.4c1-0.1,0.6-0.4,0.2-0.8c0.8-0.3-0.2-1,0.3-1.5c0.2-0.2-0.3-0.9-0.4-1.4
		c0-0.4,0.1-0.9,0.2-1.4c0.2-0.7,0.2-1.6,0.1-2.5c-0.1-0.5-0.2-1,0.6-1v-0.4c-0.4-0.3-0.3-0.6-0.1-1c0.2-0.3,1.5-0.9-0.1-1
		c-0.1-0.8-0.3-1.6-0.2-2.4c0-0.4,0.5-0.7,0.8-1c0.4-0.4,0.4-0.3,0.1-0.5c-0.3-0.1-0.5-0.3-0.8-0.4c-0.6-0.3-0.6-0.5-0.1-0.9
		c0.3-0.2,0.5-0.4,0.8-0.6c0.3-0.1,0.9,0.2,0.9-0.4c0-0.2-0.3-0.4-0.5-0.6c-0.4-0.2-0.9-0.3-1.3-0.4c-0.2-0.1-0.4-0.1-0.7-0.2
		c0.2-0.1,0.4-0.2,0.6-0.3c0.2-0.1,0.5,0,0.7,0c1.2-0.1,0.2-0.5,0.1-0.8c-0.2-0.4-0.3-0.9-0.5-1.3c-0.3-0.6-0.1-0.9,0.6-0.9
		c0.3,0,0.7,0.1,1-0.1c0.3-0.1,0.5-0.4,0.7-0.7c-0.2-0.1-0.5-0.2-0.7-0.3c-0.2,0-0.5,0-0.7,0c-0.5,0-1,0.2-1-0.6
		c0-0.6,0.2-0.9,0.8-0.9c0.2,0,0.4-0.2,0.6-0.2c-0.2-0.1-0.4-0.2-0.6-0.2c-0.3,0-0.7,0-1,0c-0.1,0-0.3-0.1-0.4-0.2
		c0.1-0.1,0.2-0.2,0.4-0.3c0.7-0.1,1.5-0.1,2.2-0.1c0.1,0,0.2-0.2,0.3-0.3l-0.2-0.2c-0.5,0.4-0.8-0.9-1.4-0.2
		c-0.4,0.4-0.7,0.2-1-0.1c-0.1-0.1-0.2-0.2-0.4-0.3c0.1-0.1,0.2-0.3,0.3-0.3c0.4-0.1,0.8,0,1.2-0.1c0.1,0,0.3-0.2,0.4-0.2
		c-0.2-0.1-0.4-0.2-0.6-0.2c-0.5-0.2-0.5-0.5-0.2-0.9c0.5-0.6,0.5-1-0.4-1l-0.1-0.4c0.3-0.2,0.6-0.5,1-0.5c0.6-0.1,1.3-0.1,2-0.1
		l0.2-0.2c-0.1-0.1-0.2-0.3-0.2-0.3c-1.2,0.4-1.9-0.6-2.9-0.9c-0.1,0-0.2-0.2-0.4-0.2c0.1-0.1,0.2-0.2,0.4-0.2s0.5,0,0.7-0.1
		c0.4-0.1,0.8-0.2,1.3-0.3c-0.4-0.2-0.8-0.4-1.2-0.6c-0.2-0.1-0.4-0.2-0.7-0.3c0.9-0.6-0.6-0.9-0.1-1.3s1.1-0.7,1.5,0.1
		c-0.6,0-0.6,0.5-0.4,0.8c0.4,0.4,0.8,0.4,0.9-0.3c0.2,0,0.3,0,0.5,0c0.1,0,0.3-0.1,0.4-0.2c-0.1-0.1-0.3-0.2-0.4-0.3
		c-0.1,0-0.3,0-0.5,0c-0.5-0.2,1.4-1-0.2-1c-0.5,0-1,0.1-1.5,0.1c-0.1,0-0.2-0.2-0.4-0.2c0.1-0.1,0.2-0.2,0.4-0.2
		c0.4-0.1,0.7-0.2,1.1-0.3c0.2-0.1,0.3-0.3,0.4-0.5c-0.2-0.1-0.4-0.1-0.7-0.2s-0.5-0.2-0.7-0.3c0.2-0.2,0.4-0.7,0.7-0.7
		c0.6,0,0.1-0.6-0.6-0.6c0-0.1,0-0.3,0-0.3c0.1-0.1,0.3-0.1,0.5-0.1c0.4,0,0.9,0,0.8-0.6c0-0.2-0.5-0.3-0.7-0.4s-0.5-0.1-0.7-0.1
		c0.6-0.9-0.3-1.1-0.7-1.5c0.2-0.1,0.5-0.3,0.6-0.3c0.5,0.3,1,0.6,1.6,0.4c0.3-0.1,0.5-0.4,0.7-0.7c-0.2-0.1-0.5-0.3-0.7-0.3
		c-0.4,0-0.8,0.1-1.2,0c-0.3,0-1,0.3-0.8-0.3c0.2-0.3-0.1-1.3,0.8-1.2c0.2,0,0.5,0,0.7,0c0.2,0.1,0.5,0.6,0.7,0.1s-0.1-0.7-0.7-0.7
		c-0.2,0-0.4,0.1-0.5,0c-0.3-0.3-0.6-0.7-0.8-1.1c0-0.1,0.5-0.4,0.8-0.5c0.2-0.1,0.4-0.2,0.6-0.3c0.1-0.1,0.3-0.2,0.4-0.2
		c-0.2-0.1-0.4-0.2-0.6-0.2c-0.2,0-0.5,0.1-0.7-0.1c-0.2-0.1-0.2-0.4-0.2-0.6c0.2,0,0.4,0,0.5,0c0.3-0.1,0.6-0.3,0.9-0.4
		c-0.1-0.1-0.3-0.2-0.4-0.3h-0.2c-1.7-0.7-1.7-0.8-0.2-1.9c0.1-0.1,0.2-0.2,0.3-0.3c-0.1-0.1-0.3-0.2-0.4-0.2c-0.2,0-0.4,0.1-0.5,0
		c-0.2-0.1-0.4-0.3-0.6-0.5c0.1-0.1,0.3-0.3,0.4-0.4c0.1-0.1,0.3,0,0.5,0c0.2-0.1,0.5-0.2,0.5-0.4s-0.1-0.5-0.3-0.6
		s-0.4-0.1-0.7-0.2c0.2-0.1,0.3-0.3,0.5-0.3c0.2-0.1,0.6,0,0.7-0.1c0.2-0.2,0.4-0.6,0.5-0.9c-0.3,0.1-0.6,0.2-0.8,0.2
		s-0.3,0-0.5-0.1c0.1-0.2,0.1-0.6,0.2-0.6c0.3-0.1,0.6-0.1,1-0.1c0,0,0-0.3,0-0.5c-0.8,0.1-0.7-0.1-0.4-0.7c0.2-0.4-0.2-1.1-0.3-1.6
		c0.7,0,0.7-0.6,1-1c0.2-0.3,0.3-0.5-0.2-0.5c-0.8,0-1.6,0-1.7,1.1h-0.2c-0.5-1.3,0.6-1.6,1.3-2c0.2-0.1,0.3-0.2,0.5-0.3
		c-0.2-0.1-0.5-0.2-0.7-0.1c-0.6,0.1-0.9-0.1-0.7-0.8c0.2-0.6,0.4-1.1,0.6-1.7c0.1-0.2,0.2-0.6,0.2-0.6c-1-0.6-0.2-1.2-0.1-1.8
		c0.1-0.3,0-0.7,0-1c-0.1-0.5,0-0.8,0.4-1.1c0.4-0.4,0.9-0.9-0.2-0.9l-0.2-0.6c0.2-0.2,0.5-0.2,0.8-0.4c0.2-0.1,0.4-0.2,0.6-0.3
		c-0.2-0.1-0.4-0.1-0.6-0.2c-0.5-0.2-0.4-0.4,0-0.5c0.1-0.1,0.1-0.2-0.3-0.3c0-0.1-0.1-0.2,0-0.4c0.3,0.2,0.6,0.3,0.8,0.5
		c0-0.1-0.1-0.1-0.1-0.2c-0.7-1-0.7-1.4,0.1-2.2c0.1-0.2,0.4-0.2,0.6-0.3c0.1-0.1,0.2-0.2,0.3-0.3c-0.1-0.1-0.3-0.2-0.4-0.2
		c-1.2-0.3-1.2-0.3-0.7-1.1c0.3-0.5,0.3-0.4-0.6-0.9c-0.4-0.2-0.7-0.9-0.6-1.3c0.2-0.7,0.2-1.3-0.1-2c-0.3-0.6-0.5-3.4-0.5-4.1
		c0-0.5,1.5-1.3,1.2-1.6c-0.6-0.6,0.5-0.8,0.2-1.2c-0.8-1-0.5-2.1-0.7-3.2c-0.1-0.7-0.3-1.6-0.5-2.1h0.1c0.5-0.5,0.2-1.7,0.1-2.4
		c-0.2-1.1,0.6-2.1-0.1-3.2c-0.1-0.1,0.1-0.5,0.2-0.6c0.8-0.7,0.3-1.2-0.5-1.9c-0.7-0.6,0.1-0.5,0.3-0.5c0.8,0,1.1-0.3,0.5-1
		c-0.1-0.1-0.2-0.3-0.2-0.3c0.2-0.5,0.7-1.4,0.6-1.5c-0.6-0.6-1.5-1-1.4-1.4c0.2-0.6-0.3-1.3,0.3-1.8c0.1-0.1-0.2-0.6-0.3-1
		c-0.2-0.4-0.2-0.8,0.4-0.8c0.5-0.1,0.4-0.3,0.1-0.6c-0.4-0.3-0.4-0.7,0.1-0.9c0.2-0.1,0.4-0.2,0.6-0.3c-0.1-0.1-0.3-0.2-0.4-0.2
		c-0.4-0.2-0.9-0.3-1.3-0.4c-0.1,0-0.2-0.2-0.2-0.3c0.1-0.1,0.3-0.2,0.4-0.2c0.7,0,1.5,0,0.7-1.1c-0.1-0.1,0.1-0.5,0.2-0.7
		c0.2-0.3,0.9-0.5-0.2-0.8c-0.7-0.2-0.5-1.6,0.2-2.4c0.2-0.2-0.7-0.6-0.8-0.8c-0.4-0.8-0.4-0.7,0.1-1.2c0.3-0.2,0.6-0.5,0.9-0.8
		c0.2-0.2,0.3-0.4,0.4-0.5c-0.2-0.1-0.4-0.1-0.7-0.2c-0.3,0-0.7,0.1-1,0c-0.1,0-0.3-0.4-0.3-0.6c0-0.1,0.1-0.4,0.2-0.4
		c0.3-0.1,0.7,0,1-0.1c0.4-0.1,0.8-0.1,1.2-0.2c-0.3-0.6-0.8-0.1-1.2-0.3c-0.3-0.1-0.5-0.2-0.7-0.4c-0.1-0.1,0.1-0.4,0.3-0.6
		s0.5-0.3,0.8-0.5c0.2-0.1,0.4-0.5,0.3-0.5c-0.2-0.2-0.4-0.3-0.7-0.4c-0.1-0.1-0.4,0.1-0.5,0c-0.2-0.1-0.3-0.3-0.3-0.5
		s0.3-0.4,0.4-0.4c0.7-0.1,1.4,0,0.4-0.9c-0.3-0.3-0.3-0.8-0.5-1.3c0.2,0,0.3-0.1,0.5-0.1s0.3,0,0.5,0c-0.1-0.2-0.1-0.5-0.2-0.6
		c-0.6-0.5-0.9-1.7-0.6-2.5c0.2-0.6,0.3-0.9-0.4-0.9C18,28,18,27.8,18.4,27.6c0.3-0.1,0.6-0.3,0.8-0.5c0.3-0.3,0.3-0.5-0.2-0.5
		c-0.3-0.1-0.6-0.3-0.8-0.5v-0.4c1-0.1,0.6-0.4,0.2-0.8c0.8-0.3-0.2-1,0.3-1.5c0.2-0.2-0.3-0.9-0.4-1.4c0-0.4,0.1-0.9,0.2-1.4
		c0.2-0.7,0.2-1.6,0.1-2.5c-0.1-0.5-0.2-1,0.6-1v-0.4c-0.4-0.3-0.3-0.6-0.1-1c0.2-0.3,1.5-0.9-0.1-1c-0.1-0.8-0.3-1.6-0.2-2.4
		c0-0.4,0.5-0.7,0.8-1c0.4-0.4,0.4-0.3,0.1-0.5c-0.3-0.1-0.5-0.3-0.8-0.4c-0.6-0.3-0.6-0.5-0.1-0.9c0.3-0.2,0.5-0.4,0.8-0.6
		c0.3-0.1,0.9,0.2,0.9-0.4c0-0.2-0.3-0.4-0.5-0.6c-0.4-0.2-0.9-0.3-1.3-0.4c-0.2-0.1-0.4-0.1-0.7-0.2c0.2-0.1,0.4-0.2,0.6-0.3
		c0.2-0.1,0.5,0,0.7,0c1.2-0.1,0.2-0.5,0.1-0.8c-0.2-0.4-0.3-0.9-0.5-1.3C18.6,4.3,18.8,4,19.5,4c0.3,0,0.7,0.1,1-0.1
		c0.3-0.1,0.5-0.4,0.7-0.7C21,3.1,20.7,3,20.5,2.9c-0.2,0-0.5,0-0.7,0c-0.5,0-1,0.2-1-0.6c0-0.6,0.2-0.9,0.8-0.9
		c0.2,0,0.4-0.2,0.6-0.2C20,1.1,19.8,1,19.6,1c-0.3,0-0.7,0-1,0c-0.1,0-0.3-0.1-0.4-0.2c0.1-0.1,0.2-0.1,0.3-0.2H13.1
		C13.1,0.6,13.1,0.7,13.1,0.6C13.1,0.7,13.1,0.6,13.1,0.6z M2.9,931.4c0-0.1,0.1-0.2,0.1-0.2S3,931.3,2.9,931.4z M12,930.7
		c-0.1-0.1,0-0.2,0.1-0.2C12.1,930.6,12,930.6,12,930.7z M1.5,929.9c-0.1-0.1-0.1-0.1-0.1-0.2C1.5,929.7,1.5,929.8,1.5,929.9z
		 M10.3,929.1c0.1-0.1,0.2-0.1,0.3-0.1C10.5,929,10.4,929.1,10.3,929.1z M8.2,926.2c0-0.1,0-0.2,0.1-0.3
		C8.3,926,8.3,926.1,8.2,926.2z M3,922.3c0,0.1-0.1,0.1-0.2,0.1C2.9,922.4,2.9,922.3,3,922.3z M12.9,923.8c0.1,0,0.1,0,0.2,0
		c-0.2,0.6-0.2,1.1-0.3,1.6c0,0-0.2,0.1-0.3,0.1s-0.2,0-0.3,0.1c0-0.1,0-0.3,0-0.4V925c0.1-0.4,0.3-0.8,0.5-1.2
		C12.7,923.8,12.8,923.8,12.9,923.8z M7.5,923c-0.4,0.4-0.8,0.7-1.2,1c-0.1,0-0.2-0.1-0.3-0.2l-0.2-0.1c0.2-0.5,0.5-1,0.8-1.6
		C7,922.4,7.3,922.7,7.5,923z M18.7,921.3h-0.2c0-0.1-0.7-0.3-0.6-0.5l0.1-0.1C18.1,920.8,18.3,921,18.7,921.3z M0.8,920.9
		c-0.1,0-0.1-0.1-0.1-0.2C0.8,920.7,0.8,920.8,0.8,920.9z M2.3,919.5c-0.1-0.1-0.1-0.1-0.1-0.2C2.2,919.3,2.3,919.4,2.3,919.5z
		 M10.9,916.5c-0.2,0.3-0.4,0.7-0.5,1c-0.3-0.5-0.7-1-0.7-1.5v-0.1c0.1-0.2,0.4-0.4,0.7-0.6C10.5,915.6,10.7,916,10.9,916.5z
		 M13.2,910.7c0.1,0.1,0.2,0.3,0.3,0.4c-0.3,0.1-0.7,0.2-1,0.4c-0.3-0.1-0.5-0.2-0.7-0.4c0.4-0.3,0.8-0.6,1.1-0.7
		C12.9,910.4,13.1,910.5,13.2,910.7z M5.4,910.1c-0.1,0.2-0.3,0.3-0.4,0.5c-0.3-0.2-0.6-0.4-0.7-0.6c0-0.1,0.2-0.4,0.5-0.8
		C5.1,909.6,5.4,909.9,5.4,910.1z M15.8,908.2c-0.1,0-0.2,0.1-0.2,0.1C15.7,908.2,15.7,908.1,15.8,908.2z M17.9,906.8
		c0-0.1,0.1-0.1,0.2-0.1C18,906.7,18,906.8,17.9,906.8z M11.3,906.7L11.3,906.7c-0.2,0-0.2-0.1-0.2-0.2
		C11.2,906.6,11.2,906.6,11.3,906.7z M10.3,902.9c0.1,0,0.2,0,0.3,0.1C10.5,903,10.4,903,10.3,902.9z M15.8,902.9
		c0,0.1-0.1,0.1-0.2,0.1C15.7,903,15.7,902.9,15.8,902.9z M11.1,905.1c0.1,0,0.2,0.1,0.3,0.2c-0.2,0.3-0.4,0.6-0.6,0.9
		c-0.1,0-0.2-0.1-0.3-0.2c-0.1-0.1-0.3-0.2-0.4-0.2c0.3-0.4,0.6-0.7,0.8-0.7C10.9,905,11,905.1,11.1,905.1z M8.3,904.5
		c-0.1,0.4-0.2,0.7-0.4,0.9c0,0-0.2-0.1-0.3-0.1s-0.2-0.1-0.3-0.1c0.3-0.3,0.5-0.5,0.8-0.8C8.2,904.4,8.3,904.4,8.3,904.5z
		 M18.8,903.8c-0.1,0-0.1,0.1-0.2,0.1c-0.1,0-0.2,0.1-0.2,0.1c-0.5-0.3-0.9-0.6-1.4-0.9c0.3-0.3,0.6-0.6,0.9-0.9
		C18.2,902.7,18.5,903.2,18.8,903.8z M6.8,897.1c-0.1,0-0.1-0.1-0.1-0.2C6.7,897,6.8,897,6.8,897.1z M3,893.4
		c-0.1-0.1,0-0.2,0.1-0.2C3.1,893.3,3,893.3,3,893.4z M3,891.9c-0.1-0.1-0.2-0.3-0.3-0.5c0.3-0.2,0.5-0.4,0.8-0.6c0,0,0.1,0,0.2,0.1
		c0,0,0.1,0,0.1,0.1C3.5,891.3,3.2,891.6,3,891.9z M17.9,891.1c-0.3,0.1-0.6,0.2-0.9,0.2c-0.2,0-0.3-0.1-0.6-0.2
		c0.2-0.1,0.5-0.2,0.8-0.4C17.4,890.8,17.7,890.9,17.9,891.1z M15.9,890.4c-0.2,0-0.2,0-0.3-0.1v-0.1
		C15.7,890.2,15.8,890.3,15.9,890.4z M6.2,887.7c0,0.1,0,0.2-0.1,0.3c0,0.1-0.1,0.1-0.1,0.2c-0.2-0.2-0.4-0.3-0.6-0.5
		c-0.2-0.2-0.3-0.3-0.3-0.4c0-0.1,0.1-0.2,0.3-0.4c0.1-0.1,0.3-0.2,0.4-0.4C6,887,6.1,887.3,6.2,887.7z M5.8,884.4
		c0.1,0,0.1,0.1,0.2,0.1c-0.5,0.2-0.8,0.3-1.1,0.5c0-0.1-0.1-0.1-0.1-0.2c0-0.1-0.1-0.2-0.1-0.2c0-0.1,0.1-0.2,0.1-0.2s0.1,0,0.2,0
		c0.2-0.1,0.3-0.1,0.5-0.1C5.6,884.3,5.6,884.3,5.8,884.4z M16.7,884.1c0-0.1-0.1-0.1-0.1-0.2c0.1,0,0.2-0.1,0.3-0.1L16.7,884.1z
		 M12.4,878c-0.6,0.3-1.1,0.6-1.6,0.9c0,0-0.1,0-0.2-0.1l-0.1-0.1c0.5-0.3,1-0.6,1.6-0.9C12.2,877.9,12.3,877.9,12.4,878z
		 M15.9,869.2c0-0.1,0-0.2,0.1-0.3C16,869,16,869.1,15.9,869.2z M15.9,866.9L15.9,866.9c0-0.1,0-0.2,0.2-0.1
		C16,866.8,15.9,866.9,15.9,866.9z M13,866.1c-0.1,0-0.2,0-0.3-0.1C12.9,866,13,866.1,13,866.1z M14.6,864.4c0,0,0,0.1-0.1,0.2
		c0,0,0,0.1-0.1,0.1c-0.1-0.2-0.2-0.4-0.3-0.6c0.1-0.1,0.2-0.3,0.2-0.4C14.5,864,14.6,864.2,14.6,864.4z M12.8,853.5
		c0.1-0.1,0.2-0.1,0.3-0.1C13,853.4,12.9,853.5,12.8,853.5z M3.2,851.3c0-0.1-0.1-0.2-0.1-0.2C3.2,851.1,3.2,851.2,3.2,851.3z
		 M14.8,850.5c-0.1,0.3-0.2,0.5-0.3,0.6c-0.1-0.1-0.2-0.3-0.3-0.4c0,0,0-0.1,0.1-0.2c0,0,0.1-0.1,0.1-0.2
		C14.5,850.4,14.6,850.5,14.8,850.5z M5.3,845.8c0,0,0.1,0.1,0.2,0.1c-0.1,0.1-0.1,0.3-0.2,0.4c-0.3-0.1-0.5-0.2-0.6-0.3
		c0.2-0.1,0.3-0.2,0.4-0.3C5.2,845.7,5.2,845.8,5.3,845.8z M16.8,841.3l-0.2,0.3c-0.3-0.3-0.5-0.5-0.7-0.8c0.1-0.1,0.2-0.1,0.2-0.2
		l0.1-0.1C16.5,840.8,16.7,841,16.8,841.3z M12.7,840.3c-0.1-0.3-0.2-0.6-0.3-1c0.1,0,0.2-0.1,0.3-0.2
		C12.8,839.6,12.8,839.9,12.7,840.3z M1,838.5L1,838.5c-0.2,0.1-0.4,0.2-0.6,0.2H0.3c0,0,0-0.1-0.1-0.1v-0.1
		c0.3-0.1,0.5-0.1,0.7-0.2C0.9,838.3,0.9,838.4,1,838.5z M9.2,834.1c-0.1,0.1-0.3,0.1-0.6,0.2c-0.1-0.3-0.3-0.6-0.3-0.9
		c0,0,0-0.1,0.1-0.2l0.1-0.1L9.2,834.1z M5.5,833.3c-0.1,0-0.2,0-0.3-0.1l0.1-0.1C5.4,833.2,5.5,833.3,5.5,833.3z M4.7,832.4
		L4.7,832.4c0,0.2-0.2,0.3-0.3,0.4c-0.2-0.1-0.3-0.2-0.5-0.4c0.2-0.1,0.4-0.2,0.6-0.2C4.5,832.3,4.6,832.4,4.7,832.4z M10.8,829.6
		c-0.1,0-0.2,0-0.3-0.1C10.6,829.5,10.7,829.5,10.8,829.6z M8.5,826.7c-0.1,0-0.1-0.1-0.1-0.2C8.4,826.5,8.5,826.6,8.5,826.7z
		 M4.8,825.2c-0.1,0-0.1-0.1-0.1-0.2C4.7,825,4.7,825.1,4.8,825.2z M13.8,822.2c-0.1,0-0.1-0.1-0.1-0.2
		C13.7,822,13.7,822.1,13.8,822.2z M8.7,821.7c-0.2,0.2-0.5,0.4-0.8,0.6c0,0-0.1,0-0.2-0.1c0,0-0.1,0-0.1-0.1l0.7-1
		C8.5,821.4,8.6,821.5,8.7,821.7z M13.1,820.3c0.1,0.1,0.3,0.2,0.5,0.2c-0.2,0.1-0.4,0.3-0.6,0.4c-0.3-0.1-0.5-0.2-0.7-0.3
		C12.5,820.5,12.8,820.3,13.1,820.3L13.1,820.3z M5,818.2c0.1,0.2,0.3,0.3,0.5,0.5c-0.5,0.1-0.9,0.3-1.4,0.4c-0.3-0.1-0.6-0.2-1-0.4
		c0.5-0.4,0.9-0.8,1.4-0.9C4.6,817.9,4.8,818,5,818.2z M2.3,810.5c0.1,0,0.1,0.1,0.1,0.2C2.4,810.6,2.3,810.6,2.3,810.5z M3.8,812
		c-0.2,0.1-0.5,0.3-0.7,0.3H3c-0.2,0-0.4-0.1-0.6-0.1c0.2-0.1,0.4-0.3,0.6-0.4C3.3,811.8,3.6,811.9,3.8,812z M8.3,810.4
		C8.3,810.4,8.4,810.4,8.3,810.4l-0.6,1.1c-0.1-0.1-0.2-0.3-0.3-0.5C7.6,810.8,7.9,810.6,8.3,810.4C8.1,810.3,8.2,810.4,8.3,810.4z
		 M11.4,807.7c-0.1,0-0.1-0.1-0.1-0.2C11.4,807.5,11.4,807.6,11.4,807.7z M7.7,806.2c-0.1,0-0.1-0.1-0.1-0.2
		C7.6,806,7.7,806.1,7.7,806.2z M5.5,803.2c-0.1,0-0.2,0-0.3-0.1C5.4,803.1,5.4,803.1,5.5,803.2z M12.1,800.1
		c-0.2,0.1-0.4,0.2-0.6,0.2c0,0-0.1,0-0.1-0.1l-0.1-0.1c0.1-0.1,0.3-0.2,0.4-0.3C11.9,799.9,12,800,12.1,800.1z M10.8,799.4
		c-0.2,0-0.2,0-0.3-0.1v-0.1C10.6,799.3,10.7,799.4,10.8,799.4z M7.8,799.2c0,0,0,0.1-0.1,0.2l-0.1,0.1l-0.7-1
		c0.1-0.1,0.3-0.1,0.6-0.2C7.6,798.6,7.8,798.9,7.8,799.2z M15.9,794.1L15.9,794.1c-0.3,0.2-0.5,0.2-0.7,0.3c0,0-0.1-0.1-0.1-0.2
		l-0.1-0.1C15.3,794,15.5,794,15.9,794.1C15.8,794,15.8,794.1,15.9,794.1z M3.6,793.3c-0.1,0-0.2,0.1-0.3,0.2c-0.1-0.4,0-0.8,0-1.2
		C3.4,792.6,3.5,792.9,3.6,793.3z M3.3,792.1C3.2,792,3.3,792.1,3.3,792.1L3.3,792.1z M11.4,786.6c-0.1,0.1-0.3,0.2-0.4,0.3
		c0,0-0.1,0-0.2-0.1c0,0-0.1-0.1-0.2-0.1c0.1-0.1,0.1-0.3,0.2-0.4C11,786.5,11.2,786.6,11.4,786.6z M1.7,782.1c0,0-0.1,0.1-0.1,0.2
		c-0.1-0.1-0.3-0.1-0.4-0.2c0.1-0.3,0.2-0.5,0.3-0.6c0.2,0.2,0.3,0.3,0.3,0.4C1.8,781.9,1.8,782,1.7,782.1z M12.9,781.6
		c-0.1,0-0.1-0.1-0.1-0.2C12.9,781.5,12.9,781.5,12.9,781.6z M1.9,768.5c-0.1,0.1-0.2,0.3-0.2,0.4c-0.1-0.2-0.2-0.4-0.2-0.6
		c0,0,0-0.1,0.1-0.2l0.1-0.1C1.7,768.2,1.8,768.4,1.9,768.5z M0.1,763.7c0,0,0-0.1,0.1-0.2C0.2,763.6,0.1,763.6,0.1,763.7z
		 M18.3,757.7c-0.1,0-0.2,0-0.3-0.1C18.1,757.6,18.2,757.7,18.3,757.7z M5.4,753.8l0.1,0.1c-0.5,0.3-1,0.7-1.5,0.9
		c-0.1-0.1-0.2-0.1-0.3-0.2C4.3,754.3,4.8,754,5.4,753.8C5.3,753.7,5.3,753.8,5.4,753.8z M18.5,747.6c-0.1,0-0.2,0-0.3-0.1
		C18.3,747.5,18.4,747.6,18.5,747.6z M11.3,747.8c0,0.1,0.1,0.2,0.1,0.2c0,0.1-0.1,0.2-0.1,0.2s-0.1,0-0.2,0c-0.1,0-0.3,0-0.5,0
		h-0.1c0,0-0.1,0-0.2-0.1c-0.1,0-0.1-0.1-0.2-0.1c0.5-0.2,0.8-0.3,1.1-0.5C11.2,747.7,11.3,747.8,11.3,747.8z M10.7,744.9
		c0.2,0.2,0.3,0.3,0.3,0.4c0,0.1-0.1,0.2-0.3,0.4c-0.1,0.1-0.3,0.2-0.4,0.4c-0.1-0.4-0.3-0.8-0.4-1.1c0-0.1,0-0.1,0.1-0.3
		c0-0.1,0.1-0.1,0.1-0.2C10.3,744.6,10.5,744.8,10.7,744.9z M4.1,743.2C4,743.2,4,743.1,4,743C4.1,743.1,4.1,743.1,4.1,743.2z
		 M0.4,742.4c-0.1,0-0.2,0-0.3-0.1l0.1-0.1C0.3,742.3,0.4,742.3,0.4,742.4z M13.4,741.3c-0.3,0.2-0.5,0.4-0.8,0.6c0,0-0.1,0-0.2-0.1
		c0,0-0.1,0-0.1-0.1c0.3-0.3,0.5-0.6,0.8-0.9C13.2,740.9,13.3,741,13.4,741.3z M13,739.5c0-0.1,0.1-0.2,0.1-0.3
		C13.1,739.3,13.1,739.4,13,739.5z M9.4,735.7c-0.1,0-0.1-0.1-0.1-0.2C9.3,735.6,9.4,735.7,9.4,735.7z M5.7,729.7
		c-0.1,0-0.2,0-0.3-0.1C5.5,729.6,5.6,729.7,5.7,729.7z M0.2,729.7c0.1,0,0.2-0.1,0.2-0.1C0.4,729.7,0.3,729.7,0.2,729.7z M15.2,729
		c0.1-0.1,0.2-0.1,0.3-0.1C15.4,728.9,15.3,729,15.2,729z M8.4,727.4c0.1,0,0.2,0.1,0.3,0.1c-0.3,0.3-0.5,0.5-0.8,0.8
		c-0.1,0-0.1-0.1-0.2-0.1H7.6c0.1-0.3,0.3-0.7,0.5-0.9C8.2,727.3,8.3,727.3,8.4,727.4z M5.6,726.7c0.1,0.1,0.3,0.2,0.4,0.2
		c-0.3,0.4-0.6,0.7-0.8,0.7c0,0-0.2,0-0.3-0.1c-0.1,0-0.2-0.1-0.3-0.2c0.2-0.3,0.4-0.6,0.6-0.9C5.3,726.5,5.5,726.6,5.6,726.7z
		 M4.9,726c0,0,0.1,0.1,0.1,0.2C4.9,726.1,4.8,726.1,4.9,726L4.9,726z M0.3,724.5c0,0,0.1-0.1,0.2-0.1
		C0.4,724.4,0.4,724.5,0.3,724.5z M11.8,722.7c0,0.1-0.2,0.4-0.5,0.8c-0.3-0.4-0.6-0.7-0.7-0.9v-0.1c0.1-0.1,0.2-0.3,0.4-0.4
		C11.3,722.3,11.6,722.5,11.8,722.7z M4.2,721.5c-0.4,0.3-0.7,0.7-1,0.7c0,0-0.2-0.1-0.3-0.3c-0.1-0.1-0.2-0.3-0.3-0.4
		c0.3-0.1,0.7-0.2,1-0.4C3.8,721.3,4,721.4,4.2,721.5z M17.5,720.6c0,0,0.1,0.1,0.2,0.1c-0.1,0.1-0.1,0.3-0.2,0.4
		c-0.3-0.1-0.5-0.2-0.6-0.3c0.1-0.1,0.3-0.2,0.4-0.3C17.3,720.5,17.4,720.6,17.5,720.6z M6.5,716.7L6.5,716.7
		c-0.2,0.3-0.5,0.5-0.8,0.7c-0.2-0.4-0.3-0.8-0.5-1.2c0.2-0.3,0.4-0.7,0.5-1C6,715.7,6.4,716.2,6.5,716.7z M13.9,713.4
		c-0.1-0.1-0.1-0.1-0.1-0.2C13.8,713.2,13.9,713.3,13.9,713.4z M15.4,711.9c-0.1,0-0.1-0.1-0.1-0.2
		C15.3,711.8,15.4,711.8,15.4,711.9z M13,710.4c0-0.1,0.1-0.1,0.2-0.1C13.1,710.3,13.1,710.4,13,710.4z M3.9,707.5v0.2
		c-0.1,0.4-0.3,0.8-0.5,1.2c0,0-0.1,0-0.2,0c-0.1,0-0.1,0-0.2,0c0-0.6,0-1.1,0.2-1.6c0,0,0.2-0.1,0.3-0.1s0.2,0,0.3-0.1
		C3.9,707.3,3.9,707.4,3.9,707.5z M7.8,706.7c0-0.1,0-0.2,0.1-0.2C7.9,706.6,7.8,706.6,7.8,706.7z M5.4,703.7
		c0.1-0.1,0.2-0.1,0.3-0.1C5.6,703.6,5.5,703.7,5.4,703.7z M14.6,703c-0.1-0.1-0.1-0.1-0.1-0.2C14.6,702.8,14.6,702.9,14.6,703z
		 M4,702.3c0-0.2,0.1-0.2,0.1-0.3C4.1,702.1,4.1,702.2,4,702.3z M8.3,701.4L8.3,701.4c-0.1-0.1,0-0.1,0-0.1V701.4z M2.9,697.8
		c0-0.1,0.1-0.2,0.1-0.2S3,697.7,2.9,697.8z M12,697.1c-0.1-0.1,0-0.2,0.1-0.2C12.1,697,12,697,12,697.1z M1.5,696.3
		c-0.1-0.1-0.1-0.1-0.1-0.2C1.5,696.1,1.5,696.2,1.5,696.3z M10.3,695.5c0.1-0.1,0.2-0.1,0.3-0.1C10.5,695.4,10.4,695.5,10.3,695.5z
		 M8.2,692.6c0-0.1,0-0.2,0.1-0.3C8.3,692.4,8.3,692.5,8.2,692.6z M3,688.7c0,0.1-0.1,0.1-0.2,0.1C2.9,688.8,2.9,688.7,3,688.7z
		 M12.9,690.2c0.1,0,0.1,0,0.2,0c-0.2,0.6-0.2,1.1-0.3,1.6c0,0-0.2,0.1-0.3,0.1s-0.2,0-0.3,0.1c0-0.1,0-0.3,0-0.4v-0.2
		c0.1-0.4,0.3-0.8,0.5-1.2C12.7,690.2,12.8,690.2,12.9,690.2z M7.5,689.4c-0.4,0.4-0.8,0.7-1.2,1c-0.1,0-0.2-0.1-0.3-0.2l-0.2-0.1
		c0.2-0.5,0.5-1,0.8-1.6C7,688.8,7.3,689.1,7.5,689.4z M18.7,687.7h-0.2c0-0.1-0.7-0.3-0.6-0.5l0.1-0.1
		C18.1,687.2,18.3,687.4,18.7,687.7z M0.8,687.3c-0.1,0-0.1-0.1-0.1-0.2C0.8,687.1,0.8,687.2,0.8,687.3z M2.3,685.9
		c-0.1-0.1-0.1-0.1-0.1-0.2C2.2,685.7,2.3,685.8,2.3,685.9z M10.9,682.9c-0.2,0.3-0.4,0.7-0.5,1c-0.3-0.5-0.7-1-0.7-1.5v-0.1
		c0.1-0.2,0.4-0.4,0.7-0.6C10.5,682,10.7,682.4,10.9,682.9z M13.2,677.1c0.1,0.1,0.2,0.3,0.3,0.4c-0.3,0.1-0.7,0.2-1,0.4
		c-0.3-0.1-0.5-0.2-0.7-0.4c0.4-0.3,0.8-0.6,1.1-0.7C12.9,676.8,13.1,676.9,13.2,677.1z M5.4,676.5c-0.1,0.2-0.3,0.3-0.4,0.5
		c-0.3-0.2-0.6-0.4-0.7-0.6c0-0.1,0.2-0.4,0.5-0.8C5.1,676,5.4,676.3,5.4,676.5z M15.8,674.6c-0.1,0-0.2,0.1-0.2,0.1
		C15.7,674.6,15.7,674.5,15.8,674.6z M17.9,673.2c0-0.1,0.1-0.1,0.2-0.1C18,673.1,18,673.2,17.9,673.2z M11.3,673.1L11.3,673.1
		c-0.2,0-0.2-0.1-0.2-0.2C11.2,673,11.2,673,11.3,673.1z M10.3,669.3c0.1,0,0.2,0,0.3,0.1C10.5,669.4,10.4,669.4,10.3,669.3z
		 M15.8,669.3c0,0.1-0.1,0.1-0.2,0.1C15.7,669.4,15.7,669.3,15.8,669.3z M11.1,671.5c0.1,0,0.2,0.1,0.3,0.2
		c-0.2,0.3-0.4,0.6-0.6,0.9c-0.1,0-0.2-0.1-0.3-0.2c-0.1-0.1-0.3-0.2-0.4-0.2c0.3-0.4,0.6-0.7,0.8-0.7
		C10.9,671.4,11,671.5,11.1,671.5z M8.3,670.9c-0.1,0.4-0.2,0.7-0.4,0.9c0,0-0.2-0.1-0.3-0.1s-0.2-0.1-0.3-0.1
		c0.3-0.3,0.5-0.5,0.8-0.8C8.2,670.8,8.3,670.8,8.3,670.9z M18.8,670.2c-0.1,0-0.1,0.1-0.2,0.1c-0.1,0-0.2,0.1-0.2,0.1
		c-0.5-0.3-0.9-0.6-1.4-0.9c0.3-0.3,0.6-0.6,0.9-0.9C18.2,669.1,18.5,669.6,18.8,670.2z M6.8,663.5c-0.1,0-0.1-0.1-0.1-0.2
		C6.7,663.4,6.8,663.4,6.8,663.5z M3,659.8c-0.1-0.1,0-0.2,0.1-0.2C3.1,659.7,3,659.7,3,659.8z M3,658.3c-0.1-0.1-0.2-0.3-0.3-0.5
		c0.3-0.2,0.5-0.4,0.8-0.6c0,0,0.1,0,0.2,0.1c0,0,0.1,0,0.1,0.1C3.5,657.7,3.2,658,3,658.3z M17.9,657.5c-0.3,0.1-0.6,0.2-0.9,0.2
		c-0.2,0-0.3-0.1-0.6-0.2c0.2-0.1,0.5-0.2,0.8-0.4C17.4,657.2,17.7,657.3,17.9,657.5z M15.9,656.8c-0.2,0-0.2,0-0.3-0.1v-0.1
		C15.7,656.6,15.8,656.7,15.9,656.8z M6.2,654.1c0,0.1,0,0.2-0.1,0.3c0,0.1-0.1,0.1-0.1,0.2c-0.2-0.2-0.4-0.3-0.6-0.5
		c-0.2-0.2-0.3-0.3-0.3-0.4c0-0.1,0.1-0.2,0.3-0.4c0.1-0.1,0.3-0.2,0.4-0.4C6,653.4,6.1,653.7,6.2,654.1z M5.8,650.8
		c0.1,0,0.1,0.1,0.2,0.1c-0.5,0.2-0.8,0.3-1.1,0.5c0-0.1-0.1-0.1-0.1-0.2c0-0.1-0.1-0.2-0.1-0.2c0-0.1,0.1-0.2,0.1-0.2s0.1,0,0.2,0
		c0.2-0.1,0.3-0.1,0.5-0.1C5.6,650.7,5.6,650.7,5.8,650.8z M16.7,650.5c0-0.1-0.1-0.1-0.1-0.2c0.1,0,0.2-0.1,0.3-0.1L16.7,650.5z
		 M12.4,644.4c-0.6,0.3-1.1,0.6-1.6,0.9c0,0-0.1,0-0.2-0.1l-0.1-0.1c0.5-0.3,1-0.6,1.6-0.9C12.2,644.3,12.3,644.3,12.4,644.4z
		 M15.9,635.6c0-0.1,0-0.2,0.1-0.3C16,635.4,16,635.5,15.9,635.6z M15.9,633.3L15.9,633.3c0-0.1,0-0.2,0.2-0.1
		C16,633.2,15.9,633.3,15.9,633.3z M13,632.5c-0.1,0-0.2,0-0.3-0.1C12.9,632.4,13,632.5,13,632.5z M14.6,630.8c0,0,0,0.1-0.1,0.2
		c0,0,0,0.1-0.1,0.1c-0.1-0.2-0.2-0.4-0.3-0.6c0.1-0.1,0.2-0.3,0.2-0.4C14.5,630.4,14.6,630.6,14.6,630.8z M12.8,619.9
		c0.1-0.1,0.2-0.1,0.3-0.1C13,619.8,12.9,619.9,12.8,619.9z M3.2,617.7c0-0.1-0.1-0.2-0.1-0.2C3.2,617.5,3.2,617.6,3.2,617.7z
		 M14.8,616.9c-0.1,0.3-0.2,0.5-0.3,0.6c-0.1-0.1-0.2-0.3-0.3-0.4c0,0,0-0.1,0.1-0.2c0,0,0.1-0.1,0.1-0.2
		C14.5,616.8,14.6,616.9,14.8,616.9z M5.3,612.2c0,0,0.1,0.1,0.2,0.1c-0.1,0.1-0.1,0.3-0.2,0.4c-0.3-0.1-0.5-0.2-0.6-0.3
		c0.2-0.1,0.3-0.2,0.4-0.3C5.2,612.1,5.2,612.2,5.3,612.2z M16.8,607.7l-0.2,0.3c-0.3-0.3-0.5-0.5-0.7-0.8c0.1-0.1,0.2-0.1,0.2-0.2
		l0.1-0.1C16.5,607.2,16.7,607.4,16.8,607.7z M12.7,606.7c-0.1-0.3-0.2-0.6-0.3-1c0.1,0,0.2-0.1,0.3-0.2
		C12.8,606,12.8,606.3,12.7,606.7z M1,604.9L1,604.9c-0.2,0.1-0.4,0.2-0.6,0.2H0.3c0,0,0-0.1-0.1-0.1v-0.1c0.3-0.1,0.5-0.1,0.7-0.2
		C0.9,604.7,0.9,604.8,1,604.9z M5.2,599.6L5.2,599.6c0.2,0,0.3,0.1,0.3,0.1C5.4,599.7,5.3,599.7,5.2,599.6z M9.2,600.5
		c-0.1,0.1-0.3,0.1-0.6,0.2c-0.1-0.3-0.3-0.6-0.3-0.9c0,0,0-0.1,0.1-0.2l0.1-0.1L9.2,600.5z M4.7,598.8L4.7,598.8
		c0,0.2-0.2,0.3-0.3,0.4c-0.2-0.1-0.3-0.2-0.5-0.4c0.2-0.1,0.4-0.2,0.6-0.2C4.5,598.7,4.6,598.8,4.7,598.8z M10.8,596
		c-0.1,0-0.2,0-0.3-0.1C10.6,595.9,10.7,595.9,10.8,596z M8.5,593.1c-0.1,0-0.1-0.1-0.1-0.2C8.4,592.9,8.5,593,8.5,593.1z
		 M4.8,591.6c-0.1,0-0.1-0.1-0.1-0.2C4.7,591.4,4.7,591.5,4.8,591.6z M13.8,588.6c-0.1,0-0.1-0.1-0.1-0.2
		C13.7,588.4,13.7,588.5,13.8,588.6z M8.7,588.1c-0.2,0.2-0.5,0.4-0.8,0.6c0,0-0.1,0-0.2-0.1c0,0-0.1,0-0.1-0.1l0.7-1
		C8.5,587.8,8.6,587.9,8.7,588.1z M13.1,586.7c0.1,0.1,0.3,0.2,0.5,0.2c-0.2,0.1-0.4,0.3-0.6,0.4c-0.3-0.1-0.5-0.2-0.7-0.3
		C12.5,586.9,12.8,586.7,13.1,586.7L13.1,586.7z M5,584.6c0.1,0.2,0.3,0.3,0.5,0.5c-0.5,0.1-0.9,0.3-1.4,0.4c-0.3-0.1-0.6-0.2-1-0.4
		c0.5-0.4,0.9-0.8,1.4-0.9C4.6,584.3,4.8,584.4,5,584.6z M2.3,576.9c0.1,0,0.1,0.1,0.1,0.2C2.4,577,2.3,577,2.3,576.9z M3.8,578.4
		c-0.2,0.1-0.5,0.3-0.7,0.3H3c-0.2,0-0.4-0.1-0.6-0.1c0.2-0.1,0.4-0.3,0.6-0.4C3.3,578.2,3.6,578.3,3.8,578.4z M8.3,576.8
		c0,0,0.1,0,0.1,0.1l-0.7,1c-0.1-0.1-0.2-0.3-0.3-0.5C7.6,577.2,7.9,577,8.3,576.8C8.1,576.7,8.2,576.8,8.3,576.8z M11.4,574.1
		c-0.1,0-0.1-0.1-0.1-0.2C11.4,573.9,11.4,574,11.4,574.1z M7.7,572.6c-0.1,0-0.1-0.1-0.1-0.2C7.6,572.4,7.7,572.5,7.7,572.6z
		 M5.5,569.6c-0.1,0-0.2,0-0.3-0.1C5.4,569.5,5.4,569.5,5.5,569.6z M12.1,566.5c-0.2,0.1-0.4,0.2-0.6,0.2c0,0-0.1,0-0.1-0.1
		l-0.1-0.1c0.1-0.1,0.3-0.2,0.4-0.3C11.9,566.3,12,566.4,12.1,566.5z M10.8,565.8c-0.2,0-0.2,0-0.3-0.1v-0.1
		C10.6,565.7,10.7,565.8,10.8,565.8z M7.8,565.6c0,0,0,0.1-0.1,0.2l-0.1,0.1l-0.7-1c0.1-0.1,0.3-0.1,0.6-0.2
		C7.6,565,7.8,565.3,7.8,565.6z M15.9,560.5L15.9,560.5c-0.3,0.2-0.5,0.2-0.7,0.3c0,0-0.1-0.1-0.1-0.2l-0.1-0.1
		c0.3-0.1,0.5-0.1,0.8-0.1C15.8,560.4,15.8,560.5,15.9,560.5z M3.6,559.7c-0.1,0-0.2,0.1-0.3,0.2c-0.1-0.4,0-0.8,0-1.2
		C3.4,559,3.5,559.3,3.6,559.7z M11.4,553c-0.1,0.1-0.3,0.2-0.4,0.3c0,0-0.1,0-0.2-0.1c0,0-0.1-0.1-0.2-0.1c0.1-0.1,0.1-0.3,0.2-0.4
		C11,552.9,11.2,553,11.4,553z M1.7,548.5c0,0-0.1,0.1-0.1,0.2c-0.1-0.1-0.3-0.1-0.4-0.2c0.1-0.3,0.2-0.5,0.3-0.6
		c0.2,0.2,0.3,0.3,0.3,0.4C1.8,548.3,1.8,548.4,1.7,548.5z M12.9,548c-0.1,0-0.1-0.1-0.1-0.2C12.9,547.9,12.9,547.9,12.9,548z
		 M1.9,534.9c-0.1,0.1-0.2,0.3-0.2,0.4c-0.1-0.2-0.2-0.4-0.2-0.6c0,0,0-0.1,0.1-0.2l0.1-0.1C1.7,534.6,1.8,534.8,1.9,534.9z
		 M0.1,530.1c0,0,0-0.1,0.1-0.2C0.2,530,0.1,530,0.1,530.1z M18.3,524.1c-0.1,0-0.2,0-0.3-0.1C18.1,524,18.2,524.1,18.3,524.1z
		 M5.4,520.2L5.4,520.2c-0.4,0.4-0.9,0.8-1.4,1c-0.1-0.1-0.2-0.1-0.3-0.2c0.6-0.3,1.1-0.6,1.6-0.9C5.3,520.1,5.3,520.2,5.4,520.2z
		 M18.5,514c-0.1,0-0.2,0-0.3-0.1C18.3,513.9,18.4,514,18.5,514z M11.3,514.2c0,0.1,0.1,0.2,0.1,0.2c0,0.1-0.1,0.2-0.1,0.2
		s-0.1,0-0.2,0c-0.1,0-0.3,0-0.5,0h-0.1c0,0-0.1,0-0.2-0.1c-0.1,0-0.1-0.1-0.2-0.1c0.5-0.2,0.8-0.3,1.1-0.5
		C11.2,514.1,11.3,514.2,11.3,514.2z M10.7,511.3c0.2,0.2,0.3,0.3,0.3,0.4s-0.1,0.2-0.3,0.4c-0.1,0.1-0.3,0.2-0.4,0.4
		c-0.1-0.4-0.3-0.8-0.4-1.1c0-0.1,0-0.1,0.1-0.3c0-0.1,0.1-0.1,0.1-0.2C10.3,511,10.5,511.2,10.7,511.3z M4.1,509.6
		c-0.1,0-0.1-0.1-0.1-0.2C4.1,509.5,4.1,509.5,4.1,509.6z M0.4,508.8c-0.1,0-0.2,0-0.3-0.1l0.1-0.1C0.3,508.7,0.4,508.7,0.4,508.8z
		 M13.4,507.7c-0.3,0.2-0.5,0.4-0.8,0.6c0,0-0.1,0-0.2-0.1c0,0-0.1,0-0.1-0.1c0.3-0.3,0.5-0.6,0.8-0.9
		C13.2,507.3,13.3,507.4,13.4,507.7z M13,505.9c0-0.1,0.1-0.2,0.1-0.3C13.1,505.7,13.1,505.8,13,505.9z M9.4,502.1
		c-0.1,0-0.1-0.1-0.1-0.2C9.3,502,9.4,502.1,9.4,502.1z M5.7,496.1c-0.1,0-0.2,0-0.3-0.1C5.5,496,5.6,496.1,5.7,496.1z M0.2,496.1
		c0.1,0,0.2-0.1,0.2-0.1C0.4,496.1,0.3,496.1,0.2,496.1z M15.2,495.4c0.1-0.1,0.2-0.1,0.3-0.1C15.4,495.3,15.3,495.4,15.2,495.4z
		 M8.4,493.8c0.1,0,0.2,0.1,0.3,0.1c-0.3,0.3-0.5,0.5-0.8,0.8c-0.1,0-0.1-0.1-0.2-0.1H7.6c0.1-0.3,0.3-0.7,0.5-0.9
		C8.2,493.7,8.3,493.7,8.4,493.8z M5.6,493.1c0.1,0.1,0.3,0.2,0.4,0.2c-0.3,0.4-0.6,0.7-0.8,0.7c0,0-0.2,0-0.3-0.1
		c-0.1,0-0.2-0.1-0.3-0.2c0.2-0.3,0.4-0.6,0.6-0.9C5.3,492.9,5.5,493,5.6,493.1z M4.9,492.4c0,0,0.1,0.1,0.1,0.2
		c-0.1-0.1-0.2-0.1-0.2-0.2H4.9z M0.3,490.9c0,0,0.1-0.1,0.2-0.1C0.4,490.8,0.4,490.9,0.3,490.9z M11.8,489.1c0,0.1-0.2,0.4-0.5,0.8
		c-0.3-0.4-0.6-0.7-0.7-0.9v-0.1c0.1-0.1,0.2-0.3,0.4-0.4C11.3,488.7,11.6,488.9,11.8,489.1z M4.2,487.9c-0.4,0.3-0.7,0.7-1,0.7
		c0,0-0.2-0.1-0.3-0.3c-0.1-0.1-0.2-0.3-0.3-0.4c0.3-0.1,0.7-0.2,1-0.4C3.8,487.7,4,487.8,4.2,487.9z M17.5,487c0,0,0.1,0.1,0.2,0.1
		c-0.1,0.1-0.1,0.3-0.2,0.4c-0.3-0.1-0.5-0.2-0.6-0.3c0.1-0.1,0.3-0.2,0.4-0.3C17.3,486.9,17.4,487,17.5,487z M6.5,483.1L6.5,483.1
		c-0.2,0.3-0.5,0.5-0.8,0.7c-0.2-0.4-0.3-0.8-0.5-1.2c0.2-0.3,0.4-0.7,0.5-1C6,482.1,6.4,482.6,6.5,483.1z M13.9,479.8
		c-0.1-0.1-0.1-0.1-0.1-0.2C13.8,479.6,13.9,479.7,13.9,479.8z M15.4,478.3c-0.1,0-0.1-0.1-0.1-0.2
		C15.3,478.2,15.4,478.2,15.4,478.3z M13,476.8c0-0.1,0.1-0.1,0.2-0.1C13.1,476.7,13.1,476.8,13,476.8z M3.9,473.9v0.2
		c-0.1,0.4-0.3,0.8-0.5,1.2c0,0-0.1,0-0.2,0c-0.1,0-0.1,0-0.2,0c0-0.6,0-1.1,0.2-1.6c0,0,0.2-0.1,0.3-0.1s0.2,0,0.3-0.1
		C3.9,473.7,3.9,473.8,3.9,473.9z M7.8,473.1c0-0.1,0-0.2,0.1-0.2C7.9,473,7.8,473,7.8,473.1z M5.4,470.1c0.1-0.1,0.2-0.1,0.3-0.1
		C5.6,470,5.5,470.1,5.4,470.1z M14.6,469.4c-0.1-0.1-0.1-0.1-0.1-0.2C14.6,469.2,14.6,469.3,14.6,469.4z M4,468.7
		c0-0.2,0.1-0.2,0.1-0.3C4.1,468.5,4.1,468.6,4,468.7z M8.3,467.7C8.3,467.7,8.3,467.8,8.3,467.7L8.3,467.7
		C8.2,467.7,8.2,467.7,8.3,467.7z M2.9,464.2c0-0.1,0.1-0.2,0.1-0.2S3,464.1,2.9,464.2z M12,463.5c-0.1-0.1,0-0.2,0.1-0.2
		C12.1,463.4,12,463.4,12,463.5z M1.5,462.7c-0.1-0.1-0.1-0.1-0.1-0.2C1.5,462.5,1.5,462.6,1.5,462.7z M10.3,461.9
		c0.1-0.1,0.2-0.1,0.3-0.1C10.5,461.8,10.4,461.9,10.3,461.9z M8.2,459c0-0.1,0-0.2,0.1-0.3C8.3,458.8,8.3,458.9,8.2,459z M3,455.1
		c0,0.1-0.1,0.1-0.2,0.1C2.9,455.2,2.9,455.1,3,455.1z M12.9,456.6c0.1,0,0.1,0,0.2,0c-0.2,0.6-0.2,1.1-0.3,1.6c0,0-0.2,0.1-0.3,0.1
		s-0.2,0-0.3,0.1c0-0.1,0-0.3,0-0.4v-0.2c0.1-0.4,0.3-0.8,0.5-1.2C12.7,456.6,12.8,456.6,12.9,456.6z M7.5,455.8
		c-0.4,0.4-0.8,0.7-1.2,1c-0.1,0-0.2-0.1-0.3-0.2l-0.2-0.1c0.2-0.5,0.5-1,0.8-1.6C7,455.2,7.3,455.5,7.5,455.8z M18.7,454.1h-0.2
		c0-0.1-0.7-0.3-0.6-0.5l0.1-0.1C18.1,453.6,18.3,453.8,18.7,454.1z M0.8,453.7c-0.1,0-0.1-0.1-0.1-0.2
		C0.8,453.5,0.8,453.6,0.8,453.7z M2.3,452.3c-0.1-0.1-0.1-0.1-0.1-0.2C2.2,452.1,2.3,452.2,2.3,452.3z M10.9,449.3
		c-0.2,0.3-0.4,0.7-0.5,1c-0.3-0.5-0.7-1-0.7-1.5v-0.1c0.1-0.2,0.4-0.4,0.7-0.6C10.5,448.4,10.7,448.8,10.9,449.3z M13.2,443.5
		c0.1,0.1,0.2,0.3,0.3,0.4c-0.3,0.1-0.7,0.2-1,0.4c-0.3-0.1-0.5-0.2-0.7-0.4c0.4-0.3,0.8-0.6,1.1-0.7
		C12.9,443.2,13.1,443.3,13.2,443.5z M5.4,442.9c-0.1,0.2-0.3,0.3-0.4,0.5c-0.3-0.2-0.6-0.4-0.7-0.6c0-0.1,0.2-0.4,0.5-0.8
		C5.1,442.4,5.4,442.7,5.4,442.9z M15.8,441c-0.1,0-0.2,0.1-0.2,0.1C15.7,441,15.7,440.9,15.8,441z M17.9,439.6
		c0-0.1,0.1-0.1,0.2-0.1C18,439.5,18,439.6,17.9,439.6z M11.3,439.5L11.3,439.5c-0.2,0-0.2-0.1-0.2-0.2
		C11.2,439.4,11.2,439.4,11.3,439.5z M10.3,435.7c0.1,0,0.2,0,0.3,0.1C10.5,435.8,10.4,435.8,10.3,435.7z M15.8,435.7
		c0,0.1-0.1,0.1-0.2,0.1C15.7,435.8,15.7,435.7,15.8,435.7z M11.1,437.9c0.1,0,0.2,0.1,0.3,0.2c-0.2,0.3-0.4,0.6-0.6,0.9
		c-0.1,0-0.2-0.1-0.3-0.2s-0.3-0.2-0.4-0.2c0.3-0.4,0.6-0.7,0.8-0.7C10.9,437.8,11,437.9,11.1,437.9z M8.3,437.3
		c-0.1,0.4-0.2,0.7-0.4,0.9c0,0-0.2-0.1-0.3-0.1S7.4,438,7.3,438c0.3-0.3,0.5-0.5,0.8-0.8C8.2,437.2,8.3,437.2,8.3,437.3z
		 M18.8,436.6c-0.1,0-0.1,0.1-0.2,0.1c-0.1,0-0.2,0.1-0.2,0.1c-0.5-0.3-0.9-0.6-1.4-0.9c0.3-0.3,0.6-0.6,0.9-0.9
		C18.2,435.5,18.5,436,18.8,436.6z M6.8,429.9c-0.1,0-0.1-0.1-0.1-0.2C6.7,429.8,6.8,429.8,6.8,429.9z M3,426.2
		c-0.1-0.1,0-0.2,0.1-0.2C3.1,426.1,3,426.1,3,426.2z M3,424.7c-0.1-0.1-0.2-0.3-0.3-0.5c0.3-0.2,0.5-0.4,0.8-0.6c0,0,0.1,0,0.2,0.1
		c0,0,0.1,0,0.1,0.1C3.5,424.1,3.2,424.4,3,424.7z M17.9,423.9c-0.3,0.1-0.6,0.2-0.9,0.2c-0.2,0-0.3-0.1-0.6-0.2
		c0.2-0.1,0.5-0.2,0.8-0.4C17.4,423.6,17.7,423.7,17.9,423.9z M15.9,423.2c-0.2,0-0.2,0-0.3-0.1V423C15.7,423,15.8,423.1,15.9,423.2
		z M6.2,420.5c0,0.1,0,0.2-0.1,0.3c0,0.1-0.1,0.1-0.1,0.2c-0.2-0.2-0.4-0.3-0.6-0.5c-0.2-0.2-0.3-0.3-0.3-0.4s0.1-0.2,0.3-0.4
		c0.1-0.1,0.3-0.2,0.4-0.4C6,419.8,6.1,420.1,6.2,420.5z M5.8,417.2c0.1,0,0.1,0.1,0.2,0.1c-0.5,0.2-0.8,0.3-1.1,0.5
		c0-0.1-0.1-0.1-0.1-0.2s-0.1-0.2-0.1-0.2c0-0.1,0.1-0.2,0.1-0.2s0.1,0,0.2,0c0.2-0.1,0.3-0.1,0.5-0.1
		C5.6,417.1,5.6,417.1,5.8,417.2z M16.7,416.9c0-0.1-0.1-0.1-0.1-0.2c0.1,0,0.2-0.1,0.3-0.1L16.7,416.9z M12.4,410.8
		c-0.6,0.3-1.1,0.6-1.6,0.9c0,0-0.1,0-0.2-0.1l-0.1-0.1c0.5-0.3,1-0.6,1.6-0.9C12.2,410.7,12.3,410.7,12.4,410.8z M15.9,402
		c0-0.1,0-0.2,0.1-0.3C16,401.8,16,401.9,15.9,402z M15.9,399.7L15.9,399.7c0-0.1,0-0.2,0.2-0.1C16,399.6,15.9,399.7,15.9,399.7z
		 M13,398.9c-0.1,0-0.2,0-0.3-0.1C12.9,398.8,13,398.9,13,398.9z M14.6,397.2c0,0,0,0.1-0.1,0.2c0,0,0,0.1-0.1,0.1
		c-0.1-0.2-0.2-0.4-0.3-0.6c0.1-0.1,0.2-0.3,0.2-0.4C14.5,396.8,14.6,397,14.6,397.2z M12.8,386.3c0.1-0.1,0.2-0.1,0.3-0.1
		C13,386.2,12.9,386.3,12.8,386.3z M3.2,384.1c0-0.1-0.1-0.2-0.1-0.2C3.2,383.9,3.2,384,3.2,384.1z M14.8,383.3
		c-0.1,0.3-0.2,0.5-0.3,0.6c-0.1-0.1-0.2-0.3-0.3-0.4c0,0,0-0.1,0.1-0.2c0,0,0.1-0.1,0.1-0.2C14.5,383.2,14.6,383.3,14.8,383.3z
		 M5.3,378.6c0,0,0.1,0.1,0.2,0.1c-0.1,0.1-0.1,0.3-0.2,0.4c-0.3-0.1-0.5-0.2-0.6-0.3c0.2-0.1,0.3-0.2,0.4-0.3
		C5.2,378.5,5.2,378.6,5.3,378.6z M16.8,374.1l-0.2,0.3c-0.3-0.3-0.5-0.5-0.7-0.8c0.1-0.1,0.2-0.1,0.2-0.2l0.1-0.1
		C16.5,373.6,16.7,373.8,16.8,374.1z M12.7,373.1c-0.1-0.3-0.2-0.6-0.3-1c0.1,0,0.2-0.1,0.3-0.2C12.8,372.4,12.8,372.7,12.7,373.1z
		 M1,371.3l0.1,0.1c-0.3,0-0.5,0.1-0.7,0.1H0.3c0,0,0-0.1-0.1-0.1v-0.1c0.3-0.1,0.5-0.1,0.7-0.2C0.9,371.1,0.9,371.2,1,371.3z
		 M9.2,366.9c-0.1,0.1-0.3,0.1-0.6,0.2c-0.1-0.3-0.3-0.6-0.3-0.9c0,0,0-0.1,0.1-0.2l0.1-0.1L9.2,366.9z M5.5,366.1
		c-0.1,0-0.2,0-0.3-0.1l0.1-0.1C5.4,366,5.5,366.1,5.5,366.1z M4.7,365.2L4.7,365.2c0,0.2-0.2,0.3-0.3,0.4c-0.2-0.1-0.3-0.2-0.5-0.4
		c0.2-0.1,0.4-0.2,0.6-0.2C4.5,365.1,4.6,365.2,4.7,365.2z M10.8,362.4c-0.1,0-0.2,0-0.3-0.1C10.6,362.3,10.7,362.3,10.8,362.4z
		 M8.5,359.5c-0.1,0-0.1-0.1-0.1-0.2C8.4,359.3,8.5,359.4,8.5,359.5z M4.8,358c-0.1,0-0.1-0.1-0.1-0.2C4.7,357.8,4.7,357.9,4.8,358z
		 M13.8,355c-0.1,0-0.1-0.1-0.1-0.2C13.7,354.8,13.7,354.9,13.8,355z M8.7,354.5c-0.2,0.2-0.5,0.4-0.8,0.6c0,0-0.1,0-0.2-0.1
		c0,0-0.1,0-0.1-0.1l0.7-1C8.5,354.2,8.6,354.3,8.7,354.5z M13.1,353.1c0.1,0.1,0.3,0.2,0.5,0.2c-0.2,0.1-0.4,0.3-0.6,0.4
		c-0.3-0.1-0.5-0.2-0.7-0.3C12.5,353.3,12.8,353.1,13.1,353.1L13.1,353.1z M5,351c0.1,0.2,0.3,0.3,0.5,0.5c-0.5,0.1-0.9,0.3-1.4,0.4
		c-0.3-0.1-0.6-0.2-1-0.4c0.5-0.4,0.9-0.8,1.4-0.9C4.6,350.7,4.8,350.8,5,351z M2.3,343.3c0.1,0,0.1,0.1,0.1,0.2
		C2.4,343.4,2.3,343.4,2.3,343.3z M3.8,344.8c-0.2,0.1-0.5,0.3-0.7,0.3H3c-0.2,0-0.4-0.1-0.6-0.1c0.2-0.1,0.4-0.3,0.6-0.4
		C3.3,344.6,3.6,344.7,3.8,344.8z M8.3,343.2C8.3,343.2,8.4,343.2,8.3,343.2l-0.6,1.1c-0.1-0.1-0.2-0.3-0.3-0.5
		C7.6,343.6,7.9,343.4,8.3,343.2C8.1,343.1,8.2,343.2,8.3,343.2z M11.4,340.5c-0.1,0-0.1-0.1-0.1-0.2
		C11.4,340.3,11.4,340.4,11.4,340.5z M7.7,339c-0.1,0-0.1-0.1-0.1-0.2C7.6,338.8,7.7,338.9,7.7,339z M5.5,336c-0.1,0-0.2,0-0.3-0.1
		C5.4,335.9,5.4,335.9,5.5,336z M12.1,332.9c-0.2,0.1-0.4,0.2-0.6,0.2c0,0-0.1,0-0.1-0.1l-0.1-0.1c0.1-0.1,0.3-0.2,0.4-0.3
		C11.9,332.7,12,332.8,12.1,332.9z M10.8,332.2c-0.2,0-0.2,0-0.3-0.1V332C10.6,332.1,10.7,332.2,10.8,332.2z M7.8,332
		c0,0,0,0.1-0.1,0.2l-0.1,0.1l-0.7-1c0.1-0.1,0.3-0.1,0.6-0.2C7.6,331.4,7.8,331.7,7.8,332z M15.9,326.9L15.9,326.9
		c-0.3,0.2-0.5,0.2-0.7,0.3c0,0-0.1-0.1-0.1-0.2l-0.1-0.1C15.3,326.8,15.5,326.8,15.9,326.9C15.8,326.8,15.8,326.9,15.9,326.9z
		 M3.6,326.1c-0.1,0-0.2,0.1-0.3,0.2c-0.1-0.4,0-0.8,0-1.2C3.4,325.4,3.5,325.7,3.6,326.1z M3.3,324.9
		C3.2,324.9,3.3,324.9,3.3,324.9L3.3,324.9z M11.4,319.4c-0.1,0.1-0.3,0.2-0.4,0.3c0,0-0.1,0-0.2-0.1c0,0-0.1-0.1-0.2-0.1
		c0.1-0.1,0.1-0.3,0.2-0.4C11,319.3,11.2,319.4,11.4,319.4z M1.7,314.9c0,0-0.1,0.1-0.1,0.2c-0.1-0.1-0.3-0.1-0.4-0.2
		c0.1-0.3,0.2-0.5,0.3-0.6c0.2,0.2,0.3,0.3,0.3,0.4C1.8,314.7,1.8,314.8,1.7,314.9z M12.9,314.4c-0.1,0-0.1-0.1-0.1-0.2
		C12.9,314.3,12.9,314.3,12.9,314.4z M1.9,301.3c-0.1,0.1-0.2,0.3-0.2,0.4c-0.1-0.2-0.2-0.4-0.2-0.6c0,0,0-0.1,0.1-0.2l0.1-0.1
		C1.7,301,1.8,301.2,1.9,301.3z M0.1,296.5c0,0,0-0.1,0.1-0.2C0.2,296.4,0.1,296.4,0.1,296.5z M18.3,290.5c-0.1,0-0.2,0-0.3-0.1
		C18.1,290.4,18.2,290.5,18.3,290.5z M5.4,286.6l0.1,0.1c-0.5,0.3-1,0.7-1.5,0.9c-0.1-0.1-0.2-0.1-0.3-0.2c0.6-0.3,1.1-0.6,1.6-0.9
		C5.3,286.5,5.3,286.6,5.4,286.6z M18.5,280.4c-0.1,0-0.2,0-0.3-0.1C18.3,280.3,18.4,280.4,18.5,280.4z M11.3,280.6
		c0,0.1,0.1,0.2,0.1,0.2c0,0.1-0.1,0.2-0.1,0.2s-0.1,0-0.2,0c-0.1,0-0.3,0-0.5,0h-0.1c0,0-0.1,0-0.2-0.1c-0.1,0-0.1-0.1-0.2-0.1
		c0.5-0.2,0.8-0.3,1.1-0.5C11.2,280.5,11.3,280.6,11.3,280.6z M10.7,277.7c0.2,0.2,0.3,0.3,0.3,0.4s-0.1,0.2-0.3,0.4
		c-0.1,0.1-0.3,0.2-0.4,0.4c-0.1-0.4-0.3-0.8-0.4-1.1c0-0.1,0-0.1,0.1-0.3c0-0.1,0.1-0.1,0.1-0.2C10.3,277.4,10.5,277.6,10.7,277.7z
		 M4.1,276C4,276,4,275.9,4,275.8C4.1,275.9,4.1,275.9,4.1,276z M0.4,275.2c-0.1,0-0.2,0-0.3-0.1l0.1-0.1
		C0.3,275.1,0.4,275.1,0.4,275.2z M13.4,274.1c-0.3,0.2-0.5,0.4-0.8,0.6c0,0-0.1,0-0.2-0.1c0,0-0.1,0-0.1-0.1
		c0.3-0.3,0.5-0.6,0.8-0.9C13.2,273.7,13.3,273.8,13.4,274.1z M13,272.3c0-0.1,0.1-0.2,0.1-0.3C13.1,272.1,13.1,272.2,13,272.3z
		 M9.4,268.5c-0.1,0-0.1-0.1-0.1-0.2C9.3,268.4,9.4,268.5,9.4,268.5z M5.7,262.5c-0.1,0-0.2,0-0.3-0.1
		C5.5,262.4,5.6,262.5,5.7,262.5z M0.2,262.5c0.1,0,0.2-0.1,0.2-0.1C0.4,262.5,0.3,262.5,0.2,262.5z M15.2,261.8
		c0.1-0.1,0.2-0.1,0.3-0.1C15.4,261.7,15.3,261.8,15.2,261.8z M8.4,260.2c0.1,0,0.2,0.1,0.3,0.1c-0.3,0.3-0.5,0.5-0.8,0.8
		c-0.1,0-0.1-0.1-0.2-0.1H7.6c0.1-0.3,0.3-0.7,0.5-0.9C8.2,260.1,8.3,260.1,8.4,260.2z M5.6,259.5c0.1,0.1,0.3,0.2,0.4,0.2
		c-0.3,0.4-0.6,0.7-0.8,0.7c0,0-0.2,0-0.3-0.1c-0.1,0-0.2-0.1-0.3-0.2c0.2-0.3,0.4-0.6,0.6-0.9C5.3,259.3,5.5,259.4,5.6,259.5z
		 M4.9,258.8c0,0,0.1,0.1,0.1,0.2c-0.1-0.1-0.2-0.1-0.2-0.2C4.8,258.8,4.9,258.8,4.9,258.8z M0.3,257.3c0,0,0.1-0.1,0.2-0.1
		C0.4,257.2,0.4,257.3,0.3,257.3z M11.8,255.5c0,0.1-0.2,0.4-0.5,0.8c-0.3-0.4-0.6-0.7-0.7-0.9v-0.1c0.1-0.1,0.2-0.3,0.4-0.4
		C11.3,255.1,11.6,255.3,11.8,255.5z M4.2,254.3c-0.4,0.3-0.7,0.7-1,0.7c0,0-0.2-0.1-0.3-0.3c-0.1-0.1-0.2-0.3-0.3-0.4
		c0.3-0.1,0.7-0.2,1-0.4C3.8,254.1,4,254.2,4.2,254.3z M17.5,253.4c0,0,0.1,0.1,0.2,0.1c-0.1,0.1-0.1,0.3-0.2,0.4
		c-0.3-0.1-0.5-0.2-0.6-0.3c0.1-0.1,0.3-0.2,0.4-0.3C17.3,253.3,17.4,253.4,17.5,253.4z M6.5,249.5l-0.1,0.1
		c-0.1,0.2-0.4,0.4-0.7,0.6c-0.2-0.4-0.3-0.8-0.5-1.2c0.2-0.3,0.4-0.7,0.5-1C6,248.5,6.4,249,6.5,249.5z M13.9,246.2
		c-0.1-0.1-0.1-0.1-0.1-0.2C13.8,246,13.9,246.1,13.9,246.2z M15.4,244.7c-0.1,0-0.1-0.1-0.1-0.2C15.3,244.6,15.4,244.6,15.4,244.7z
		 M13,243.2c0-0.1,0.1-0.1,0.2-0.1C13.1,243.1,13.1,243.2,13,243.2z M3.9,240.3v0.2c-0.1,0.4-0.3,0.8-0.5,1.2c0,0-0.1,0-0.2,0
		c-0.1,0-0.1,0-0.2,0c0-0.6,0-1.1,0.2-1.6c0,0,0.2-0.1,0.3-0.1s0.2,0,0.3-0.1C3.9,240.1,3.9,240.2,3.9,240.3z M7.8,239.5
		c0-0.1,0-0.2,0.1-0.2C7.9,239.4,7.8,239.4,7.8,239.5z M5.4,236.5c0.1-0.1,0.2-0.1,0.3-0.1C5.6,236.4,5.5,236.5,5.4,236.5z
		 M14.6,235.8c-0.1-0.1-0.1-0.1-0.1-0.2C14.6,235.6,14.6,235.7,14.6,235.8z M4,235.1c0-0.2,0.1-0.2,0.1-0.3
		C4.1,234.9,4.1,235,4,235.1z M8.3,234.2L8.3,234.2C8.2,234.1,8.3,234.1,8.3,234.2C8.3,234.1,8.3,234.2,8.3,234.2z M2.9,230.6
		c0-0.1,0.1-0.2,0.1-0.2S3,230.5,2.9,230.6z M12,229.9c-0.1-0.1,0-0.2,0.1-0.2C12.1,229.8,12,229.8,12,229.9z M1.5,229.1
		c-0.1-0.1-0.1-0.1-0.1-0.2C1.5,228.9,1.5,229,1.5,229.1z M10.3,228.3c0.1-0.1,0.2-0.1,0.3-0.1C10.5,228.2,10.4,228.3,10.3,228.3z
		 M8.2,225.4c0-0.1,0-0.2,0.1-0.3C8.3,225.2,8.3,225.3,8.2,225.4z M3,221.5c0,0.1-0.1,0.1-0.2,0.1C2.9,221.6,2.9,221.5,3,221.5z
		 M12.9,223c0.1,0,0.1,0,0.2,0c-0.2,0.6-0.2,1.1-0.3,1.6c0,0-0.2,0.1-0.3,0.1s-0.2,0-0.3,0.1c0-0.1,0-0.3,0-0.4v-0.2
		c0.1-0.4,0.3-0.8,0.5-1.2C12.7,223,12.8,223,12.9,223z M7.5,222.2c-0.4,0.4-0.8,0.7-1.2,1c-0.1,0-0.2-0.1-0.3-0.2l-0.2-0.1
		c0.2-0.5,0.5-1,0.8-1.6C7,221.6,7.3,221.9,7.5,222.2z M18.7,220.5h-0.2c0-0.1-0.7-0.3-0.6-0.5l0.1-0.1
		C18.1,220,18.3,220.2,18.7,220.5z M0.8,220.1c-0.1,0-0.1-0.1-0.1-0.2C0.8,219.9,0.8,220,0.8,220.1z M2.3,218.7
		c-0.1-0.1-0.1-0.1-0.1-0.2C2.2,218.5,2.3,218.6,2.3,218.7z M10.9,215.7c-0.2,0.3-0.4,0.7-0.5,1c-0.3-0.5-0.7-1-0.7-1.5v-0.1
		c0.1-0.2,0.4-0.4,0.7-0.6C10.5,214.8,10.7,215.2,10.9,215.7z M13.2,209.9c0.1,0.1,0.2,0.3,0.3,0.4c-0.3,0.1-0.7,0.2-1,0.4
		c-0.3-0.1-0.5-0.2-0.7-0.4c0.4-0.3,0.8-0.6,1.1-0.7C12.9,209.6,13.1,209.7,13.2,209.9z M5.4,209.3c-0.1,0.2-0.3,0.3-0.4,0.5
		c-0.3-0.2-0.6-0.4-0.7-0.6c0-0.1,0.2-0.4,0.5-0.8C5.1,208.8,5.4,209.1,5.4,209.3z M15.8,207.4c-0.1,0-0.2,0.1-0.2,0.1
		C15.7,207.4,15.7,207.3,15.8,207.4z M17.9,206c0-0.1,0.1-0.1,0.2-0.1C18,205.9,18,206,17.9,206z M11.3,205.9L11.3,205.9
		c-0.2,0-0.2-0.1-0.2-0.2C11.2,205.8,11.2,205.8,11.3,205.9z M10.3,202.1c0.1,0,0.2,0,0.3,0.1C10.5,202.2,10.4,202.2,10.3,202.1z
		 M15.8,202.1c0,0.1-0.1,0.1-0.2,0.1C15.7,202.2,15.7,202.1,15.8,202.1z M11.1,204.3c0.1,0,0.2,0.1,0.3,0.2
		c-0.2,0.3-0.4,0.6-0.6,0.9c-0.1,0-0.2-0.1-0.3-0.2c-0.1-0.1-0.3-0.2-0.4-0.2c0.3-0.4,0.6-0.7,0.8-0.7
		C10.9,204.2,11,204.3,11.1,204.3z M8.3,203.7c-0.1,0.4-0.2,0.7-0.4,0.9c0,0-0.2-0.1-0.3-0.1s-0.2-0.1-0.3-0.1
		c0.3-0.3,0.5-0.5,0.8-0.8C8.2,203.6,8.3,203.6,8.3,203.7z M18.8,203c-0.1,0-0.1,0.1-0.2,0.1c-0.1,0-0.2,0.1-0.2,0.1
		c-0.5-0.3-0.9-0.6-1.4-0.9c0.3-0.3,0.6-0.6,0.9-0.9C18.2,201.9,18.5,202.4,18.8,203z M6.8,196.3c-0.1,0-0.1-0.1-0.1-0.2
		C6.7,196.2,6.8,196.2,6.8,196.3z M3,192.6c-0.1-0.1,0-0.2,0.1-0.2C3.1,192.5,3,192.5,3,192.6z M3,191.1c-0.1-0.1-0.2-0.3-0.3-0.5
		c0.3-0.2,0.5-0.4,0.8-0.6c0,0,0.1,0,0.2,0.1c0,0,0.1,0,0.1,0.1C3.5,190.5,3.2,190.8,3,191.1z M17.9,190.3c-0.3,0.1-0.6,0.2-0.9,0.2
		c-0.2,0-0.3-0.1-0.6-0.2c0.2-0.1,0.5-0.2,0.8-0.4C17.4,190,17.7,190.1,17.9,190.3z M15.9,189.6c-0.2,0-0.2,0-0.3-0.1v-0.1
		C15.7,189.4,15.8,189.5,15.9,189.6z M6.2,186.9c0,0.1,0,0.2-0.1,0.3c0,0.1-0.1,0.1-0.1,0.2c-0.2-0.2-0.4-0.3-0.6-0.5
		c-0.2-0.2-0.3-0.3-0.3-0.4c0-0.1,0.1-0.2,0.3-0.4c0.1-0.1,0.3-0.2,0.4-0.4C6,186.2,6.1,186.5,6.2,186.9z M5.8,183.6
		c0.1,0,0.1,0.1,0.2,0.1c-0.5,0.2-0.8,0.3-1.1,0.5c0-0.1-0.1-0.1-0.1-0.2c0-0.1-0.1-0.2-0.1-0.2c0-0.1,0.1-0.2,0.1-0.2s0.1,0,0.2,0
		c0.2-0.1,0.3-0.1,0.5-0.1C5.6,183.5,5.6,183.5,5.8,183.6z M16.7,183.3c0-0.1-0.1-0.1-0.1-0.2c0.1,0,0.2-0.1,0.3-0.1L16.7,183.3z
		 M12.4,177.2c-0.6,0.3-1.1,0.6-1.6,0.9c0,0-0.1,0-0.2-0.1l-0.1-0.1c0.5-0.3,1-0.6,1.6-0.9C12.2,177.1,12.3,177.1,12.4,177.2z
		 M15.9,168.4c0-0.1,0-0.2,0.1-0.3C16,168.2,16,168.3,15.9,168.4z M15.9,166.1L15.9,166.1c0-0.1,0-0.2,0.2-0.1
		C16,166,15.9,166.1,15.9,166.1z M13,165.3c-0.1,0-0.2,0-0.3-0.1C12.9,165.2,13,165.3,13,165.3z M14.6,163.6c0,0,0,0.1-0.1,0.2
		c0,0,0,0.1-0.1,0.1c-0.1-0.2-0.2-0.4-0.3-0.6c0.1-0.1,0.2-0.3,0.2-0.4C14.5,163.2,14.6,163.4,14.6,163.6z M12.8,152.7
		c0.1-0.1,0.2-0.1,0.3-0.1C13,152.6,12.9,152.7,12.8,152.7z M3.2,150.5c0-0.1-0.1-0.2-0.1-0.2C3.2,150.3,3.2,150.4,3.2,150.5z
		 M14.8,149.7c-0.1,0.3-0.2,0.5-0.3,0.6c-0.1-0.1-0.2-0.3-0.3-0.4c0,0,0-0.1,0.1-0.2c0,0,0.1-0.1,0.1-0.2
		C14.5,149.6,14.6,149.7,14.8,149.7z M5.3,145c0,0,0.1,0.1,0.2,0.1c-0.1,0.1-0.1,0.3-0.2,0.4c-0.3-0.1-0.5-0.2-0.6-0.3
		c0.2-0.1,0.3-0.2,0.4-0.3C5.2,144.9,5.2,145,5.3,145z M16.8,140.5l-0.2,0.3c-0.3-0.3-0.5-0.5-0.7-0.8c0.1-0.1,0.2-0.1,0.2-0.2
		l0.1-0.1C16.5,140,16.7,140.2,16.8,140.5z M12.7,139.5c-0.1-0.3-0.2-0.6-0.3-1c0.1,0,0.2-0.1,0.3-0.2
		C12.8,138.8,12.8,139.1,12.7,139.5z M1,137.7l0.1,0.1c-0.3,0-0.5,0.1-0.7,0.1H0.3c0,0,0-0.1-0.1-0.1v-0.1c0.3-0.1,0.5-0.1,0.7-0.2
		C0.9,137.5,0.9,137.6,1,137.7z M5.2,132.4L5.2,132.4c0.2,0,0.3,0.1,0.3,0.1C5.4,132.5,5.3,132.5,5.2,132.4z M9.2,133.3
		c-0.1,0.1-0.3,0.1-0.6,0.2c-0.1-0.3-0.3-0.6-0.3-0.9c0,0,0-0.1,0.1-0.2l0.1-0.1L9.2,133.3z M4.7,131.6L4.7,131.6
		c0,0.2-0.2,0.3-0.3,0.4c-0.2-0.1-0.3-0.2-0.5-0.4c0.2-0.1,0.4-0.2,0.6-0.2C4.5,131.5,4.6,131.6,4.7,131.6z M10.8,128.8
		c-0.1,0-0.2,0-0.3-0.1C10.6,128.7,10.7,128.7,10.8,128.8z M8.5,125.9c-0.1,0-0.1-0.1-0.1-0.2C8.4,125.7,8.5,125.8,8.5,125.9z
		 M4.8,124.4c-0.1,0-0.1-0.1-0.1-0.2C4.7,124.2,4.7,124.3,4.8,124.4z M13.8,121.4c-0.1,0-0.1-0.1-0.1-0.2
		C13.7,121.2,13.7,121.3,13.8,121.4z M8.7,120.9c-0.2,0.2-0.5,0.4-0.8,0.6c0,0-0.1,0-0.2-0.1c0,0-0.1,0-0.1-0.1l0.7-1
		C8.5,120.6,8.6,120.7,8.7,120.9z M13.1,119.5c0.1,0.1,0.3,0.2,0.5,0.2c-0.2,0.1-0.4,0.3-0.6,0.4c-0.3-0.1-0.5-0.2-0.7-0.3
		C12.5,119.7,12.8,119.5,13.1,119.5L13.1,119.5L13.1,119.5z M5,117.4c0.1,0.2,0.3,0.3,0.5,0.5c-0.5,0.1-0.9,0.3-1.4,0.4
		c-0.3-0.1-0.6-0.2-1-0.4c0.5-0.4,0.9-0.8,1.4-0.9C4.6,117.1,4.8,117.2,5,117.4z M2.3,109.7c0.1,0,0.1,0.1,0.1,0.2
		C2.4,109.8,2.3,109.8,2.3,109.7z M3.8,111.2c-0.2,0.1-0.5,0.3-0.7,0.3H3c-0.2,0-0.4-0.1-0.6-0.1c0.2-0.1,0.4-0.3,0.6-0.4
		C3.3,111,3.6,111.1,3.8,111.2z M8.3,109.6c0,0,0.1,0,0.1,0.1l-0.7,1c-0.1-0.1-0.2-0.3-0.3-0.5C7.6,110,7.9,109.8,8.3,109.6
		C8.1,109.5,8.2,109.6,8.3,109.6z M11.4,106.9c-0.1,0-0.1-0.1-0.1-0.2C11.4,106.7,11.4,106.8,11.4,106.9z M7.7,105.4
		c-0.1,0-0.1-0.1-0.1-0.2C7.6,105.2,7.7,105.3,7.7,105.4z M5.5,102.4c-0.1,0-0.2,0-0.3-0.1C5.4,102.3,5.4,102.3,5.5,102.4z
		 M12.1,99.3c-0.2,0.1-0.4,0.2-0.6,0.2c0,0-0.1,0-0.1-0.1l-0.1-0.1c0.1-0.1,0.3-0.2,0.4-0.3C11.9,99.1,12,99.2,12.1,99.3z
		 M10.8,98.6c-0.2,0-0.2,0-0.3-0.1v-0.1C10.6,98.5,10.7,98.6,10.8,98.6z M7.8,98.4c0,0,0,0.1-0.1,0.2l-0.1,0.1l-0.7-1
		c0.1-0.1,0.3-0.1,0.6-0.2C7.6,97.8,7.8,98.1,7.8,98.4z M15.9,93.3L15.9,93.3c-0.3,0.2-0.5,0.2-0.7,0.3c0,0-0.1-0.1-0.1-0.2L15,93.3
		c0.3-0.1,0.5-0.1,0.8-0.1C15.8,93.2,15.8,93.3,15.9,93.3z M3.6,92.5c-0.1,0-0.2,0.1-0.3,0.2c-0.1-0.4,0-0.8,0-1.2
		C3.4,91.8,3.5,92.1,3.6,92.5z M11.4,85.8c-0.1,0.1-0.3,0.2-0.4,0.3c0,0-0.1,0-0.2-0.1c0,0-0.1-0.1-0.2-0.1c0.1-0.1,0.1-0.3,0.2-0.4
		C11,85.7,11.2,85.8,11.4,85.8z M1.7,81.3c0,0-0.1,0.1-0.1,0.2c-0.1-0.1-0.3-0.1-0.4-0.2c0.1-0.3,0.2-0.5,0.3-0.6
		c0.2,0.2,0.3,0.3,0.3,0.4C1.8,81.1,1.8,81.2,1.7,81.3z M12.9,80.8c-0.1,0-0.1-0.1-0.1-0.2C12.9,80.7,12.9,80.7,12.9,80.8z
		 M1.9,67.7c-0.1,0.1-0.2,0.3-0.2,0.4c-0.1-0.2-0.2-0.4-0.2-0.6c0,0,0-0.1,0.1-0.2l0.1-0.1C1.7,67.4,1.8,67.6,1.9,67.7z M0.1,62.9
		c0,0,0-0.1,0.1-0.2C0.2,62.8,0.1,62.8,0.1,62.9z M18.3,56.9c-0.1,0-0.2,0-0.3-0.1C18.1,56.8,18.2,56.9,18.3,56.9z M5.4,53l0.1,0.1
		C5,53.4,4.5,53.8,4,54c-0.1-0.1-0.2-0.1-0.3-0.2c0.6-0.3,1.1-0.6,1.6-0.9C5.3,52.9,5.3,53,5.4,53z M18.5,46.8c-0.1,0-0.2,0-0.3-0.1
		C18.3,46.7,18.4,46.8,18.5,46.8z M11.3,47c0,0.1,0.1,0.2,0.1,0.2c0,0.1-0.1,0.2-0.1,0.2s-0.1,0-0.2,0c-0.1,0-0.3,0-0.5,0h-0.1
		c0,0-0.1,0-0.2-0.1c-0.1,0-0.1-0.1-0.2-0.1c0.5-0.2,0.8-0.3,1.1-0.5C11.2,46.9,11.3,47,11.3,47z M10.7,44.1
		c0.2,0.2,0.3,0.3,0.3,0.4c0,0.1-0.1,0.2-0.3,0.4c-0.1,0.1-0.3,0.2-0.4,0.4c-0.1-0.4-0.3-0.8-0.4-1.1c0-0.1,0-0.1,0.1-0.3
		c0-0.1,0.1-0.1,0.1-0.2C10.3,43.8,10.5,44,10.7,44.1z M4.1,42.4C4,42.4,4,42.3,4,42.2C4.1,42.3,4.1,42.3,4.1,42.4z M0.4,41.6
		c-0.1,0-0.2,0-0.3-0.1l0.1-0.1C0.3,41.5,0.4,41.5,0.4,41.6z M13.4,40.5c-0.3,0.2-0.5,0.4-0.8,0.6c0,0-0.1,0-0.2-0.1
		c0,0-0.1,0-0.1-0.1c0.3-0.3,0.5-0.6,0.8-0.9C13.2,40.1,13.3,40.2,13.4,40.5z M13,38.7c0-0.1,0.1-0.2,0.1-0.3
		C13.1,38.5,13.1,38.6,13,38.7z M9.4,34.9c-0.1,0-0.1-0.1-0.1-0.2C9.3,34.8,9.4,34.9,9.4,34.9z M5.7,28.9c-0.1,0-0.2,0-0.3-0.1
		C5.5,28.8,5.6,28.9,5.7,28.9z M0.2,28.9c0.1,0,0.2-0.1,0.2-0.1C0.4,28.9,0.3,28.9,0.2,28.9z M15.2,28.2c0.1-0.1,0.2-0.1,0.3-0.1
		C15.4,28.1,15.3,28.2,15.2,28.2z M8.4,26.6c0.1,0,0.2,0.1,0.3,0.1c-0.3,0.3-0.5,0.5-0.8,0.8c-0.1,0-0.1-0.1-0.2-0.1H7.6
		c0.1-0.3,0.3-0.7,0.5-0.9C8.2,26.5,8.3,26.5,8.4,26.6z M5.6,25.9C5.7,26,5.9,26.1,6,26.1c-0.3,0.4-0.6,0.7-0.8,0.7
		c0,0-0.2,0-0.3-0.1c-0.1,0-0.2-0.1-0.3-0.2c0.2-0.3,0.4-0.6,0.6-0.9C5.3,25.7,5.5,25.8,5.6,25.9z M4.9,25.2c0,0,0.1,0.1,0.1,0.2
		c-0.1-0.1-0.2-0.1-0.2-0.2H4.9z M0.3,23.7c0,0,0.1-0.1,0.2-0.1C0.4,23.6,0.4,23.7,0.3,23.7z M11.8,21.9c0,0.1-0.2,0.4-0.5,0.8
		c-0.3-0.4-0.6-0.7-0.7-0.9v-0.1c0.1-0.1,0.2-0.3,0.4-0.4C11.3,21.5,11.6,21.7,11.8,21.9z M4.2,20.7c-0.4,0.3-0.7,0.7-1,0.7
		c0,0-0.2-0.1-0.3-0.3c-0.1-0.1-0.2-0.3-0.3-0.4c0.3-0.1,0.7-0.2,1-0.4C3.8,20.5,4,20.6,4.2,20.7z M17.5,19.8c0,0,0.1,0.1,0.2,0.1
		c-0.1,0.1-0.1,0.3-0.2,0.4c-0.3-0.1-0.5-0.2-0.6-0.3c0.1-0.1,0.3-0.2,0.4-0.3C17.3,19.7,17.4,19.8,17.5,19.8z M6.5,15.9L6.5,15.9
		c-0.2,0.3-0.5,0.5-0.8,0.7c-0.2-0.4-0.3-0.8-0.5-1.2c0.2-0.3,0.4-0.7,0.5-1C6,14.9,6.4,15.4,6.5,15.9z M13.9,12.6
		c-0.1-0.1-0.1-0.1-0.1-0.2C13.8,12.4,13.9,12.5,13.9,12.6z M15.4,11.1c-0.1,0-0.1-0.1-0.1-0.2C15.3,11,15.4,11,15.4,11.1z M13,9.6
		c0-0.1,0.1-0.1,0.2-0.1C13.1,9.5,13.1,9.6,13,9.6z M3.9,6.7v0.2C3.8,7.3,3.6,7.7,3.4,8.1c0,0-0.1,0-0.2,0s-0.1,0-0.2,0
		C3,7.5,3,7,3.2,6.5c0,0,0.2-0.1,0.3-0.1s0.2,0,0.3-0.1C3.9,6.5,3.9,6.6,3.9,6.7z M7.8,5.9c0-0.1,0-0.2,0.1-0.2
		C7.9,5.8,7.8,5.8,7.8,5.9z M5.4,2.9c0.1-0.1,0.2-0.1,0.3-0.1C5.6,2.8,5.5,2.9,5.4,2.9z M14.6,2.2c-0.1-0.1-0.1-0.1-0.1-0.2
		C14.6,2,14.6,2.1,14.6,2.2z M4,1.5c0-0.2,0.1-0.2,0.1-0.3C4.1,1.3,4.1,1.4,4,1.5z"/>
	<path id="XMLID_35_" class="st0" d="M19.6,28l0.2-0.2c-0.1-0.1-0.2-0.1-0.3-0.2l-0.2,0.2C19.4,27.9,19.5,28,19.6,28z"/>
	<path id="XMLID_34_" class="st0" d="M19.3,24.1c0.1-0.1,0.2-0.1,0.3-0.2l-0.2-0.1c-0.1,0-0.2,0.1-0.3,0.2L19.3,24.1z"/>
	<path id="XMLID_33_" class="st0" d="M22.7,17.9c0.1-0.1,0.2-0.3,0.2-0.4c0-0.2-0.2-0.4-0.3-0.6c-0.1,0.1-0.2,0.3-0.3,0.4
		C22.5,17.5,22.6,17.7,22.7,17.9z"/>
	<path id="XMLID_32_" class="st0" d="M24,22.7v-0.4c-0.1,0.1-0.2,0.1-0.3,0.2C23.8,22.5,23.9,22.6,24,22.7z"/>
	<path id="XMLID_31_" class="st0" d="M23.5,22l-0.2-0.2C23.2,21.8,23,21.8,23.5,22z"/>
	<path id="XMLID_30_" class="st0" d="M24,22.2V22c-0.2,0-0.4-0.1-0.5-0.1l0.1,0.2C23.8,22.2,23.9,22.2,24,22.2z"/>
	<path id="XMLID_29_" class="st0" d="M22.5,22c0.4,0.1,0.5,0.2,0.7,0.3c0.1,0,0.3,0,0.5,0v-0.1C23.4,22.1,23,22.1,22.5,22z"/>
	<path id="XMLID_28_" class="st0" d="M20.4,136.4c0.4,0.2,0.6,0.3,0.7,0.3c0.1,0,0.3,0,0.5,0v-0.1c0.1,0,0.2,0.1,0.3,0.1v-0.2
		c-0.2,0-0.4-0.1-0.5-0.1l0.1,0.2C21.2,136.5,20.8,136.5,20.4,136.4z"/>
	<path id="XMLID_27_" class="st0" d="M21.9,137.2v-0.4c-0.1,0.1-0.2,0.1-0.3,0.2C21.7,137,21.8,137.1,21.9,137.2z"/>
	<path id="XMLID_26_" class="st0" d="M19.3,157c0.1-0.1,0.2-0.1,0.3-0.2l-0.2-0.1c-0.1,0-0.2,0.1-0.3,0.2L19.3,157z"/>
	<path id="XMLID_25_" class="st0" d="M22,132.1l0.2-0.2c-0.1,0-0.2-0.1-0.3-0.1l-0.2,0.2C21.8,132,21.9,132.1,22,132.1z"/>
	<path id="XMLID_24_" class="st0" d="M22.8,135.3c0.1-0.1,0.1-0.2,0.2-0.3l-0.2-0.2c0,0.1-0.1,0.2-0.1,0.3L22.8,135.3z"/>
	<path id="XMLID_23_" class="st0" d="M19.6,160.9l0.2-0.2c-0.1-0.1-0.2-0.1-0.3-0.2l-0.2,0.2C19.4,160.8,19.5,160.9,19.6,160.9z"/>
	<path id="XMLID_22_" class="st0" d="M25.5,116.1c0.2,0,0.3-0.2,0.4-0.3c-0.1,0-0.3-0.1-0.7-0.2c0,0.1-0.1,0.3-0.2,0.4
		C25.3,116,25.4,116.1,25.5,116.1z"/>
	<path id="XMLID_21_" class="st0" d="M20.7,221c-0.1,0-0.2-0.1-0.4-0.1l-0.2,0.3C20.4,221.1,20.6,221,20.7,221z"/>
	<path id="XMLID_20_" class="st0" d="M22.2,215.7c0-0.1,0.1-0.2,0.1-0.3l-0.2-0.2c-0.1,0.1-0.1,0.2-0.2,0.3L22.2,215.7z"/>
	<path id="XMLID_19_" class="st0" d="M21.2,174.6l0.2-0.2c-0.1,0-0.2-0.1-0.3-0.1l-0.2,0.2C21,174.5,21.1,174.6,21.2,174.6z"/>
	<path id="XMLID_18_" class="st0" d="M21.7,214.8c0.1-0.1,0.1-0.2,0.2-0.3l-0.2-0.2c0,0.1-0.1,0.2-0.1,0.3L21.7,214.8z"/>
	<path id="XMLID_17_" class="st0" d="M29.8,207.5l0.2-0.2c-0.1-0.1-0.1-0.2-0.2-0.3l-0.1,0.2C29.6,207.3,29.7,207.4,29.8,207.5z"/>
	<path id="XMLID_16_" class="st0" d="M21.4,136.5l-0.2-0.2C21.1,136.2,20.9,136.3,21.4,136.5z"/>
	<path id="XMLID_15_" class="st0" d="M25.4,119.4c0,0,0.2-0.1,0.3-0.1c-0.1-0.1-0.1-0.1-0.4-0.3h-0.1
		C25.3,119.2,25.3,119.3,25.4,119.4z"/>
	<path id="XMLID_14_" class="st0" d="M24.7,122.9l0.2-0.2c-0.1,0-0.2-0.1-0.3-0.1l-0.2,0.2C24.5,122.8,24.6,122.9,24.7,122.9z"/>
	<path id="XMLID_13_" class="st0" d="M21,121.6c0.1,0,0.2-0.1,0.3-0.2l-0.2-0.2c-0.1,0.1-0.2,0.1-0.3,0.2L21,121.6z"/>
	<path id="XMLID_12_" class="st0" d="M24.8,118.6L24.8,118.6L24.8,118.6z"/>
	<path id="XMLID_11_" class="st0" d="M25,118.9L25,118.9c-0.1,0-0.2-0.1-0.3-0.2L25,119V118.9l0.3,0.1h0.1
		C25.3,118.9,25.2,118.9,25,118.9L25,118.9c0-0.1-0.1-0.1-0.2-0.2C24.9,118.7,24.9,118.8,25,118.9z"/>
	<path id="XMLID_10_" class="st0" d="M23.5,119.6c0.1-0.1,0.2-0.3,0.3-0.5c-0.2-0.2-0.4-0.4-0.6-0.5c-0.1,0-0.3,0.1-0.4,0.2
		C23,119.1,23.3,119.3,23.5,119.6z"/>
	<path id="XMLID_9_" class="st0" d="M19.7,128.3l0.3,0.3l0.1-0.1l0.2,0.1h0.1c-0.1-0.1-0.2-0.1-0.3-0.2l-0.1,0.1
		C19.9,128.4,19.8,128.4,19.7,128.3z"/>
	<path id="XMLID_8_" class="st0" d="M20.4,129c0,0,0.2-0.1,0.3-0.1c-0.1-0.1-0.1-0.1-0.4-0.3h-0.1C20.2,128.7,20.3,128.9,20.4,129z"
		/>
	<path id="XMLID_7_" class="st0" d="M23.7,123.5l0.1-0.2c0-0.1-0.1-0.2-0.2-0.3l-0.1,0.2C23.5,123.3,23.6,123.4,23.7,123.5z"/>
	<path id="XMLID_6_" class="st0" d="M20.8,131.7c0.1,0,0.2-0.1,0.3-0.2l-0.2-0.2c-0.1,0.1-0.2,0.1-0.3,0.2L20.8,131.7z"/>
	<path id="XMLID_5_" class="st0" d="M20.1,128.4c-0.1-0.1-0.1-0.2-0.3-0.3C19.9,128.2,19.8,128.2,20.1,128.4z"/>
	<path id="XMLID_4_" class="st0" d="M21.7,127.3c0.1-0.1,0.1-0.2,0.2-0.3l-0.2-0.2c0,0.1-0.1,0.2-0.1,0.3L21.7,127.3z"/>
</g>
</svg>
