<?xml version="1.0" encoding="utf-8"?>
<!-- Generator: Adobe Illustrator 19.0.0, SVG Export Plug-In . SVG Version: 6.00 Build 0)  -->
<svg version="1.1" id="Layer_1" xmlns="http://www.w3.org/2000/svg" xmlns:xlink="http://www.w3.org/1999/xlink" x="0px" y="0px"
	 width="230px" height="30px" viewBox="-682 905.9 230 30" style="enable-background:new -682 905.9 230 30;" xml:space="preserve">
<style type="text/css">
	.st0{fill:#EEEEEE;}
	.st1{fill:#FCFCFC;}
</style>
<g>
	<path class="st0" d="M-557.6,930.7c0,0.1,0.1,0.2,0.2,0.3l0.2-0.2c-0.1-0.1-0.1-0.2-0.2-0.3L-557.6,930.7z"/>
	<path class="st0" d="M-558,933.3l0.2,0.1c0.1,0,0.2-0.1,0.3-0.2l-0.2-0.2C-557.8,933.2-557.9,933.3-558,933.3z"/>
	<path class="st0" d="M-561.4,931.6l0.2,0.1C-561.2,931.7-561.2,931.6-561.4,931.6z"/>
	<path class="st0" d="M-532.7,928.1c0.1,0,0.2,0.1,0.3,0.1l0.2-0.2c-0.1-0.1-0.2-0.1-0.3-0.2L-532.7,928.1z"/>
	<path class="st0" d="M-531.8,927.6c0.1,0.1,0.2,0.1,0.3,0.2l0.2-0.2c-0.1,0-0.2-0.1-0.3-0.1L-531.8,927.6z"/>
	<path class="st0" d="M-557.2,929.3l0.2,0.2c0.1-0.1,0.2-0.1,0.3-0.2l-0.2-0.1C-557,929.2-557.1,929.2-557.2,929.3z"/>
	<path class="st0" d="M-524.5,935.7l0.2,0.2c0.1-0.1,0.2-0.1,0.3-0.2l-0.2-0.1C-524.3,935.5-524.4,935.6-524.5,935.7z"/>
	<path class="st0" d="M-566.1,928.2c0.3,0.2,0.6,0.4,0.9,0.6c0-0.1,0.1-0.3,0.2-0.6c-0.2-0.1-0.5-0.2-0.7-0.2
		S-566,928.1-566.1,928.2z"/>
	<path class="st0" d="M-563.7,930.3l-0.2,0.2c0,0.5,0,1.1,0.5,1.4h0.4c0-0.1,0.1-0.2,0.1-0.3c-0.2-0.4-0.3-0.8-0.5-1.2
		C-563.4,930.4-563.6,930.3-563.7,930.3z"/>
	<path class="st0" d="M-561.8,926.5c-0.1,0-0.2-0.1-0.3-0.1l-0.2,0.2c0.1,0.1,0.2,0.1,0.3,0.2L-561.8,926.5z"/>
	<path class="st0" d="M-561.3,930.6c0.1,0,0.1-0.1,0.1-0.2c0.1-0.2-0.2-0.5-0.3-0.7l-0.6,0.2c0,0.3,0,0.5,0.3,0.9
		c0.1-0.1,0.2-0.2,0.3-0.3C-561.4,930.6-561.4,930.6-561.3,930.6z"/>
	<path class="st0" d="M-561.5,931.5l0.2-0.2l-0.2-0.1c-0.1,0.1-0.2,0.2-0.2,0.3c0.1,0,0.2,0.1,0.3,0.1L-561.5,931.5z"/>
	<path class="st0" d="M-467,927.1c-0.2-0.2-0.5-0.5-0.7-0.7c-0.1,0.2-0.3,0.5-0.2,0.6c0.2,0.2,0.5,0.3,0.7,0.3L-467,927.1z"/>
	<path class="st0" d="M-467.8,928.6c0.1,0.1,0.3,0.2,0.4,0.2c0.2,0,0.4-0.2,0.6-0.3c-0.1-0.1-0.3-0.2-0.4-0.3
		C-467.4,928.4-467.6,928.5-467.8,928.6z"/>
	<path class="st0" d="M-471.9,929.4l0.2-0.2C-471.7,929.1-471.7,928.9-471.9,929.4z"/>
	<path class="st0" d="M-566,931.4c0,0.2,0.2,0.3,0.3,0.4c0-0.1,0.1-0.3,0.2-0.7c-0.1,0-0.3-0.1-0.4-0.2
		C-565.9,931.2-566,931.3-566,931.4z"/>
	<path class="st0" d="M-460.2,929.7c0,0,0,0.1,0.1,0.1h0.2c0-0.1-0.1-0.2-0.2-0.3L-460.2,929.7z"/>
	<path class="st0" d="M-452.3,928.7c0.1,0.1,0.2,0.1,0.3,0.2l0.2-0.2c-0.1,0-0.2-0.1-0.3-0.1L-452.3,928.7z"/>
	<path class="st0" d="M-472.1,929.9h0.2c0-0.2,0.1-0.4,0.1-0.5l-0.2,0.1C-472.1,929.7-472.1,929.8-472.1,929.9z"/>
	<path class="st0" d="M-477.9,925.5l0.2,0.2c0.1-0.1,0.1-0.2,0.2-0.3l-0.2-0.2C-477.8,925.3-477.9,925.4-477.9,925.5z"/>
	<path class="st0" d="M-471.9,928.4c-0.1,0.4-0.2,0.5-0.3,0.7c0,0.1,0,0.3,0,0.5h0.1C-472,929.3-472,928.9-471.9,928.4z"/>
	<path class="st0" d="M-474,925.2c0.1,0.1,0.1,0.2,0.2,0.3l0.1-0.2c0-0.1-0.1-0.2-0.2-0.3L-474,925.2z"/>
	<path class="st0" d="M-491.6,927.1l0.2,0.2c0-0.1,0.1-0.2,0.1-0.3l-0.2-0.2C-491.5,926.9-491.6,927-491.6,927.1z"/>
	<path class="st0" d="M-472.6,929.9h0.4c-0.1-0.1-0.1-0.2-0.2-0.3C-472.4,929.7-472.5,929.8-472.6,929.9z"/>
	<path class="st0" d="M-457.2,929.8c0.1,0,0.1,0.1,0.2,0.1h0.3c0.1-0.1,0.2-0.2,0.3-0.3c-0.1-0.1-0.3-0.1-0.7-0.2
		C-457.1,929.4-457.2,929.6-457.2,929.8z"/>
	<path class="st0" d="M-586.3,926.3c-0.2,0.4-0.3,0.6-0.3,0.7c0,0.1,0,0.3,0,0.5h0.1c0,0.1-0.1,0.2-0.1,0.3h0.2
		c0-0.2,0.1-0.4,0.1-0.5l-0.2,0.1C-586.4,927.1-586.4,926.7-586.3,926.3z"/>
	<path class="st0" d="M-624.5,927.1l0.2,0.2c0-0.1,0.1-0.2,0.1-0.3l-0.2-0.2C-624.4,926.9-624.5,927-624.5,927.1z"/>
	<path class="st0" d="M-610.8,925.5l0.2,0.2c0.1-0.1,0.1-0.2,0.2-0.3l-0.2-0.2C-610.7,925.3-610.8,925.4-610.8,925.5z"/>
	<path class="st0" d="M-587.1,927.8h0.4c-0.1-0.1-0.1-0.2-0.2-0.3C-586.9,927.6-587,927.7-587.1,927.8z"/>
	<path class="st0" d="M-585.2,928.7c0.1,0.1,0.2,0.1,0.3,0.2l0.2-0.2c-0.1,0-0.2-0.1-0.3-0.1L-585.2,928.7z"/>
	<path class="st0" d="M-586.4,927.3l0.2-0.2C-586.1,927-586.2,926.8-586.4,927.3z"/>
	<path class="st0" d="M-670.9,926.6c0-0.1,0.1-0.2,0.1-0.4l-0.3-0.2C-671,926.3-670.9,926.5-670.9,926.6z"/>
	<path class="st0" d="M-582,927.9l0.2,0.2c0-0.1,0.1-0.2,0.1-0.3l-0.2-0.2C-581.9,927.7-582,927.8-582,927.9z"/>
	<path class="st0" d="M-569.5,929.4c0.1,0.1,0.3,0.2,0.5,0.3c0.2-0.2,0.4-0.4,0.5-0.6c0-0.1-0.1-0.3-0.2-0.4
		C-569,928.9-569.2,929.2-569.5,929.4z"/>
	<path class="st0" d="M-657.4,935.7l0.2,0.2c0.1-0.1,0.2-0.1,0.3-0.2l-0.2-0.1C-657.2,935.5-657.3,935.6-657.4,935.7z"/>
	<path class="st0" d="M-665.6,928.1c0.1,0,0.2,0.1,0.3,0.1l0.2-0.2c-0.1-0.1-0.2-0.1-0.3-0.2L-665.6,928.1z"/>
	<path class="st0" d="M-664.7,927.6c0.1,0.1,0.2,0.1,0.3,0.2l0.2-0.2c-0.1,0-0.2-0.1-0.3-0.1L-664.7,927.6z"/>
	<path class="st0" d="M-606.9,925.2c0.1,0.1,0.1,0.2,0.2,0.3l0.1-0.2c0-0.1-0.1-0.2-0.2-0.3L-606.9,925.2z"/>
	<path class="st0" d="M-568.5,930.7C-568.5,930.7-568.5,930.7-568.5,930.7C-568.5,930.7-568.5,930.7-568.5,930.7z"/>
	<path class="st0" d="M-571.5,926.9c0,0.1,0.1,0.2,0.2,0.3l0.2-0.2c-0.1-0.1-0.1-0.2-0.2-0.3L-571.5,926.9z"/>
	<path class="st0" d="M-569.3,931.3c0,0,0.1,0.2,0.1,0.3c0.1-0.1,0.1-0.1,0.3-0.4v-0.1C-569.1,931.2-569.2,931.2-569.3,931.3z"/>
	<path class="st0" d="M-568.8,930.9L-568.8,930.9c0-0.1,0.1-0.2,0.2-0.3l-0.3,0.3L-568.8,930.9l-0.1,0.3v0.1
		C-568.8,931.2-568.8,931.1-568.8,930.9L-568.8,930.9c0.1,0,0.1-0.1,0.2-0.2C-568.6,930.8-568.6,930.8-568.8,930.9z"/>
	<path class="st0" d="M-581.6,926.7c0,0.1,0.1,0.2,0.2,0.3l0.2-0.2c-0.1-0.1-0.1-0.2-0.2-0.3L-581.6,926.7z"/>
	<path class="st0" d="M-572.8,930.6l0.2,0.2c0-0.1,0.1-0.2,0.1-0.3l-0.2-0.2C-572.7,930.4-572.8,930.5-572.8,930.6z"/>
	<path class="st0" d="M-578.2,925.6l-0.3,0.3l0.1,0.1l-0.1,0.2v0.1c0.1-0.1,0.1-0.2,0.2-0.3l-0.1-0.1
		C-578.3,925.8-578.3,925.7-578.2,925.6z"/>
	<path class="st0" d="M-573.4,929.6l0.2,0.1c0.1,0,0.2-0.1,0.3-0.2l-0.2-0.1C-573.2,929.4-573.3,929.5-573.4,929.6z"/>
	<path class="st0" d="M-578.3,926c0.1-0.1,0.2-0.1,0.3-0.3C-578.1,925.8-578.1,925.7-578.3,926z"/>
	<path class="st0" d="M-577.2,927.6c0.1,0.1,0.2,0.1,0.3,0.2l0.2-0.2c-0.1,0-0.2-0.1-0.3-0.1L-577.2,927.6z"/>
	<path class="st0" d="M-578.9,926.3c0,0,0.1,0.2,0.1,0.3c0.1-0.1,0.1-0.1,0.3-0.4v-0.1C-578.6,926.1-578.8,926.2-578.9,926.3z"/>
	<path class="st0" d="M-323.6,929.3l0.2,0.2c0.1-0.1,0.2-0.1,0.3-0.2l-0.2-0.1C-323.4,929.2-323.5,929.2-323.6,929.3z"/>
	<path class="st0" d="M-324,930.7c0,0.1,0.1,0.2,0.2,0.3l0.2-0.2c-0.1-0.1-0.1-0.2-0.2-0.3L-324,930.7z"/>
	<path class="st0" d="M-299.1,928.1c0.1,0,0.2,0.1,0.3,0.1l0.2-0.2c-0.1-0.1-0.2-0.1-0.3-0.2L-299.1,928.1z"/>
	<path class="st0" d="M-324.4,933.3l0.2,0.1c0.1,0,0.2-0.1,0.3-0.2l-0.2-0.2C-324.2,933.2-324.3,933.3-324.4,933.3z"/>
	<path class="st0" d="M-290.9,935.7l0.2,0.2c0.1-0.1,0.2-0.1,0.3-0.2l-0.2-0.1C-290.7,935.5-290.8,935.6-290.9,935.7z"/>
	<path class="st0" d="M-298.2,927.6c0.1,0.1,0.2,0.1,0.3,0.2l0.2-0.2c-0.1,0-0.2-0.1-0.3-0.1L-298.2,927.6z"/>
	<path class="st0" d="M-327.8,931.6l0.2,0.1C-327.6,931.7-327.6,931.6-327.8,931.6z"/>
	<path class="st0" d="M-332.5,928.2c0.3,0.2,0.6,0.4,0.9,0.6c0-0.1,0.1-0.3,0.2-0.6c-0.2-0.1-0.5-0.2-0.7-0.2
		C-332.3,928-332.4,928.1-332.5,928.2z"/>
	<path class="st0" d="M-330.1,930.3l-0.2,0.2c0,0.5,0,1.1,0.5,1.4h0.4c0-0.1,0.1-0.2,0.1-0.3c-0.2-0.4-0.3-0.8-0.5-1.2
		C-329.8,930.4-330,930.3-330.1,930.3z"/>
	<path class="st0" d="M-328.2,926.5c-0.1,0-0.2-0.1-0.3-0.1l-0.2,0.2c0.1,0.1,0.2,0.1,0.3,0.2L-328.2,926.5z"/>
	<path class="st0" d="M-218.7,928.7c0.1,0.1,0.2,0.1,0.3,0.2l0.2-0.2c-0.1,0-0.2-0.1-0.3-0.1L-218.7,928.7z"/>
	<path class="st0" d="M-327.7,930.6c0.1,0,0.1-0.1,0.1-0.2c0.1-0.2-0.2-0.5-0.3-0.7l-0.6,0.2c0,0.3,0,0.5,0.3,0.9
		c0.1-0.1,0.2-0.2,0.3-0.3C-327.8,930.6-327.8,930.6-327.7,930.6z"/>
	<path class="st0" d="M-233.4,927.1c-0.2-0.2-0.5-0.5-0.7-0.7c-0.1,0.2-0.3,0.5-0.2,0.6c0.2,0.2,0.5,0.3,0.7,0.3L-233.4,927.1z"/>
	<path class="st0" d="M-226.6,929.7c0,0,0,0.1,0.1,0.1h0.2c0-0.1-0.1-0.2-0.2-0.3L-226.6,929.7z"/>
	<path class="st0" d="M-234.2,928.6c0.1,0.1,0.3,0.2,0.4,0.2c0.2,0,0.4-0.2,0.6-0.3c-0.1-0.1-0.3-0.2-0.4-0.3
		C-233.8,928.4-234,928.5-234.2,928.6z"/>
	<path class="st0" d="M-223.6,929.8c0.1,0,0.1,0.1,0.2,0.1h0.3c0.1-0.1,0.2-0.2,0.3-0.3c-0.1-0.1-0.3-0.1-0.7-0.2
		C-223.5,929.4-223.6,929.6-223.6,929.8z"/>
	<path class="st0" d="M-332.4,931.4c0,0.2,0.2,0.3,0.3,0.4c0-0.1,0.1-0.3,0.2-0.7c-0.1,0-0.3-0.1-0.4-0.2
		C-332.3,931.2-332.4,931.3-332.4,931.4z"/>
	<path class="st0" d="M-240.4,925.2c0.1,0.1,0.1,0.2,0.2,0.3l0.1-0.2c0-0.1-0.1-0.2-0.2-0.3L-240.4,925.2z"/>
	<path class="st0" d="M-258,927.1l0.2,0.2c0-0.1,0.1-0.2,0.1-0.3l-0.2-0.2C-257.9,926.9-258,927-258,927.1z"/>
	<path class="st0" d="M-244.3,925.5l0.2,0.2c0.1-0.1,0.1-0.2,0.2-0.3l-0.2-0.2C-244.2,925.3-244.3,925.4-244.3,925.5z"/>
	<path class="st0" d="M-238.3,928.4c-0.1,0.4-0.2,0.5-0.3,0.7c0,0.1,0,0.3,0,0.5h0.1C-238.4,929.3-238.4,928.9-238.3,928.4z"/>
	<path class="st0" d="M-239,929.9h0.4c-0.1-0.1-0.1-0.2-0.2-0.3C-238.8,929.7-238.9,929.8-239,929.9z"/>
	<path class="st0" d="M-238.5,929.9h0.2c0-0.2,0.1-0.4,0.1-0.5l-0.2,0.1C-238.5,929.7-238.5,929.8-238.5,929.9z"/>
	<path class="st0" d="M-238.3,929.4l0.2-0.2C-238.1,929.1-238.1,928.9-238.3,929.4z"/>
	<path class="st0" d="M-352.7,926.3c-0.2,0.4-0.3,0.6-0.3,0.7c0,0.1,0,0.3,0,0.5h0.1c0,0.1-0.1,0.2-0.1,0.3h0.2
		c0-0.2,0.1-0.4,0.1-0.5l-0.2,0.1C-352.8,927.1-352.8,926.7-352.7,926.3z"/>
	<path class="st0" d="M-353.5,927.8h0.4c-0.1-0.1-0.1-0.2-0.2-0.3C-353.3,927.6-353.4,927.7-353.5,927.8z"/>
	<path class="st0" d="M-373.3,925.2c0.1,0.1,0.1,0.2,0.2,0.3l0.1-0.2c0-0.1-0.1-0.2-0.2-0.3L-373.3,925.2z"/>
	<path class="st0" d="M-351.6,928.7c0.1,0.1,0.2,0.1,0.3,0.2l0.2-0.2c-0.1,0-0.2-0.1-0.3-0.1L-351.6,928.7z"/>
	<path class="st0" d="M-352.8,927.3l0.2-0.2C-352.5,927-352.6,926.8-352.8,927.3z"/>
	<path class="st0" d="M-377.2,925.5l0.2,0.2c0.1-0.1,0.1-0.2,0.2-0.3l-0.2-0.2C-377.1,925.3-377.2,925.4-377.2,925.5z"/>
	<path class="st0" d="M-348.4,927.9l0.2,0.2c0-0.1,0.1-0.2,0.1-0.3l-0.2-0.2C-348.3,927.7-348.4,927.8-348.4,927.9z"/>
	<path class="st0" d="M-432,928.1c0.1,0,0.2,0.1,0.3,0.1l0.2-0.2c-0.1-0.1-0.2-0.1-0.3-0.2L-432,928.1z"/>
	<path class="st0" d="M-437.3,926.6c0-0.1,0.1-0.2,0.1-0.4l-0.3-0.2C-437.4,926.3-437.3,926.5-437.3,926.6z"/>
	<path class="st0" d="M-431.1,927.6c0.1,0.1,0.2,0.1,0.3,0.2l0.2-0.2c-0.1,0-0.2-0.1-0.3-0.1L-431.1,927.6z"/>
	<path class="st0" d="M-390.9,927.1l0.2,0.2c0-0.1,0.1-0.2,0.1-0.3l-0.2-0.2C-390.8,926.9-390.9,927-390.9,927.1z"/>
	<path class="st0" d="M-423.8,935.7l0.2,0.2c0.1-0.1,0.2-0.1,0.3-0.2l-0.2-0.1C-423.6,935.5-423.7,935.6-423.8,935.7z"/>
	<path class="st0" d="M-334.9,930.7C-334.9,930.7-334.9,930.7-334.9,930.7C-334.9,930.7-334.9,930.7-334.9,930.7z"/>
	<path class="st0" d="M-335.9,929.4c0.1,0.1,0.3,0.2,0.5,0.3c0.2-0.2,0.4-0.4,0.5-0.6c0-0.1-0.1-0.3-0.2-0.4
		C-335.4,928.9-335.6,929.2-335.9,929.4z"/>
	<path class="st0" d="M-337.9,926.9c0,0.1,0.1,0.2,0.2,0.3l0.2-0.2c-0.1-0.1-0.1-0.2-0.2-0.3L-337.9,926.9z"/>
	<path class="st0" d="M-335.7,931.3c0,0,0.1,0.2,0.1,0.3c0.1-0.1,0.1-0.1,0.3-0.4v-0.1C-335.5,931.2-335.6,931.2-335.7,931.3z"/>
	<path class="st0" d="M-335.1,930.9L-335.1,930.9c0-0.1,0.1-0.2,0.2-0.3l-0.3,0.3L-335.1,930.9l-0.1,0.3v0.1
		C-335.2,931.2-335.2,931.1-335.1,930.9L-335.1,930.9c0.1,0,0.1-0.1,0.2-0.2C-335,930.8-335,930.8-335.1,930.9z"/>
	<path class="st0" d="M-348,926.7c0,0.1,0.1,0.2,0.2,0.3l0.2-0.2c-0.1-0.1-0.1-0.2-0.2-0.3L-348,926.7z"/>
	<path class="st0" d="M-339.2,930.6l0.2,0.2c0-0.1,0.1-0.2,0.1-0.3l-0.2-0.2C-339.1,930.4-339.2,930.5-339.2,930.6z"/>
	<path class="st0" d="M-344.6,925.6l-0.3,0.3l0.1,0.1l-0.1,0.2v0.1c0.1-0.1,0.1-0.2,0.2-0.3l-0.1-0.1
		C-344.7,925.8-344.7,925.7-344.6,925.6z"/>
	<path class="st0" d="M-345.3,926.3c0,0,0.1,0.2,0.1,0.3c0.1-0.1,0.1-0.1,0.3-0.4v-0.1C-345,926.1-345.2,926.2-345.3,926.3z"/>
	<path class="st0" d="M-343.6,927.6c0.1,0.1,0.2,0.1,0.3,0.2l0.2-0.2c-0.1,0-0.2-0.1-0.3-0.1L-343.6,927.6z"/>
	<path class="st0" d="M-339.8,929.6l0.2,0.1c0.1,0,0.2-0.1,0.3-0.2l-0.2-0.1C-339.6,929.4-339.7,929.5-339.8,929.6z"/>
	<path class="st0" d="M-344.7,926c0.1-0.1,0.2-0.1,0.3-0.3C-344.5,925.8-344.5,925.7-344.7,926z"/>
	<path class="st0" d="M-327.7,931.3l-0.2-0.1c-0.1,0.1-0.2,0.2-0.2,0.3c0.1,0,0.2,0.1,0.3,0.1l-0.1-0.1L-327.7,931.3z"/>
	<path class="st0" d="M-90,929.3l0.2,0.2c0.1-0.1,0.2-0.1,0.3-0.2l-0.2-0.1C-89.8,929.2-89.9,929.2-90,929.3z"/>
	<path class="st0" d="M-24.4,927.1l0.2,0.2c0-0.1,0.1-0.2,0.1-0.3l-0.2-0.2C-24.3,926.9-24.4,927-24.4,927.1z"/>
	<path class="st0" d="M-90.8,933.3l0.2,0.1c0.1,0,0.2-0.1,0.3-0.2l-0.2-0.2C-90.6,933.2-90.7,933.3-90.8,933.3z"/>
	<path class="st0" d="M-90.4,930.7c0,0.1,0.1,0.2,0.2,0.3l0.2-0.2c-0.1-0.1-0.1-0.2-0.2-0.3L-90.4,930.7z"/>
	<path class="st0" d="M-57.3,935.7l0.2,0.2c0.1-0.1,0.2-0.1,0.3-0.2l-0.2-0.1C-57.1,935.5-57.2,935.6-57.3,935.7z"/>
	<path class="st0" d="M-64.6,927.6c0.1,0.1,0.2,0.1,0.3,0.2l0.2-0.2c-0.1,0-0.2-0.1-0.3-0.1L-64.6,927.6z"/>
	<path class="st0" d="M-65.5,928.1c0.1,0,0.2,0.1,0.3,0.1l0.2-0.2c-0.1-0.1-0.2-0.1-0.3-0.2L-65.5,928.1z"/>
	<path class="st0" d="M-94.1,930.6c0.1,0,0.1-0.1,0.1-0.2c0.1-0.2-0.2-0.5-0.3-0.7l-0.6,0.2c0,0.3,0,0.5,0.3,0.9
		c0.1-0.1,0.2-0.2,0.3-0.3C-94.2,930.6-94.2,930.6-94.1,930.6z"/>
	<path class="st0" d="M-96.5,930.3l-0.2,0.2c0,0.5,0,1.1,0.5,1.4h0.4c0-0.1,0.1-0.2,0.1-0.3c-0.2-0.4-0.3-0.8-0.5-1.2
		C-96.2,930.4-96.4,930.3-96.5,930.3z"/>
	<path class="st0" d="M-98.9,928.2c0.3,0.2,0.6,0.4,0.9,0.6c0-0.1,0.1-0.3,0.2-0.6c-0.2-0.1-0.5-0.2-0.7-0.2S-98.8,928.1-98.9,928.2
		z"/>
	<path class="st0" d="M-94.3,931.5l0.2-0.2l-0.2-0.1c-0.1,0.1-0.2,0.2-0.2,0.3c0.1,0,0.2,0.1,0.3,0.1L-94.3,931.5z"/>
	<path class="st0" d="M-94.6,926.5c-0.1,0-0.2-0.1-0.3-0.1l-0.2,0.2c0.1,0.1,0.2,0.1,0.3,0.2L-94.6,926.5z"/>
	<path class="st0" d="M-94.2,931.6l0.2,0.1C-94,931.7-94,931.6-94.2,931.6z"/>
	<path class="st0" d="M7,929.7c0,0,0,0.1,0.1,0.1h0.2c0-0.1-0.1-0.2-0.2-0.3L7,929.7z"/>
	<path class="st0" d="M0.2,927.1c-0.2-0.2-0.5-0.5-0.7-0.7c-0.1,0.2-0.3,0.5-0.2,0.6c0.2,0.2,0.5,0.3,0.7,0.3L0.2,927.1z"/>
	<path class="st0" d="M-0.6,928.6c0.1,0.1,0.3,0.2,0.4,0.2c0.2,0,0.4-0.2,0.6-0.3c-0.1-0.1-0.3-0.2-0.4-0.3
		C-0.2,928.4-0.4,928.5-0.6,928.6z"/>
	<path class="st0" d="M10,929.8c0.1,0,0.1,0.1,0.2,0.1h0.3c0.1-0.1,0.2-0.2,0.3-0.3c-0.1-0.1-0.3-0.1-0.7-0.2
		C10.1,929.4,10,929.6,10,929.8z"/>
	<path class="st0" d="M14.9,928.7c0.1,0.1,0.2,0.1,0.3,0.2l0.2-0.2c-0.1,0-0.2-0.1-0.3-0.1L14.9,928.7z"/>
	<path class="st0" d="M-198.4,928.1c0.1,0,0.2,0.1,0.3,0.1l0.2-0.2c-0.1-0.1-0.2-0.1-0.3-0.2L-198.4,928.1z"/>
	<path class="st0" d="M-10.7,925.5l0.2,0.2c0.1-0.1,0.1-0.2,0.2-0.3l-0.2-0.2C-10.6,925.3-10.7,925.4-10.7,925.5z"/>
	<path class="st0" d="M-6.8,925.2c0.1,0.1,0.1,0.2,0.2,0.3l0.1-0.2c0-0.1-0.1-0.2-0.2-0.3L-6.8,925.2z"/>
	<path class="st0" d="M-5.4,929.9H-5c-0.1-0.1-0.1-0.2-0.2-0.3C-5.2,929.7-5.3,929.8-5.4,929.9z"/>
	<path class="st0" d="M-4.7,928.4c-0.1,0.4-0.2,0.5-0.3,0.7c0,0.1,0,0.3,0,0.5h0.1C-4.8,929.3-4.8,928.9-4.7,928.4z"/>
	<path class="st0" d="M-4.9,929.9h0.2c0-0.2,0.1-0.4,0.1-0.5l-0.2,0.1C-4.9,929.7-4.9,929.8-4.9,929.9z"/>
	<path class="st0" d="M-4.7,929.4l0.2-0.2C-4.5,929.1-4.5,928.9-4.7,929.4z"/>
	<path class="st0" d="M-111.1,926c0.1-0.1,0.2-0.1,0.3-0.3C-110.9,925.8-110.9,925.7-111.1,926z"/>
	<path class="st0" d="M-119.2,927.3l0.2-0.2C-118.9,927-119,926.8-119.2,927.3z"/>
	<path class="st0" d="M-203.7,926.6c0-0.1,0.1-0.2,0.1-0.4l-0.3-0.2C-203.8,926.3-203.7,926.5-203.7,926.6z"/>
	<path class="st0" d="M-118,928.7c0.1,0.1,0.2,0.1,0.3,0.2l0.2-0.2c-0.1,0-0.2-0.1-0.3-0.1L-118,928.7z"/>
	<path class="st0" d="M-119.9,927.8h0.4c-0.1-0.1-0.1-0.2-0.2-0.3C-119.7,927.6-119.8,927.7-119.9,927.8z"/>
	<path class="st0" d="M-114.8,927.9l0.2,0.2c0-0.1,0.1-0.2,0.1-0.3l-0.2-0.2C-114.7,927.7-114.8,927.8-114.8,927.9z"/>
	<path class="st0" d="M-114.4,926.7c0,0.1,0.1,0.2,0.2,0.3l0.2-0.2c-0.1-0.1-0.1-0.2-0.2-0.3L-114.4,926.7z"/>
	<path class="st0" d="M-190.2,935.7l0.2,0.2c0.1-0.1,0.2-0.1,0.3-0.2l-0.2-0.1C-190,935.5-190.1,935.6-190.2,935.7z"/>
	<path class="st0" d="M-197.5,927.6c0.1,0.1,0.2,0.1,0.3,0.2l0.2-0.2c-0.1,0-0.2-0.1-0.3-0.1L-197.5,927.6z"/>
	<path class="st0" d="M-139.7,925.2c0.1,0.1,0.1,0.2,0.2,0.3l0.1-0.2c0-0.1-0.1-0.2-0.2-0.3L-139.7,925.2z"/>
	<path class="st0" d="M-157.3,927.1l0.2,0.2c0-0.1,0.1-0.2,0.1-0.3l-0.2-0.2C-157.2,926.9-157.3,927-157.3,927.1z"/>
	<path class="st0" d="M-143.6,925.5l0.2,0.2c0.1-0.1,0.1-0.2,0.2-0.3l-0.2-0.2C-143.5,925.3-143.6,925.4-143.6,925.5z"/>
	<path class="st0" d="M-119.1,926.3c-0.2,0.4-0.3,0.6-0.3,0.7c0,0.1,0,0.3,0,0.5h0.1c0,0.1-0.1,0.2-0.1,0.3h0.2
		c0-0.2,0.1-0.4,0.1-0.5l-0.2,0.1C-119.2,927.1-119.2,926.7-119.1,926.3z"/>
	<path class="st0" d="M-101.3,930.7C-101.3,930.7-101.3,930.7-101.3,930.7C-101.3,930.7-101.3,930.7-101.3,930.7z"/>
	<path class="st0" d="M-104.3,926.9c0,0.1,0.1,0.2,0.2,0.3l0.2-0.2c-0.1-0.1-0.1-0.2-0.2-0.3L-104.3,926.9z"/>
	<path class="st0" d="M-102.1,931.3c0,0,0.1,0.2,0.1,0.3c0.1-0.1,0.1-0.1,0.3-0.4v-0.1C-101.9,931.2-102,931.2-102.1,931.3z"/>
	<path class="st0" d="M-102.3,929.4c0.1,0.1,0.3,0.2,0.5,0.3c0.2-0.2,0.4-0.4,0.5-0.6c0-0.1-0.1-0.3-0.2-0.4
		C-101.8,928.9-102,929.2-102.3,929.4z"/>
	<path class="st0" d="M-101.6,930.9L-101.6,930.9c0-0.1,0.1-0.2,0.2-0.3l-0.3,0.3L-101.6,930.9l-0.1,0.3v0.1
		C-101.6,931.2-101.6,931.1-101.6,930.9L-101.6,930.9c0.1,0,0.1-0.1,0.2-0.2C-101.4,930.8-101.5,930.8-101.6,930.9z"/>
	<path class="st0" d="M-98.8,931.4c0,0.2,0.2,0.3,0.3,0.4c0-0.1,0.1-0.3,0.2-0.7c-0.1,0-0.3-0.1-0.4-0.2
		C-98.7,931.2-98.8,931.3-98.8,931.4z"/>
	<path class="st0" d="M-111.7,926.3c0,0,0.1,0.2,0.1,0.3c0.1-0.1,0.1-0.1,0.3-0.4v-0.1C-111.4,926.1-111.6,926.2-111.7,926.3z"/>
	<path class="st0" d="M-111,925.6l-0.3,0.3l0.1,0.1l-0.1,0.2v0.1c0.1-0.1,0.1-0.2,0.2-0.3l-0.1-0.1
		C-111.2,925.8-111.1,925.7-111,925.6z"/>
	<path class="st0" d="M-105.6,930.6l0.2,0.2c0-0.1,0.1-0.2,0.1-0.3l-0.2-0.2C-105.5,930.4-105.6,930.5-105.6,930.6z"/>
	<path class="st0" d="M-106.2,929.6l0.2,0.1c0.1,0,0.2-0.1,0.3-0.2l-0.2-0.1C-106,929.4-106.1,929.5-106.2,929.6z"/>
	<path class="st0" d="M-110,927.6c0.1,0.1,0.2,0.1,0.3,0.2l0.2-0.2c-0.1,0-0.2-0.1-0.3-0.1L-110,927.6z"/>
	<path class="st0" d="M209.2,927.1l0.2,0.2c0-0.1,0.1-0.2,0.1-0.3l-0.2-0.2C209.3,926.9,209.2,927,209.2,927.1z"/>
	<path class="st0" d="M143.6,929.3l0.2,0.2c0.1-0.1,0.2-0.1,0.3-0.2l-0.2-0.1C143.8,929.2,143.7,929.2,143.6,929.3z"/>
	<path class="st0" d="M176.3,935.7l0.2,0.2c0.1-0.1,0.2-0.1,0.3-0.2l-0.2-0.1C176.5,935.5,176.4,935.6,176.3,935.7z"/>
	<path class="st0" d="M169,927.6c0.1,0.1,0.2,0.1,0.3,0.2l0.2-0.2c-0.1,0-0.2-0.1-0.3-0.1L169,927.6z"/>
	<path class="st0" d="M168.1,928.1c0.1,0,0.2,0.1,0.3,0.1l0.2-0.2c-0.1-0.1-0.2-0.1-0.3-0.2L168.1,928.1z"/>
	<path class="st0" d="M143.2,930.7c0,0.1,0.1,0.2,0.2,0.3l0.2-0.2c-0.1-0.1-0.1-0.2-0.2-0.3L143.2,930.7z"/>
	<path class="st0" d="M139.5,930.6c0.1,0,0.1-0.1,0.1-0.2c0.1-0.2-0.2-0.5-0.3-0.7l-0.6,0.2c0,0.3,0,0.5,0.3,0.9
		c0.1-0.1,0.2-0.2,0.3-0.3C139.4,930.6,139.4,930.6,139.5,930.6z"/>
	<path class="st0" d="M139,926.5c-0.1,0-0.2-0.1-0.3-0.1l-0.2,0.2c0.1,0.1,0.2,0.1,0.3,0.2L139,926.5z"/>
	<path class="st0" d="M137.1,930.3l-0.2,0.2c0,0.5,0,1.1,0.5,1.4h0.4c0-0.1,0.1-0.2,0.1-0.3c-0.2-0.4-0.3-0.8-0.5-1.2
		C137.4,930.4,137.2,930.3,137.1,930.3z"/>
	<path class="st0" d="M139.5,931.3l-0.2-0.1c-0.1,0.1-0.2,0.2-0.2,0.3c0.1,0,0.2,0.1,0.3,0.1l-0.1-0.1L139.5,931.3z"/>
	<path class="st0" d="M139.4,931.6l0.2,0.1C139.6,931.7,139.6,931.6,139.4,931.6z"/>
	<path class="st0" d="M142.8,933.3l0.2,0.1c0.1,0,0.2-0.1,0.3-0.2l-0.2-0.2C143,933.2,142.9,933.3,142.8,933.3z"/>
	<path class="st0" d="M233.8,927.1c-0.2-0.2-0.5-0.5-0.7-0.7c-0.1,0.2-0.3,0.5-0.2,0.6c0.2,0.2,0.5,0.3,0.7,0.3L233.8,927.1z"/>
	<path class="st0" d="M248.5,928.7c0.1,0.1,0.2,0.1,0.3,0.2l0.2-0.2c-0.1,0-0.2-0.1-0.3-0.1L248.5,928.7z"/>
	<path class="st0" d="M243.6,929.8c0.1,0,0.1,0.1,0.2,0.1h0.3c0.1-0.1,0.2-0.2,0.3-0.3c-0.1-0.1-0.3-0.1-0.7-0.2
		C243.7,929.4,243.6,929.6,243.6,929.8z"/>
	<path class="st0" d="M250.3,919L250.3,919c0,0.1,0.1,0.1,0.1,0.1C250.4,919,250.4,919,250.3,919z"/>
	<path class="st0" d="M134.7,928.2c0.3,0.2,0.6,0.4,0.9,0.6c0-0.1,0.1-0.3,0.2-0.6c-0.2-0.1-0.5-0.2-0.7-0.2
		C134.9,928,134.8,928.1,134.7,928.2z"/>
	<path class="st0" d="M240.6,929.7c0,0,0,0.1,0.1,0.1h0.2c0-0.1-0.1-0.2-0.2-0.3L240.6,929.7z"/>
	<path class="st1" d="M250.3,919v-13.1h-64.5c0.1,0.1,0.1,0.1,0.2,0.2v0.1c-0.1,0-0.1-0.1-0.2-0.2c-0.1,0,0-0.1,0-0.1h-25.7
		c-0.1,0.1-0.1,0.1-0.2,0.2c0-0.1-0.1-0.1-0.1-0.2H16.7h-0.2h-64.3c0.1,0.1,0.1,0.1,0.2,0.2v0.1c-0.1,0-0.1-0.1-0.2-0.2
		c-0.1,0,0-0.1,0-0.1h-25.7c-0.1,0.1-0.1,0.1-0.2,0.2c0-0.1-0.1-0.1-0.1-0.2h-143.1h-0.2h-64.3c0.1,0.1,0.1,0.1,0.2,0.2v0.1
		c-0.1,0-0.1-0.1-0.2-0.2c-0.1,0,0-0.1,0-0.1h-25.7c-0.1,0.1-0.1,0.1-0.2,0.2c0-0.1-0.1-0.1-0.1-0.2h-143.1h-0.2H-515
		c0.1,0.1,0.1,0.1,0.2,0.2v0.1c-0.1,0-0.1-0.1-0.2-0.2c-0.1,0,0-0.1,0-0.1h-25.7c-0.1,0.1-0.1,0.1-0.2,0.2c0-0.1-0.1-0.1-0.1-0.2
		h-143.3v8.2c0.2,0,0.3,0,0.3,0.1c-0.1,0-0.2,0-0.3-0.1v11.7c0.4,0,0.9-0.3,1.3-0.4c0,0.7,0.6,0.7,1,1c0.3,0.2,0.5,0.3,0.5-0.2
		c0-0.8,0-1.6-1.1-1.7v-0.2c1.3-0.5,1.6,0.6,2,1.3c0.1,0.2,0.2,0.3,0.3,0.5c0.2-0.3,0.3-0.5,0.3-0.8v-0.1l-0.4,0.1
		c0-0.1,0.1-0.2,0.1-0.3c0.1,0,0.2,0.1,0.3,0.1c0-0.5,0.2-0.7,0.8-0.5c0.6,0.2,1.1,0.4,1.7,0.6c0.2,0.1,0.6,0.2,0.6,0.2
		c0.6-1,1.2-0.2,1.8-0.1c0.3,0.1,0.7,0,1,0c0.5-0.1,0.8,0,1.1,0.4c0.4,0.4,0.9,0.9,0.9-0.2l0.6-0.2c0-0.2,0.1,0.1,0.2,0
		c0.2-0.2,0.4,0.4,0.8,0.4v-0.5c0.2,0.5,0.4,0.9,0.5,1.5c0.1,0,0.1-0.1,0.3-0.1c1-0.7,1.4-0.7,2.2,0.1c0.2,0.1,0.2,0.4,0.3,0.6
		c0.1,0.1,0.2,0.2,0.3,0.3c0.1-0.1,0.2-0.3,0.2-0.4c0.3-1.2,0.3-1.2,1.1-0.7c0.5,0.3,0.4,0.3,0.9-0.6c0.2-0.4,0.9-0.7,1.3-0.6
		c0.7,0.2,1.3,0.2,2-0.1c0.6-0.3,3.4-0.5,4.1-0.5c0.5,0,1.3,1.5,1.6,1.2c0.6-0.6,0.8,0.5,1.2,0.2c1-0.8,2.1-0.5,3.2-0.7
		c0.7-0.1,1.6-0.3,2.1-0.5v0.1c0.5,0.5,1.7,0.2,2.4,0.1c1.1-0.2,2.1,0.6,3.2-0.1c0.1-0.1,0.5,0.1,0.6,0.2c0.7,0.8,1.2,0.3,1.9-0.5
		c0.6-0.7,0.5,0.1,0.5,0.3c0,0.8,0.3,1.1,1,0.5c0.1-0.1,0.3-0.2,0.3-0.2c0.5,0.2,1.4,0.7,1.5,0.6c0.6-0.6,1-1.5,1.4-1.4
		c0.6,0.2,1.3-0.3,1.8,0.3c0.1,0.1,0.6-0.2,1-0.3c0.4-0.2,0.8-0.2,0.8,0.4c0.1,0.5,0.3,0.4,0.6,0.1c0.3-0.4,0.7-0.4,0.9,0.1
		c0.1,0.2,0.2,0.4,0.3,0.6c0.1-0.1,0.2-0.3,0.2-0.4c0.2-0.4,0.3-0.9,0.4-1.3c0-0.1,0.2-0.2,0.3-0.2c0.1,0.1,0.2,0.3,0.2,0.4
		c0,0.7,0,1.5,1.1,0.7c0.1-0.1,0.5,0.1,0.7,0.2c0.3,0.2,0.5,0.9,0.8-0.2c0.2-0.7,1.6-0.5,2.4,0.2c0.2,0.2,0.6-0.7,0.8-0.8
		c0.8-0.4,0.7-0.4,1.2,0.1c0.2,0.3,0.5,0.6,0.8,0.9c0.2,0.2,0.4,0.3,0.5,0.4c0.1-0.2,0.1-0.4,0.2-0.7c0-0.3-0.1-0.7,0-1
		c0-0.1,0.4-0.3,0.6-0.3c0.1,0,0.4,0.1,0.4,0.2c0.1,0.3,0,0.7,0.1,1c0.1,0.4,0.1,0.8,0.2,1.2c0.6-0.3,0.1-0.8,0.3-1.2
		c0.1-0.3,0.2-0.5,0.4-0.7c0.1-0.1,0.4,0.1,0.6,0.3s0.3,0.5,0.5,0.8c0.1,0.2,0.5,0.4,0.5,0.3c0.2-0.2,0.3-0.4,0.4-0.7
		c0.1-0.1-0.1-0.4,0-0.5c0.1-0.2,0.3-0.3,0.5-0.3c0.2,0,0.4,0.3,0.4,0.4c0.1,0.7,0,1.4,0.9,0.4c0.3-0.3,0.8-0.3,1.3-0.5
		c0,0.2,0.1,0.3,0.1,0.5s0,0.3,0,0.5c0.2-0.1,0.5-0.1,0.6-0.2c0.5-0.6,1.7-0.9,2.5-0.6c0.6,0.2,0.9,0.3,0.9-0.4
		c0.1-0.5,0.3-0.5,0.5-0.1c0.1,0.3,0.3,0.6,0.5,0.8c0.3,0.3,0.5,0.3,0.5-0.2c0.1-0.3,0.3-0.6,0.5-0.8h0.4c0.1,1,0.4,0.6,0.8,0.2
		c0.3,0.8,1-0.2,1.5,0.3c0.2,0.2,0.9-0.3,1.4-0.4c0.4,0,0.9,0.1,1.4,0.2c0.7,0.2,1.6,0.2,2.5,0.1c0.5-0.1,1-0.2,1,0.6h0.4
		c0.3-0.4,0.6-0.3,1-0.1c0.3,0.2,0.9,1.5,1-0.1c0.8-0.1,1.6-0.3,2.4-0.2c0.4,0,0.7,0.5,1,0.8c0.4,0.4,0.3,0.4,0.5,0.1
		c0.1-0.3,0.3-0.5,0.4-0.8c0.3-0.6,0.5-0.6,0.9-0.1c0.2,0.3,0.4,0.5,0.6,0.8c0.1,0.3-0.2,0.9,0.4,0.9c0.2,0,0.4-0.3,0.6-0.5
		c0.2-0.4,0.3-0.9,0.4-1.3c0.1-0.2,0.1-0.4,0.2-0.7c0.1,0.2,0.2,0.4,0.3,0.6c0.1,0.2,0,0.5,0,0.7c0.1,1.2,0.5,0.2,0.8,0.1
		c0.4-0.2,0.9-0.3,1.3-0.5c0.6-0.3,0.9-0.1,0.9,0.6c0,0.3-0.1,0.7,0.1,1c0.1,0.3,0.4,0.5,0.7,0.7c0.1-0.2,0.2-0.5,0.3-0.7
		c0-0.2,0-0.5,0-0.7c0-0.5-0.2-1,0.6-1c0.6,0,0.9,0.2,0.9,0.8c0,0.2,0.2,0.4,0.2,0.6c0.1-0.2,0.2-0.4,0.2-0.6c0-0.3,0-0.7,0-1
		c0-0.1,0.1-0.3,0.2-0.4c0.1,0.1,0.2,0.2,0.3,0.4c0.1,0.7,0.1,1.5,0.1,2.2c0,0.1,0.2,0.2,0.3,0.3l0.2-0.2c-0.4-0.5,0.9-0.8,0.2-1.4
		c-0.4-0.4-0.2-0.7,0.1-1c0.1-0.1,0.2-0.2,0.3-0.4c0.1,0.1,0.3,0.2,0.3,0.3c0.1,0.4,0,0.8,0.1,1.2c0,0.1,0.2,0.3,0.2,0.4
		c0.1-0.2,0.2-0.4,0.2-0.6c0.2-0.5,0.5-0.5,0.9-0.2c0.6,0.5,1,0.5,1-0.4l0.4-0.1c0.2,0.3,0.5,0.6,0.5,1c0.1,0.6,0.1,1.3,0.1,2
		l0.2,0.2c0.1-0.1,0.3-0.2,0.3-0.2c-0.4-1.2,0.6-1.9,0.9-2.9c0-0.1,0.2-0.2,0.2-0.4c0.1,0.1,0.2,0.2,0.2,0.4s0,0.5,0.1,0.7
		c0.1,0.4,0.2,0.8,0.3,1.3c0.2-0.4,0.4-0.8,0.6-1.2c0.1-0.2,0.2-0.4,0.3-0.7c0.6,0.9,0.9-0.6,1.3-0.1s0.7,1.1-0.1,1.5
		c0-0.6-0.5-0.6-0.8-0.4c-0.4,0.4-0.4,0.8,0.3,0.9c0,0.2,0,0.3,0,0.5c0,0.1,0.1,0.3,0.2,0.4c0.1-0.1,0.2-0.3,0.3-0.4
		c0-0.1,0-0.3,0-0.5c0.2-0.5,1,1.4,1-0.2c0-0.5-0.1-1-0.1-1.5c0-0.1,0.2-0.2,0.2-0.4c0.1,0.1,0.2,0.2,0.2,0.4
		c0.1,0.4,0.2,0.7,0.3,1.1c0.1,0.2,0.3,0.3,0.5,0.4c0.1-0.2,0.1-0.4,0.2-0.7c0.1-0.3,0.2-0.5,0.3-0.7c0.2,0.2,0.7,0.4,0.7,0.7
		c0,0.6,0.6,0.1,0.6-0.6c0.1,0,0.3,0,0.3,0c0.1,0.1,0.1,0.3,0.1,0.5c0,0.4,0,0.9,0.6,0.8c0.2,0,0.3-0.5,0.4-0.7
		c0.1-0.2,0.1-0.5,0.1-0.7c0.9,0.6,1.1-0.3,1.5-0.7c0.1,0.2,0.3,0.5,0.3,0.6c-0.3,0.5-0.6,1-0.4,1.6c0.1,0.3,0.4,0.5,0.7,0.7
		c0.1-0.2,0.3-0.5,0.3-0.7c0-0.4-0.1-0.8,0-1.2c0-0.3-0.3-1,0.3-0.8c0.3,0.2,1.3-0.1,1.2,0.8c0,0.2,0,0.5,0,0.7
		c-0.1,0.2-0.6,0.5-0.1,0.7c0.5,0.2,0.7-0.1,0.7-0.7c0-0.2-0.1-0.4,0-0.5c0.3-0.3,0.7-0.6,1.1-0.8c0.1,0,0.4,0.5,0.5,0.8
		c0.1,0.2,0.2,0.4,0.3,0.6c0.1,0.1,0.2,0.3,0.2,0.4c0.1-0.2,0.2-0.4,0.2-0.6s-0.1-0.5,0.1-0.7c0.1-0.2,0.4-0.2,0.6-0.2
		c0,0.2,0,0.4,0,0.5c0.1,0.3,0.3,0.6,0.4,0.9c0.1-0.1,0.2-0.3,0.3-0.4v-0.2c0.7-1.7,0.8-1.7,1.9-0.2c0.1,0.1,0.2,0.2,0.3,0.3
		c0.1-0.1,0.2-0.3,0.2-0.4c0-0.2-0.1-0.4,0-0.5c0.1-0.2,0.3-0.4,0.5-0.6c0.1,0.1,0.3,0.3,0.4,0.4c0.1,0.1,0,0.3,0,0.5
		c0.1,0.2,0.2,0.5,0.4,0.5s0.5-0.1,0.6-0.3c0.1-0.2,0.1-0.4,0.2-0.7c0.1,0.2,0.3,0.3,0.3,0.5c0.1,0.2,0,0.6,0.1,0.7
		c0.2,0.2,0.6,0.4,0.9,0.5c-0.1-0.3-0.2-0.6-0.2-0.8c0-0.2,0-0.3,0.1-0.5c0.2,0.1,0.6,0.1,0.6,0.2c0.1,0.3,0.1,0.6,0.1,1
		c0,0,0.3,0,0.5,0c-0.1-0.8,0.1-0.7,0.7-0.4c0.4,0.2,1.1-0.2,1.6-0.3c0,0.7,0.6,0.7,1,1c0.3,0.2,0.5,0.3,0.5-0.2
		c0-0.8,0-1.6-1.1-1.7v-0.2c1.3-0.5,1.6,0.6,2,1.3c0.1,0.2,0.2,0.3,0.3,0.5c0.1-0.2,0.2-0.5,0.1-0.7c-0.1-0.6,0.1-0.9,0.8-0.7
		c0.6,0.2,1.1,0.4,1.7,0.6c0.2,0.1,0.6,0.2,0.6,0.2c0.6-1,1.2-0.2,1.8-0.1c0.3,0.1,0.7,0,1,0c0.5-0.1,0.8,0,1.1,0.4
		c0.4,0.4,0.9,0.9,0.9-0.2l0.6-0.2c0.2,0.2,0.2,0.5,0.4,0.8c0.1,0.2,0.2,0.4,0.3,0.6c0.1-0.2,0.1-0.4,0.2-0.6c0.2-0.5,0.4-0.4,0.5,0
		c0.1,0.1,0.2,0.1,0.3-0.3c0.1,0,0.2-0.1,0.4,0c-0.2,0.3-0.3,0.6-0.5,0.8c0.1,0,0.1-0.1,0.2-0.1c1-0.7,1.4-0.7,2.2,0.1
		c0.2,0.1,0.2,0.4,0.3,0.6c0.1,0.1,0.2,0.2,0.3,0.3c0.1-0.1,0.2-0.3,0.2-0.4c0.3-1.2,0.3-1.2,1.1-0.7c0.5,0.3,0.4,0.3,0.9-0.6
		c0.2-0.4,0.9-0.7,1.3-0.6c0.7,0.2,1.3,0.2,2-0.1c0.6-0.3,3.4-0.5,4.1-0.5c0.5,0,1.3,1.5,1.6,1.2c0.6-0.6,0.8,0.5,1.2,0.2
		c1-0.8,2.1-0.5,3.2-0.7c0.7-0.1,1.6-0.3,2.1-0.5v0.1c0.5,0.5,1.7,0.2,2.4,0.1c1.1-0.2,2.1,0.6,3.2-0.1c0.1-0.1,0.5,0.1,0.6,0.2
		c0.7,0.8,1.2,0.3,1.9-0.5c0.6-0.7,0.5,0.1,0.5,0.3c0,0.8,0.3,1.1,1,0.5c0.1-0.1,0.3-0.2,0.3-0.2c0.5,0.2,1.4,0.7,1.5,0.6
		c0.6-0.6,1-1.5,1.4-1.4c0.6,0.2,1.3-0.3,1.8,0.3c0.1,0.1,0.6-0.2,1-0.3c0.4-0.2,0.8-0.2,0.8,0.4c0.1,0.5,0.3,0.4,0.6,0.1
		c0.3-0.4,0.7-0.4,0.9,0.1c0.1,0.2,0.2,0.4,0.3,0.6c0.1-0.1,0.2-0.3,0.2-0.4c0.2-0.4,0.3-0.9,0.4-1.3c0-0.1,0.2-0.2,0.3-0.2
		c0.1,0.1,0.2,0.3,0.2,0.4c0,0.7,0,1.5,1.1,0.7c0.1-0.1,0.5,0.1,0.7,0.2c0.3,0.2,0.5,0.9,0.8-0.2c0.2-0.7,1.6-0.5,2.4,0.2
		c0.2,0.2,0.6-0.7,0.8-0.8c0.8-0.4,0.7-0.4,1.2,0.1c0.2,0.3,0.5,0.6,0.8,0.9c0.2,0.2,0.4,0.3,0.5,0.4c0.1-0.2,0.1-0.4,0.2-0.7
		c0-0.3-0.1-0.7,0-1c0-0.1,0.4-0.3,0.6-0.3c0.1,0,0.4,0.1,0.4,0.2c0.1,0.3,0,0.7,0.1,1c0.1,0.4,0.1,0.8,0.2,1.2
		c0.6-0.3,0.1-0.8,0.3-1.2c0.1-0.3,0.2-0.5,0.4-0.7c0.1-0.1,0.4,0.1,0.6,0.3c0.2,0.2,0.3,0.5,0.5,0.8c0.1,0.2,0.5,0.4,0.5,0.3
		c0.2-0.2,0.3-0.4,0.4-0.7c0.1-0.1-0.1-0.4,0-0.5c0.1-0.2,0.3-0.3,0.5-0.3c0.2,0,0.4,0.3,0.4,0.4c0.1,0.7,0,1.4,0.9,0.4
		c0.3-0.3,0.8-0.3,1.3-0.5c0,0.2,0.1,0.3,0.1,0.5s0,0.3,0,0.5c0.2-0.1,0.5-0.1,0.6-0.2c0.5-0.6,1.7-0.9,2.5-0.6
		c0.6,0.2,0.9,0.3,0.9-0.4c0.1-0.5,0.3-0.5,0.5-0.1c0.1,0.3,0.3,0.6,0.5,0.8c0.3,0.3,0.5,0.3,0.5-0.2c0.1-0.3,0.3-0.6,0.5-0.8h0.4
		c0.1,1,0.4,0.6,0.8,0.2c0.3,0.8,1-0.2,1.5,0.3c0.2,0.2,0.9-0.3,1.4-0.4c0.4,0,0.9,0.1,1.4,0.2c0.7,0.2,1.6,0.2,2.5,0.1
		c0.5-0.1,1-0.2,1,0.6h0.4c0.3-0.4,0.6-0.3,1-0.1c0.3,0.2,0.9,1.5,1-0.1c0.8-0.1,1.6-0.3,2.4-0.2c0.4,0,0.7,0.5,1,0.8
		c0.4,0.4,0.3,0.4,0.5,0.1c0.1-0.3,0.3-0.5,0.4-0.8c0.3-0.6,0.5-0.6,0.9-0.1c0.2,0.3,0.4,0.5,0.6,0.8c0.1,0.3-0.2,0.9,0.4,0.9
		c0.2,0,0.4-0.3,0.6-0.5c0.2-0.4,0.3-0.9,0.4-1.3c0.1-0.2,0.1-0.4,0.2-0.7c0.1,0.2,0.2,0.4,0.3,0.6c0.1,0.2,0,0.5,0,0.7
		c0.1,1.2,0.5,0.2,0.8,0.1c0.4-0.2,0.9-0.3,1.3-0.5c0.6-0.3,0.9-0.1,0.9,0.6c0,0.3-0.1,0.7,0.1,1c0.1,0.3,0.4,0.5,0.7,0.7
		c0.1-0.2,0.2-0.5,0.3-0.7c0-0.2,0-0.5,0-0.7c0-0.5-0.2-1,0.6-1c0.6,0,0.9,0.2,0.9,0.8c0,0.2,0.2,0.4,0.2,0.6
		c0.1-0.2,0.2-0.4,0.2-0.6c0-0.3,0-0.7,0-1c0-0.1,0.1-0.3,0.2-0.4c0,0,0,0,0,0v1.7c0.4,0,0.9-0.3,1.3-0.4c0,0.7,0.6,0.7,1,1
		c0.3,0.2,0.5,0.3,0.5-0.2c0-0.8,0-1.6-1.1-1.7v-0.2c1.3-0.5,1.6,0.6,2,1.3c0.1,0.2,0.2,0.3,0.3,0.5c0.2-0.3,0.3-0.5,0.3-0.8v-0.1
		l-0.4,0.1c0-0.1,0.1-0.2,0.1-0.3c0.1,0,0.2,0.1,0.3,0.1c0-0.5,0.2-0.7,0.8-0.5c0.6,0.2,1.1,0.4,1.7,0.6c0.2,0.1,0.6,0.2,0.6,0.2
		c0.6-1,1.2-0.2,1.8-0.1c0.3,0.1,0.7,0,1,0c0.5-0.1,0.8,0,1.1,0.4c0.4,0.4,0.9,0.9,0.9-0.2l0.6-0.2c0-0.2,0.1,0.1,0.2,0
		c0.2-0.2,0.4,0.4,0.8,0.4v-0.5c0.2,0.5,0.4,0.9,0.5,1.5c0.1,0,0.1-0.1,0.3-0.1c1-0.7,1.4-0.7,2.2,0.1c0.2,0.1,0.2,0.4,0.3,0.6
		c0.1,0.1,0.2,0.2,0.3,0.3c0.1-0.1,0.2-0.3,0.2-0.4c0.3-1.2,0.3-1.2,1.1-0.7c0.5,0.3,0.4,0.3,0.9-0.6c0.2-0.4,0.9-0.7,1.3-0.6
		c0.7,0.2,1.3,0.2,2-0.1c0.6-0.3,3.4-0.5,4.1-0.5c0.5,0,1.3,1.5,1.6,1.2c0.6-0.6,0.8,0.5,1.2,0.2c1-0.8,2.1-0.5,3.2-0.7
		c0.7-0.1,1.6-0.3,2.1-0.5v0.1c0.5,0.5,1.7,0.2,2.4,0.1c1.1-0.2,2.1,0.6,3.2-0.1c0.1-0.1,0.5,0.1,0.6,0.2c0.7,0.8,1.2,0.3,1.9-0.5
		c0.6-0.7,0.5,0.1,0.5,0.3c0,0.8,0.3,1.1,1,0.5c0.1-0.1,0.3-0.2,0.3-0.2c0.5,0.2,1.4,0.7,1.5,0.6c0.6-0.6,1-1.5,1.4-1.4
		c0.6,0.2,1.3-0.3,1.8,0.3c0.1,0.1,0.6-0.2,1-0.3c0.4-0.2,0.8-0.2,0.8,0.4c0.1,0.5,0.3,0.4,0.6,0.1c0.3-0.4,0.7-0.4,0.9,0.1
		c0.1,0.2,0.2,0.4,0.3,0.6c0.1-0.1,0.2-0.3,0.2-0.4c0.2-0.4,0.3-0.9,0.4-1.3c0-0.1,0.2-0.2,0.3-0.2c0.1,0.1,0.2,0.3,0.2,0.4
		c0,0.7,0,1.5,1.1,0.7c0.1-0.1,0.5,0.1,0.7,0.2c0.3,0.2,0.5,0.9,0.8-0.2c0.2-0.7,1.6-0.5,2.4,0.2c0.2,0.2,0.6-0.7,0.8-0.8
		c0.8-0.4,0.7-0.4,1.2,0.1c0.2,0.3,0.5,0.6,0.8,0.9c0.2,0.2,0.4,0.3,0.5,0.4c0.1-0.2,0.1-0.4,0.2-0.7c0-0.3-0.1-0.7,0-1
		c0-0.1,0.4-0.3,0.6-0.3c0.1,0,0.4,0.1,0.4,0.2c0.1,0.3,0,0.7,0.1,1c0.1,0.4,0.1,0.8,0.2,1.2c0.6-0.3,0.1-0.8,0.3-1.2
		c0.1-0.3,0.2-0.5,0.4-0.7c0.1-0.1,0.4,0.1,0.6,0.3c0.2,0.2,0.3,0.5,0.5,0.8c0.1,0.2,0.5,0.4,0.5,0.3c0.2-0.2,0.3-0.4,0.4-0.7
		c0.1-0.1-0.1-0.4,0-0.5c0.1-0.2,0.3-0.3,0.5-0.3c0.2,0,0.4,0.3,0.4,0.4c0.1,0.7,0,1.4,0.9,0.4c0.3-0.3,0.8-0.3,1.3-0.5
		c0,0.2,0.1,0.3,0.1,0.5s0,0.3,0,0.5c0.2-0.1,0.5-0.1,0.6-0.2c0.5-0.6,1.7-0.9,2.5-0.6c0.6,0.2,0.9,0.3,0.9-0.4
		c0.1-0.5,0.3-0.5,0.5-0.1c0.1,0.3,0.3,0.6,0.5,0.8c0.3,0.3,0.5,0.3,0.5-0.2c0.1-0.3,0.3-0.6,0.5-0.8h0.4c0.1,1,0.4,0.6,0.8,0.2
		c0.3,0.8,1-0.2,1.5,0.3c0.2,0.2,0.9-0.3,1.4-0.4c0.4,0,0.9,0.1,1.4,0.2c0.7,0.2,1.6,0.2,2.5,0.1c0.5-0.1,1-0.2,1,0.6h0.4
		c0.3-0.4,0.6-0.3,1-0.1c0.3,0.2,0.9,1.5,1-0.1c0.8-0.1,1.6-0.3,2.4-0.2c0.4,0,0.7,0.5,1,0.8c0.4,0.4,0.3,0.4,0.5,0.1
		c0.1-0.3,0.3-0.5,0.4-0.8c0.3-0.6,0.5-0.6,0.9-0.1c0.2,0.3,0.4,0.5,0.6,0.8c0.1,0.3-0.2,0.9,0.4,0.9c0.2,0,0.4-0.3,0.6-0.5
		c0.2-0.4,0.3-0.9,0.4-1.3c0.1-0.2,0.1-0.4,0.2-0.7c0.1,0.2,0.2,0.4,0.3,0.6c0.1,0.2,0,0.5,0,0.7c0.1,1.2,0.5,0.2,0.8,0.1
		c0.4-0.2,0.9-0.3,1.3-0.5c0.6-0.3,0.9-0.1,0.9,0.6c0,0.3-0.1,0.7,0.1,1c0.1,0.3,0.4,0.5,0.7,0.7c0.1-0.2,0.2-0.5,0.3-0.7
		c0-0.2,0-0.5,0-0.7c0-0.5-0.2-1,0.6-1c0.6,0,0.9,0.2,0.9,0.8c0,0.2,0.2,0.4,0.2,0.6c0.1-0.2,0.2-0.4,0.2-0.6c0-0.3,0-0.7,0-1
		c0-0.1,0.1-0.3,0.2-0.4c0.1,0.1,0.2,0.2,0.3,0.4c0.1,0.7,0.1,1.5,0.1,2.2c0,0.1,0.2,0.2,0.3,0.3l0.2-0.2c-0.4-0.5,0.9-0.8,0.2-1.4
		c-0.4-0.4-0.2-0.7,0.1-1c0.1-0.1,0.2-0.2,0.3-0.4c0.1,0.1,0.3,0.2,0.3,0.3c0.1,0.4,0,0.8,0.1,1.2c0,0.1,0.2,0.3,0.2,0.4
		c0.1-0.2,0.2-0.4,0.2-0.6c0.2-0.5,0.5-0.5,0.9-0.2c0.6,0.5,1,0.5,1-0.4l0.4-0.1c0.2,0.3,0.5,0.6,0.5,1c0.1,0.6,0.1,1.3,0.1,2
		l0.2,0.2c0.1-0.1,0.3-0.2,0.3-0.2c-0.4-1.2,0.6-1.9,0.9-2.9c0-0.1,0.2-0.2,0.2-0.4c0.1,0.1,0.2,0.2,0.2,0.4c0,0.2,0,0.5,0.1,0.7
		c0.1,0.4,0.2,0.8,0.3,1.3c0.2-0.4,0.4-0.8,0.6-1.2c0.1-0.2,0.2-0.4,0.3-0.7c0.6,0.9,0.9-0.6,1.3-0.1c0.4,0.5,0.7,1.1-0.1,1.5
		c0-0.6-0.5-0.6-0.8-0.4c-0.4,0.4-0.4,0.8,0.3,0.9c0,0.2,0,0.3,0,0.5c0,0.1,0.1,0.3,0.2,0.4c0.1-0.1,0.2-0.3,0.3-0.4
		c0-0.1,0-0.3,0-0.5c0.2-0.5,1,1.4,1-0.2c0-0.5-0.1-1-0.1-1.5c0-0.1,0.2-0.2,0.2-0.4c0.1,0.1,0.2,0.2,0.2,0.4
		c0.1,0.4,0.2,0.7,0.3,1.1c0.1,0.2,0.3,0.3,0.5,0.4c0.1-0.2,0.1-0.4,0.2-0.7c0.1-0.3,0.2-0.5,0.3-0.7c0.2,0.2,0.7,0.4,0.7,0.7
		c0,0.6,0.6,0.1,0.6-0.6c0.1,0,0.3,0,0.3,0c0.1,0.1,0.1,0.3,0.1,0.5c0,0.4,0,0.9,0.6,0.8c0.2,0,0.3-0.5,0.4-0.7
		c0.1-0.2,0.1-0.5,0.1-0.7c0.9,0.6,1.1-0.3,1.5-0.7c0.1,0.2,0.3,0.5,0.3,0.6c-0.3,0.5-0.6,1-0.4,1.6c0.1,0.3,0.4,0.5,0.7,0.7
		c0.1-0.2,0.3-0.5,0.3-0.7c0-0.4-0.1-0.8,0-1.2c0-0.3-0.3-1,0.3-0.8c0.3,0.2,1.3-0.1,1.2,0.8c0,0.2,0,0.5,0,0.7
		c-0.1,0.2-0.6,0.5-0.1,0.7c0.5,0.2,0.7-0.1,0.7-0.7c0-0.2-0.1-0.4,0-0.5c0.3-0.3,0.7-0.6,1.1-0.8c0.1,0,0.4,0.5,0.5,0.8
		c0.1,0.2,0.2,0.4,0.3,0.6c0.1,0.1,0.2,0.3,0.2,0.4c0.1-0.2,0.2-0.4,0.2-0.6c0-0.2-0.1-0.5,0.1-0.7c0.1-0.2,0.4-0.2,0.6-0.2
		c0,0.2,0,0.4,0,0.5c0.1,0.3,0.3,0.6,0.4,0.9c0.1-0.1,0.2-0.3,0.3-0.4v-0.2c0.7-1.7,0.8-1.7,1.9-0.2c0.1,0.1,0.2,0.2,0.3,0.3
		c0.1-0.1,0.2-0.3,0.2-0.4c0-0.2-0.1-0.4,0-0.5c0.1-0.2,0.3-0.4,0.5-0.6c0.1,0.1,0.3,0.3,0.4,0.4c0.1,0.1,0,0.3,0,0.5
		c0.1,0.2,0.2,0.5,0.4,0.5s0.5-0.1,0.6-0.3c0.1-0.2,0.1-0.4,0.2-0.7c0.1,0.2,0.3,0.3,0.3,0.5c0.1,0.2,0,0.6,0.1,0.7
		c0.2,0.2,0.6,0.4,0.9,0.5c-0.1-0.3-0.2-0.6-0.2-0.8c0-0.2,0-0.3,0.1-0.5c0.2,0.1,0.6,0.1,0.6,0.2c0.1,0.3,0.1,0.6,0.1,1
		c0,0,0.3,0,0.5,0c-0.1-0.8,0.1-0.7,0.7-0.4c0.4,0.2,1.1-0.2,1.6-0.3c0,0.7,0.6,0.7,1,1c0.3,0.2,0.5,0.3,0.5-0.2
		c0-0.8,0-1.6-1.1-1.7v-0.2c1.3-0.5,1.6,0.6,2,1.3c0.1,0.2,0.2,0.3,0.3,0.5c0.1-0.2,0.2-0.5,0.1-0.7c-0.1-0.6,0.1-0.9,0.8-0.7
		c0.6,0.2,1.1,0.4,1.7,0.6c0.2,0.1,0.6,0.2,0.6,0.2c0.6-1,1.2-0.2,1.8-0.1c0.3,0.1,0.7,0,1,0c0.5-0.1,0.8,0,1.1,0.4
		c0.4,0.4,0.9,0.9,0.9-0.2l0.6-0.2c0.2,0.2,0.2,0.5,0.4,0.8c0.1,0.2,0.2,0.4,0.3,0.6c0.1-0.2,0.1-0.4,0.2-0.6c0.2-0.5,0.4-0.4,0.5,0
		c0.1,0.1,0.2,0.1,0.3-0.3c0.1,0,0.2-0.1,0.4,0c-0.2,0.3-0.3,0.6-0.5,0.8c0.1,0,0.1-0.1,0.2-0.1c1-0.7,1.4-0.7,2.2,0.1
		c0.2,0.1,0.2,0.4,0.3,0.6c0.1,0.1,0.2,0.2,0.3,0.3c0.1-0.1,0.2-0.3,0.2-0.4c0.3-1.2,0.3-1.2,1.1-0.7c0.5,0.3,0.4,0.3,0.9-0.6
		c0.2-0.4,0.9-0.7,1.3-0.6c0.7,0.2,1.3,0.2,2-0.1c0.6-0.3,3.4-0.5,4.1-0.5c0.5,0,1.3,1.5,1.6,1.2c0.6-0.6,0.8,0.5,1.2,0.2
		c1-0.8,2.1-0.5,3.2-0.7c0.7-0.1,1.6-0.3,2.1-0.5v0.1c0.5,0.5,1.7,0.2,2.4,0.1c1.1-0.2,2.1,0.6,3.2-0.1c0.1-0.1,0.5,0.1,0.6,0.2
		c0.7,0.8,1.2,0.3,1.9-0.5c0.6-0.7,0.5,0.1,0.5,0.3c0,0.8,0.3,1.1,1,0.5c0.1-0.1,0.3-0.2,0.3-0.2c0.5,0.2,1.4,0.7,1.5,0.6
		c0.6-0.6,1-1.5,1.4-1.4c0.6,0.2,1.3-0.3,1.8,0.3c0.1,0.1,0.6-0.2,1-0.3c0.4-0.2,0.8-0.2,0.8,0.4c0.1,0.5,0.3,0.4,0.6,0.1
		c0.3-0.4,0.7-0.4,0.9,0.1c0.1,0.2,0.2,0.4,0.3,0.6c0.1-0.1,0.2-0.3,0.2-0.4c0.2-0.4,0.3-0.9,0.4-1.3c0-0.1,0.2-0.2,0.3-0.2
		c0.1,0.1,0.2,0.3,0.2,0.4c0,0.7,0,1.5,1.1,0.7c0.1-0.1,0.5,0.1,0.7,0.2c0.3,0.2,0.5,0.9,0.8-0.2c0.2-0.7,1.6-0.5,2.4,0.2
		c0.2,0.2,0.6-0.7,0.8-0.8c0.8-0.4,0.7-0.4,1.2,0.1c0.2,0.3,0.5,0.6,0.8,0.9c0.2,0.2,0.4,0.3,0.5,0.4c0.1-0.2,0.1-0.4,0.2-0.7
		c0-0.3-0.1-0.7,0-1c0-0.1,0.4-0.3,0.6-0.3c0.1,0,0.4,0.1,0.4,0.2c0.1,0.3,0,0.7,0.1,1c0.1,0.4,0.1,0.8,0.2,1.2
		c0.6-0.3,0.1-0.8,0.3-1.2c0.1-0.3,0.2-0.5,0.4-0.7c0.1-0.1,0.4,0.1,0.6,0.3s0.3,0.5,0.5,0.8c0.1,0.2,0.5,0.4,0.5,0.3
		c0.2-0.2,0.3-0.4,0.4-0.7c0.1-0.1-0.1-0.4,0-0.5c0.1-0.2,0.3-0.3,0.5-0.3s0.4,0.3,0.4,0.4c0.1,0.7,0,1.4,0.9,0.4
		c0.3-0.3,0.8-0.3,1.3-0.5c0,0.2,0.1,0.3,0.1,0.5c0,0.2,0,0.3,0,0.5c0.2-0.1,0.5-0.1,0.6-0.2c0.5-0.6,1.7-0.9,2.5-0.6
		c0.6,0.2,0.9,0.3,0.9-0.4c0.1-0.5,0.3-0.5,0.5-0.1c0.1,0.3,0.3,0.6,0.5,0.8c0.3,0.3,0.5,0.3,0.5-0.2c0.1-0.3,0.3-0.6,0.5-0.8h0.4
		c0.1,1,0.4,0.6,0.8,0.2c0.3,0.8,1-0.2,1.5,0.3c0.2,0.2,0.9-0.3,1.4-0.4c0.4,0,0.9,0.1,1.4,0.2c0.7,0.2,1.6,0.2,2.5,0.1
		c0.5-0.1,1-0.2,1,0.6h0.4c0.3-0.4,0.6-0.3,1-0.1c0.3,0.2,0.9,1.5,1-0.1c0.8-0.1,1.6-0.3,2.4-0.2c0.4,0,0.7,0.5,1,0.8
		c0.4,0.4,0.3,0.4,0.5,0.1c0.1-0.3,0.3-0.5,0.4-0.8c0.3-0.6,0.5-0.6,0.9-0.1c0.2,0.3,0.4,0.5,0.6,0.8c0.1,0.3-0.2,0.9,0.4,0.9
		c0.2,0,0.4-0.3,0.6-0.5c0.2-0.4,0.3-0.9,0.4-1.3c0.1-0.2,0.1-0.4,0.2-0.7c0.1,0.2,0.2,0.4,0.3,0.6c0.1,0.2,0,0.5,0,0.7
		c0.1,1.2,0.5,0.2,0.8,0.1c0.4-0.2,0.9-0.3,1.3-0.5c0.6-0.3,0.9-0.1,0.9,0.6c0,0.3-0.1,0.7,0.1,1c0.1,0.3,0.4,0.5,0.7,0.7
		c0.1-0.2,0.2-0.5,0.3-0.7c0-0.2,0-0.5,0-0.7c0-0.5-0.2-1,0.6-1c0.6,0,0.9,0.2,0.9,0.8c0,0.2,0.2,0.4,0.2,0.6
		c0.1-0.2,0.2-0.4,0.2-0.6c0-0.3,0-0.7,0-1c0-0.1,0.1-0.3,0.2-0.4v1.7c0.4,0,0.9-0.3,1.3-0.4c0,0.7,0.6,0.7,1,1
		c0.3,0.2,0.5,0.3,0.5-0.2c0-0.8,0-1.6-1.1-1.7v-0.2c1.3-0.5,1.6,0.6,2,1.3c0.1,0.2,0.2,0.3,0.3,0.5c0.2-0.3,0.3-0.5,0.3-0.8v-0.1
		l-0.4,0.1c0-0.1,0.1-0.2,0.1-0.3c0.1,0,0.2,0.1,0.3,0.1c0-0.5,0.2-0.7,0.8-0.5c0.6,0.2,1.1,0.4,1.7,0.6c0.2,0.1,0.6,0.2,0.6,0.2
		c0.6-1,1.2-0.2,1.8-0.1c0.3,0.1,0.7,0,1,0c0.5-0.1,0.8,0,1.1,0.4c0.4,0.4,0.9,0.9,0.9-0.2l0.6-0.2c0-0.2,0.1,0.1,0.2,0
		c0.2-0.2,0.4,0.4,0.8,0.4v-0.5c0.2,0.5,0.4,0.9,0.5,1.5c0.1,0,0.1-0.1,0.3-0.1c1-0.7,1.4-0.7,2.2,0.1c0.2,0.1,0.2,0.4,0.3,0.6
		c0.1,0.1,0.2,0.2,0.3,0.3c0.1-0.1,0.2-0.3,0.2-0.4c0.3-1.2,0.3-1.2,1.1-0.7c0.5,0.3,0.4,0.3,0.9-0.6c0.2-0.4,0.9-0.7,1.3-0.6
		c0.7,0.2,1.3,0.2,2-0.1c0.6-0.3,3.4-0.5,4.1-0.5c0.5,0,1.3,1.5,1.6,1.2c0.6-0.6,0.8,0.5,1.2,0.2c1-0.8,2.1-0.5,3.2-0.7
		c0.7-0.1,1.6-0.3,2.1-0.5v0.1c0.5,0.5,1.7,0.2,2.4,0.1c1.1-0.2,2.1,0.6,3.2-0.1c0.1-0.1,0.5,0.1,0.6,0.2c0.7,0.8,1.2,0.3,1.9-0.5
		c0.6-0.7,0.5,0.1,0.5,0.3c0,0.8,0.3,1.1,1,0.5c0.1-0.1,0.3-0.2,0.3-0.2c0.5,0.2,1.4,0.7,1.5,0.6c0.6-0.6,1-1.5,1.4-1.4
		c0.6,0.2,1.3-0.3,1.8,0.3c0.1,0.1,0.6-0.2,1-0.3c0.4-0.2,0.8-0.2,0.8,0.4c0.1,0.5,0.3,0.4,0.6,0.1c0.3-0.4,0.7-0.4,0.9,0.1
		c0.1,0.2,0.2,0.4,0.3,0.6c0.1-0.1,0.2-0.3,0.2-0.4c0.2-0.4,0.3-0.9,0.4-1.3c0-0.1,0.2-0.2,0.3-0.2c0.1,0.1,0.2,0.3,0.2,0.4
		c0,0.7,0,1.5,1.1,0.7c0.1-0.1,0.5,0.1,0.7,0.2c0.3,0.2,0.5,0.9,0.8-0.2c0.2-0.7,1.6-0.5,2.4,0.2c0.2,0.2,0.6-0.7,0.8-0.8
		c0.8-0.4,0.7-0.4,1.2,0.1c0.2,0.3,0.5,0.6,0.8,0.9c0.2,0.2,0.4,0.3,0.5,0.4c0.1-0.2,0.1-0.4,0.2-0.7c0-0.3-0.1-0.7,0-1
		c0-0.1,0.4-0.3,0.6-0.3c0.1,0,0.4,0.1,0.4,0.2c0.1,0.3,0,0.7,0.1,1c0.1,0.4,0.1,0.8,0.2,1.2c0.6-0.3,0.1-0.8,0.3-1.2
		c0.1-0.3,0.2-0.5,0.4-0.7c0.1-0.1,0.4,0.1,0.6,0.3c0.2,0.2,0.3,0.5,0.5,0.8c0.1,0.2,0.5,0.4,0.5,0.3c0.2-0.2,0.3-0.4,0.4-0.7
		c0.1-0.1-0.1-0.4,0-0.5c0.1-0.2,0.3-0.3,0.5-0.3c0.2,0,0.4,0.3,0.4,0.4c0.1,0.7,0,1.4,0.9,0.4c0.3-0.3,0.8-0.3,1.3-0.5
		c0,0.2,0.1,0.3,0.1,0.5s0,0.3,0,0.5c0.2-0.1,0.5-0.1,0.6-0.2c0.5-0.6,1.7-0.9,2.5-0.6c0.6,0.2,0.9,0.3,0.9-0.4
		c0.1-0.5,0.3-0.5,0.5-0.1c0.1,0.3,0.3,0.6,0.5,0.8c0.3,0.3,0.5,0.3,0.5-0.2c0.1-0.3,0.3-0.6,0.5-0.8h0.4c0.1,1,0.4,0.6,0.8,0.2
		c0.3,0.8,1-0.2,1.5,0.3c0.2,0.2,0.9-0.3,1.4-0.4c0.4,0,0.9,0.1,1.4,0.2c0.7,0.2,1.6,0.2,2.5,0.1c0.5-0.1,1-0.2,1,0.6h0.4
		c0.3-0.4,0.6-0.3,1-0.1c0.3,0.2,0.9,1.5,1-0.1c0.8-0.1,1.6-0.3,2.4-0.2c0.4,0,0.7,0.5,1,0.8c0.4,0.4,0.3,0.4,0.5,0.1
		c0.1-0.3,0.3-0.5,0.4-0.8c0.3-0.6,0.5-0.6,0.9-0.1c0.2,0.3,0.4,0.5,0.6,0.8c0.1,0.3-0.2,0.9,0.4,0.9c0.2,0,0.4-0.3,0.6-0.5
		c0.2-0.4,0.3-0.9,0.4-1.3c0.1-0.2,0.1-0.4,0.2-0.7c0.1,0.2,0.2,0.4,0.3,0.6c0.1,0.2,0,0.5,0,0.7c0.1,1.2,0.5,0.2,0.8,0.1
		c0.4-0.2,0.9-0.3,1.3-0.5c0.6-0.3,0.9-0.1,0.9,0.6c0,0.3-0.1,0.7,0.1,1c0.1,0.3,0.4,0.5,0.7,0.7c0.1-0.2,0.2-0.5,0.3-0.7
		c0-0.2,0-0.5,0-0.7c0-0.5-0.2-1,0.6-1c0.6,0,0.9,0.2,0.9,0.8c0,0.2,0.2,0.4,0.2,0.6c0.1-0.2,0.2-0.4,0.2-0.6c0-0.3,0-0.7,0-1
		c0-0.1,0.1-0.3,0.2-0.4c0.1,0.1,0.2,0.2,0.3,0.4c0.1,0.7,0.1,1.5,0.1,2.2c0,0.1,0.2,0.2,0.3,0.3l0.2-0.2c-0.4-0.5,0.9-0.8,0.2-1.4
		c-0.4-0.4-0.2-0.7,0.1-1c0.1-0.1,0.2-0.2,0.3-0.4c0.1,0.1,0.3,0.2,0.3,0.3c0.1,0.4,0,0.8,0.1,1.2c0,0.1,0.2,0.3,0.2,0.4
		c0.1-0.2,0.2-0.4,0.2-0.6c0.2-0.5,0.5-0.5,0.9-0.2c0.6,0.5,1,0.5,1-0.4l0.4-0.1c0.2,0.3,0.5,0.6,0.5,1c0.1,0.6,0.1,1.3,0.1,2
		l0.2,0.2c0.1-0.1,0.3-0.2,0.3-0.2c-0.4-1.2,0.6-1.9,0.9-2.9c0-0.1,0.2-0.2,0.2-0.4c0.1,0.1,0.2,0.2,0.2,0.4c0,0.2,0,0.5,0.1,0.7
		c0.1,0.4,0.2,0.8,0.3,1.3c0.2-0.4,0.4-0.8,0.6-1.2c0.1-0.2,0.2-0.4,0.3-0.7c0.6,0.9,0.9-0.6,1.3-0.1s0.7,1.1-0.1,1.5
		c0-0.6-0.5-0.6-0.8-0.4c-0.4,0.4-0.4,0.8,0.3,0.9c0,0.2,0,0.3,0,0.5c0,0.1,0.1,0.3,0.2,0.4c0.1-0.1,0.2-0.3,0.3-0.4
		c0-0.1,0-0.3,0-0.5c0.2-0.5,1,1.4,1-0.2c0-0.5-0.1-1-0.1-1.5c0-0.1,0.2-0.2,0.2-0.4c0.1,0.1,0.2,0.2,0.2,0.4
		c0.1,0.4,0.2,0.7,0.3,1.1c0.1,0.2,0.3,0.3,0.5,0.4c0.1-0.2,0.1-0.4,0.2-0.7c0.1-0.3,0.2-0.5,0.3-0.7c0.2,0.2,0.7,0.4,0.7,0.7
		c0,0.6,0.6,0.1,0.6-0.6c0.1,0,0.3,0,0.3,0c0.1,0.1,0.1,0.3,0.1,0.5c0,0.4,0,0.9,0.6,0.8c0.2,0,0.3-0.5,0.4-0.7
		c0.1-0.2,0.1-0.5,0.1-0.7c0.9,0.6,1.1-0.3,1.5-0.7c0.1,0.2,0.3,0.5,0.3,0.6c-0.3,0.5-0.6,1-0.4,1.6c0.1,0.3,0.4,0.5,0.7,0.7
		c0.1-0.2,0.3-0.5,0.3-0.7c0-0.4-0.1-0.8,0-1.2c0-0.3-0.3-1,0.3-0.8c0.3,0.2,1.3-0.1,1.2,0.8c0,0.2,0,0.5,0,0.7
		c-0.1,0.2-0.6,0.5-0.1,0.7c0.5,0.2,0.7-0.1,0.7-0.7c0-0.2-0.1-0.4,0-0.5c0.3-0.3,0.7-0.6,1.1-0.8c0.1,0,0.4,0.5,0.5,0.8
		c0.1,0.2,0.2,0.4,0.3,0.6c0.1,0.1,0.2,0.3,0.2,0.4c0.1-0.2,0.2-0.4,0.2-0.6c0-0.2-0.1-0.5,0.1-0.7c0.1-0.2,0.4-0.2,0.6-0.2
		c0,0.2,0,0.4,0,0.5c0.1,0.3,0.3,0.6,0.4,0.9c0.1-0.1,0.2-0.3,0.3-0.4v-0.2c0.7-1.7,0.8-1.7,1.9-0.2c0.1,0.1,0.2,0.2,0.3,0.3
		c0.1-0.1,0.2-0.3,0.2-0.4c0-0.2-0.1-0.4,0-0.5c0.1-0.2,0.3-0.4,0.5-0.6c0.1,0.1,0.3,0.3,0.4,0.4c0.1,0.1,0,0.3,0,0.5
		c0.1,0.2,0.2,0.5,0.4,0.5s0.5-0.1,0.6-0.3c0.1-0.2,0.1-0.4,0.2-0.7c0.1,0.2,0.3,0.3,0.3,0.5c0.1,0.2,0,0.6,0.1,0.7
		c0.2,0.2,0.6,0.4,0.9,0.5c-0.1-0.3-0.2-0.6-0.2-0.8c0-0.2,0-0.3,0.1-0.5c0.2,0.1,0.6,0.1,0.6,0.2c0.1,0.3,0.1,0.6,0.1,1
		c0,0,0.3,0,0.5,0c-0.1-0.8,0.1-0.7,0.7-0.4c0.4,0.2,1.1-0.2,1.6-0.3c0,0.7,0.6,0.7,1,1c0.3,0.2,0.5,0.3,0.5-0.2
		c0-0.8,0-1.6-1.1-1.7v-0.2c1.3-0.5,1.6,0.6,2,1.3c0.1,0.2,0.2,0.3,0.3,0.5c0.1-0.2,0.2-0.5,0.1-0.7c-0.1-0.6,0.1-0.9,0.8-0.7
		c0.6,0.2,1.1,0.4,1.7,0.6c0.2,0.1,0.6,0.2,0.6,0.2c0.6-1,1.2-0.2,1.8-0.1c0.3,0.1,0.7,0,1,0c0.5-0.1,0.8,0,1.1,0.4
		c0.4,0.4,0.9,0.9,0.9-0.2l0.6-0.2c0.2,0.2,0.2,0.5,0.4,0.8c0.1,0.2,0.2,0.4,0.3,0.6c0.1-0.2,0.1-0.4,0.2-0.6c0.2-0.5,0.4-0.4,0.5,0
		c0.1,0.1,0.2,0.1,0.3-0.3c0.1,0,0.2-0.1,0.4,0c-0.2,0.3-0.3,0.6-0.5,0.8c0.1,0,0.1-0.1,0.2-0.1c1-0.7,1.4-0.7,2.2,0.1
		c0.2,0.1,0.2,0.4,0.3,0.6c0.1,0.1,0.2,0.2,0.3,0.3c0.1-0.1,0.2-0.3,0.2-0.4c0.3-1.2,0.3-1.2,1.1-0.7c0.5,0.3,0.4,0.3,0.9-0.6
		c0.2-0.4,0.9-0.7,1.3-0.6c0.7,0.2,1.3,0.2,2-0.1c0.6-0.3,3.4-0.5,4.1-0.5c0.5,0,1.3,1.5,1.6,1.2c0.6-0.6,0.8,0.5,1.2,0.2
		c1-0.8,2.1-0.5,3.2-0.7c0.7-0.1,1.6-0.3,2.1-0.5v0.1c0.5,0.5,1.7,0.2,2.4,0.1c1.1-0.2,2.1,0.6,3.2-0.1c0.1-0.1,0.5,0.1,0.6,0.2
		c0.7,0.8,1.2,0.3,1.9-0.5c0.6-0.7,0.5,0.1,0.5,0.3c0,0.8,0.3,1.1,1,0.5c0.1-0.1,0.3-0.2,0.3-0.2c0.5,0.2,1.4,0.7,1.5,0.6
		c0.6-0.6,1-1.5,1.4-1.4c0.6,0.2,1.3-0.3,1.8,0.3c0.1,0.1,0.6-0.2,1-0.3c0.4-0.2,0.8-0.2,0.8,0.4c0.1,0.5,0.3,0.4,0.6,0.1
		c0.3-0.4,0.7-0.4,0.9,0.1c0.1,0.2,0.2,0.4,0.3,0.6c0.1-0.1,0.2-0.3,0.2-0.4c0.2-0.4,0.3-0.9,0.4-1.3c0-0.1,0.2-0.2,0.3-0.2
		c0.1,0.1,0.2,0.3,0.2,0.4c0,0.7,0,1.5,1.1,0.7c0.1-0.1,0.5,0.1,0.7,0.2c0.3,0.2,0.5,0.9,0.8-0.2c0.2-0.7,1.6-0.5,2.4,0.2
		c0.2,0.2,0.6-0.7,0.8-0.8c0.8-0.4,0.7-0.4,1.2,0.1c0.2,0.3,0.5,0.6,0.8,0.9c0.2,0.2,0.4,0.3,0.5,0.4c0.1-0.2,0.1-0.4,0.2-0.7
		c0-0.3-0.1-0.7,0-1c0-0.1,0.4-0.3,0.6-0.3c0.1,0,0.4,0.1,0.4,0.2c0.1,0.3,0,0.7,0.1,1c0.1,0.4,0.1,0.8,0.2,1.2
		c0.6-0.3,0.1-0.8,0.3-1.2c0.1-0.3,0.2-0.5,0.4-0.7c0.1-0.1,0.4,0.1,0.6,0.3s0.3,0.5,0.5,0.8c0.1,0.2,0.5,0.4,0.5,0.3
		c0.2-0.2,0.3-0.4,0.4-0.7c0.1-0.1-0.1-0.4,0-0.5c0.1-0.2,0.3-0.3,0.5-0.3c0.2,0,0.4,0.3,0.4,0.4c0.1,0.7,0,1.4,0.9,0.4
		c0.3-0.3,0.8-0.3,1.3-0.5c0,0.2,0.1,0.3,0.1,0.5c0,0.2,0,0.3,0,0.5c0.2-0.1,0.5-0.1,0.6-0.2c0.5-0.6,1.7-0.9,2.5-0.6
		c0.6,0.2,0.9,0.3,0.9-0.4c0.1-0.5,0.3-0.5,0.5-0.1c0.1,0.3,0.3,0.6,0.5,0.8c0.3,0.3,0.5,0.3,0.5-0.2c0.1-0.3,0.3-0.6,0.5-0.8h0.4
		c0.1,1,0.4,0.6,0.8,0.2c0.3,0.8,1-0.2,1.5,0.3c0.2,0.2,0.9-0.3,1.4-0.4c0.4,0,0.9,0.1,1.4,0.2c0.7,0.2,1.6,0.2,2.5,0.1
		c0.5-0.1,1-0.2,1,0.6h0.4c0.3-0.4,0.6-0.3,1-0.1c0.3,0.2,0.9,1.5,1-0.1c0.8-0.1,1.6-0.3,2.4-0.2c0.4,0,0.7,0.5,1,0.8
		c0.4,0.4,0.3,0.4,0.5,0.1c0.1-0.3,0.3-0.5,0.4-0.8c0.3-0.6,0.5-0.6,0.9-0.1c0.2,0.3,0.4,0.5,0.6,0.8c0.1,0.3-0.2,0.9,0.4,0.9
		c0.2,0,0.4-0.3,0.6-0.5c0.2-0.4,0.3-0.9,0.4-1.3c0.1-0.2,0.1-0.4,0.2-0.7c0.1,0.2,0.2,0.4,0.3,0.6c0.1,0.2,0,0.5,0,0.7
		c0.1,1.2,0.5,0.2,0.8,0.1c0.4-0.2,0.9-0.3,1.3-0.5c0.6-0.3,0.9-0.1,0.9,0.6c0,0.3-0.1,0.7,0.1,1c0.1,0.3,0.4,0.5,0.7,0.7
		c0.1-0.2,0.2-0.5,0.3-0.7c0-0.2,0-0.5,0-0.7c0-0.5-0.2-1,0.6-1c0.6,0,0.9,0.2,0.9,0.8c0,0.2,0.2,0.4,0.2,0.6
		c0.1-0.2,0.2-0.4,0.2-0.6c0-0.3,0-0.7,0-1c0-0.1,0.1-0.3,0.2-0.4c0,0,0,0,0,0v1.7c0.4,0,0.9-0.3,1.3-0.4c0,0.7,0.6,0.7,1,1
		c0.3,0.2,0.5,0.3,0.5-0.2c0-0.8,0-1.6-1.1-1.7v-0.2c1.3-0.5,1.6,0.6,2,1.3c0.1,0.2,0.2,0.3,0.3,0.5c0.2-0.3,0.3-0.5,0.3-0.8v-0.1
		l-0.4,0.1c0-0.1,0.1-0.2,0.1-0.3c0.1,0,0.2,0.1,0.3,0.1c0-0.5,0.2-0.7,0.8-0.5c0.6,0.2,1.1,0.4,1.7,0.6c0.2,0.1,0.6,0.2,0.6,0.2
		c0.6-1,1.2-0.2,1.8-0.1c0.3,0.1,0.7,0,1,0c0.5-0.1,0.8,0,1.1,0.4c0.4,0.4,0.9,0.9,0.9-0.2l0.6-0.2c0-0.2,0.1,0.1,0.2,0
		c0.2-0.2,0.4,0.4,0.8,0.4v-0.5c0.2,0.5,0.4,0.9,0.5,1.5c0.1,0,0.1-0.1,0.3-0.1c1-0.7,1.4-0.7,2.2,0.1c0.2,0.1,0.2,0.4,0.3,0.6
		c0.1,0.1,0.2,0.2,0.3,0.3c0.1-0.1,0.2-0.3,0.2-0.4c0.3-1.2,0.3-1.2,1.1-0.7c0.5,0.3,0.4,0.3,0.9-0.6c0.2-0.4,0.9-0.7,1.3-0.6
		c0.7,0.2,1.3,0.2,2-0.1c0.6-0.3,3.4-0.5,4.1-0.5c0.5,0,1.3,1.5,1.6,1.2c0.6-0.6,0.8,0.5,1.2,0.2c1-0.8,2.1-0.5,3.2-0.7
		c0.7-0.1,1.6-0.3,2.1-0.5v0.1c0.5,0.5,1.7,0.2,2.4,0.1c1.1-0.2,2.1,0.6,3.2-0.1c0.1-0.1,0.5,0.1,0.6,0.2c0.7,0.8,1.2,0.3,1.9-0.5
		c0.6-0.7,0.5,0.1,0.5,0.3c0,0.8,0.3,1.1,1,0.5c0.1-0.1,0.3-0.2,0.3-0.2c0.5,0.2,1.4,0.7,1.5,0.6c0.6-0.6,1-1.5,1.4-1.4
		c0.6,0.2,1.3-0.3,1.8,0.3c0.1,0.1,0.6-0.2,1-0.3c0.4-0.2,0.8-0.2,0.8,0.4c0.1,0.5,0.3,0.4,0.6,0.1c0.3-0.4,0.7-0.4,0.9,0.1
		c0.1,0.2,0.2,0.4,0.3,0.6c0.1-0.1,0.2-0.3,0.2-0.4c0.2-0.4,0.3-0.9,0.4-1.3c0-0.1,0.2-0.2,0.3-0.2c0.1,0.1,0.2,0.3,0.2,0.4
		c0,0.7,0,1.5,1.1,0.7c0.1-0.1,0.5,0.1,0.7,0.2c0.3,0.2,0.5,0.9,0.8-0.2c0.2-0.7,1.6-0.5,2.4,0.2c0.2,0.2,0.6-0.7,0.8-0.8
		c0.8-0.4,0.7-0.4,1.2,0.1c0.2,0.3,0.5,0.6,0.8,0.9c0.2,0.2,0.4,0.3,0.5,0.4c0.1-0.2,0.1-0.4,0.2-0.7c0-0.3-0.1-0.7,0-1
		c0-0.1,0.4-0.3,0.6-0.3c0.1,0,0.4,0.1,0.4,0.2c0.1,0.3,0,0.7,0.1,1c0.1,0.4,0.1,0.8,0.2,1.2c0.6-0.3,0.1-0.8,0.3-1.2
		c0.1-0.3,0.2-0.5,0.4-0.7c0.1-0.1,0.4,0.1,0.6,0.3c0.2,0.2,0.3,0.5,0.5,0.8c0.1,0.2,0.5,0.4,0.5,0.3c0.2-0.2,0.3-0.4,0.4-0.7
		c0.1-0.1-0.1-0.4,0-0.5c0.1-0.2,0.3-0.3,0.5-0.3c0.2,0,0.4,0.3,0.4,0.4c0.1,0.7,0,1.4,0.9,0.4c0.3-0.3,0.8-0.3,1.3-0.5
		c0,0.2,0.1,0.3,0.1,0.5s0,0.3,0,0.5c0.2-0.1,0.5-0.1,0.6-0.2c0.5-0.6,1.7-0.9,2.5-0.6c0.6,0.2,0.9,0.3,0.9-0.4
		c0.1-0.5,0.3-0.5,0.5-0.1c0.1,0.3,0.3,0.6,0.5,0.8c0.3,0.3,0.5,0.3,0.5-0.2c0.1-0.3,0.3-0.6,0.5-0.8H93c0.1,1,0.4,0.6,0.8,0.2
		c0.3,0.8,1-0.2,1.5,0.3c0.2,0.2,0.9-0.3,1.4-0.4c0.4,0,0.9,0.1,1.4,0.2c0.7,0.2,1.6,0.2,2.5,0.1c0.5-0.1,1-0.2,1,0.6h0.4
		c0.3-0.4,0.6-0.3,1-0.1c0.3,0.2,0.9,1.5,1-0.1c0.8-0.1,1.6-0.3,2.4-0.2c0.4,0,0.7,0.5,1,0.8c0.4,0.4,0.3,0.4,0.5,0.1
		c0.1-0.3,0.3-0.5,0.4-0.8c0.3-0.6,0.5-0.6,0.9-0.1c0.2,0.3,0.4,0.5,0.6,0.8c0.1,0.3-0.2,0.9,0.4,0.9c0.2,0,0.4-0.3,0.6-0.5
		c0.2-0.4,0.3-0.9,0.4-1.3c0.1-0.2,0.1-0.4,0.2-0.7c0.1,0.2,0.2,0.4,0.3,0.6c0.1,0.2,0,0.5,0,0.7c0.1,1.2,0.5,0.2,0.8,0.1
		c0.4-0.2,0.9-0.3,1.3-0.5c0.6-0.3,0.9-0.1,0.9,0.6c0,0.3-0.1,0.7,0.1,1c0.1,0.3,0.4,0.5,0.7,0.7c0.1-0.2,0.2-0.5,0.3-0.7
		c0-0.2,0-0.5,0-0.7c0-0.5-0.2-1,0.6-1c0.6,0,0.9,0.2,0.9,0.8c0,0.2,0.2,0.4,0.2,0.6c0.1-0.2,0.2-0.4,0.2-0.6c0-0.3,0-0.7,0-1
		c0-0.1,0.1-0.3,0.2-0.4c0.1,0.1,0.2,0.2,0.3,0.4c0.1,0.7,0.1,1.5,0.1,2.2c0,0.1,0.2,0.2,0.3,0.3l0.2-0.2c-0.4-0.5,0.9-0.8,0.2-1.4
		c-0.4-0.4-0.2-0.7,0.1-1c0.1-0.1,0.2-0.2,0.3-0.4c0.1,0.1,0.3,0.2,0.3,0.3c0.1,0.4,0,0.8,0.1,1.2c0,0.1,0.2,0.3,0.2,0.4
		c0.1-0.2,0.2-0.4,0.2-0.6c0.2-0.5,0.5-0.5,0.9-0.2c0.6,0.5,1,0.5,1-0.4l0.4-0.1c0.2,0.3,0.5,0.6,0.5,1c0.1,0.6,0.1,1.3,0.1,2
		l0.2,0.2c0.1-0.1,0.3-0.2,0.3-0.2c-0.4-1.2,0.6-1.9,0.9-2.9c0-0.1,0.2-0.2,0.2-0.4c0.1,0.1,0.2,0.2,0.2,0.4c0,0.2,0,0.5,0.1,0.7
		c0.1,0.4,0.2,0.8,0.3,1.3c0.2-0.4,0.4-0.8,0.6-1.2c0.1-0.2,0.2-0.4,0.3-0.7c0.6,0.9,0.9-0.6,1.3-0.1c0.4,0.5,0.7,1.1-0.1,1.5
		c0-0.6-0.5-0.6-0.8-0.4c-0.4,0.4-0.4,0.8,0.3,0.9c0,0.2,0,0.3,0,0.5c0,0.1,0.1,0.3,0.2,0.4c0.1-0.1,0.2-0.3,0.3-0.4
		c0-0.1,0-0.3,0-0.5c0.2-0.5,1,1.4,1-0.2c0-0.5-0.1-1-0.1-1.5c0-0.1,0.2-0.2,0.2-0.4c0.1,0.1,0.2,0.2,0.2,0.4
		c0.1,0.4,0.2,0.7,0.3,1.1c0.1,0.2,0.3,0.3,0.5,0.4c0.1-0.2,0.1-0.4,0.2-0.7s0.2-0.5,0.3-0.7c0.2,0.2,0.7,0.4,0.7,0.7
		c0,0.6,0.6,0.1,0.6-0.6c0.1,0,0.3,0,0.3,0c0.1,0.1,0.1,0.3,0.1,0.5c0,0.4,0,0.9,0.6,0.8c0.2,0,0.3-0.5,0.4-0.7s0.1-0.5,0.1-0.7
		c0.9,0.6,1.1-0.3,1.5-0.7c0.1,0.2,0.3,0.5,0.3,0.6c-0.3,0.5-0.6,1-0.4,1.6c0.1,0.3,0.4,0.5,0.7,0.7c0.1-0.2,0.3-0.5,0.3-0.7
		c0-0.4-0.1-0.8,0-1.2c0-0.3-0.3-1,0.3-0.8c0.3,0.2,1.3-0.1,1.2,0.8c0,0.2,0,0.5,0,0.7c-0.1,0.2-0.6,0.5-0.1,0.7s0.7-0.1,0.7-0.7
		c0-0.2-0.1-0.4,0-0.5c0.3-0.3,0.7-0.6,1.1-0.8c0.1,0,0.4,0.5,0.5,0.8c0.1,0.2,0.2,0.4,0.3,0.6c0.1,0.1,0.2,0.3,0.2,0.4
		c0.1-0.2,0.2-0.4,0.2-0.6c0-0.2-0.1-0.5,0.1-0.7c0.1-0.2,0.4-0.2,0.6-0.2c0,0.2,0,0.4,0,0.5c0.1,0.3,0.3,0.6,0.4,0.9
		c0.1-0.1,0.2-0.3,0.3-0.4v-0.2c0.7-1.7,0.8-1.7,1.9-0.2c0.1,0.1,0.2,0.2,0.3,0.3c0.1-0.1,0.2-0.3,0.2-0.4c0-0.2-0.1-0.4,0-0.5
		c0.1-0.2,0.3-0.4,0.5-0.6c0.1,0.1,0.3,0.3,0.4,0.4c0.1,0.1,0,0.3,0,0.5c0.1,0.2,0.2,0.5,0.4,0.5s0.5-0.1,0.6-0.3
		c0.1-0.2,0.1-0.4,0.2-0.7c0.1,0.2,0.3,0.3,0.3,0.5c0.1,0.2,0,0.6,0.1,0.7c0.2,0.2,0.6,0.4,0.9,0.5c-0.1-0.3-0.2-0.6-0.2-0.8
		s0-0.3,0.1-0.5c0.2,0.1,0.6,0.1,0.6,0.2c0.1,0.3,0.1,0.6,0.1,1c0,0,0.3,0,0.5,0c-0.1-0.8,0.1-0.7,0.7-0.4c0.4,0.2,1.1-0.2,1.6-0.3
		c0,0.7,0.6,0.7,1,1c0.3,0.2,0.5,0.3,0.5-0.2c0-0.8,0-1.6-1.1-1.7v-0.2c1.3-0.5,1.6,0.6,2,1.3c0.1,0.2,0.2,0.3,0.3,0.5
		c0.1-0.2,0.2-0.5,0.1-0.7c-0.1-0.6,0.1-0.9,0.8-0.7c0.6,0.2,1.1,0.4,1.7,0.6c0.2,0.1,0.6,0.2,0.6,0.2c0.6-1,1.2-0.2,1.8-0.1
		c0.3,0.1,0.7,0,1,0c0.5-0.1,0.8,0,1.1,0.4c0.4,0.4,0.9,0.9,0.9-0.2l0.6-0.2c0.2,0.2,0.2,0.5,0.4,0.8c0.1,0.2,0.2,0.4,0.3,0.6
		c0.1-0.2,0.1-0.4,0.2-0.6c0.2-0.5,0.4-0.4,0.5,0c0.1,0.1,0.2,0.1,0.3-0.3c0.1,0,0.2-0.1,0.4,0c-0.2,0.3-0.3,0.6-0.5,0.8
		c0.1,0,0.1-0.1,0.2-0.1c1-0.7,1.4-0.7,2.2,0.1c0.2,0.1,0.2,0.4,0.3,0.6c0.1,0.1,0.2,0.2,0.3,0.3c0.1-0.1,0.2-0.3,0.2-0.4
		c0.3-1.2,0.3-1.2,1.1-0.7c0.5,0.3,0.4,0.3,0.9-0.6c0.2-0.4,0.9-0.7,1.3-0.6c0.7,0.2,1.3,0.2,2-0.1c0.6-0.3,3.4-0.5,4.1-0.5
		c0.5,0,1.3,1.5,1.6,1.2c0.6-0.6,0.8,0.5,1.2,0.2c1-0.8,2.1-0.5,3.2-0.7c0.7-0.1,1.6-0.3,2.1-0.5v0.1c0.5,0.5,1.7,0.2,2.4,0.1
		c1.1-0.2,2.1,0.6,3.2-0.1c0.1-0.1,0.5,0.1,0.6,0.2c0.7,0.8,1.2,0.3,1.9-0.5c0.6-0.7,0.5,0.1,0.5,0.3c0,0.8,0.3,1.1,1,0.5
		c0.1-0.1,0.3-0.2,0.3-0.2c0.5,0.2,1.4,0.7,1.5,0.6c0.6-0.6,1-1.5,1.4-1.4c0.6,0.2,1.3-0.3,1.8,0.3c0.1,0.1,0.6-0.2,1-0.3
		c0.4-0.2,0.8-0.2,0.8,0.4c0.1,0.5,0.3,0.4,0.6,0.1c0.3-0.4,0.7-0.4,0.9,0.1c0.1,0.2,0.2,0.4,0.3,0.6c0.1-0.1,0.2-0.3,0.2-0.4
		c0.2-0.4,0.3-0.9,0.4-1.3c0-0.1,0.2-0.2,0.3-0.2c0.1,0.1,0.2,0.3,0.2,0.4c0,0.7,0,1.5,1.1,0.7c0.1-0.1,0.5,0.1,0.7,0.2
		c0.3,0.2,0.5,0.9,0.8-0.2c0.2-0.7,1.6-0.5,2.4,0.2c0.2,0.2,0.6-0.7,0.8-0.8c0.8-0.4,0.7-0.4,1.2,0.1c0.2,0.3,0.5,0.6,0.8,0.9
		c0.2,0.2,0.4,0.3,0.5,0.4c0.1-0.2,0.1-0.4,0.2-0.7c0-0.3-0.1-0.7,0-1c0-0.1,0.4-0.3,0.6-0.3c0.1,0,0.4,0.1,0.4,0.2
		c0.1,0.3,0,0.7,0.1,1c0.1,0.4,0.1,0.8,0.2,1.2c0.6-0.3,0.1-0.8,0.3-1.2c0.1-0.3,0.2-0.5,0.4-0.7c0.1-0.1,0.4,0.1,0.6,0.3
		s0.3,0.5,0.5,0.8c0.1,0.2,0.5,0.4,0.5,0.3c0.2-0.2,0.3-0.4,0.4-0.7c0.1-0.1-0.1-0.4,0-0.5c0.1-0.2,0.3-0.3,0.5-0.3s0.4,0.3,0.4,0.4
		c0.1,0.7,0,1.4,0.9,0.4c0.3-0.3,0.8-0.3,1.3-0.5c0,0.2,0.1,0.3,0.1,0.5s0,0.3,0,0.5c0.2-0.1,0.5-0.1,0.6-0.2
		c0.5-0.6,1.7-0.9,2.5-0.6c0.6,0.2,0.9,0.3,0.9-0.4c0.1-0.5,0.3-0.5,0.5-0.1c0.1,0.3,0.3,0.6,0.5,0.8c0.3,0.3,0.5,0.3,0.5-0.2
		c0.1-0.3,0.3-0.6,0.5-0.8h0.4c0.1,1,0.4,0.6,0.8,0.2c0.3,0.8,1-0.2,1.5,0.3c0.2,0.2,0.9-0.3,1.4-0.4c0.4,0,0.9,0.1,1.4,0.2
		c0.7,0.2,1.6,0.2,2.5,0.1c0.5-0.1,1-0.2,1,0.6h0.4c0.3-0.4,0.6-0.3,1-0.1c0.3,0.2,0.9,1.5,1-0.1c0.8-0.1,1.6-0.3,2.4-0.2
		c0.4,0,0.7,0.5,1,0.8c0.4,0.4,0.3,0.4,0.5,0.1c0.1-0.3,0.3-0.5,0.4-0.8c0.3-0.6,0.5-0.6,0.9-0.1c0.2,0.3,0.4,0.5,0.6,0.8
		c0.1,0.3-0.2,0.9,0.4,0.9c0.2,0,0.4-0.3,0.6-0.5c0.2-0.4,0.3-0.9,0.4-1.3c0.1-0.2,0.1-0.4,0.2-0.7c0.1,0.2,0.2,0.4,0.3,0.6
		c0.1,0.2,0,0.5,0,0.7c0.1,1.2,0.5,0.2,0.8,0.1c0.4-0.2,0.9-0.3,1.3-0.5c0.6-0.3,0.9-0.1,0.9,0.6c0,0.3-0.1,0.7,0.1,1
		c0.1,0.3,0.4,0.5,0.7,0.7c0.1-0.2,0.2-0.5,0.3-0.7c0-0.2,0-0.5,0-0.7c0-0.5-0.2-1,0.6-1c0.6,0,0.9,0.2,0.9,0.8
		c0,0.2,0.2,0.4,0.2,0.6c0.1-0.2,0.2-0.4,0.2-0.6c0-0.3,0-0.7,0-1c0-0.1,0.1-0.3,0.2-0.4c0.1,0.1,0.1,0.2,0.2,0.3V919
		C250.3,919,250.2,919,250.3,919C250.2,919,250.3,919,250.3,919z M-680.5,908.8c0.1,0,0.2,0.1,0.2,0.1S-680.4,908.9-680.5,908.8z
		 M-679.8,917.9c0.1-0.1,0.2,0,0.2,0.1C-679.7,918-679.7,917.9-679.8,917.9z M-679,907.4c0.1-0.1,0.1-0.1,0.2-0.1
		C-678.8,907.4-678.9,907.4-679,907.4z M-678.2,916.2c0.1,0.1,0.1,0.2,0.1,0.3C-678.1,916.4-678.2,916.3-678.2,916.2z M-675.3,914.1
		c0.1,0,0.2,0,0.3,0.1C-675.1,914.2-675.2,914.2-675.3,914.1z M-671.4,908.9c-0.1,0-0.1-0.1-0.1-0.2
		C-671.5,908.8-671.4,908.8-671.4,908.9z M-672.9,918.8c0,0.1,0,0.1,0,0.2c-0.6-0.2-1.1-0.2-1.6-0.3c0,0-0.1-0.2-0.1-0.3
		c0-0.1,0-0.2-0.1-0.3c0.1,0,0.3,0,0.4,0h0.2c0.4,0.1,0.8,0.3,1.2,0.5C-672.9,918.6-672.9,918.7-672.9,918.8z M-672.1,913.4
		c-0.4-0.4-0.7-0.8-1-1.2c0-0.1,0.1-0.2,0.2-0.3l0.1-0.2c0.5,0.2,1,0.5,1.6,0.8C-671.5,912.9-671.8,913.2-672.1,913.4z
		 M-670.4,924.6v-0.2c0.1,0,0.3-0.7,0.5-0.6l0.1,0.1C-669.9,924-670.1,924.2-670.4,924.6z M-670,906.7c0-0.1,0.1-0.1,0.2-0.1
		C-669.8,906.7-669.9,906.7-670,906.7z M-668.6,908.2c0.1-0.1,0.1-0.1,0.2-0.1C-668.4,908.1-668.5,908.2-668.6,908.2z M-665.6,916.8
		c-0.3-0.2-0.7-0.4-1-0.5c0.5-0.3,1-0.7,1.5-0.7h0.1c0.2,0.1,0.4,0.4,0.6,0.7C-664.7,916.4-665.1,916.6-665.6,916.8z M-659.8,919.1
		c-0.1,0.1-0.3,0.2-0.4,0.3c-0.1-0.3-0.2-0.7-0.4-1c0.1-0.3,0.2-0.5,0.4-0.7c0.3,0.4,0.6,0.8,0.7,1.1
		C-659.5,918.8-659.6,919-659.8,919.1z M-659.2,911.3c-0.2-0.1-0.3-0.3-0.5-0.4c0.2-0.3,0.4-0.6,0.6-0.7c0.1,0,0.4,0.2,0.8,0.5
		C-658.7,911-659,911.3-659.2,911.3z M-657.3,921.7c0-0.1-0.1-0.2-0.1-0.2C-657.3,921.6-657.2,921.6-657.3,921.7z M-655.9,923.8
		c0.1,0,0.1,0.1,0.1,0.2C-655.8,923.9-655.9,923.9-655.9,923.8z M-655.8,917.2L-655.8,917.2c0-0.2,0.1-0.2,0.2-0.2
		C-655.7,917.1-655.7,917.1-655.8,917.2z M-652,916.2c0,0.1,0,0.2-0.1,0.3C-652.1,916.4-652.1,916.3-652,916.2z M-652,921.7
		c-0.1,0-0.1-0.1-0.1-0.2C-652.1,921.6-652,921.6-652,921.7z M-654.2,917c0,0.1-0.1,0.2-0.2,0.3c-0.3-0.2-0.6-0.4-0.9-0.6
		c0-0.1,0.1-0.2,0.2-0.3c0.1-0.1,0.2-0.3,0.2-0.4c0.4,0.3,0.7,0.6,0.7,0.8C-654.1,916.8-654.2,916.9-654.2,917z M-653.6,914.2
		c-0.4-0.1-0.7-0.2-0.9-0.4c0,0,0.1-0.2,0.1-0.3c0-0.1,0.1-0.2,0.1-0.3c0.3,0.3,0.5,0.5,0.8,0.8
		C-653.5,914.1-653.5,914.2-653.6,914.2z M-652.9,924.7c0-0.1-0.1-0.1-0.1-0.2c0-0.1-0.1-0.2-0.1-0.2c0.3-0.5,0.6-0.9,0.9-1.4
		c0.3,0.3,0.6,0.6,0.9,0.9C-651.8,924.1-652.3,924.4-652.9,924.7z M-646.2,912.7c0-0.1,0.1-0.1,0.2-0.1
		C-646.1,912.6-646.1,912.7-646.2,912.7z M-642.5,908.9c0.1-0.1,0.2,0,0.2,0.1C-642.4,909-642.4,908.9-642.5,908.9z M-641,908.9
		c0.1-0.1,0.3-0.2,0.5-0.3c0.2,0.3,0.4,0.5,0.6,0.8c0,0,0,0.1-0.1,0.2c0,0,0,0.1-0.1,0.1C-640.4,909.4-640.7,909.1-641,908.9z
		 M-640.2,923.8c-0.1-0.3-0.2-0.6-0.2-0.9c0-0.2,0.1-0.3,0.2-0.6c0.1,0.2,0.2,0.5,0.4,0.8C-639.9,923.3-640,923.6-640.2,923.8z
		 M-639.5,921.8c0-0.2,0-0.2,0.1-0.3h0.1C-639.3,921.6-639.4,921.7-639.5,921.8z M-636.8,912.1c-0.1,0-0.2,0-0.3-0.1
		c-0.1,0-0.1-0.1-0.2-0.1c0.2-0.2,0.3-0.4,0.5-0.6c0.2-0.2,0.3-0.3,0.4-0.3c0.1,0,0.2,0.1,0.4,0.3c0.1,0.1,0.2,0.3,0.4,0.4
		C-636.1,911.9-636.4,912-636.8,912.1z M-633.5,911.7c0,0.1-0.1,0.1-0.1,0.2c-0.2-0.5-0.3-0.8-0.5-1.1c0.1,0,0.1-0.1,0.2-0.1
		c0.1,0,0.2-0.1,0.2-0.1c0.1,0,0.2,0.1,0.2,0.1s0,0.1,0,0.2c0.1,0.2,0.1,0.3,0.1,0.5C-633.4,911.5-633.4,911.5-633.5,911.7z
		 M-633.2,922.6c0.1,0,0.1-0.1,0.2-0.1c0,0.1,0.1,0.2,0.1,0.3L-633.2,922.6z M-627.1,918.3c-0.3-0.6-0.6-1.1-0.9-1.6
		c0,0,0-0.1,0.1-0.2l0.1-0.1c0.3,0.5,0.6,1,0.9,1.6C-627,918.1-627,918.2-627.1,918.3z M-618.3,921.8c0.1,0,0.2,0,0.3,0.1
		C-618.1,921.9-618.2,921.9-618.3,921.8z M-616,921.8L-616,921.8c0.1,0,0.2,0,0.1,0.2C-615.9,921.9-616,921.8-616,921.8z
		 M-615.2,918.9c0-0.1,0-0.2,0.1-0.3C-615.1,918.8-615.2,918.9-615.2,918.9z M-613.5,920.5c0,0-0.1,0-0.2-0.1c0,0-0.1,0-0.1-0.1
		c0.2-0.1,0.4-0.2,0.6-0.3c0.1,0.1,0.3,0.2,0.4,0.2C-613.1,920.4-613.3,920.5-613.5,920.5z M-602.6,918.7c0.1,0.1,0.1,0.2,0.1,0.3
		C-602.5,918.9-602.6,918.8-602.6,918.7z M-600.4,909.1c0.1,0,0.2-0.1,0.2-0.1C-600.2,909.1-600.3,909.1-600.4,909.1z M-599.6,920.7
		c-0.3-0.1-0.5-0.2-0.6-0.3c0.1-0.1,0.3-0.2,0.4-0.3c0,0,0.1,0,0.2,0.1c0,0,0.1,0.1,0.2,0.1C-599.5,920.4-599.6,920.5-599.6,920.7z
		 M-594.9,911.2c0,0-0.1,0.1-0.1,0.2c-0.1-0.1-0.3-0.1-0.4-0.2c0.1-0.3,0.2-0.5,0.3-0.6c0.1,0.2,0.2,0.3,0.3,0.4
		C-594.8,911.1-594.9,911.1-594.9,911.2z M-590.4,922.7l-0.3-0.2c0.3-0.3,0.5-0.5,0.8-0.7c0.1,0.1,0.1,0.2,0.2,0.2l0.1,0.1
		C-589.9,922.4-590.1,922.6-590.4,922.7z M-589.4,918.6c0.3-0.1,0.6-0.2,1-0.3c0,0.1,0.1,0.2,0.2,0.3
		C-588.7,918.7-589,918.7-589.4,918.6z M-587.6,906.9l-0.1,0.1c0-0.3-0.1-0.5-0.1-0.7v-0.1c0,0,0.1,0,0.1-0.1h0.1
		c0.1,0.3,0.1,0.5,0.2,0.7C-587.4,906.8-587.5,906.8-587.6,906.9z M-583.2,915.1c-0.1-0.1-0.1-0.3-0.2-0.6c0.3-0.1,0.6-0.3,0.9-0.3
		c0,0,0.1,0,0.2,0.1l0.1,0.1L-583.2,915.1z M-582.4,911.4c0-0.1,0-0.2,0.1-0.3l0.1,0.1C-582.3,911.3-582.4,911.4-582.4,911.4z
		 M-581.5,910.6L-581.5,910.6c-0.2,0-0.3-0.2-0.4-0.3c0.1-0.2,0.2-0.3,0.4-0.5c0.1,0.2,0.2,0.4,0.2,0.6
		C-581.4,910.4-581.5,910.5-581.5,910.6z M-578.7,916.7c0-0.1,0-0.2,0.1-0.3C-578.6,916.5-578.6,916.6-578.7,916.7z M-575.8,914.4
		c0-0.1,0.1-0.1,0.2-0.1C-575.6,914.3-575.7,914.4-575.8,914.4z M-574.3,910.7c0-0.1,0.1-0.1,0.2-0.1
		C-574.1,910.6-574.2,910.6-574.3,910.7z M-571.3,919.7c0-0.1,0.1-0.1,0.2-0.1C-571.1,919.6-571.2,919.6-571.3,919.7z M-570.8,914.6
		c-0.2-0.2-0.4-0.5-0.6-0.8c0,0,0-0.1,0.1-0.2c0,0,0-0.1,0.1-0.1l1,0.7C-570.5,914.4-570.6,914.5-570.8,914.6z M-569.4,919
		c-0.1,0.1-0.2,0.3-0.2,0.5c-0.1-0.2-0.3-0.4-0.4-0.6c0.1-0.3,0.2-0.5,0.3-0.7C-569.6,918.4-569.4,918.7-569.4,919L-569.4,919z
		 M-567.3,910.9c-0.2,0.1-0.3,0.3-0.5,0.5c-0.1-0.5-0.3-0.9-0.4-1.4c0.1-0.3,0.2-0.6,0.4-1c0.4,0.5,0.8,0.9,0.9,1.4
		C-567,910.5-567.1,910.7-567.3,910.9z M-559.6,908.2c0,0.1-0.1,0.1-0.2,0.1C-559.7,908.3-559.7,908.2-559.6,908.2z M-561.1,909.7
		c-0.1-0.2-0.3-0.5-0.3-0.7v-0.1c0-0.2,0.1-0.4,0.1-0.6c0.1,0.2,0.3,0.4,0.4,0.6C-560.9,909.2-561,909.5-561.1,909.7z M-559.5,914.2
		C-559.5,914.2-559.5,914.3-559.5,914.2l-1.1-0.6c0.1-0.1,0.3-0.2,0.5-0.3C-559.9,913.5-559.7,913.8-559.5,914.2
		C-559.4,914-559.5,914.1-559.5,914.2z M-556.8,917.3c0-0.1,0.1-0.1,0.2-0.1C-556.6,917.3-556.7,917.3-556.8,917.3z M-555.3,913.6
		c0-0.1,0.1-0.1,0.2-0.1C-555.1,913.5-555.2,913.6-555.3,913.6z M-552.3,911.4c0-0.1,0-0.2,0.1-0.3
		C-552.2,911.3-552.2,911.3-552.3,911.4z M-549.2,918c-0.1-0.2-0.2-0.4-0.2-0.6c0,0,0-0.1,0.1-0.1l0.1-0.1c0.1,0.1,0.2,0.3,0.3,0.4
		C-549,917.8-549.1,917.9-549.2,918z M-548.5,916.7c0-0.2,0-0.2,0.1-0.3h0.1C-548.4,916.5-548.5,916.6-548.5,916.7z M-548.3,913.7
		c0,0-0.1,0-0.2-0.1l-0.1-0.1l1-0.7c0.1,0.1,0.1,0.3,0.2,0.6C-547.7,913.5-548,913.7-548.3,913.7z M-543.2,921.8L-543.2,921.8
		c-0.2-0.3-0.2-0.5-0.3-0.7c0,0,0.1-0.1,0.2-0.1l0.1-0.1c0.1,0.3,0.1,0.5,0.1,0.8C-543.1,921.7-543.2,921.7-543.2,921.8z
		 M-542.4,909.5c0-0.1-0.1-0.2-0.2-0.3c0.4-0.1,0.8,0,1.2,0C-541.7,909.3-542,909.4-542.4,909.5z M-541.2,909.2
		C-541.1,909.1-541.2,909.2-541.2,909.2L-541.2,909.2z M-535.7,917.3c-0.1-0.1-0.2-0.3-0.3-0.4c0,0,0-0.1,0.1-0.2
		c0,0,0.1-0.1,0.1-0.2c0.1,0.1,0.3,0.1,0.4,0.2C-535.6,916.9-535.7,917.1-535.7,917.3z M-531.2,907.6c0,0-0.1-0.1-0.2-0.1
		c0.1-0.1,0.1-0.3,0.2-0.4c0.3,0.1,0.5,0.2,0.6,0.3c-0.2,0.2-0.3,0.3-0.4,0.3C-531,907.7-531.1,907.7-531.2,907.6z M-530.7,918.8
		c0-0.1,0.1-0.1,0.2-0.1C-530.6,918.8-530.6,918.8-530.7,918.8z M-517.6,907.8c-0.1-0.1-0.3-0.2-0.4-0.2c0.2-0.1,0.4-0.2,0.6-0.2
		c0,0,0.1,0,0.2,0.1l0.1,0.1C-517.3,907.6-517.5,907.7-517.6,907.8z M-512.8,906c0,0,0.1,0,0.2,0.1
		C-512.7,906.1-512.7,906-512.8,906z M-506.8,924.2c0-0.1,0-0.2,0.1-0.3C-506.7,924-506.8,924.1-506.8,924.2z M-502.9,911.3
		l-0.1,0.1c-0.3-0.5-0.7-1-0.9-1.5c0.1-0.1,0.1-0.2,0.2-0.3C-503.4,910.2-503.1,910.7-502.9,911.3
		C-502.8,911.2-502.9,911.2-502.9,911.3z M-496.7,924.4c0-0.1,0-0.2,0.1-0.3C-496.6,924.2-496.7,924.3-496.7,924.4z M-496.9,917.2
		c-0.1,0-0.2,0.1-0.2,0.1c-0.1,0-0.2-0.1-0.2-0.1s0-0.1,0-0.2c0-0.1,0-0.3,0-0.5v-0.1c0,0,0-0.1,0.1-0.2c0-0.1,0.1-0.1,0.1-0.2
		c0.2,0.5,0.3,0.8,0.5,1.1C-496.8,917.1-496.9,917.2-496.9,917.2z M-494,916.6c-0.2,0.2-0.3,0.3-0.4,0.3c-0.1,0-0.2-0.1-0.4-0.3
		c-0.1-0.1-0.2-0.3-0.4-0.4c0.4-0.1,0.8-0.3,1.1-0.4c0.1,0,0.1,0,0.3,0.1c0.1,0,0.1,0.1,0.2,0.1C-493.7,916.2-493.9,916.4-494,916.6
		z M-492.3,910c0-0.1,0.1-0.1,0.2-0.1C-492.2,910-492.2,910-492.3,910z M-491.5,906.3c0-0.1,0-0.2,0.1-0.3l0.1,0.1
		C-491.4,906.2-491.4,906.3-491.5,906.3z M-490.4,919.3c-0.2-0.3-0.4-0.5-0.6-0.8c0,0,0-0.1,0.1-0.2c0,0,0-0.1,0.1-0.1
		c0.3,0.3,0.6,0.5,0.9,0.8C-490,919.1-490.1,919.2-490.4,919.3z M-488.6,918.9c0.1,0,0.2,0.1,0.3,0.1
		C-488.4,919-488.5,919-488.6,918.9z M-484.8,915.3c0-0.1,0.1-0.1,0.2-0.1C-484.7,915.2-484.8,915.3-484.8,915.3z M-478.8,911.6
		c0-0.1,0-0.2,0.1-0.3C-478.7,911.4-478.8,911.5-478.8,911.6z M-478.8,906.1c0,0.1,0.1,0.2,0.1,0.2
		C-478.8,906.3-478.8,906.2-478.8,906.1z M-478.1,921.1c0.1,0.1,0.1,0.2,0.1,0.3C-478,921.3-478.1,921.2-478.1,921.1z M-476.5,914.3
		c0,0.1-0.1,0.2-0.1,0.3c-0.3-0.3-0.5-0.5-0.8-0.8c0-0.1,0.1-0.1,0.1-0.2v-0.1c0.3,0.1,0.7,0.3,0.9,0.5
		C-476.4,914.1-476.4,914.2-476.5,914.3z M-475.8,911.5c-0.1,0.1-0.2,0.3-0.2,0.4c-0.4-0.3-0.7-0.6-0.7-0.8c0,0,0-0.2,0.1-0.3
		c0-0.1,0.1-0.2,0.2-0.3c0.3,0.2,0.6,0.4,0.9,0.6C-475.6,911.2-475.7,911.4-475.8,911.5z M-475.1,910.8c0,0-0.1,0.1-0.2,0.1
		C-475.2,910.8-475.2,910.7-475.1,910.8L-475.1,910.8z M-473.6,906.2c0,0,0.1,0.1,0.1,0.2C-473.5,906.3-473.6,906.3-473.6,906.2z
		 M-471.8,917.7c-0.1,0-0.4-0.2-0.8-0.5c0.4-0.3,0.7-0.6,0.9-0.7h0.1c0.1,0.1,0.3,0.2,0.4,0.4C-471.4,917.2-471.6,917.5-471.8,917.7
		z M-470.6,910.1c-0.3-0.4-0.7-0.7-0.7-1c0,0,0.1-0.2,0.3-0.3c0.1-0.1,0.3-0.2,0.4-0.3c0.1,0.3,0.2,0.7,0.4,1
		C-470.4,909.7-470.5,909.9-470.6,910.1z M-469.7,923.4c0,0-0.1,0.1-0.1,0.2c-0.1-0.1-0.3-0.1-0.4-0.2c0.1-0.3,0.2-0.5,0.3-0.6
		c0.1,0.1,0.2,0.3,0.3,0.4C-469.6,923.2-469.7,923.3-469.7,923.4z M-465.8,912.4l-0.1-0.1c-0.2-0.1-0.4-0.4-0.6-0.7
		c0.4-0.2,0.8-0.3,1.2-0.5c0.3,0.2,0.7,0.4,1,0.5C-464.8,911.9-465.3,912.3-465.8,912.4z M-462.5,919.8c0.1-0.1,0.1-0.1,0.2-0.1
		C-462.3,919.7-462.4,919.8-462.5,919.8z M-461,921.3c0-0.1,0.1-0.1,0.2-0.1C-460.9,921.2-460.9,921.3-461,921.3z M-459.5,918.9
		c0.1,0,0.1,0.1,0.1,0.2C-459.4,919-459.5,919-459.5,918.9z M-456.6,909.8h-0.2c-0.4-0.1-0.8-0.3-1.2-0.5c0,0,0-0.1,0-0.2
		c0-0.1,0-0.1,0-0.2c0.6,0,1.1,0,1.6,0.2c0,0,0.1,0.2,0.1,0.3c0,0.1,0,0.2,0.1,0.3C-456.4,909.8-456.5,909.8-456.6,909.8z
		 M-455.8,913.7c0.1,0,0.2,0,0.2,0.1C-455.7,913.8-455.7,913.7-455.8,913.7z M-452.8,911.3c0.1,0.1,0.1,0.2,0.1,0.3
		C-452.7,911.5-452.8,911.4-452.8,911.3z M-452.1,920.5c0.1-0.1,0.1-0.1,0.2-0.1C-451.9,920.5-452,920.5-452.1,920.5z M-451.4,909.9
		c0.2,0,0.2,0.1,0.3,0.1C-451.2,910-451.3,910-451.4,909.9z M-450.5,914.2L-450.5,914.2c0.1-0.1,0.1,0,0.1,0
		C-450.4,914.2-450.5,914.2-450.5,914.2z M-446.9,908.8c0.1,0,0.2,0.1,0.2,0.1S-446.8,908.9-446.9,908.8z M-446.2,917.9
		c0.1-0.1,0.2,0,0.2,0.1C-446.1,918-446.1,917.9-446.2,917.9z M-445.4,907.4c0.1-0.1,0.1-0.1,0.2-0.1
		C-445.2,907.4-445.3,907.4-445.4,907.4z M-444.6,916.2c0.1,0.1,0.1,0.2,0.1,0.3C-444.5,916.4-444.6,916.3-444.6,916.2z
		 M-441.7,914.1c0.1,0,0.2,0,0.3,0.1C-441.5,914.2-441.6,914.2-441.7,914.1z M-437.8,908.9c-0.1,0-0.1-0.1-0.1-0.2
		C-437.9,908.8-437.8,908.8-437.8,908.9z M-439.3,918.8c0,0.1,0,0.1,0,0.2c-0.6-0.2-1.1-0.2-1.6-0.3c0,0-0.1-0.2-0.1-0.3
		s0-0.2-0.1-0.3c0.1,0,0.3,0,0.4,0h0.2c0.4,0.1,0.8,0.3,1.2,0.5C-439.3,918.6-439.3,918.7-439.3,918.8z M-438.5,913.4
		c-0.4-0.4-0.7-0.8-1-1.2c0-0.1,0.1-0.2,0.2-0.3l0.1-0.2c0.5,0.2,1,0.5,1.6,0.8C-437.9,912.9-438.2,913.2-438.5,913.4z
		 M-436.8,924.6v-0.2c0.1,0,0.3-0.7,0.5-0.6l0.1,0.1C-436.3,924-436.5,924.2-436.8,924.6z M-436.4,906.7c0-0.1,0.1-0.1,0.2-0.1
		C-436.2,906.7-436.3,906.7-436.4,906.7z M-435,908.2c0.1-0.1,0.1-0.1,0.2-0.1C-434.8,908.1-434.9,908.2-435,908.2z M-432,916.8
		c-0.3-0.2-0.7-0.4-1-0.5c0.5-0.3,1-0.7,1.5-0.7h0.1c0.2,0.1,0.4,0.4,0.6,0.7C-431.1,916.4-431.5,916.6-432,916.8z M-426.2,919.1
		c-0.1,0.1-0.3,0.2-0.4,0.3c-0.1-0.3-0.2-0.7-0.4-1c0.1-0.3,0.2-0.5,0.4-0.7c0.3,0.4,0.6,0.8,0.7,1.1
		C-425.9,918.8-426,919-426.2,919.1z M-425.6,911.3c-0.2-0.1-0.3-0.3-0.5-0.4c0.2-0.3,0.4-0.6,0.6-0.7c0.1,0,0.4,0.2,0.8,0.5
		C-425.1,911-425.4,911.3-425.6,911.3z M-423.7,921.7c0-0.1-0.1-0.2-0.1-0.2C-423.7,921.6-423.6,921.6-423.7,921.7z M-422.3,923.8
		c0.1,0,0.1,0.1,0.1,0.2C-422.2,923.9-422.3,923.9-422.3,923.8z M-422.2,917.2L-422.2,917.2c0-0.2,0.1-0.2,0.2-0.2
		C-422.1,917.1-422.1,917.1-422.2,917.2z M-418.4,916.2c0,0.1,0,0.2-0.1,0.3C-418.5,916.4-418.5,916.3-418.4,916.2z M-418.4,921.7
		c-0.1,0-0.1-0.1-0.1-0.2C-418.5,921.6-418.4,921.6-418.4,921.7z M-420.6,917c0,0.1-0.1,0.2-0.2,0.3c-0.3-0.2-0.6-0.4-0.9-0.6
		c0-0.1,0.1-0.2,0.2-0.3c0.1-0.1,0.2-0.3,0.2-0.4c0.4,0.3,0.7,0.6,0.7,0.8C-420.5,916.8-420.6,916.9-420.6,917z M-420,914.2
		c-0.4-0.1-0.7-0.2-0.9-0.4c0,0,0.1-0.2,0.1-0.3c0-0.1,0.1-0.2,0.1-0.3c0.3,0.3,0.5,0.5,0.8,0.8C-419.9,914.1-419.9,914.2-420,914.2
		z M-419.3,924.7c0-0.1-0.1-0.1-0.1-0.2c0-0.1-0.1-0.2-0.1-0.2c0.3-0.5,0.6-0.9,0.9-1.4c0.3,0.3,0.6,0.6,0.9,0.9
		C-418.2,924.1-418.7,924.4-419.3,924.7z M-412.6,912.7c0-0.1,0.1-0.1,0.2-0.1C-412.5,912.6-412.5,912.7-412.6,912.7z M-408.9,908.9
		c0.1-0.1,0.2,0,0.2,0.1C-408.8,909-408.8,908.9-408.9,908.9z M-407.4,908.9c0.1-0.1,0.3-0.2,0.5-0.3c0.2,0.3,0.4,0.5,0.6,0.8
		c0,0,0,0.1-0.1,0.2c0,0,0,0.1-0.1,0.1C-406.8,909.4-407.1,909.1-407.4,908.9z M-406.6,923.8c-0.1-0.3-0.2-0.6-0.2-0.9
		c0-0.2,0.1-0.3,0.2-0.6c0.1,0.2,0.2,0.5,0.4,0.8C-406.3,923.3-406.4,923.6-406.6,923.8z M-405.9,921.8c0-0.2,0-0.2,0.1-0.3h0.1
		C-405.7,921.6-405.8,921.7-405.9,921.8z M-403.2,912.1c-0.1,0-0.2,0-0.3-0.1c-0.1,0-0.1-0.1-0.2-0.1c0.2-0.2,0.3-0.4,0.5-0.6
		c0.2-0.2,0.3-0.3,0.4-0.3c0.1,0,0.2,0.1,0.4,0.3c0.1,0.1,0.2,0.3,0.4,0.4C-402.5,911.9-402.8,912-403.2,912.1z M-399.9,911.7
		c0,0.1-0.1,0.1-0.1,0.2c-0.2-0.5-0.3-0.8-0.5-1.1c0.1,0,0.1-0.1,0.2-0.1c0.1,0,0.2-0.1,0.2-0.1c0.1,0,0.2,0.1,0.2,0.1s0,0.1,0,0.2
		c0.1,0.2,0.1,0.3,0.1,0.5C-399.8,911.5-399.8,911.5-399.9,911.7z M-399.6,922.6c0.1,0,0.1-0.1,0.2-0.1c0,0.1,0.1,0.2,0.1,0.3
		L-399.6,922.6z M-393.5,918.3c-0.3-0.6-0.6-1.1-0.9-1.6c0,0,0-0.1,0.1-0.2l0.1-0.1c0.3,0.5,0.6,1,0.9,1.6
		C-393.4,918.1-393.4,918.2-393.5,918.3z M-384.7,921.8c0.1,0,0.2,0,0.3,0.1C-384.5,921.9-384.6,921.9-384.7,921.8z M-382.4,921.8
		v-0.1c0.1,0.1,0.2,0.1,0.1,0.3C-382.3,921.9-382.4,921.8-382.4,921.8z M-381.6,918.9c0-0.1,0-0.2,0.1-0.3
		C-381.5,918.8-381.6,918.9-381.6,918.9z M-379.9,920.5c0,0-0.1,0-0.2-0.1c0,0-0.1,0-0.1-0.1c0.2-0.1,0.4-0.2,0.6-0.3
		c0.1,0.1,0.3,0.2,0.4,0.2C-379.5,920.4-379.7,920.5-379.9,920.5z M-369,918.7c0.1,0.1,0.1,0.2,0.1,0.3
		C-368.9,918.9-369,918.8-369,918.7z M-366.8,909.1c0.1,0,0.2-0.1,0.2-0.1C-366.6,909.1-366.7,909.1-366.8,909.1z M-366,920.7
		c-0.3-0.1-0.5-0.2-0.6-0.3c0.1-0.1,0.3-0.2,0.4-0.3c0,0,0.1,0,0.2,0.1c0,0,0.1,0.1,0.2,0.1C-365.9,920.4-366,920.5-366,920.7z
		 M-361.3,911.2c0,0-0.1,0.1-0.1,0.2c-0.1-0.1-0.3-0.1-0.4-0.2c0.1-0.3,0.2-0.5,0.3-0.6c0.1,0.2,0.2,0.3,0.3,0.4
		C-361.2,911.1-361.3,911.1-361.3,911.2z M-356.8,922.7l-0.3-0.2c0.3-0.3,0.5-0.5,0.8-0.7c0.1,0.1,0.1,0.2,0.2,0.2l0.1,0.1
		C-356.3,922.4-356.5,922.6-356.8,922.7z M-355.8,918.6c0.3-0.1,0.6-0.2,1-0.3c0,0.1,0.1,0.2,0.2,0.3
		C-355.1,918.7-355.4,918.7-355.8,918.6z M-354,906.9L-354,906.9c-0.1-0.2-0.2-0.4-0.2-0.6v-0.1c0,0,0.1,0,0.1-0.1h0.1
		c0.1,0.3,0.1,0.5,0.2,0.7C-353.8,906.8-353.9,906.8-354,906.9z M-348.7,911.1L-348.7,911.1c0,0.2-0.1,0.3-0.1,0.3
		C-348.8,911.3-348.8,911.2-348.7,911.1z M-349.6,915.1c-0.1-0.1-0.1-0.3-0.2-0.6c0.3-0.1,0.6-0.3,0.9-0.3c0,0,0.1,0,0.2,0.1
		l0.1,0.1L-349.6,915.1z M-347.9,910.6L-347.9,910.6c-0.2,0-0.3-0.2-0.4-0.3c0.1-0.2,0.2-0.3,0.4-0.5c0.1,0.2,0.2,0.4,0.2,0.6
		C-347.8,910.4-347.9,910.5-347.9,910.6z M-345.1,916.7c0-0.1,0-0.2,0.1-0.3C-345,916.5-345,916.6-345.1,916.7z M-342.2,914.4
		c0-0.1,0.1-0.1,0.2-0.1C-342,914.3-342.1,914.4-342.2,914.4z M-340.7,910.7c0-0.1,0.1-0.1,0.2-0.1
		C-340.5,910.6-340.6,910.6-340.7,910.7z M-337.7,919.7c0-0.1,0.1-0.1,0.2-0.1C-337.5,919.6-337.6,919.6-337.7,919.7z M-337.2,914.6
		c-0.2-0.2-0.4-0.5-0.6-0.8c0,0,0-0.1,0.1-0.2c0,0,0-0.1,0.1-0.1l1,0.7C-336.9,914.4-337,914.5-337.2,914.6z M-335.8,919
		c-0.1,0.1-0.2,0.3-0.2,0.5c-0.1-0.2-0.3-0.4-0.4-0.6c0.1-0.3,0.2-0.5,0.3-0.7C-336,918.4-335.8,918.7-335.8,919L-335.8,919z
		 M-333.7,910.9c-0.2,0.1-0.3,0.3-0.5,0.5c-0.1-0.5-0.3-0.9-0.4-1.4c0.1-0.3,0.2-0.6,0.4-1c0.4,0.5,0.8,0.9,0.9,1.4
		C-333.4,910.5-333.5,910.7-333.7,910.9z M-326,908.2c0,0.1-0.1,0.1-0.2,0.1C-326.1,908.3-326.1,908.2-326,908.2z M-327.5,909.7
		c-0.1-0.2-0.3-0.5-0.3-0.7v-0.1c0-0.2,0.1-0.4,0.1-0.6c0.1,0.2,0.3,0.4,0.4,0.6C-327.3,909.2-327.4,909.5-327.5,909.7z
		 M-325.9,914.2c0,0,0,0.1-0.1,0.1l-1-0.7c0.1-0.1,0.3-0.2,0.5-0.3C-326.3,913.5-326.1,913.8-325.9,914.2
		C-325.8,914-325.9,914.1-325.9,914.2z M-323.2,917.3c0-0.1,0.1-0.1,0.2-0.1C-323,917.3-323.1,917.3-323.2,917.3z M-321.7,913.6
		c0-0.1,0.1-0.1,0.2-0.1C-321.5,913.5-321.6,913.6-321.7,913.6z M-318.7,911.4c0-0.1,0-0.2,0.1-0.3
		C-318.6,911.3-318.6,911.3-318.7,911.4z M-315.6,918c-0.1-0.2-0.2-0.4-0.2-0.6c0,0,0-0.1,0.1-0.1l0.1-0.1c0.1,0.1,0.2,0.3,0.3,0.4
		C-315.4,917.8-315.5,917.9-315.6,918z M-314.9,916.7c0-0.2,0-0.2,0.1-0.3h0.1C-314.8,916.5-314.9,916.6-314.9,916.7z M-314.7,913.7
		c0,0-0.1,0-0.2-0.1l-0.1-0.1l1-0.7c0.1,0.1,0.1,0.3,0.2,0.6C-314.1,913.5-314.4,913.7-314.7,913.7z M-309.6,921.8L-309.6,921.8
		c-0.2-0.3-0.2-0.5-0.3-0.7c0,0,0.1-0.1,0.2-0.1l0.1-0.1c0.1,0.3,0.1,0.5,0.1,0.8C-309.5,921.7-309.6,921.7-309.6,921.8z
		 M-308.8,909.5c0-0.1-0.1-0.2-0.2-0.3c0.4-0.1,0.8,0,1.2,0C-308.1,909.3-308.4,909.4-308.8,909.5z M-302.1,917.3
		c-0.1-0.1-0.2-0.3-0.3-0.4c0,0,0-0.1,0.1-0.2c0,0,0.1-0.1,0.1-0.2c0.1,0.1,0.3,0.1,0.4,0.2C-302,916.9-302.1,917.1-302.1,917.3z
		 M-297.6,907.6c0,0-0.1-0.1-0.2-0.1c0.1-0.1,0.1-0.3,0.2-0.4c0.3,0.1,0.5,0.2,0.6,0.3c-0.2,0.2-0.3,0.3-0.4,0.3
		C-297.4,907.7-297.5,907.7-297.6,907.6z M-297.1,918.8c0-0.1,0.1-0.1,0.2-0.1C-297,918.8-297,918.8-297.1,918.8z M-284,907.8
		c-0.1-0.1-0.3-0.2-0.4-0.2c0.2-0.1,0.4-0.2,0.6-0.2c0,0,0.1,0,0.2,0.1l0.1,0.1C-283.7,907.6-283.9,907.7-284,907.8z M-279.2,906
		c0,0,0.1,0,0.2,0.1C-279.1,906.1-279.1,906-279.2,906z M-273.2,924.2c0-0.1,0-0.2,0.1-0.3C-273.1,924-273.2,924.1-273.2,924.2z
		 M-269.3,911.3l-0.1,0.1c-0.3-0.5-0.7-1-0.9-1.5c0.1-0.1,0.1-0.2,0.2-0.3c0.3,0.6,0.6,1.1,0.9,1.6
		C-269.2,911.2-269.3,911.2-269.3,911.3z M-263.1,924.4c0-0.1,0-0.2,0.1-0.3C-263,924.2-263.1,924.3-263.1,924.4z M-263.3,917.2
		c-0.1,0-0.2,0.1-0.2,0.1c-0.1,0-0.2-0.1-0.2-0.1s0-0.1,0-0.2c0-0.1,0-0.3,0-0.5v-0.1c0,0,0-0.1,0.1-0.2c0-0.1,0.1-0.1,0.1-0.2
		c0.2,0.5,0.3,0.8,0.5,1.1C-263.2,917.1-263.3,917.2-263.3,917.2z M-260.4,916.6c-0.2,0.2-0.3,0.3-0.4,0.3c-0.1,0-0.2-0.1-0.4-0.3
		c-0.1-0.1-0.2-0.3-0.4-0.4c0.4-0.1,0.8-0.3,1.1-0.4c0.1,0,0.1,0,0.3,0.1c0.1,0,0.1,0.1,0.2,0.1
		C-260.1,916.2-260.3,916.4-260.4,916.6z M-258.7,910c0-0.1,0.1-0.1,0.2-0.1C-258.6,910-258.6,910-258.7,910z M-257.9,906.3
		c0-0.1,0-0.2,0.1-0.3l0.1,0.1C-257.8,906.2-257.8,906.3-257.9,906.3z M-256.8,919.3c-0.2-0.3-0.4-0.5-0.6-0.8c0,0,0-0.1,0.1-0.2
		c0,0,0-0.1,0.1-0.1c0.3,0.3,0.6,0.5,0.9,0.8C-256.4,919.1-256.5,919.2-256.8,919.3z M-255,918.9c0.1,0,0.2,0.1,0.3,0.1
		C-254.8,919-254.9,919-255,918.9z M-251.2,915.3c0-0.1,0.1-0.1,0.2-0.1C-251.1,915.2-251.2,915.3-251.2,915.3z M-245.2,911.6
		c0-0.1,0-0.2,0.1-0.3C-245.1,911.4-245.2,911.5-245.2,911.6z M-245.2,906.1c0,0.1,0.1,0.2,0.1,0.2
		C-245.2,906.3-245.2,906.2-245.2,906.1z M-244.5,921.1c0.1,0.1,0.1,0.2,0.1,0.3C-244.4,921.3-244.5,921.2-244.5,921.1z
		 M-242.9,914.3c0,0.1-0.1,0.2-0.1,0.3c-0.3-0.3-0.5-0.5-0.8-0.8c0-0.1,0.1-0.1,0.1-0.2v-0.1c0.3,0.1,0.7,0.3,0.9,0.5
		C-242.8,914.1-242.8,914.2-242.9,914.3z M-242.2,911.5c-0.1,0.1-0.2,0.3-0.2,0.4c-0.4-0.3-0.7-0.6-0.7-0.8c0,0,0-0.2,0.1-0.3
		c0-0.1,0.1-0.2,0.2-0.3c0.3,0.2,0.6,0.4,0.9,0.6C-242,911.2-242.1,911.4-242.2,911.5z M-241.5,910.8c0,0-0.1,0.1-0.2,0.1
		c0.1-0.1,0.1-0.2,0.2-0.2V910.8z M-240,906.2c0,0,0.1,0.1,0.1,0.2C-239.9,906.3-240,906.3-240,906.2z M-238.2,917.7
		c-0.1,0-0.4-0.2-0.8-0.5c0.4-0.3,0.7-0.6,0.9-0.7h0.1c0.1,0.1,0.3,0.2,0.4,0.4C-237.8,917.2-238,917.5-238.2,917.7z M-237,910.1
		c-0.3-0.4-0.7-0.7-0.7-1c0,0,0.1-0.2,0.3-0.3c0.1-0.1,0.3-0.2,0.4-0.3c0.1,0.3,0.2,0.7,0.4,1C-236.8,909.7-236.9,909.9-237,910.1z
		 M-236.1,923.4c0,0-0.1,0.1-0.1,0.2c-0.1-0.1-0.3-0.1-0.4-0.2c0.1-0.3,0.2-0.5,0.3-0.6c0.1,0.1,0.2,0.3,0.3,0.4
		C-236,923.2-236.1,923.3-236.1,923.4z M-232.2,912.4L-232.2,912.4c-0.3-0.2-0.5-0.5-0.7-0.8c0.4-0.2,0.8-0.3,1.2-0.5
		c0.3,0.2,0.7,0.4,1,0.5C-231.2,911.9-231.7,912.3-232.2,912.4z M-228.9,919.8c0.1-0.1,0.1-0.1,0.2-0.1
		C-228.7,919.7-228.8,919.8-228.9,919.8z M-227.4,921.3c0-0.1,0.1-0.1,0.2-0.1C-227.3,921.2-227.3,921.3-227.4,921.3z M-225.9,918.9
		c0.1,0,0.1,0.1,0.1,0.2C-225.8,919-225.9,919-225.9,918.9z M-223,909.8h-0.2c-0.4-0.1-0.8-0.3-1.2-0.5c0,0,0-0.1,0-0.2
		c0-0.1,0-0.1,0-0.2c0.6,0,1.1,0,1.6,0.2c0,0,0.1,0.2,0.1,0.3s0,0.2,0.1,0.3C-222.8,909.8-222.9,909.8-223,909.8z M-222.2,913.7
		c0.1,0,0.2,0,0.2,0.1C-222.1,913.8-222.1,913.7-222.2,913.7z M-219.2,911.3c0.1,0.1,0.1,0.2,0.1,0.3
		C-219.1,911.5-219.2,911.4-219.2,911.3z M-218.5,920.5c0.1-0.1,0.1-0.1,0.2-0.1C-218.3,920.5-218.4,920.5-218.5,920.5z
		 M-217.8,909.9c0.2,0,0.2,0.1,0.3,0.1C-217.6,910-217.7,910-217.8,909.9z M-216.8,914.2C-216.8,914.2-216.9,914.2-216.8,914.2
		L-216.8,914.2C-216.8,914.1-216.8,914.1-216.8,914.2z M-213.3,908.8c0.1,0,0.2,0.1,0.2,0.1S-213.2,908.9-213.3,908.8z
		 M-212.6,917.9c0.1-0.1,0.2,0,0.2,0.1C-212.5,918-212.5,917.9-212.6,917.9z M-211.8,907.4c0.1-0.1,0.1-0.1,0.2-0.1
		C-211.6,907.4-211.7,907.4-211.8,907.4z M-211,916.2c0.1,0.1,0.1,0.2,0.1,0.3C-210.9,916.4-211,916.3-211,916.2z M-208.1,914.1
		c0.1,0,0.2,0,0.3,0.1C-207.9,914.2-208,914.2-208.1,914.1z M-204.2,908.9c-0.1,0-0.1-0.1-0.1-0.2
		C-204.3,908.8-204.2,908.8-204.2,908.9z M-205.7,918.8c0,0.1,0,0.1,0,0.2c-0.6-0.2-1.1-0.2-1.6-0.3c0,0-0.1-0.2-0.1-0.3
		s0-0.2-0.1-0.3c0.1,0,0.3,0,0.4,0h0.2c0.4,0.1,0.8,0.3,1.2,0.5C-205.7,918.6-205.7,918.7-205.7,918.8z M-204.9,913.4
		c-0.4-0.4-0.7-0.8-1-1.2c0-0.1,0.1-0.2,0.2-0.3l0.1-0.2c0.5,0.2,1,0.5,1.6,0.8C-204.3,912.9-204.6,913.2-204.9,913.4z
		 M-203.2,924.6v-0.2c0.1,0,0.3-0.7,0.5-0.6l0.1,0.1C-202.7,924-202.9,924.2-203.2,924.6z M-202.8,906.7c0-0.1,0.1-0.1,0.2-0.1
		C-202.6,906.7-202.7,906.7-202.8,906.7z M-201.4,908.2c0.1-0.1,0.1-0.1,0.2-0.1C-201.2,908.1-201.3,908.2-201.4,908.2z
		 M-198.4,916.8c-0.3-0.2-0.7-0.4-1-0.5c0.5-0.3,1-0.7,1.5-0.7h0.1c0.2,0.1,0.4,0.4,0.6,0.7C-197.5,916.4-197.9,916.6-198.4,916.8z
		 M-192.6,919.1c-0.1,0.1-0.3,0.2-0.4,0.3c-0.1-0.3-0.2-0.7-0.4-1c0.1-0.3,0.2-0.5,0.4-0.7c0.3,0.4,0.6,0.8,0.7,1.1
		C-192.3,918.8-192.4,919-192.6,919.1z M-192,911.3c-0.2-0.1-0.3-0.3-0.5-0.4c0.2-0.3,0.4-0.6,0.6-0.7c0.1,0,0.4,0.2,0.8,0.5
		C-191.5,911-191.8,911.3-192,911.3z M-190.1,921.7c0-0.1-0.1-0.2-0.1-0.2C-190.1,921.6-190,921.6-190.1,921.7z M-188.7,923.8
		c0.1,0,0.1,0.1,0.1,0.2C-188.6,923.9-188.7,923.9-188.7,923.8z M-188.6,917.2L-188.6,917.2c0-0.2,0.1-0.2,0.2-0.2
		C-188.5,917.1-188.5,917.1-188.6,917.2z M-184.8,916.2c0,0.1,0,0.2-0.1,0.3C-184.9,916.4-184.9,916.3-184.8,916.2z M-184.8,921.7
		c-0.1,0-0.1-0.1-0.1-0.2C-184.9,921.6-184.8,921.6-184.8,921.7z M-187,917c0,0.1-0.1,0.2-0.2,0.3c-0.3-0.2-0.6-0.4-0.9-0.6
		c0-0.1,0.1-0.2,0.2-0.3c0.1-0.1,0.2-0.3,0.2-0.4c0.4,0.3,0.7,0.6,0.7,0.8C-186.9,916.8-187,916.9-187,917z M-186.4,914.2
		c-0.4-0.1-0.7-0.2-0.9-0.4c0,0,0.1-0.2,0.1-0.3c0-0.1,0.1-0.2,0.1-0.3c0.3,0.3,0.5,0.5,0.8,0.8
		C-186.3,914.1-186.3,914.2-186.4,914.2z M-185.7,924.7c0-0.1-0.1-0.1-0.1-0.2c0-0.1-0.1-0.2-0.1-0.2c0.3-0.5,0.6-0.9,0.9-1.4
		c0.3,0.3,0.6,0.6,0.9,0.9C-184.6,924.1-185.1,924.4-185.7,924.7z M-179,912.7c0-0.1,0.1-0.1,0.2-0.1
		C-178.9,912.6-178.9,912.7-179,912.7z M-175.3,908.9c0.1-0.1,0.2,0,0.2,0.1C-175.2,909-175.2,908.9-175.3,908.9z M-173.8,908.9
		c0.1-0.1,0.3-0.2,0.5-0.3c0.2,0.3,0.4,0.5,0.6,0.8c0,0,0,0.1-0.1,0.2c0,0,0,0.1-0.1,0.1C-173.2,909.4-173.5,909.1-173.8,908.9z
		 M-173,923.8c-0.1-0.3-0.2-0.6-0.2-0.9c0-0.2,0.1-0.3,0.2-0.6c0.1,0.2,0.2,0.5,0.4,0.8C-172.7,923.3-172.8,923.6-173,923.8z
		 M-172.3,921.8c0-0.2,0-0.2,0.1-0.3h0.1C-172.1,921.6-172.2,921.7-172.3,921.8z M-169.6,912.1c-0.1,0-0.2,0-0.3-0.1
		c-0.1,0-0.1-0.1-0.2-0.1c0.2-0.2,0.3-0.4,0.5-0.6c0.2-0.2,0.3-0.3,0.4-0.3c0.1,0,0.2,0.1,0.4,0.3c0.1,0.1,0.2,0.3,0.4,0.4
		C-168.9,911.9-169.2,912-169.6,912.1z M-166.3,911.7c0,0.1-0.1,0.1-0.1,0.2c-0.2-0.5-0.3-0.8-0.5-1.1c0.1,0,0.1-0.1,0.2-0.1
		c0.1,0,0.2-0.1,0.2-0.1c0.1,0,0.2,0.1,0.2,0.1s0,0.1,0,0.2c0.1,0.2,0.1,0.3,0.1,0.5C-166.2,911.5-166.2,911.5-166.3,911.7z
		 M-166,922.6c0.1,0,0.1-0.1,0.2-0.1c0,0.1,0.1,0.2,0.1,0.3L-166,922.6z M-159.9,918.3c-0.3-0.6-0.6-1.1-0.9-1.6c0,0,0-0.1,0.1-0.2
		l0.1-0.1c0.3,0.5,0.6,1,0.9,1.6C-159.8,918.1-159.8,918.2-159.9,918.3z M-151.1,921.8c0.1,0,0.2,0,0.3,0.1
		C-150.9,921.9-151,921.9-151.1,921.8z M-148.8,921.8v-0.1c0.1,0.1,0.2,0.1,0.1,0.3C-148.7,921.9-148.8,921.8-148.8,921.8z
		 M-148,918.9c0-0.1,0-0.2,0.1-0.3C-147.9,918.8-148,918.9-148,918.9z M-146.3,920.5c0,0-0.1,0-0.2-0.1c0,0-0.1,0-0.1-0.1
		c0.2-0.1,0.4-0.2,0.6-0.3c0.1,0.1,0.3,0.2,0.4,0.2C-145.9,920.4-146.1,920.5-146.3,920.5z M-135.4,918.7c0.1,0.1,0.1,0.2,0.1,0.3
		C-135.3,918.9-135.4,918.8-135.4,918.7z M-133.2,909.1c0.1,0,0.2-0.1,0.2-0.1C-133,909.1-133.1,909.1-133.2,909.1z M-132.4,920.7
		c-0.3-0.1-0.5-0.2-0.6-0.3c0.1-0.1,0.3-0.2,0.4-0.3c0,0,0.1,0,0.2,0.1c0,0,0.1,0.1,0.2,0.1C-132.3,920.4-132.4,920.5-132.4,920.7z
		 M-127.7,911.2c0,0-0.1,0.1-0.1,0.2c-0.1-0.1-0.3-0.1-0.4-0.2c0.1-0.3,0.2-0.5,0.3-0.6c0.1,0.2,0.2,0.3,0.3,0.4
		C-127.6,911.1-127.7,911.1-127.7,911.2z M-123.2,922.7l-0.3-0.2c0.3-0.3,0.5-0.5,0.8-0.7c0.1,0.1,0.1,0.2,0.2,0.2l0.1,0.1
		C-122.7,922.4-122.9,922.6-123.2,922.7z M-122.2,918.6c0.3-0.1,0.6-0.2,1-0.3c0,0.1,0.1,0.2,0.2,0.3
		C-121.5,918.7-121.8,918.7-122.2,918.6z M-120.4,906.9l-0.1,0.1c0-0.3-0.1-0.5-0.1-0.7v-0.1c0,0,0.1,0,0.1-0.1h0.1
		c0.1,0.3,0.1,0.5,0.2,0.7C-120.2,906.8-120.3,906.8-120.4,906.9z M-116,915.1c-0.1-0.1-0.1-0.3-0.2-0.6c0.3-0.1,0.6-0.3,0.9-0.3
		c0,0,0.1,0,0.2,0.1l0.1,0.1L-116,915.1z M-115.2,911.4c0-0.1,0-0.2,0.1-0.3l0.1,0.1C-115.1,911.3-115.2,911.4-115.2,911.4z
		 M-114.3,910.6L-114.3,910.6c-0.2,0-0.3-0.2-0.4-0.3c0.1-0.2,0.2-0.3,0.4-0.5c0.1,0.2,0.2,0.4,0.2,0.6
		C-114.2,910.4-114.3,910.5-114.3,910.6z M-111.5,916.7c0-0.1,0-0.2,0.1-0.3C-111.4,916.5-111.4,916.6-111.5,916.7z M-108.6,914.4
		c0-0.1,0.1-0.1,0.2-0.1C-108.4,914.3-108.5,914.4-108.6,914.4z M-107.1,910.7c0-0.1,0.1-0.1,0.2-0.1
		C-106.9,910.6-107,910.6-107.1,910.7z M-104.1,919.7c0-0.1,0.1-0.1,0.2-0.1C-103.9,919.6-104,919.6-104.1,919.7z M-103.6,914.6
		c-0.2-0.2-0.4-0.5-0.6-0.8c0,0,0-0.1,0.1-0.2c0,0,0-0.1,0.1-0.1l1,0.7C-103.3,914.4-103.4,914.5-103.6,914.6z M-102.2,919
		c-0.1,0.1-0.2,0.3-0.2,0.5c-0.1-0.2-0.3-0.4-0.4-0.6c0.1-0.3,0.2-0.5,0.3-0.7C-102.4,918.4-102.2,918.7-102.2,919L-102.2,919z
		 M-100.1,910.9c-0.2,0.1-0.3,0.3-0.5,0.5c-0.1-0.5-0.3-0.9-0.4-1.4c0.1-0.3,0.2-0.6,0.4-1c0.4,0.5,0.8,0.9,0.9,1.4
		C-99.8,910.5-99.9,910.7-100.1,910.9z M-92.4,908.2c0,0.1-0.1,0.1-0.2,0.1C-92.5,908.3-92.5,908.2-92.4,908.2z M-93.9,909.7
		c-0.1-0.2-0.3-0.5-0.3-0.7v-0.1c0-0.2,0.1-0.4,0.1-0.6c0.1,0.2,0.3,0.4,0.4,0.6C-93.7,909.2-93.8,909.5-93.9,909.7z M-92.3,914.2
		c0,0,0,0.1-0.1,0.1l-1-0.7c0.1-0.1,0.3-0.2,0.5-0.3C-92.7,913.5-92.5,913.8-92.3,914.2C-92.2,914-92.3,914.1-92.3,914.2z
		 M-89.6,917.3c0-0.1,0.1-0.1,0.2-0.1C-89.4,917.3-89.5,917.3-89.6,917.3z M-88.1,913.6c0-0.1,0.1-0.1,0.2-0.1
		C-87.9,913.5-88,913.6-88.1,913.6z M-85.1,911.4c0-0.1,0-0.2,0.1-0.3C-85,911.3-85,911.3-85.1,911.4z M-82,918
		c-0.1-0.2-0.2-0.4-0.2-0.6c0,0,0-0.1,0.1-0.1l0.1-0.1c0.1,0.1,0.2,0.3,0.3,0.4C-81.8,917.8-81.9,917.9-82,918z M-81.3,916.7
		c0-0.2,0-0.2,0.1-0.3h0.1C-81.2,916.5-81.3,916.6-81.3,916.7z M-81.1,913.7c0,0-0.1,0-0.2-0.1l-0.1-0.1l1-0.7
		c0.1,0.1,0.1,0.3,0.2,0.6C-80.5,913.5-80.8,913.7-81.1,913.7z M-76,921.8L-76,921.8c-0.2-0.3-0.2-0.5-0.3-0.7c0,0,0.1-0.1,0.2-0.1
		l0.1-0.1c0.1,0.3,0.1,0.5,0.1,0.8C-75.9,921.7-76,921.7-76,921.8z M-75.2,909.5c0-0.1-0.1-0.2-0.2-0.3c0.4-0.1,0.8,0,1.2,0
		C-74.5,909.3-74.8,909.4-75.2,909.5z M-74,909.2C-74,909.1-74,909.2-74,909.2L-74,909.2z M-68.5,917.3c-0.1-0.1-0.2-0.3-0.3-0.4
		c0,0,0-0.1,0.1-0.2c0,0,0.1-0.1,0.1-0.2c0.1,0.1,0.3,0.1,0.4,0.2C-68.4,916.9-68.5,917.1-68.5,917.3z M-64,907.6
		c0,0-0.1-0.1-0.2-0.1c0.1-0.1,0.1-0.3,0.2-0.4c0.3,0.1,0.5,0.2,0.6,0.3c-0.2,0.2-0.3,0.3-0.4,0.3C-63.8,907.7-63.9,907.7-64,907.6z
		 M-63.5,918.8c0-0.1,0.1-0.1,0.2-0.1C-63.4,918.8-63.4,918.8-63.5,918.8z M-50.4,907.8c-0.1-0.1-0.3-0.2-0.4-0.2
		c0.2-0.1,0.4-0.2,0.6-0.2c0,0,0.1,0,0.2,0.1l0.1,0.1C-50.1,907.6-50.3,907.7-50.4,907.8z M-45.6,906c0,0,0.1,0,0.2,0.1
		C-45.5,906.1-45.5,906-45.6,906z M-39.6,924.2c0-0.1,0-0.2,0.1-0.3C-39.5,924-39.6,924.1-39.6,924.2z M-35.7,911.3l-0.1,0.1
		c-0.3-0.5-0.7-1-0.9-1.5c0.1-0.1,0.1-0.2,0.2-0.3c0.3,0.6,0.6,1.1,0.9,1.6C-35.6,911.2-35.7,911.2-35.7,911.3z M-29.5,924.4
		c0-0.1,0-0.2,0.1-0.3C-29.4,924.2-29.5,924.3-29.5,924.4z M-29.7,917.2c-0.1,0-0.2,0.1-0.2,0.1c-0.1,0-0.2-0.1-0.2-0.1s0-0.1,0-0.2
		c0-0.1,0-0.3,0-0.5v-0.1c0,0,0-0.1,0.1-0.2c0-0.1,0.1-0.1,0.1-0.2c0.2,0.5,0.3,0.8,0.5,1.1C-29.6,917.1-29.7,917.2-29.7,917.2z
		 M-26.8,916.6c-0.2,0.2-0.3,0.3-0.4,0.3c-0.1,0-0.2-0.1-0.4-0.3c-0.1-0.1-0.2-0.3-0.4-0.4c0.4-0.1,0.8-0.3,1.1-0.4
		c0.1,0,0.1,0,0.3,0.1c0.1,0,0.1,0.1,0.2,0.1C-26.5,916.2-26.7,916.4-26.8,916.6z M-25.1,910c0-0.1,0.1-0.1,0.2-0.1
		C-25,910-25,910-25.1,910z M-24.3,906.3c0-0.1,0-0.2,0.1-0.3l0.1,0.1C-24.2,906.2-24.2,906.3-24.3,906.3z M-23.2,919.3
		c-0.2-0.3-0.4-0.5-0.6-0.8c0,0,0-0.1,0.1-0.2c0,0,0-0.1,0.1-0.1c0.3,0.3,0.6,0.5,0.9,0.8C-22.8,919.1-22.9,919.2-23.2,919.3z
		 M-21.4,918.9c0.1,0,0.2,0.1,0.3,0.1C-21.2,919-21.3,919-21.4,918.9z M-17.6,915.3c0-0.1,0.1-0.1,0.2-0.1
		C-17.5,915.2-17.6,915.3-17.6,915.3z M-11.6,911.6c0-0.1,0-0.2,0.1-0.3C-11.5,911.4-11.6,911.5-11.6,911.6z M-11.6,906.1
		c0,0.1,0.1,0.2,0.1,0.2C-11.6,906.3-11.6,906.2-11.6,906.1z M-10.9,921.1c0.1,0.1,0.1,0.2,0.1,0.3
		C-10.8,921.3-10.9,921.2-10.9,921.1z M-9.3,914.3c0,0.1-0.1,0.2-0.1,0.3c-0.3-0.3-0.5-0.5-0.8-0.8c0-0.1,0.1-0.1,0.1-0.2v-0.1
		c0.3,0.1,0.7,0.3,0.9,0.5C-9.2,914.1-9.2,914.2-9.3,914.3z M-8.6,911.5c-0.1,0.1-0.2,0.3-0.2,0.4c-0.4-0.3-0.7-0.6-0.7-0.8
		c0,0,0-0.2,0.1-0.3c0-0.1,0.1-0.2,0.2-0.3c0.3,0.2,0.6,0.4,0.9,0.6C-8.4,911.2-8.5,911.4-8.6,911.5z M-7.9,910.8
		c0,0-0.1,0.1-0.2,0.1c0.1-0.1,0.1-0.2,0.2-0.2V910.8z M-6.4,906.2c0,0,0.1,0.1,0.1,0.2C-6.3,906.3-6.4,906.3-6.4,906.2z
		 M-4.6,917.7c-0.1,0-0.4-0.2-0.8-0.5c0.4-0.3,0.7-0.6,0.9-0.7h0.1c0.1,0.1,0.3,0.2,0.4,0.4C-4.2,917.2-4.4,917.5-4.6,917.7z
		 M-3.4,910.1c-0.3-0.4-0.7-0.7-0.7-1c0,0,0.1-0.2,0.3-0.3c0.1-0.1,0.3-0.2,0.4-0.3c0.1,0.3,0.2,0.7,0.4,1
		C-3.2,909.7-3.3,909.9-3.4,910.1z M-2.5,923.4c0,0-0.1,0.1-0.1,0.2c-0.1-0.1-0.3-0.1-0.4-0.2c0.1-0.3,0.2-0.5,0.3-0.6
		c0.1,0.1,0.2,0.3,0.3,0.4C-2.4,923.2-2.5,923.3-2.5,923.4z M1.4,912.4l-0.1-0.1c-0.2-0.1-0.4-0.4-0.6-0.7c0.4-0.2,0.8-0.3,1.2-0.5
		c0.3,0.2,0.7,0.4,1,0.5C2.4,911.9,1.9,912.3,1.4,912.4z M4.7,919.8c0.1-0.1,0.1-0.1,0.2-0.1C4.9,919.7,4.8,919.8,4.7,919.8z
		 M6.2,921.3c0-0.1,0.1-0.1,0.2-0.1C6.3,921.2,6.3,921.3,6.2,921.3z M7.7,918.9c0.1,0,0.1,0.1,0.1,0.2C7.8,919,7.7,919,7.7,918.9z
		 M10.6,909.8h-0.2c-0.4-0.1-0.8-0.3-1.2-0.5c0,0,0-0.1,0-0.2c0-0.1,0-0.1,0-0.2c0.6,0,1.1,0,1.6,0.2c0,0,0.1,0.2,0.1,0.3
		s0,0.2,0.1,0.3C10.8,909.8,10.7,909.8,10.6,909.8z M11.4,913.7c0.1,0,0.2,0,0.2,0.1C11.5,913.8,11.5,913.7,11.4,913.7z M14.4,911.3
		c0.1,0.1,0.1,0.2,0.1,0.3C14.5,911.5,14.4,911.4,14.4,911.3z M15.1,920.5c0.1-0.1,0.1-0.1,0.2-0.1
		C15.3,920.5,15.2,920.5,15.1,920.5z M15.8,909.9c0.2,0,0.2,0.1,0.3,0.1C16,910,15.9,910,15.8,909.9z M16.7,914.2L16.7,914.2
		c0.1-0.1,0.1,0,0.1,0C16.8,914.2,16.7,914.2,16.7,914.2z M20.3,908.8c0.1,0,0.2,0.1,0.2,0.1S20.4,908.9,20.3,908.8z M21,917.9
		c0.1-0.1,0.2,0,0.2,0.1C21.1,918,21.1,917.9,21,917.9z M21.8,907.4c0.1-0.1,0.1-0.1,0.2-0.1C22,907.4,21.9,907.4,21.8,907.4z
		 M22.6,916.2c0.1,0.1,0.1,0.2,0.1,0.3C22.7,916.4,22.6,916.3,22.6,916.2z M25.5,914.1c0.1,0,0.2,0,0.3,0.1
		C25.7,914.2,25.6,914.2,25.5,914.1z M29.4,908.9c-0.1,0-0.1-0.1-0.1-0.2C29.3,908.8,29.4,908.8,29.4,908.9z M27.9,918.8
		c0,0.1,0,0.1,0,0.2c-0.6-0.2-1.1-0.2-1.6-0.3c0,0-0.1-0.2-0.1-0.3c0-0.1,0-0.2-0.1-0.3c0.1,0,0.3,0,0.4,0h0.2
		c0.4,0.1,0.8,0.3,1.2,0.5C27.9,918.6,27.9,918.7,27.9,918.8z M28.7,913.4c-0.4-0.4-0.7-0.8-1-1.2c0-0.1,0.1-0.2,0.2-0.3l0.1-0.2
		c0.5,0.2,1,0.5,1.6,0.8C29.3,912.9,29,913.2,28.7,913.4z M30.4,924.6v-0.2c0.1,0,0.3-0.7,0.5-0.6l0.1,0.1
		C30.9,924,30.7,924.2,30.4,924.6z M30.8,906.7c0-0.1,0.1-0.1,0.2-0.1C31,906.7,30.9,906.7,30.8,906.7z M32.2,908.2
		c0.1-0.1,0.1-0.1,0.2-0.1C32.4,908.1,32.3,908.2,32.2,908.2z M35.2,916.8c-0.3-0.2-0.7-0.4-1-0.5c0.5-0.3,1-0.7,1.5-0.7h0.1
		c0.2,0.1,0.4,0.4,0.6,0.7C36.1,916.4,35.7,916.6,35.2,916.8z M41,919.1c-0.1,0.1-0.3,0.2-0.4,0.3c-0.1-0.3-0.2-0.7-0.4-1
		c0.1-0.3,0.2-0.5,0.4-0.7c0.3,0.4,0.6,0.8,0.7,1.1C41.3,918.8,41.2,919,41,919.1z M41.6,911.3c-0.2-0.1-0.3-0.3-0.5-0.4
		c0.2-0.3,0.4-0.6,0.6-0.7c0.1,0,0.4,0.2,0.8,0.5C42.1,911,41.8,911.3,41.6,911.3z M43.5,921.7c0-0.1-0.1-0.2-0.1-0.2
		C43.5,921.6,43.6,921.6,43.5,921.7z M44.9,923.8c0.1,0,0.1,0.1,0.1,0.2C45,923.9,44.9,923.9,44.9,923.8z M45,917.2L45,917.2
		c0-0.2,0.1-0.2,0.2-0.2C45.1,917.1,45.1,917.1,45,917.2z M48.8,916.2c0,0.1,0,0.2-0.1,0.3C48.7,916.4,48.7,916.3,48.8,916.2z
		 M48.8,921.7c-0.1,0-0.1-0.1-0.1-0.2C48.7,921.6,48.8,921.6,48.8,921.7z M46.6,917c0,0.1-0.1,0.2-0.2,0.3c-0.3-0.2-0.6-0.4-0.9-0.6
		c0-0.1,0.1-0.2,0.2-0.3c0.1-0.1,0.2-0.3,0.2-0.4c0.4,0.3,0.7,0.6,0.7,0.8C46.7,916.8,46.6,916.9,46.6,917z M47.2,914.2
		c-0.4-0.1-0.7-0.2-0.9-0.4c0,0,0.1-0.2,0.1-0.3c0-0.1,0.1-0.2,0.1-0.3c0.3,0.3,0.5,0.5,0.8,0.8C47.3,914.1,47.3,914.2,47.2,914.2z
		 M47.9,924.7c0-0.1-0.1-0.1-0.1-0.2c0-0.1-0.1-0.2-0.1-0.2c0.3-0.5,0.6-0.9,0.9-1.4c0.3,0.3,0.6,0.6,0.9,0.9
		C49,924.1,48.5,924.4,47.9,924.7z M54.6,912.7c0-0.1,0.1-0.1,0.2-0.1C54.7,912.6,54.7,912.7,54.6,912.7z M58.3,908.9
		c0.1-0.1,0.2,0,0.2,0.1C58.4,909,58.4,908.9,58.3,908.9z M59.8,908.9c0.1-0.1,0.3-0.2,0.5-0.3c0.2,0.3,0.4,0.5,0.6,0.8
		c0,0,0,0.1-0.1,0.2c0,0,0,0.1-0.1,0.1C60.4,909.4,60.1,909.1,59.8,908.9z M60.6,923.8c-0.1-0.3-0.2-0.6-0.2-0.9
		c0-0.2,0.1-0.3,0.2-0.6c0.1,0.2,0.2,0.5,0.4,0.8C60.9,923.3,60.8,923.6,60.6,923.8z M61.3,921.8c0-0.2,0-0.2,0.1-0.3h0.1
		C61.5,921.6,61.4,921.7,61.3,921.8z M64,912.1c-0.1,0-0.2,0-0.3-0.1c-0.1,0-0.1-0.1-0.2-0.1c0.2-0.2,0.3-0.4,0.5-0.6
		s0.3-0.3,0.4-0.3c0.1,0,0.2,0.1,0.4,0.3c0.1,0.1,0.2,0.3,0.4,0.4C64.7,911.9,64.4,912,64,912.1z M67.3,911.7c0,0.1-0.1,0.1-0.1,0.2
		c-0.2-0.5-0.3-0.8-0.5-1.1c0.1,0,0.1-0.1,0.2-0.1c0.1,0,0.2-0.1,0.2-0.1c0.1,0,0.2,0.1,0.2,0.1s0,0.1,0,0.2
		c0.1,0.2,0.1,0.3,0.1,0.5C67.4,911.5,67.4,911.5,67.3,911.7z M67.6,922.6c0.1,0,0.1-0.1,0.2-0.1c0,0.1,0.1,0.2,0.1,0.3L67.6,922.6z
		 M73.7,918.3c-0.3-0.6-0.6-1.1-0.9-1.6c0,0,0-0.1,0.1-0.2l0.1-0.1c0.3,0.5,0.6,1,0.9,1.6C73.8,918.1,73.8,918.2,73.7,918.3z
		 M82.5,921.8c0.1,0,0.2,0,0.3,0.1C82.7,921.9,82.6,921.9,82.5,921.8z M84.8,921.8v-0.1c0.1,0.1,0.2,0.1,0.1,0.3
		C84.9,921.9,84.8,921.8,84.8,921.8z M85.6,918.9c0-0.1,0-0.2,0.1-0.3C85.7,918.8,85.6,918.9,85.6,918.9z M87.3,920.5
		c0,0-0.1,0-0.2-0.1c0,0-0.1,0-0.1-0.1c0.2-0.1,0.4-0.2,0.6-0.3c0.1,0.1,0.3,0.2,0.4,0.2C87.7,920.4,87.5,920.5,87.3,920.5z
		 M98.2,918.7c0.1,0.1,0.1,0.2,0.1,0.3C98.3,918.9,98.2,918.8,98.2,918.7z M100.4,909.1c0.1,0,0.2-0.1,0.2-0.1
		C100.6,909.1,100.5,909.1,100.4,909.1z M101.2,920.7c-0.3-0.1-0.5-0.2-0.6-0.3c0.1-0.1,0.3-0.2,0.4-0.3c0,0,0.1,0,0.2,0.1
		c0,0,0.1,0.1,0.2,0.1C101.3,920.4,101.2,920.5,101.2,920.7z M105.9,911.2c0,0-0.1,0.1-0.1,0.2c-0.1-0.1-0.3-0.1-0.4-0.2
		c0.1-0.3,0.2-0.5,0.3-0.6c0.1,0.2,0.2,0.3,0.3,0.4C106,911.1,105.9,911.1,105.9,911.2z M110.4,922.7l-0.3-0.2
		c0.3-0.3,0.5-0.5,0.8-0.7c0.1,0.1,0.1,0.2,0.2,0.2l0.1,0.1C110.9,922.4,110.7,922.6,110.4,922.7z M111.4,918.6
		c0.3-0.1,0.6-0.2,1-0.3c0,0.1,0.1,0.2,0.2,0.3C112.1,918.7,111.8,918.7,111.4,918.6z M113.2,906.9l-0.1,0.1c0-0.3-0.1-0.5-0.1-0.7
		v-0.1c0,0,0.1,0,0.1-0.1h0.1c0.1,0.3,0.1,0.5,0.2,0.7C113.4,906.8,113.3,906.8,113.2,906.9z M118.5,911.1L118.5,911.1
		c0,0.2-0.1,0.3-0.1,0.3C118.4,911.3,118.4,911.2,118.5,911.1z M117.6,915.1c-0.1-0.1-0.1-0.3-0.2-0.6c0.3-0.1,0.6-0.3,0.9-0.3
		c0,0,0.1,0,0.2,0.1l0.1,0.1L117.6,915.1z M119.3,910.6L119.3,910.6c-0.2,0-0.3-0.2-0.4-0.3c0.1-0.2,0.2-0.3,0.4-0.5
		c0.1,0.2,0.2,0.4,0.2,0.6C119.4,910.4,119.3,910.5,119.3,910.6z M122.1,916.7c0-0.1,0-0.2,0.1-0.3
		C122.2,916.5,122.2,916.6,122.1,916.7z M125,914.4c0-0.1,0.1-0.1,0.2-0.1C125.2,914.3,125.1,914.4,125,914.4z M126.5,910.7
		c0-0.1,0.1-0.1,0.2-0.1C126.7,910.6,126.6,910.6,126.5,910.7z M129.5,919.7c0-0.1,0.1-0.1,0.2-0.1
		C129.7,919.6,129.6,919.6,129.5,919.7z M130,914.6c-0.2-0.2-0.4-0.5-0.6-0.8c0,0,0-0.1,0.1-0.2c0,0,0-0.1,0.1-0.1l1,0.7
		C130.3,914.4,130.2,914.5,130,914.6z M131.4,919c-0.1,0.1-0.2,0.3-0.2,0.5c-0.1-0.2-0.3-0.4-0.4-0.6c0.1-0.3,0.2-0.5,0.3-0.7
		c0.1,0.2,0.3,0.5,0.3,0.7V919z M133.5,910.9c-0.2,0.1-0.3,0.3-0.5,0.5c-0.1-0.5-0.3-0.9-0.4-1.4c0.1-0.3,0.2-0.6,0.4-1
		c0.4,0.5,0.8,0.9,0.9,1.4C133.8,910.5,133.7,910.7,133.5,910.9z M141.2,908.2c0,0.1-0.1,0.1-0.2,0.1
		C141.1,908.3,141.1,908.2,141.2,908.2z M139.7,909.7c-0.1-0.2-0.3-0.5-0.3-0.7v-0.1c0-0.2,0.1-0.4,0.1-0.6c0.1,0.2,0.3,0.4,0.4,0.6
		C139.9,909.2,139.8,909.5,139.7,909.7z M141.3,914.2c0,0,0,0.1-0.1,0.1l-1-0.7c0.1-0.1,0.3-0.2,0.5-0.3
		C140.9,913.5,141.1,913.8,141.3,914.2C141.4,914,141.3,914.1,141.3,914.2z M144,917.3c0-0.1,0.1-0.1,0.2-0.1
		C144.2,917.3,144.1,917.3,144,917.3z M145.5,913.6c0-0.1,0.1-0.1,0.2-0.1C145.7,913.5,145.6,913.6,145.5,913.6z M148.5,911.4
		c0-0.1,0-0.2,0.1-0.3C148.6,911.3,148.6,911.3,148.5,911.4z M151.6,918c-0.1-0.2-0.2-0.4-0.2-0.6c0,0,0-0.1,0.1-0.1l0.1-0.1
		c0.1,0.1,0.2,0.3,0.3,0.4C151.8,917.8,151.7,917.9,151.6,918z M152.3,916.7c0-0.2,0-0.2,0.1-0.3h0.1
		C152.4,916.5,152.3,916.6,152.3,916.7z M152.5,913.7c0,0-0.1,0-0.2-0.1l-0.1-0.1l1-0.7c0.1,0.1,0.1,0.3,0.2,0.6
		C153.1,913.5,152.8,913.7,152.5,913.7z M157.6,921.8L157.6,921.8c-0.2-0.3-0.2-0.5-0.3-0.7c0,0,0.1-0.1,0.2-0.1l0.1-0.1
		c0.1,0.3,0.1,0.5,0.1,0.8C157.7,921.7,157.6,921.7,157.6,921.8z M158.4,909.5c0-0.1-0.1-0.2-0.2-0.3c0.4-0.1,0.8,0,1.2,0
		C159.1,909.3,158.8,909.4,158.4,909.5z M165.1,917.3c-0.1-0.1-0.2-0.3-0.3-0.4c0,0,0-0.1,0.1-0.2c0,0,0.1-0.1,0.1-0.2
		c0.1,0.1,0.3,0.1,0.4,0.2C165.2,916.9,165.1,917.1,165.1,917.3z M169.6,907.6c0,0-0.1-0.1-0.2-0.1c0.1-0.1,0.1-0.3,0.2-0.4
		c0.3,0.1,0.5,0.2,0.6,0.3c-0.2,0.2-0.3,0.3-0.4,0.3C169.8,907.7,169.7,907.7,169.6,907.6z M170.1,918.8c0-0.1,0.1-0.1,0.2-0.1
		C170.2,918.8,170.2,918.8,170.1,918.8z M183.2,907.8c-0.1-0.1-0.3-0.2-0.4-0.2c0.2-0.1,0.4-0.2,0.6-0.2c0,0,0.1,0,0.2,0.1l0.1,0.1
		C183.5,907.6,183.3,907.7,183.2,907.8z M188,906c0,0,0.1,0,0.2,0.1C188.1,906.1,188.1,906,188,906z M194,924.2c0-0.1,0-0.2,0.1-0.3
		C194.1,924,194,924.1,194,924.2z M197.9,911.3l-0.1,0.1c-0.3-0.5-0.7-1-0.9-1.5c0.1-0.1,0.1-0.2,0.2-0.3c0.3,0.6,0.6,1.1,0.9,1.6
		C198,911.2,197.9,911.2,197.9,911.3z M204.1,924.4c0-0.1,0-0.2,0.1-0.3C204.2,924.2,204.1,924.3,204.1,924.4z M203.9,917.2
		c-0.1,0-0.2,0.1-0.2,0.1c-0.1,0-0.2-0.1-0.2-0.1s0-0.1,0-0.2c0-0.1,0-0.3,0-0.5v-0.1c0,0,0-0.1,0.1-0.2c0-0.1,0.1-0.1,0.1-0.2
		c0.2,0.5,0.3,0.8,0.5,1.1C204,917.1,203.9,917.2,203.9,917.2z M206.8,916.6c-0.2,0.2-0.3,0.3-0.4,0.3c-0.1,0-0.2-0.1-0.4-0.3
		c-0.1-0.1-0.2-0.3-0.4-0.4c0.4-0.1,0.8-0.3,1.1-0.4c0.1,0,0.1,0,0.3,0.1c0.1,0,0.1,0.1,0.2,0.1
		C207.1,916.2,206.9,916.4,206.8,916.6z M208.5,910c0-0.1,0.1-0.1,0.2-0.1C208.6,910,208.6,910,208.5,910z M209.3,906.3
		c0-0.1,0-0.2,0.1-0.3l0.1,0.1C209.4,906.2,209.4,906.3,209.3,906.3z M210.4,919.3c-0.2-0.3-0.4-0.5-0.6-0.8c0,0,0-0.1,0.1-0.2
		c0,0,0-0.1,0.1-0.1c0.3,0.3,0.6,0.5,0.9,0.8C210.8,919.1,210.7,919.2,210.4,919.3z M212.2,918.9c0.1,0,0.2,0.1,0.3,0.1
		C212.4,919,212.3,919,212.2,918.9z M216,915.3c0-0.1,0.1-0.1,0.2-0.1C216.1,915.2,216,915.3,216,915.3z M222,911.6
		c0-0.1,0-0.2,0.1-0.3C222.1,911.4,222,911.5,222,911.6z M222,906.1c0,0.1,0.1,0.2,0.1,0.2C222,906.3,222,906.2,222,906.1z
		 M222.7,921.1c0.1,0.1,0.1,0.2,0.1,0.3C222.8,921.3,222.7,921.2,222.7,921.1z M224.3,914.3c0,0.1-0.1,0.2-0.1,0.3
		c-0.3-0.3-0.5-0.5-0.8-0.8c0-0.1,0.1-0.1,0.1-0.2v-0.1c0.3,0.1,0.7,0.3,0.9,0.5C224.4,914.1,224.4,914.2,224.3,914.3z M225,911.5
		c-0.1,0.1-0.2,0.3-0.2,0.4c-0.4-0.3-0.7-0.6-0.7-0.8c0,0,0-0.2,0.1-0.3c0-0.1,0.1-0.2,0.2-0.3c0.3,0.2,0.6,0.4,0.9,0.6
		C225.2,911.2,225.1,911.4,225,911.5z M225.7,910.8c0,0-0.1,0.1-0.2,0.1c0.1-0.1,0.1-0.2,0.2-0.2V910.8z M227.2,906.2
		c0,0,0.1,0.1,0.1,0.2C227.3,906.3,227.2,906.3,227.2,906.2z M229,917.7c-0.1,0-0.4-0.2-0.8-0.5c0.4-0.3,0.7-0.6,0.9-0.7h0.1
		c0.1,0.1,0.3,0.2,0.4,0.4C229.4,917.2,229.2,917.5,229,917.7z M230.2,910.1c-0.3-0.4-0.7-0.7-0.7-1c0,0,0.1-0.2,0.3-0.3
		c0.1-0.1,0.3-0.2,0.4-0.3c0.1,0.3,0.2,0.7,0.4,1C230.4,909.7,230.3,909.9,230.2,910.1z M231.1,923.4c0,0-0.1,0.1-0.1,0.2
		c-0.1-0.1-0.3-0.1-0.4-0.2c0.1-0.3,0.2-0.5,0.3-0.6c0.1,0.1,0.2,0.3,0.3,0.4C231.2,923.2,231.1,923.3,231.1,923.4z M235,912.4
		L235,912.4c-0.3-0.2-0.5-0.5-0.7-0.8c0.4-0.2,0.8-0.3,1.2-0.5c0.3,0.2,0.7,0.4,1,0.5C236,911.9,235.5,912.3,235,912.4z
		 M238.3,919.8c0.1-0.1,0.1-0.1,0.2-0.1C238.5,919.7,238.4,919.8,238.3,919.8z M239.8,921.3c0-0.1,0.1-0.1,0.2-0.1
		C239.9,921.2,239.9,921.3,239.8,921.3z M241.3,918.9c0.1,0,0.1,0.1,0.1,0.2C241.4,919,241.3,919,241.3,918.9z M244.2,909.8H244
		c-0.4-0.1-0.8-0.3-1.2-0.5c0,0,0-0.1,0-0.2s0-0.1,0-0.2c0.6,0,1.1,0,1.6,0.2c0,0,0.1,0.2,0.1,0.3c0,0.1,0,0.2,0.1,0.3
		C244.4,909.8,244.3,909.8,244.2,909.8z M245,913.7c0.1,0,0.2,0,0.2,0.1C245.1,913.8,245.1,913.7,245,913.7z M248,911.3
		c0.1,0.1,0.1,0.2,0.1,0.3C248.1,911.5,248,911.4,248,911.3z M248.7,920.5c0.1-0.1,0.1-0.1,0.2-0.1
		C248.9,920.5,248.8,920.5,248.7,920.5z M249.4,909.9c0.2,0,0.2,0.1,0.3,0.1C249.6,910,249.5,910,249.4,909.9z"/>
	<path class="st0" d="M222.9,925.5l0.2,0.2c0.1-0.1,0.1-0.2,0.2-0.3l-0.2-0.2C223,925.3,222.9,925.4,222.9,925.5z"/>
	<path class="st0" d="M226.8,925.2c0.1,0.1,0.1,0.2,0.2,0.3l0.1-0.2c0-0.1-0.1-0.2-0.2-0.3L226.8,925.2z"/>
	<path class="st0" d="M233,928.6c0.1,0.1,0.3,0.2,0.4,0.2c0.2,0,0.4-0.2,0.6-0.3c-0.1-0.1-0.3-0.2-0.4-0.3
		C233.4,928.4,233.2,928.5,233,928.6z"/>
	<path class="st0" d="M228.2,929.9h0.4c-0.1-0.1-0.1-0.2-0.2-0.3C228.4,929.7,228.3,929.8,228.2,929.9z"/>
	<path class="st0" d="M228.9,929.4l0.2-0.2C229.1,929.1,229.1,928.9,228.9,929.4z"/>
	<path class="st0" d="M228.7,929.9h0.2c0-0.2,0.1-0.4,0.1-0.5l-0.2,0.1C228.7,929.7,228.7,929.8,228.7,929.9z"/>
	<path class="st0" d="M228.9,928.4c-0.1,0.4-0.2,0.5-0.3,0.7c0,0.1,0,0.3,0,0.5h0.1C228.8,929.3,228.8,928.9,228.9,928.4z"/>
	<path class="st0" d="M114.5,926.3c-0.2,0.4-0.3,0.6-0.3,0.7c0,0.1,0,0.3,0,0.5h0.1c0,0.1-0.1,0.2-0.1,0.3h0.2
		c0-0.2,0.1-0.4,0.1-0.5l-0.2,0.1C114.4,927.1,114.4,926.7,114.5,926.3z"/>
	<path class="st0" d="M113.7,927.8h0.4c-0.1-0.1-0.1-0.2-0.2-0.3C113.9,927.6,113.8,927.7,113.7,927.8z"/>
	<path class="st0" d="M93.9,925.2c0.1,0.1,0.1,0.2,0.2,0.3l0.1-0.2c0-0.1-0.1-0.2-0.2-0.3L93.9,925.2z"/>
	<path class="st0" d="M118.8,927.9l0.2,0.2c0-0.1,0.1-0.2,0.1-0.3l-0.2-0.2C118.9,927.7,118.8,927.8,118.8,927.9z"/>
	<path class="st0" d="M115.6,928.7c0.1,0.1,0.2,0.1,0.3,0.2l0.2-0.2c-0.1,0-0.2-0.1-0.3-0.1L115.6,928.7z"/>
	<path class="st0" d="M90,925.5l0.2,0.2c0.1-0.1,0.1-0.2,0.2-0.3l-0.2-0.2C90.1,925.3,90,925.4,90,925.5z"/>
	<path class="st0" d="M134.8,931.4c0,0.2,0.2,0.3,0.3,0.4c0-0.1,0.1-0.3,0.2-0.7c-0.1,0-0.3-0.1-0.4-0.2
		C134.9,931.2,134.8,931.3,134.8,931.4z"/>
	<path class="st0" d="M29.9,926.6c0-0.1,0.1-0.2,0.1-0.4l-0.3-0.2C29.8,926.3,29.9,926.5,29.9,926.6z"/>
	<path class="st0" d="M35.2,928.1c0.1,0,0.2,0.1,0.3,0.1l0.2-0.2c-0.1-0.1-0.2-0.1-0.3-0.2L35.2,928.1z"/>
	<path class="st0" d="M76.3,927.1l0.2,0.2c0-0.1,0.1-0.2,0.1-0.3l-0.2-0.2C76.4,926.9,76.3,927,76.3,927.1z"/>
	<path class="st0" d="M36.1,927.6c0.1,0.1,0.2,0.1,0.3,0.2l0.2-0.2c-0.1,0-0.2-0.1-0.3-0.1L36.1,927.6z"/>
	<path class="st0" d="M43.4,935.7l0.2,0.2c0.1-0.1,0.2-0.1,0.3-0.2l-0.2-0.1C43.6,935.5,43.5,935.6,43.4,935.7z"/>
	<path class="st0" d="M114.4,927.3l0.2-0.2C114.7,927,114.6,926.8,114.4,927.3z"/>
	<path class="st0" d="M131.5,931.3c0,0,0.1,0.2,0.1,0.3c0.1-0.1,0.1-0.1,0.3-0.4v-0.1C131.7,931.2,131.6,931.2,131.5,931.3z"/>
	<path class="st0" d="M128,930.6l0.2,0.2c0-0.1,0.1-0.2,0.1-0.3l-0.2-0.2C128.1,930.4,128,930.5,128,930.6z"/>
	<path class="st0" d="M129.3,926.9c0,0.1,0.1,0.2,0.2,0.3l0.2-0.2c-0.1-0.1-0.1-0.2-0.2-0.3L129.3,926.9z"/>
	<path class="st0" d="M132.3,930.7C132.3,930.7,132.3,930.7,132.3,930.7C132.3,930.7,132.3,930.7,132.3,930.7z"/>
	<path class="st0" d="M132,930.9L132,930.9c0-0.1,0.1-0.2,0.2-0.3l-0.3,0.3L132,930.9l-0.1,0.3v0.1C132,931.2,132,931.1,132,930.9
		L132,930.9c0.1,0,0.1-0.1,0.2-0.2C132.2,930.8,132.1,930.8,132,930.9z"/>
	<path class="st0" d="M131.3,929.4c0.1,0.1,0.3,0.2,0.5,0.3c0.2-0.2,0.4-0.4,0.5-0.6c0-0.1-0.1-0.3-0.2-0.4
		C131.8,928.9,131.6,929.2,131.3,929.4z"/>
	<path class="st0" d="M122.6,925.6l-0.3,0.3l0.1,0.1l-0.1,0.2v0.1c0.1-0.1,0.1-0.2,0.2-0.3l-0.1-0.1
		C122.5,925.8,122.5,925.7,122.6,925.6z"/>
	<path class="st0" d="M121.9,926.3c0,0,0.1,0.2,0.1,0.3c0.1-0.1,0.1-0.1,0.3-0.4v-0.1C122.2,926.1,122,926.2,121.9,926.3z"/>
	<path class="st0" d="M127.4,929.6l0.2,0.1c0.1,0,0.2-0.1,0.3-0.2l-0.2-0.1C127.6,929.4,127.5,929.5,127.4,929.6z"/>
	<path class="st0" d="M119.2,926.7c0,0.1,0.1,0.2,0.2,0.3l0.2-0.2c-0.1-0.1-0.1-0.2-0.2-0.3L119.2,926.7z"/>
	<path class="st0" d="M122.5,926c0.1-0.1,0.2-0.1,0.3-0.3C122.7,925.8,122.7,925.7,122.5,926z"/>
	<path class="st0" d="M123.6,927.6c0.1,0.1,0.2,0.1,0.3,0.2l0.2-0.2c-0.1,0-0.2-0.1-0.3-0.1L123.6,927.6z"/>
</g>
</svg>
